<svg width="22" height="21" viewBox="0 0 22 21" fill="none" xmlns="http://www.w3.org/2000/svg">
<g id="calendar">
<path id="Vector" d="M18.0388 3.28149H4.91382C3.82651 3.28149 2.94507 4.16293 2.94507 5.25024V17.0627C2.94507 18.1501 3.82651 19.0315 4.91382 19.0315H18.0388C19.1261 19.0315 20.0076 18.1501 20.0076 17.0627V5.25024C20.0076 4.16293 19.1261 3.28149 18.0388 3.28149Z" stroke="white" stroke-width="1.00189" stroke-linejoin="round"/>
<path id="Vector_2" d="M13.1223 10.51C13.6686 10.51 14.1114 10.0671 14.1114 9.52086C14.1114 8.97458 13.6686 8.53174 13.1223 8.53174C12.576 8.53174 12.1332 8.97458 12.1332 9.52086C12.1332 10.0671 12.576 10.51 13.1223 10.51Z" fill="white"/>
<path id="Vector_3" d="M16.4021 10.51C16.9484 10.51 17.3912 10.0671 17.3912 9.52086C17.3912 8.97458 16.9484 8.53174 16.4021 8.53174C15.8558 8.53174 15.413 8.97458 15.413 9.52086C15.413 10.0671 15.8558 10.51 16.4021 10.51Z" fill="white"/>
<path id="Vector_4" d="M13.1223 13.791C13.6686 13.791 14.1114 13.3481 14.1114 12.8019C14.1114 12.2556 13.6686 11.8127 13.1223 11.8127C12.576 11.8127 12.1332 12.2556 12.1332 12.8019C12.1332 13.3481 12.576 13.791 13.1223 13.791Z" fill="white"/>
<path id="Vector_5" d="M16.4021 13.791C16.9484 13.791 17.3912 13.3481 17.3912 12.8019C17.3912 12.2556 16.9484 11.8127 16.4021 11.8127C15.8558 11.8127 15.413 12.2556 15.413 12.8019C15.413 13.3481 15.8558 13.791 16.4021 13.791Z" fill="white"/>
<path id="Vector_6" d="M6.55968 13.791C7.10595 13.791 7.54879 13.3481 7.54879 12.8019C7.54879 12.2556 7.10595 11.8127 6.55968 11.8127C6.0134 11.8127 5.57056 12.2556 5.57056 12.8019C5.57056 13.3481 6.0134 13.791 6.55968 13.791Z" fill="white"/>
<path id="Vector_7" d="M9.83983 13.791C10.3861 13.791 10.8289 13.3481 10.8289 12.8019C10.8289 12.2556 10.3861 11.8127 9.83983 11.8127C9.29355 11.8127 8.85071 12.2556 8.85071 12.8019C8.85071 13.3481 9.29355 13.791 9.83983 13.791Z" fill="white"/>
<path id="Vector_8" d="M6.55968 17.0725C7.10595 17.0725 7.54879 16.6296 7.54879 16.0834C7.54879 15.5371 7.10595 15.0942 6.55968 15.0942C6.0134 15.0942 5.57056 15.5371 5.57056 16.0834C5.57056 16.6296 6.0134 17.0725 6.55968 17.0725Z" fill="white"/>
<path id="Vector_9" d="M9.83983 17.0725C10.3861 17.0725 10.8289 16.6296 10.8289 16.0834C10.8289 15.5371 10.3861 15.0942 9.83983 15.0942C9.29355 15.0942 8.85071 15.5371 8.85071 16.0834C8.85071 16.6296 9.29355 17.0725 9.83983 17.0725Z" fill="white"/>
<path id="Vector_10" d="M13.1223 17.0725C13.6686 17.0725 14.1114 16.6296 14.1114 16.0834C14.1114 15.5371 13.6686 15.0942 13.1223 15.0942C12.576 15.0942 12.1332 15.5371 12.1332 16.0834C12.1332 16.6296 12.576 17.0725 13.1223 17.0725Z" fill="white"/>
<path id="Vector_11" d="M6.2262 1.96899V3.2933" stroke="white" stroke-width="1.00189" stroke-linecap="round" stroke-linejoin="round"/>
<path id="Vector_12" d="M16.7267 1.96899V3.2933" stroke="white" stroke-width="1.00189" stroke-linecap="round" stroke-linejoin="round"/>
<path id="Vector_13" d="M20.0076 6.56299H2.94507" stroke="white" stroke-width="1.00189" stroke-linejoin="round"/>
</g>
</svg>
