<svg width="25" height="23" viewBox="0 0 25 23" fill="none" xmlns="http://www.w3.org/2000/svg">
<g id="chatbubble-ellipses">
<path id="Vector" d="M5.00814 17.0693C5.06439 16.8726 4.94111 16.599 4.82346 16.4018C4.78698 16.3429 4.74724 16.2859 4.70439 16.2311C3.6953 14.7645 3.15746 13.0464 3.15752 11.2897C3.14064 6.24721 7.50377 2.15527 12.8991 2.15527C17.6044 2.15527 21.5325 5.27914 22.4499 9.42588C22.5875 10.0407 22.6571 10.6676 22.6575 11.2964C22.6575 16.3461 18.4627 20.5023 13.0674 20.5023C12.2091 20.5023 11.0517 20.2956 10.4203 20.1263C9.78893 19.9569 9.15846 19.7323 8.9958 19.6721C8.82928 19.6108 8.65246 19.5793 8.47408 19.5791C8.27957 19.5785 8.08694 19.6156 7.90783 19.6883L4.72783 20.788C4.65834 20.8168 4.58469 20.8352 4.50939 20.8428C4.44984 20.8426 4.39091 20.8311 4.33602 20.809C4.28113 20.7868 4.23136 20.7545 4.1896 20.7138C4.14784 20.6731 4.11491 20.6249 4.09273 20.5719C4.07054 20.519 4.05953 20.4623 4.06033 20.4052C4.06424 20.3552 4.07367 20.3056 4.08846 20.2574L5.00814 17.0693Z" stroke="white" stroke-width="1.00189" stroke-miterlimit="10" stroke-linecap="round"/>
<path id="Vector_2" d="M8.40809 12.9394C9.23712 12.9394 9.90919 12.2953 9.90919 11.5008C9.90919 10.7063 9.23712 10.0623 8.40809 10.0623C7.57905 10.0623 6.90698 10.7063 6.90698 11.5008C6.90698 12.2953 7.57905 12.9394 8.40809 12.9394Z" fill="white"/>
<path id="Vector_3" d="M12.9078 12.9394C13.7369 12.9394 14.4089 12.2953 14.4089 11.5008C14.4089 10.7063 13.7369 10.0623 12.9078 10.0623C12.0788 10.0623 11.4067 10.7063 11.4067 11.5008C11.4067 12.2953 12.0788 12.9394 12.9078 12.9394Z" fill="white"/>
<path id="Vector_4" d="M17.4085 12.9394C18.2375 12.9394 18.9096 12.2953 18.9096 11.5008C18.9096 10.7063 18.2375 10.0623 17.4085 10.0623C16.5794 10.0623 15.9073 10.7063 15.9073 11.5008C15.9073 12.2953 16.5794 12.9394 17.4085 12.9394Z" fill="white"/>
</g>
</svg>
