<svg width="45" height="45" viewBox="0 0 45 45" fill="none" xmlns="http://www.w3.org/2000/svg">
<g id="noun-dumbbell-1199343 1">
<g id="Group">
<path id="Vector" d="M11.0554 29.8176H10.3813C9.45167 29.8176 8.69617 28.8627 8.69617 27.6892V18.3889C8.69617 17.2154 9.45192 16.2605 10.3813 16.2605H11.0554C11.9851 16.2605 12.7406 17.2154 12.7406 18.3889V27.6892C12.7408 28.8627 11.9851 29.8176 11.0554 29.8176ZM10.3813 17.1123C9.82383 17.1123 9.37029 17.6851 9.37029 18.3892V27.6895C9.37029 28.3936 9.82385 28.9664 10.3813 28.9664H11.0554C11.6129 28.9664 12.0664 28.3936 12.0664 27.6895L12.0667 18.39C12.0667 17.6859 11.6131 17.1131 11.0557 17.1131L10.3813 17.1123Z" fill="white" stroke="white" stroke-width="0.6"/>
<path id="Vector_2" d="M14.4262 33.0698H13.752C12.8224 33.0698 12.0669 32.115 12.0669 30.9414L12.0669 15.1284C12.0669 13.9549 12.8226 13 13.752 13H14.4262C15.3558 13 16.1113 13.9549 16.1113 15.1284V30.9414C16.1113 32.115 15.3555 33.0698 14.4262 33.0698ZM13.752 13.8518C13.1946 13.8518 12.741 14.4246 12.741 15.1287L12.741 30.9418C12.741 31.6459 13.1946 32.2187 13.752 32.2187H14.4262C14.9836 32.2187 15.4372 31.6458 15.4372 30.9418V15.1287C15.4372 14.4246 14.9836 13.8518 14.4262 13.8518H13.752Z" fill="white" stroke="white" stroke-width="0.6"/>
<path id="Vector_3" d="M33.3004 29.8176H32.6263C31.6967 29.8176 30.9412 28.8627 30.9412 27.6892L30.9409 18.3889C30.9409 17.2154 31.6967 16.2605 32.626 16.2605H33.3002C34.2298 16.2605 34.9853 17.2154 34.9853 18.3889V27.6892C34.9856 28.8627 34.2298 29.8176 33.3004 29.8176H33.3004ZM32.6263 17.1123C32.0688 17.1123 31.6153 17.6851 31.6153 18.3892V27.6895C31.6153 28.3936 32.0688 28.9664 32.6263 28.9664H33.3004C33.8579 28.9664 34.3114 28.3936 34.3114 27.6895V18.39C34.3114 17.6859 33.8579 17.1131 33.3004 17.1131L32.6263 17.1123Z" fill="white" stroke="white" stroke-width="0.6"/>
<path id="Vector_4" d="M29.9299 33.0698H29.2558C28.3262 33.0698 27.5707 32.115 27.5707 30.9414V15.1284C27.5707 13.9549 28.3264 13 29.2558 13H29.9299C30.8596 13 31.6151 13.9549 31.6151 15.1284V30.9414C31.6151 32.115 30.8596 33.0698 29.9299 33.0698ZM29.2558 13.8518C28.6983 13.8518 28.2448 14.4246 28.2448 15.1287V30.9418C28.2448 31.6459 28.6984 32.2187 29.2558 32.2187H29.9299C30.4874 32.2187 30.9409 31.6458 30.9409 30.9418V15.1287C30.9409 14.4246 30.4874 13.8518 29.9299 13.8518H29.2558Z" fill="white" stroke="white" stroke-width="0.6"/>
<path id="Vector_5" d="M27.9075 25.1649H15.7744C15.5881 25.1649 15.4375 24.9744 15.4375 24.7394V21.3338C15.4375 21.0984 15.5884 20.9082 15.7744 20.9082H27.9081C28.0944 20.9082 28.245 21.0987 28.245 21.3338V24.7394C28.245 24.9744 28.0942 25.1649 27.9079 25.1649H27.9075ZM16.1112 24.3135H27.5707V21.7592H16.1112V24.3135Z" fill="white" stroke="white" stroke-width="0.6"/>
<path id="Vector_6" d="M35.9962 25.1649H34.648C34.4616 25.1649 34.311 24.9744 34.311 24.7394V21.3338C34.311 21.0984 34.4619 20.9082 34.648 20.9082H35.9962C36.9258 20.9082 37.6813 21.8631 37.6813 23.0366C37.6815 24.2101 36.9258 25.165 35.9962 25.165V25.1649ZM34.9851 24.3135H35.9962C36.5536 24.3135 37.0072 23.7406 37.0072 23.0366C37.0072 22.3325 36.5536 21.7596 35.9962 21.7596H34.9851V24.3135Z" fill="white" stroke="white" stroke-width="0.6"/>
<path id="Vector_7" d="M9.03307 25.165H7.68513C6.7555 25.165 6 24.2101 6 23.0366C6 21.8631 6.75575 20.9082 7.68513 20.9082H9.03332C9.21964 20.9082 9.37025 21.0987 9.37025 21.3338V24.7394C9.37025 24.9744 9.21939 25.1649 9.03308 25.1649L9.03307 25.165ZM7.68513 21.7593C7.12766 21.7593 6.67413 22.3322 6.67413 23.0363C6.67413 23.7403 7.12768 24.3132 7.68513 24.3132H8.69613V21.7589L7.68513 21.7593Z" fill="white" stroke="white" stroke-width="0.6"/>
</g>
</g>
</svg>
