<svg width="24" height="25" viewBox="0 0 24 25" fill="none" xmlns="http://www.w3.org/2000/svg">
<g id="grid">
<path id="Vector" d="M9.5633 2.75049H3.18739C2.66955 2.75049 2.24976 3.17028 2.24976 3.68812V10.064C2.24976 10.5819 2.66955 11.0017 3.18739 11.0017H9.5633C10.0811 11.0017 10.5009 10.5819 10.5009 10.064V3.68812C10.5009 3.17028 10.0811 2.75049 9.5633 2.75049Z" stroke="white" stroke-width="1.00189" stroke-linecap="round" stroke-linejoin="round"/>
<path id="Vector_2" d="M20.8135 2.75024H14.4376C13.9198 2.75024 13.5 3.17004 13.5 3.68788V10.0638C13.5 10.5816 13.9198 11.0014 14.4376 11.0014H20.8135C21.3314 11.0014 21.7512 10.5816 21.7512 10.0638V3.68788C21.7512 3.17004 21.3314 2.75024 20.8135 2.75024Z" stroke="white" stroke-width="1.00189" stroke-linecap="round" stroke-linejoin="round"/>
<path id="Vector_3" d="M9.56293 14.0002H3.18702C2.66918 14.0002 2.24939 14.42 2.24939 14.9379V21.3138C2.24939 21.8316 2.66918 22.2514 3.18702 22.2514H9.56293C10.0808 22.2514 10.5006 21.8316 10.5006 21.3138V14.9379C10.5006 14.42 10.0808 14.0002 9.56293 14.0002Z" stroke="white" stroke-width="1.00189" stroke-linecap="round" stroke-linejoin="round"/>
<path id="Vector_4" d="M20.8135 14.0002H14.4376C13.9198 14.0002 13.5 14.42 13.5 14.9379V21.3138C13.5 21.8316 13.9198 22.2514 14.4376 22.2514H20.8135C21.3314 22.2514 21.7512 21.8316 21.7512 21.3138V14.9379C21.7512 14.42 21.3314 14.0002 20.8135 14.0002Z" stroke="white" stroke-width="1.00189" stroke-linecap="round" stroke-linejoin="round"/>
</g>
</svg>
