<svg width="21" height="21" viewBox="0 0 21 21" fill="none" xmlns="http://www.w3.org/2000/svg">
<g id="Group">
<path id="Vector" d="M9.79536 16.2344L7.51922 19.6837C7.25059 20.0882 6.8314 20.3695 6.35446 20.4655C6.24116 20.4881 6.12578 20.4996 6.01024 20.4997C5.67362 20.5005 5.34447 20.4002 5.06568 20.212C4.66748 19.9467 4.3993 19.5271 4.32626 19.0552C4.25067 18.5849 4.37202 18.1044 4.66168 17.7258L7.79262 13.6778H7.79277C7.93737 13.4913 8.20616 13.457 8.39324 13.6011C8.58033 13.7451 8.61477 14.0132 8.47016 14.1997L5.33923 18.2477C5.19239 18.4407 5.13201 18.6856 5.17256 18.9244C5.21296 19.1633 5.35071 19.3747 5.55301 19.5089C5.74129 19.6345 5.97235 19.6789 6.19405 19.6326C6.44688 19.582 6.66915 19.4333 6.81169 19.2193L9.07932 15.7657C9.2108 15.5736 9.4726 15.5221 9.66742 15.6501C9.86227 15.778 9.91817 16.0381 9.7931 16.2344L9.79536 16.2344ZM18.7883 0.962919C17.9912 0.396244 16.9076 0.353596 15.7407 0.845814C14.5374 1.39388 13.5066 2.25868 12.7595 3.34694C11.6781 4.85967 11.1715 6.59173 11.4066 7.98078C11.4586 8.30237 11.43 8.63168 11.3233 8.93946C11.2471 9.16253 11.3666 9.40475 11.5904 9.48072C11.814 9.55652 12.057 9.43733 12.1332 9.21441C12.2856 8.77302 12.326 8.30088 12.2508 7.8402C12.0563 6.68547 12.518 5.15361 13.4563 3.84133H13.4561C14.1095 2.88249 15.0124 2.11879 16.0679 1.63208C16.9526 1.26144 17.7392 1.26992 18.2863 1.65972C18.8334 2.04953 19.1005 2.7868 19.0364 3.74118L19.0363 3.74133C18.9197 4.89484 18.4905 5.99517 17.7946 6.9243C16.865 8.23878 15.5528 9.17399 14.3944 9.36585C13.942 9.44342 13.5152 9.62904 13.1505 9.90696C13.0509 9.98275 12.956 10.0646 12.8662 10.152C12.7107 10.3183 12.7137 10.5772 12.8731 10.7399C13.0323 10.9028 13.2919 10.9122 13.4625 10.7613C13.5301 10.6979 13.6013 10.6389 13.6763 10.5845C13.9299 10.3904 14.2269 10.2602 14.5419 10.2052C15.9374 9.97293 17.4143 8.92684 18.4979 7.4186V7.41845C19.2857 6.36035 19.7696 5.10827 19.8978 3.79664C19.9747 2.53759 19.5815 1.52987 18.7885 0.963077L18.7883 0.962919ZM9.45952 8.71147C9.43969 8.67654 9.43969 8.63359 9.45952 8.59867C9.83832 7.74503 9.7377 6.75545 9.19446 5.99513L5.3773 0.686C5.31245 0.591185 5.21197 0.526539 5.09867 0.506475C4.98537 0.486561 4.86865 0.513014 4.77517 0.579889C4.6817 0.646616 4.61909 0.748267 4.60165 0.861655C4.58435 0.975047 4.61357 1.09066 4.68274 1.18236L8.4954 6.49149C8.86347 7.00596 8.93176 7.67578 8.67489 8.25341C8.60288 8.41138 8.57485 8.58585 8.59408 8.75838C8.61332 8.93091 8.67891 9.09498 8.78401 9.23348L15.8367 18.3265H15.8366C15.9773 18.5023 16.0395 18.7279 16.0084 18.9507C15.9774 19.1734 15.8561 19.3736 15.6727 19.5047C15.4895 19.6356 15.2602 19.6858 15.0387 19.6436C14.8172 19.6013 14.6226 19.4702 14.5008 19.2809L8.10225 9.71493C8.0052 9.56974 7.87044 9.45353 7.71241 9.37848C7.55439 9.30357 7.37892 9.27251 7.20464 9.28871C6.57329 9.34682 5.9582 9.06817 5.58683 8.5559L1.78059 3.25971C1.71559 3.16489 1.61526 3.10025 1.50181 3.08018C1.38851 3.06027 1.27194 3.08672 1.17846 3.15345C1.08484 3.22032 1.02238 3.32197 1.00493 3.43537C0.987493 3.54876 1.01671 3.66438 1.08588 3.75607L4.89648 9.06329C5.44539 9.82194 6.35594 10.2345 7.29023 10.1477C7.33048 10.1415 7.37103 10.1568 7.39712 10.1881L13.7873 19.7522C14.0379 20.1313 14.4334 20.3915 14.8815 20.4722C14.9825 20.4906 15.0847 20.4999 15.1871 20.5C15.6069 20.4988 16.0111 20.3408 16.3197 20.0571C16.6283 19.7736 16.8191 19.385 16.8543 18.9679C16.8896 18.5509 16.7668 18.136 16.5101 17.8048L9.45952 8.71147ZM6.72812 7.56537C6.88779 7.56567 7.03433 7.47725 7.10812 7.33607C7.18177 7.19489 7.17044 7.02443 7.07861 6.89425L3.59512 1.93438C3.4599 1.74133 3.19352 1.69407 2.99983 1.82886C2.80633 1.96366 2.75893 2.22921 2.89414 2.42228L6.37778 7.38216H6.37763C6.45739 7.49674 6.58828 7.5651 6.72811 7.5654L6.72812 7.56537Z" fill="white" stroke="white" stroke-width="0.4"/>
</g>
</svg>
