<svg width="23" height="23" viewBox="0 0 23 23" fill="none" xmlns="http://www.w3.org/2000/svg">
<g id="people" clip-path="url(#clip0_110_23614)">
<path id="Vector" d="M18.2368 7.71968C18.1105 9.46747 16.8099 10.8139 15.3916 10.8139C13.9732 10.8139 12.6705 9.4679 12.5463 7.71968C12.417 5.90141 13.6831 4.62549 15.3916 4.62549C17.1 4.62549 18.3661 5.9345 18.2368 7.71968Z" stroke="white" stroke-width="1.00189" stroke-linecap="round" stroke-linejoin="round"/>
<path id="Vector_2" d="M15.3907 13.5635C12.5816 13.5635 9.88034 14.9544 9.20362 17.6631C9.11396 18.0215 9.33939 18.376 9.70879 18.376H21.073C21.4424 18.376 21.6666 18.0215 21.5782 17.6631C20.9015 14.911 18.2002 13.5635 15.3907 13.5635Z" stroke="white" stroke-width="1.00189" stroke-miterlimit="10"/>
<path id="Vector_3" d="M9.52989 8.49136C9.42898 9.88755 8.37769 10.9871 7.24447 10.9871C6.11125 10.9871 5.05823 9.88798 4.95905 8.49136C4.85599 7.03885 5.87926 6.00073 7.24447 6.00073C8.60968 6.00073 9.63295 7.0655 9.52989 8.49136Z" stroke="white" stroke-width="1.00189" stroke-linecap="round" stroke-linejoin="round"/>
<path id="Vector_4" d="M9.78751 13.6488C9.00938 13.2934 8.15236 13.1567 7.24404 13.1567C5.00234 13.1567 2.84255 14.2676 2.30152 16.4314C2.23039 16.7176 2.41059 17.0008 2.70546 17.0008H7.54581" stroke="white" stroke-width="1.00189" stroke-miterlimit="10" stroke-linecap="round"/>
</g>
<defs>
<clipPath id="clip0_110_23614">
<rect width="22.069" height="22" fill="white" transform="translate(0.907227 0.5)"/>
</clipPath>
</defs>
</svg>
