<svg width="25" height="17" viewBox="0 0 25 17" fill="none" xmlns="http://www.w3.org/2000/svg">
<g id="Layer_1">
<g clip-path="url(#clip0_116_912)">
<path id="Vector" d="M25.0003 0.0217227V5.68825C24.9587 5.68653 24.9171 5.68353 24.8759 5.68353C16.6256 5.68353 8.3753 5.68353 0.124983 5.68353C0.0834056 5.68353 0.0418285 5.68653 0.000671387 5.68825V0.0217227C1.64318 0.0217227 3.28568 0.0217227 4.9286 0.020866C4.9664 0.020866 5.00462 0.0075864 5.04242 0.000732422C5.06341 0.000732422 5.08399 0.000732422 5.10499 0.000732422C5.13607 0.00801477 5.16715 0.020866 5.19823 0.020866C9.28202 0.0217227 13.3658 0.0217227 17.4492 0.020866C17.4803 0.020866 17.5113 0.0075864 17.5424 0.000732422C17.5634 0.000732422 17.584 0.000732422 17.605 0.000732422C17.6428 0.00801477 17.681 0.020866 17.7188 0.020866C20.1462 0.0217227 22.5732 0.0217227 25.0007 0.0217227H25.0003Z" fill="#CE1126"/>
<path id="Vector_2" d="M25 11.3546V17.0001H0C0 15.1183 0 13.2364 0 11.3546C0.0377973 11.3516 0.0755947 11.3464 0.112972 11.3464C8.37085 11.3464 16.6287 11.3464 24.8866 11.3464C24.9244 11.3464 24.9622 11.3516 24.9996 11.3546H25Z" fill="black"/>
<path id="Vector_3" d="M25 11.3546C24.9622 11.3516 24.9244 11.3464 24.887 11.3464C16.6292 11.3464 8.37128 11.3464 0.113399 11.3464C0.075602 11.3464 0.0378046 11.3516 0.000427246 11.3546C0.000427246 9.46589 0.000427246 7.57676 0.000427246 5.68806C0.0420043 5.68635 0.0835814 5.68335 0.124738 5.68335C8.37506 5.68335 16.6254 5.68335 24.8757 5.68335C24.9173 5.68335 24.9588 5.68635 25 5.68806V11.3546ZM12.4723 7.24263V7.24391C12.4966 7.32145 12.513 7.24691 12.5332 7.24006C12.5403 7.23063 12.5475 7.22164 12.555 7.21221C12.5853 7.18908 12.6155 7.16595 12.6483 7.14153C12.6159 7.07342 12.5827 7.00488 12.55 6.93591C12.5407 6.93977 12.5315 6.94362 12.5227 6.94748C12.537 7.02801 12.6231 7.10641 12.5382 7.19037C12.5189 7.19765 12.4996 7.20536 12.4798 7.21264C12.4719 7.21478 12.4643 7.21736 12.4563 7.2195C12.4618 7.22721 12.4672 7.23492 12.4727 7.24263H12.4723ZM11.1469 9.86642C11.1406 9.87413 11.1347 9.88184 11.1284 9.88912C11.1204 9.85614 11.1044 9.82315 11.1053 9.79059C11.1086 9.67194 11.1229 9.55328 11.1238 9.43419C11.1254 9.09663 11.1406 8.76036 11.1645 8.42408C11.1821 8.17862 11.18 7.93188 11.188 7.68557C11.1893 7.6513 11.1964 7.6166 11.2036 7.58276C11.2514 7.357 11.1973 7.22164 11.0209 7.13725C11.0066 7.34801 10.9852 7.55748 10.9806 7.76696C10.9738 8.06382 10.9734 8.36068 10.9373 8.65626C10.9184 8.81176 10.9423 8.96726 10.923 9.12619C10.8848 9.4419 10.8861 9.76232 10.8709 10.0806C10.8533 10.084 10.8357 10.0875 10.8176 10.0913C10.8294 9.88955 10.8436 9.68821 10.8529 9.48645C10.8684 9.15746 10.8835 8.82847 10.894 8.49948C10.9045 8.17648 10.9066 7.85349 10.9167 7.53092C10.9213 7.38571 10.9352 7.24049 10.9461 7.07514C10.8798 7.09955 10.8361 7.1154 10.7924 7.13168C10.776 7.15353 10.7273 7.07299 10.7286 7.15224C10.7223 7.20322 10.7118 7.25419 10.7105 7.3056C10.7093 7.35272 10.7227 7.4007 10.7193 7.44739C10.7118 7.55577 10.6719 7.66972 10.6946 7.76953C10.7156 7.86163 10.708 7.94431 10.6832 8.02098C10.6248 8.20047 10.7046 8.37868 10.6551 8.56502C10.6038 8.75864 10.6311 8.97369 10.6244 9.17931C10.6173 9.40763 10.611 9.63552 10.603 9.86385C10.6017 9.90497 10.5887 9.94609 10.5883 9.98679C10.5862 10.1243 10.5875 10.2622 10.5875 10.4297C10.6815 10.3436 10.7529 10.2828 10.8172 10.2155C10.8378 10.1941 10.8399 10.1551 10.8508 10.1239C10.8592 10.1234 10.868 10.1226 10.8764 10.1222C10.9394 10.0763 11.002 10.0301 11.065 9.98422C11.0797 9.97137 11.0944 9.95809 11.1091 9.94524C11.1154 9.93367 11.1217 9.92253 11.1275 9.91097C11.1477 9.89812 11.1674 9.88569 11.1876 9.87284C11.188 9.8617 11.1884 9.851 11.1889 9.83986C11.1746 9.84885 11.1599 9.85742 11.1456 9.86642H11.1469ZM12.5445 7.38271C12.5055 7.38699 12.466 7.3917 12.4269 7.39599C12.4013 7.41226 12.3761 7.42897 12.3505 7.44525C12.3413 7.44996 12.3324 7.45467 12.3232 7.45981C12.1208 7.55191 11.9074 7.5939 11.6865 7.60118C11.6412 7.58104 11.5954 7.56048 11.5328 7.53264C11.5072 8.22189 11.4824 8.89572 11.4572 9.56955C11.4299 9.59183 11.4026 9.61368 11.3753 9.63595C11.3892 9.24999 11.4039 8.86445 11.4165 8.47849C11.4253 8.2039 11.4308 7.92931 11.4375 7.65472C11.4383 7.62645 11.4354 7.59775 11.4383 7.56991C11.4488 7.46581 11.411 7.41655 11.3023 7.39299C11.2918 7.51422 11.2779 7.63545 11.2716 7.75668C11.2556 8.06125 11.2409 8.36625 11.23 8.67125C11.2199 8.94199 11.2174 9.21272 11.2078 9.48302C11.2036 9.60297 11.1897 9.72248 11.18 9.84243C11.1889 9.84628 11.1977 9.84971 11.2065 9.85357C11.2363 9.82701 11.2661 9.80002 11.2955 9.77346C11.3501 9.72163 11.4043 9.66936 11.4589 9.61753C11.4791 9.60725 11.4996 9.5974 11.5198 9.58712C11.5269 9.59354 11.5416 9.60254 11.5404 9.60682C11.4946 9.76575 11.4471 9.92382 11.4001 10.0823V10.2065C11.2918 10.2134 11.204 10.219 11.1166 10.2245C11.1166 10.2322 11.1175 10.2395 11.1175 10.2472C11.1338 10.2511 11.1502 10.2554 11.167 10.2592C11.1691 10.2652 11.1733 10.2695 11.1792 10.2721C11.1956 10.3402 11.1737 10.3856 11.1049 10.4036C11.0906 10.3813 11.0763 10.359 11.062 10.3368C11.0729 10.3312 11.0843 10.3252 11.0952 10.3196L11.0801 10.2978C11.0671 10.3089 11.0545 10.3205 11.0414 10.3316C11.0322 10.3817 11.0377 10.4439 11.01 10.479C10.9554 10.548 10.8823 10.6015 10.8231 10.6559C10.8676 10.7527 10.9087 10.8534 10.9604 10.9481C10.9856 10.9939 11.0247 11.0534 11.0675 11.0641C11.4371 11.1567 11.8134 11.2055 12.1947 11.2072C12.4274 11.2085 12.6613 11.2239 12.8918 11.2017C13.0472 11.1867 13.203 11.2077 13.3588 11.167C13.5289 11.1228 13.7057 11.104 13.8809 11.0817C13.9527 11.0727 13.9905 11.0372 14.0182 10.975C14.0669 10.8662 14.1198 10.7587 14.1736 10.6456C14.0791 10.563 13.9132 10.5141 13.9397 10.3192C13.9271 10.3458 13.9145 10.3723 13.9014 10.4002C13.8208 10.3925 13.8065 10.3419 13.82 10.2729C13.8263 10.2708 13.8305 10.2661 13.8326 10.2601C13.854 10.2524 13.8754 10.2447 13.8972 10.237C13.8956 10.2314 13.8939 10.2258 13.8918 10.2203C13.7902 10.2151 13.6889 10.2095 13.5865 10.2044C13.5835 10.1594 13.581 10.1213 13.5785 10.0832C13.5453 9.98422 13.5058 9.88655 13.4806 9.78545C13.4622 9.71177 13.3971 9.6321 13.4823 9.5567C13.5298 9.60468 13.5772 9.65266 13.6247 9.70064C13.6448 9.71477 13.6654 9.72934 13.6856 9.74347C13.7511 9.81116 13.8166 9.87927 13.8821 9.94695C13.9019 9.96152 13.9216 9.97608 13.9413 9.99022L13.9447 9.99836C14.0253 10.0695 14.106 10.1406 14.1866 10.2117C14.2525 10.2789 14.3185 10.3466 14.389 10.419C14.389 10.2515 14.3958 10.1072 14.3874 9.96409C14.376 9.77046 14.3361 9.57726 14.3399 9.38407C14.3433 9.21015 14.3601 9.04008 14.3399 8.86317C14.3097 8.59543 14.3206 8.32299 14.3122 8.05268C14.3109 8.01113 14.2979 7.97001 14.2975 7.92888C14.2971 7.78838 14.2996 7.64787 14.3017 7.47995C14.2958 7.45382 14.2786 7.39727 14.2723 7.33944C14.2597 7.22892 14.2534 7.11712 14.2446 7.00617C14.1845 6.86438 14.1022 6.79369 13.9577 6.8164C13.8179 6.83867 13.6831 6.89779 13.5474 6.94448C13.3908 6.99846 13.2366 7.06057 13.0779 7.10769C13.0481 7.11626 12.991 7.07771 12.9666 7.04558C12.9292 6.99546 12.9091 6.93206 12.8818 6.87423C12.8721 6.87937 12.862 6.88408 12.8524 6.88922C12.9028 6.99075 12.9536 7.09227 13.004 7.19294C12.8839 7.21136 12.8129 7.15139 12.7784 7.04044C12.7465 6.9372 12.7201 6.83225 12.6911 6.72772C12.66 6.9085 12.7574 7.06057 12.8137 7.24349C12.7654 7.22121 12.7406 7.2105 12.7167 7.19851C12.6949 7.1878 12.6739 7.17537 12.6378 7.15567C12.6911 7.2512 12.8402 7.33901 12.8944 7.31245C12.9116 7.30389 12.9154 7.26747 12.9271 7.24006C13.0103 7.23492 13.0861 7.20508 13.1547 7.15053C13.1652 7.14239 13.1795 7.13939 13.1917 7.13382C13.3551 7.06271 13.5163 6.98689 13.6822 6.92221C13.8956 6.83867 14.0602 6.78812 14.2105 7.00445C14.216 7.04601 14.221 7.08756 14.2273 7.13811C14.161 7.11626 14.1081 7.09912 14.0325 7.07428C14.0434 7.22078 14.0564 7.34544 14.0615 7.4701C14.0774 7.84064 14.0913 8.21161 14.1039 8.58215C14.1135 8.87645 14.1198 9.17117 14.1278 9.46546C14.1072 9.46546 14.0867 9.46589 14.0665 9.46632C14.0585 9.29839 14.0484 9.13047 14.0426 8.96212C14.0279 8.52347 14.0161 8.08438 14.001 7.64573C13.9951 7.47609 13.9817 7.30689 13.972 7.14196C13.7876 7.19851 13.7507 7.3433 13.7616 7.50865C13.7746 7.7027 13.8023 7.89547 13.8133 8.08952C13.8313 8.41123 13.8427 8.7338 13.854 9.05593C13.8632 9.31938 13.8678 9.58283 13.8746 9.84671C13.846 9.8193 13.8179 9.79145 13.7893 9.76404C13.7834 9.65223 13.7767 9.54085 13.7717 9.42905C13.7574 9.11719 13.7419 8.80576 13.7305 8.49391C13.7209 8.23003 13.7175 7.96615 13.7083 7.70227C13.7045 7.59175 13.6923 7.48166 13.6835 7.369C13.5877 7.41184 13.5415 7.46967 13.5441 7.55406C13.5487 7.71941 13.5579 7.88476 13.5651 8.05011C13.5714 8.19362 13.5781 8.33712 13.584 8.48063C13.5991 8.85931 13.6138 9.23842 13.6289 9.6171C13.5999 9.58155 13.5483 9.54814 13.5457 9.51087C13.5256 9.23885 13.5142 8.96598 13.5016 8.69353C13.5 8.65326 13.5096 8.61257 13.5071 8.5723C13.4924 8.33027 13.4735 8.08824 13.4601 7.84578C13.4546 7.74468 13.4592 7.64316 13.4592 7.52022C13.3962 7.55663 13.3496 7.58361 13.3118 7.60546V7.75282C13.3118 7.75753 13.3122 7.76225 13.3122 7.76696C13.3051 7.88133 13.2979 7.99528 13.2904 8.10966C13.2757 8.13493 13.261 8.16021 13.2408 8.19405H13.3093C13.3227 8.54488 13.3366 8.89529 13.35 9.24613C13.3441 9.24656 13.3383 9.24742 13.3324 9.24785C13.3189 9.22214 13.3055 9.19601 13.2921 9.17031C13.2707 8.89744 13.2497 8.62456 13.2282 8.35169C13.2219 8.35169 13.2156 8.35169 13.2089 8.35169C13.1837 8.40652 13.1589 8.46135 13.1337 8.51618C13.1232 8.50633 13.1127 8.49648 13.1022 8.4862C13.1384 8.33241 13.1741 8.17863 13.2102 8.02441C13.2278 7.90147 13.2459 7.7781 13.2627 7.65944C13.1409 7.64359 13.043 7.63074 12.9452 7.61788C12.9498 7.61189 12.954 7.60632 12.9586 7.60032C12.9515 7.59261 12.9448 7.5849 12.9376 7.57719C12.9233 7.57034 12.9095 7.56391 12.8952 7.55706C12.8662 7.53607 12.8393 7.50951 12.8074 7.49494C12.7306 7.45939 12.6512 7.4294 12.5727 7.39727C12.5634 7.39299 12.5538 7.3887 12.5445 7.38442V7.38271ZM11.9692 5.91596C12.0628 5.92495 12.1565 5.93395 12.2497 5.94294C12.2791 5.96907 12.3127 5.99221 12.3371 6.02262C12.3912 6.08988 12.4429 6.08131 12.4975 6.02648C12.505 6.02091 12.5126 6.01534 12.5202 6.00977L12.7054 5.96522C12.8318 6.0933 12.8062 6.26637 12.8196 6.42786C12.8314 6.42615 12.8431 6.42486 12.8545 6.42315V6.11558C12.8192 6.06632 12.7747 6.00334 12.7297 5.9408C12.5937 5.80415 12.4479 5.79344 12.2497 5.90482C12.1527 5.84999 12.0548 5.82086 11.9545 5.89668C11.9477 5.90396 11.9406 5.91082 11.9339 5.9181C11.9179 5.95708 11.902 5.99563 11.8894 6.02691C11.9435 6.04061 11.9822 6.04533 12.017 6.05946C12.1624 6.11858 12.1934 6.24966 12.2115 6.38802C12.2195 6.60864 12.1922 6.82068 12.0695 7.01045C12.0154 7.11969 11.9251 7.13082 11.8247 7.09655C11.7205 7.061 11.6185 7.01859 11.516 6.97789C11.3791 6.92392 11.2451 6.86009 11.1049 6.81768C11.0108 6.78898 10.9083 6.80397 10.8327 6.87937C10.7966 6.91535 10.7769 6.96933 10.75 7.01516L10.7748 7.03016C10.8642 6.8648 10.9675 6.8104 11.1296 6.86223C11.2531 6.90164 11.3711 6.96033 11.4917 7.00959C11.6332 7.06742 11.7751 7.12483 11.9171 7.18223C11.9158 7.18394 11.9032 7.2075 11.8806 7.24863C11.9494 7.23663 11.999 7.22806 12.0485 7.21993C12.0603 7.22121 12.0716 7.2225 12.0834 7.22378C12.0855 7.23321 12.0876 7.24263 12.0897 7.25205C12.0817 7.26576 12.0737 7.2799 12.0658 7.29361C12.0716 7.30346 12.0779 7.31331 12.0838 7.32316C12.1712 7.28075 12.2577 7.23663 12.3463 7.19722C12.3702 7.18651 12.4001 7.1908 12.4274 7.18823C12.437 7.18908 12.4467 7.18994 12.4567 7.19037C12.4513 7.18394 12.4458 7.17709 12.4404 7.17066C12.4404 7.10855 12.4404 7.04601 12.4404 6.98389C12.4441 6.97147 12.4479 6.95905 12.4517 6.94662C12.4429 6.95391 12.4341 6.96119 12.4253 6.9689C12.416 6.97832 12.3996 6.98732 12.3992 6.9976C12.3921 7.11969 12.314 7.17923 12.2144 7.22121L12.1934 7.20151C12.227 7.09356 12.2606 6.98561 12.2946 6.87766C12.3009 6.86652 12.3072 6.85581 12.3135 6.84467C12.3102 6.8421 12.3064 6.83996 12.303 6.83739C12.2951 6.84596 12.2875 6.85452 12.2795 6.86309C12.269 6.8995 12.2585 6.93591 12.2484 6.97233C12.2157 7.09141 12.1623 7.18994 12.0225 7.19808C12.0049 7.19465 11.9876 7.19165 11.9771 7.18951C12.0158 7.13511 12.0532 7.08285 12.0905 7.03058C12.2232 6.83567 12.2757 6.62234 12.2312 6.38717C12.2476 6.30578 12.1833 6.20639 12.2875 6.14599C12.2266 6.0299 12.1237 5.99606 12.0078 5.98364C11.9801 5.98064 11.9171 6.0072 11.9536 5.93138C11.9591 5.92581 11.9641 5.92067 11.9696 5.9151L11.9692 5.91596ZM12.5764 6.82325C12.5655 6.82411 12.5546 6.82539 12.5437 6.82625C12.5483 6.85195 12.5533 6.87765 12.558 6.90336C12.5659 6.90207 12.5735 6.90079 12.5815 6.8995C12.5798 6.8738 12.5781 6.84853 12.5764 6.82282V6.82325ZM12.2732 6.74829C12.2799 6.75471 12.2867 6.76114 12.2934 6.76799C12.3047 6.75343 12.3161 6.73886 12.3274 6.7243C12.3224 6.71959 12.3177 6.7153 12.3127 6.71059C12.2997 6.72301 12.2862 6.73586 12.2732 6.74829ZM12.8066 6.60821C12.8041 6.61421 12.7982 6.62149 12.7999 6.62577C12.8015 6.63006 12.8108 6.63134 12.8162 6.63391C12.8188 6.62791 12.8246 6.62063 12.823 6.61678C12.8213 6.61249 12.8125 6.61121 12.8066 6.60864V6.60821ZM13.2215 8.2613C13.2232 8.26644 13.2249 8.27115 13.2266 8.27629C13.2396 8.27244 13.2526 8.26858 13.2656 8.2643C13.2639 8.2583 13.2618 8.25231 13.2602 8.24631C13.2471 8.25145 13.2345 8.25616 13.2215 8.2613ZM12.8314 6.76499C12.8368 6.76242 12.8444 6.76071 12.8465 6.75643C12.8482 6.75257 12.844 6.74572 12.8427 6.74015C12.8377 6.74315 12.8305 6.74486 12.8276 6.74914C12.8259 6.75214 12.8301 6.759 12.8314 6.76456V6.76499ZM12.5571 6.72944C12.5546 6.72387 12.5529 6.71616 12.5487 6.71402C12.5449 6.7123 12.5382 6.71659 12.5332 6.71787C12.5361 6.72301 12.5378 6.73029 12.542 6.73329C12.5449 6.73501 12.5517 6.73072 12.5571 6.72944ZM12.8687 6.83396C12.8641 6.83139 12.8591 6.82839 12.854 6.82711C12.8524 6.82711 12.8473 6.83268 12.8482 6.83439C12.8498 6.8391 12.8536 6.84339 12.8566 6.84767C12.8608 6.84296 12.8645 6.83867 12.8687 6.83396Z" fill="white"/>
<path id="Vector_4" d="M17.5417 0C17.5107 0.00728235 17.4796 0.0201336 17.4485 0.0201336C13.3647 0.0209903 9.28092 0.0209903 5.19754 0.0201336C5.16646 0.0201336 5.13539 0.00685397 5.10431 0C9.25026 0 13.3958 0 17.5417 0Z" fill="white"/>
<path id="Vector_5" d="M25 0.0214786C22.5726 0.0214786 20.1456 0.0214786 17.7181 0.0206218C17.6803 0.0206218 17.6421 0.00734226 17.6043 0.000488281C20.0385 0.000488281 22.4722 0.000488281 24.9063 0.00134503C24.9374 0.00134503 24.9689 0.0146246 25 0.0214786Z" fill="white"/>
<path id="Vector_6" d="M5.04174 0C5.00395 0.00728235 4.96573 0.0201335 4.92793 0.0201335C3.28501 0.0214187 1.6425 0.0214187 0 0.0214187C0.0310778 0.0141363 0.0625756 0.000856747 0.0936534 0.000856747C1.74288 0 3.39252 0 5.04174 0Z" fill="white"/>
<path id="Vector_7" d="M14.1274 9.46491C14.1194 9.17062 14.1135 8.8759 14.1034 8.58161C14.0913 8.21063 14.077 7.84009 14.061 7.46955C14.0556 7.34489 14.043 7.22024 14.032 7.07373C14.1076 7.09858 14.1606 7.11571 14.2269 7.13756C14.2206 7.08744 14.2152 7.04589 14.2101 7.00391C14.2214 7.00433 14.2328 7.00476 14.2441 7.00519C14.2529 7.11614 14.2592 7.22752 14.2718 7.33847C14.2781 7.3963 14.2958 7.45284 14.3012 7.47897C14.2996 7.64689 14.2966 7.7874 14.297 7.92791C14.297 7.96903 14.3105 8.01016 14.3117 8.05171C14.3197 8.32201 14.3088 8.59446 14.3395 8.86219C14.3596 9.03911 14.3428 9.20917 14.3395 9.38309C14.3357 9.57586 14.3756 9.76906 14.3869 9.96311C14.3953 10.1062 14.3886 10.2501 14.3886 10.418C14.318 10.3456 14.2521 10.2784 14.1862 10.2107C14.1795 10.1816 14.1732 10.1525 14.1664 10.1237C14.1664 9.91942 14.1664 9.71508 14.1643 9.51075C14.1643 9.49533 14.1404 9.48033 14.1278 9.46534L14.1274 9.46491Z" fill="#C09301"/>
<path id="Vector_8" d="M10.8516 10.1247C10.8411 10.1555 10.8386 10.1949 10.818 10.2163C10.7533 10.2836 10.6819 10.3444 10.5883 10.4305C10.5883 10.2626 10.587 10.1251 10.5891 9.98758C10.5895 9.94646 10.6021 9.90576 10.6038 9.86464C10.6118 9.63632 10.6181 9.40842 10.6252 9.1801C10.6319 8.97448 10.6046 8.75944 10.6559 8.56581C10.705 8.37947 10.6256 8.20126 10.684 8.02178C10.7088 7.9451 10.7164 7.86242 10.6954 7.77032C10.6727 7.67008 10.7126 7.55613 10.7201 7.44818C10.7235 7.40149 10.7096 7.35351 10.7113 7.30639C10.713 7.25499 10.7231 7.20401 10.7294 7.15304C10.7508 7.14618 10.7718 7.13933 10.7932 7.13247C10.8369 7.11662 10.8806 7.10035 10.9469 7.07593C10.936 7.24128 10.9221 7.38607 10.9175 7.53172C10.9079 7.85471 10.9053 8.1777 10.8948 8.50027C10.8843 8.82926 10.8692 9.15825 10.8537 9.48724C10.844 9.68901 10.8302 9.89077 10.8184 10.0921C10.8297 10.1028 10.8407 10.114 10.8516 10.1251V10.1247Z" fill="#C09301"/>
<path id="Vector_9" d="M10.8713 10.0813C10.8865 9.76258 10.8852 9.44216 10.9234 9.12688C10.9427 8.96795 10.9184 8.81245 10.9377 8.65695C10.9738 8.36137 10.9742 8.06451 10.981 7.76765C10.9856 7.55817 11.007 7.34913 11.0213 7.13794C11.1972 7.22233 11.2518 7.35812 11.204 7.58345C11.1968 7.61729 11.1893 7.65156 11.1884 7.68626C11.1804 7.93257 11.1825 8.17931 11.1649 8.42477C11.141 8.76147 11.1263 9.09775 11.1242 9.43488C11.1233 9.55354 11.109 9.6722 11.1057 9.79128C11.1048 9.82384 11.1204 9.85683 11.1288 9.88981V9.91166C11.1225 9.92322 11.1162 9.93436 11.1103 9.94593C11.1006 9.94036 11.091 9.93522 11.0813 9.92965C11.0763 9.94807 11.0712 9.96649 11.0662 9.98491C11.0032 10.0307 10.9406 10.077 10.8776 10.1228C10.8755 10.1091 10.8739 10.095 10.8718 10.0813H10.8713Z" fill="#C09301"/>
<path id="Vector_10" d="M13.9413 9.98974C13.9216 9.97517 13.9018 9.96061 13.8821 9.94604C13.8796 9.91263 13.8766 9.87879 13.8737 9.84537C13.867 9.58192 13.8624 9.31805 13.8531 9.0546C13.8418 8.73246 13.8304 8.41032 13.8124 8.08819C13.8015 7.89413 13.7737 7.70137 13.7607 7.50731C13.7498 7.34196 13.7863 7.19717 13.9711 7.14062C13.9808 7.30555 13.9938 7.47476 14.0001 7.64439C14.0156 8.08305 14.027 8.52213 14.0417 8.96078C14.0471 9.12913 14.0576 9.29706 14.0656 9.46498C14.0728 9.64961 14.0795 9.83424 14.0866 10.0184C14.0576 10.0107 14.0291 10.0034 14.0001 9.99573C13.993 9.99573 13.9862 9.99573 13.9791 9.99573C13.9665 9.99359 13.9539 9.99145 13.9413 9.98931V9.98974Z" fill="#C09301"/>
<path id="Vector_11" d="M11.062 10.3361C11.0763 10.3584 11.0906 10.3807 11.1048 10.4029C11.1162 10.4111 11.1279 10.4196 11.1393 10.4278C11.0855 10.4856 11.0557 10.5567 10.9755 10.6017C10.8873 10.651 10.9024 10.7323 10.978 10.8185C10.9948 10.8377 11.0188 10.8613 11.0188 10.8831C11.0196 10.9739 11.0784 10.9979 11.1485 11.0151C11.479 11.0956 11.8142 11.1312 12.1544 11.1256C12.4261 11.1213 12.6986 11.1329 12.9699 11.1183C13.2152 11.105 13.4588 11.0523 13.704 11.0433C13.9069 11.0356 13.9636 10.8848 14.0438 10.7491C14.0732 10.6998 14.0627 10.6514 14.0136 10.6133C13.9577 10.57 13.8779 10.5499 13.872 10.4543C13.8712 10.4406 13.8048 10.4162 13.7738 10.4226C13.6188 10.453 13.4655 10.4916 13.3114 10.5272C13.3114 10.4916 13.3118 10.456 13.3122 10.4205C13.3353 10.4338 13.3609 10.462 13.3807 10.4582C13.5113 10.4338 13.6406 10.4021 13.7654 10.3742V10.2264C13.5911 10.2667 13.4264 10.3048 13.2715 10.3408C13.2866 10.3704 13.3 10.3961 13.3135 10.4222C13.2715 10.4222 13.2295 10.4222 13.1875 10.4222C13.19 10.3721 13.1719 10.3511 13.1178 10.3558C13.0094 10.3657 12.9002 10.3687 12.791 10.3742C12.8116 10.3331 12.8326 10.292 12.8532 10.2509C12.8893 10.2791 12.9242 10.3284 12.962 10.3314C13.0711 10.3391 13.0212 10.2089 13.0926 10.1592C13.1295 10.2123 13.1669 10.2654 13.2148 10.334C13.2551 10.2363 13.2862 10.1613 13.3261 10.0649C13.3567 10.1185 13.3765 10.1528 13.3958 10.187C13.3727 10.1815 13.3496 10.1759 13.3185 10.1682C13.3063 10.2072 13.2942 10.2461 13.2816 10.2851C13.2908 10.2937 13.2996 10.3027 13.3088 10.3113C13.3441 10.2838 13.3798 10.2564 13.4151 10.229C13.4617 10.2359 13.5079 10.2431 13.5688 10.2521C13.5491 10.178 13.5365 10.1296 13.5235 10.0816C13.5415 10.0816 13.5596 10.0816 13.5776 10.0816C13.5801 10.1198 13.5827 10.1579 13.5856 10.2029C13.6881 10.208 13.7897 10.2136 13.8909 10.2187C13.8926 10.2243 13.8943 10.2299 13.8964 10.2354C13.875 10.2431 13.8536 10.2509 13.8317 10.2586C13.8275 10.2628 13.8233 10.2671 13.8191 10.2714C13.8057 10.3404 13.82 10.3909 13.9006 10.3986C13.9136 10.3712 13.9262 10.3447 13.9388 10.3177C13.9123 10.513 14.0782 10.5614 14.1727 10.6441C14.119 10.7572 14.0661 10.8647 14.0173 10.9735C13.9896 11.0356 13.9514 11.0712 13.88 11.0802C13.7049 11.1025 13.5281 11.1213 13.358 11.1654C13.2022 11.2061 13.0459 11.1851 12.891 11.2001C12.6604 11.2224 12.4265 11.207 12.1938 11.2057C11.8125 11.204 11.4362 11.1552 11.0666 11.0626C11.0238 11.0519 10.9847 10.9924 10.9595 10.9465C10.9079 10.8519 10.8667 10.7508 10.8222 10.6544C10.8814 10.6 10.9545 10.5464 11.0091 10.4775C11.0368 10.4423 11.0309 10.3802 11.0406 10.3301C11.0473 10.3318 11.0544 10.3335 11.0612 10.3352L11.062 10.3361Z" fill="#C2970A"/>
<path id="Vector_12" d="M11.2955 9.7728C11.2657 9.79936 11.2359 9.82635 11.2065 9.85291C11.1977 9.84906 11.1889 9.84563 11.1801 9.84177C11.1897 9.72183 11.2032 9.60231 11.2078 9.48237C11.2174 9.21164 11.2204 8.9409 11.23 8.6706C11.2414 8.3656 11.2561 8.06102 11.2716 7.75602C11.2779 7.63436 11.2918 7.51314 11.3023 7.39233C11.411 7.41589 11.4484 7.46516 11.4383 7.56925C11.4354 7.5971 11.4383 7.6258 11.4375 7.65407C11.4308 7.92866 11.4253 8.20324 11.4165 8.47783C11.4039 8.8638 11.3892 9.24933 11.3753 9.6353C11.3489 9.68113 11.3224 9.72697 11.296 9.7728H11.2955Z" fill="#C09301"/>
<path id="Vector_13" d="M13.6856 9.74258C13.6654 9.72844 13.6448 9.71388 13.6247 9.69974C13.6259 9.6719 13.6268 9.64362 13.628 9.61578C13.6129 9.2371 13.5982 8.85799 13.5831 8.4793C13.5772 8.3358 13.5705 8.19229 13.5642 8.04879C13.557 7.88344 13.5474 7.71808 13.5432 7.55273C13.5407 7.46834 13.5873 7.41008 13.6826 7.36768C13.6914 7.48034 13.7036 7.59043 13.7074 7.70095C13.7166 7.96483 13.72 8.22871 13.7297 8.49258C13.741 8.80444 13.7565 9.1163 13.7708 9.42772C13.7759 9.53953 13.7826 9.65091 13.7885 9.76271C13.754 9.75586 13.7196 9.74943 13.6851 9.74258H13.6856Z" fill="#C09301"/>
<path id="Vector_14" d="M13.6281 9.61569C13.6268 9.64353 13.626 9.6718 13.6247 9.69965C13.5772 9.65167 13.5298 9.60369 13.4823 9.55571C13.4597 9.5283 13.437 9.50088 13.4139 9.47347C13.3933 9.51845 13.3778 9.55229 13.3622 9.5857C13.3358 9.56085 13.3093 9.53601 13.2833 9.51116C13.2942 9.50945 13.3055 9.50774 13.3164 9.50645C13.3257 9.48632 13.3454 9.4649 13.3429 9.44648C13.3295 9.35309 13.3106 9.26056 13.2933 9.16761L13.2921 9.16889C13.3055 9.1946 13.319 9.22073 13.3324 9.24643C13.3383 9.246 13.3442 9.24514 13.35 9.24472C13.3366 8.89388 13.3227 8.54347 13.3093 8.19263C13.303 8.16436 13.2967 8.13651 13.2904 8.10824C13.2975 7.99386 13.3047 7.87992 13.3122 7.76554C13.3173 7.76297 13.3223 7.75997 13.3269 7.7574C13.3219 7.75526 13.3164 7.75355 13.3114 7.75141V7.60404C13.3492 7.5822 13.3958 7.55521 13.4588 7.5188C13.4588 7.64174 13.4542 7.74327 13.4597 7.84436C13.4731 8.08682 13.4916 8.32885 13.5067 8.57088C13.5092 8.61115 13.4991 8.65185 13.5012 8.69211C13.5138 8.96456 13.5247 9.23743 13.5453 9.50945C13.5483 9.54672 13.5995 9.58056 13.6285 9.61569H13.6281Z" fill="#C19505"/>
<path id="Vector_15" d="M11.4572 9.5689C11.482 8.89507 11.5072 8.22166 11.5328 7.53198C11.5954 7.55983 11.6412 7.58039 11.6865 7.60052C11.6865 7.60738 11.6878 7.6138 11.689 7.62066C11.6903 7.65535 11.6916 7.69048 11.6928 7.72518C11.6979 7.85412 11.7126 7.98392 11.7063 8.11243C11.6916 8.40843 11.6672 8.70401 11.6454 8.99959C11.642 9.04757 11.6323 9.09512 11.6269 9.1431C11.6206 9.19707 11.6118 9.25319 11.6878 9.26518C11.6605 9.338 11.6332 9.41126 11.6059 9.48408C11.5773 9.51835 11.5488 9.55219 11.5202 9.58646C11.5001 9.59674 11.4795 9.60659 11.4593 9.61688C11.4589 9.60103 11.4581 9.58518 11.4576 9.56933L11.4572 9.5689Z" fill="#C09301"/>
<path id="Vector_16" d="M11.1393 10.428C11.128 10.4198 11.1162 10.4112 11.1049 10.4031C11.1742 10.3855 11.1956 10.3397 11.1792 10.2716C11.175 10.2673 11.1712 10.263 11.167 10.2587C11.1506 10.2549 11.1343 10.2506 11.1175 10.2468C11.1175 10.239 11.1166 10.2318 11.1166 10.224C11.2044 10.2185 11.2922 10.2129 11.4001 10.2061V10.0818C11.4198 10.0818 11.4396 10.0818 11.4597 10.0818C11.4539 10.1328 11.448 10.1838 11.4396 10.2545C11.4929 10.245 11.5383 10.2373 11.5836 10.2296C11.6214 10.2553 11.6592 10.281 11.697 10.3063C11.7037 10.2964 11.7109 10.2866 11.7176 10.2767C11.7046 10.2412 11.692 10.2056 11.679 10.1701C11.65 10.1765 11.6265 10.1821 11.6029 10.1872C11.6239 10.1521 11.6454 10.117 11.676 10.0664C11.7004 10.1294 11.7147 10.1688 11.7315 10.2073C11.747 10.2438 11.7651 10.2793 11.7881 10.3281C11.8356 10.2617 11.8717 10.2103 11.9167 10.1478C11.9465 10.2198 11.9557 10.2904 11.9948 10.3204C12.0238 10.3427 12.0918 10.3127 12.1271 10.308C12.1682 10.3187 12.201 10.3243 12.2312 10.3359C12.3009 10.3624 12.3694 10.392 12.4383 10.4207C12.403 10.4348 12.3677 10.4489 12.3324 10.4631C12.3303 10.4369 12.3282 10.4108 12.3261 10.3821H12.0212C12.0074 10.3821 11.9931 10.3821 11.9792 10.3821C11.9213 10.3718 11.8633 10.3616 11.8024 10.3513C11.8251 10.4468 11.8499 10.5261 11.9683 10.5162C11.9641 10.5273 11.9599 10.5385 11.9557 10.5492C11.9011 10.5492 11.8465 10.5492 11.7919 10.5492C11.7919 10.5012 11.7919 10.4532 11.7919 10.392C11.7491 10.4044 11.7184 10.4134 11.6874 10.4228C11.6974 10.3954 11.7075 10.368 11.7147 10.3478C11.5786 10.3149 11.4417 10.2789 11.3031 10.2502C11.2766 10.2446 11.2224 10.2626 11.2195 10.2776C11.214 10.3076 11.2283 10.3667 11.2455 10.3714C11.3896 10.4121 11.532 10.4901 11.6882 10.4211C11.6882 10.4567 11.6882 10.4922 11.6878 10.5278C11.5051 10.4944 11.322 10.4614 11.1393 10.428Z" fill="#C59B12"/>
<path id="Vector_17" d="M14.2441 7.00482C14.2328 7.00439 14.2215 7.00396 14.2101 7.00354C14.0602 6.78764 13.8956 6.83776 13.6818 6.92129C13.5163 6.98597 13.3546 7.06179 13.1913 7.1329C13.1787 7.13847 13.1644 7.14147 13.1543 7.14961C13.0857 7.20416 13.0098 7.234 12.9267 7.23914C12.9149 7.26656 12.9111 7.30297 12.8939 7.31154C12.8402 7.3381 12.6907 7.25028 12.6373 7.15475C12.6739 7.17446 12.6949 7.18688 12.7163 7.19759C12.7402 7.20958 12.765 7.22029 12.8133 7.24257C12.7566 7.05965 12.6592 6.90758 12.6907 6.72681C12.7196 6.8309 12.7461 6.93628 12.778 7.03952C12.812 7.15047 12.883 7.21044 13.0035 7.19202C12.9531 7.09092 12.9027 6.9894 12.8519 6.8883C12.8616 6.88316 12.8717 6.87845 12.8813 6.87331C12.9086 6.93114 12.9288 6.99454 12.9662 7.04466C12.9905 7.07722 13.0476 7.11577 13.0775 7.10677C13.2362 7.06008 13.3903 6.99754 13.547 6.94356C13.6826 6.89687 13.8174 6.83733 13.9573 6.81548C14.1022 6.79278 14.1841 6.86303 14.2441 7.00525V7.00482ZM12.8171 7.22201C12.8158 7.22415 12.8146 7.22629 12.8133 7.22886C12.8175 7.22886 12.8221 7.22929 12.8263 7.22972C12.8255 7.22715 12.8251 7.22415 12.8234 7.22286C12.8221 7.22158 12.8192 7.22243 12.8171 7.22243V7.22201Z" fill="#C9A326"/>
<path id="Vector_18" d="M11.4597 10.0814C11.44 10.0814 11.4202 10.0814 11.4001 10.0814C11.4471 9.92287 11.4946 9.7648 11.5404 9.60588C11.5416 9.60159 11.5269 9.59303 11.5198 9.58617C11.5483 9.5519 11.5769 9.51806 11.6055 9.48379C11.7104 9.55704 11.7289 9.41054 11.8117 9.40454C11.8364 9.4568 11.8642 9.51378 11.8944 9.5776C11.9334 9.51635 11.9649 9.46666 12.0006 9.41054C12.038 9.51977 12.0678 9.61145 12.1027 9.7014C12.1077 9.71383 12.1384 9.71597 12.1573 9.72282C12.1623 9.73096 12.167 9.73867 12.172 9.74681C12.1581 9.77466 12.1443 9.80207 12.13 9.82992C12.1161 9.82221 12.1027 9.81449 12.0888 9.80678C12.0582 9.70826 12.0279 9.6093 11.9927 9.49578C11.9549 9.56004 11.9263 9.60845 11.8902 9.6697C11.852 9.58746 11.8234 9.52577 11.7944 9.4628C11.5563 9.63758 11.5559 9.63972 11.6684 9.8946C11.6697 9.8976 11.6701 9.90274 11.6722 9.90402C11.6983 9.92073 11.7243 9.93658 11.7503 9.95286C11.7335 9.97813 11.7167 10.0038 11.6903 10.0437C11.6458 9.93787 11.6101 9.85348 11.5698 9.75709C11.5294 9.87532 11.4942 9.97813 11.4593 10.0809L11.4597 10.0814Z" fill="#C9A224"/>
<path id="Vector_19" d="M12.0485 7.22028C11.999 7.22885 11.9494 7.23742 11.8806 7.24898C11.9032 7.20786 11.9163 7.1843 11.9171 7.18259C11.7751 7.12518 11.6336 7.06778 11.4917 7.00995C11.3711 6.96069 11.2531 6.902 11.1297 6.86259C10.9675 6.81076 10.8642 6.86516 10.7748 7.03051L10.75 7.01552C10.7769 6.96968 10.7966 6.91614 10.8327 6.87973C10.9083 6.80433 11.0108 6.78934 11.1049 6.81804C11.2451 6.86045 11.3791 6.92428 11.516 6.97825C11.6185 7.01852 11.7206 7.06136 11.8247 7.09691C11.9251 7.13118 12.0154 7.12004 12.0695 7.01081C12.0763 7.01766 12.083 7.02494 12.0897 7.0318C12.0523 7.08406 12.015 7.13632 11.9763 7.19073C11.9864 7.19244 12.004 7.19587 12.0217 7.19929C12.0305 7.20658 12.0397 7.21343 12.0485 7.22071V7.22028Z" fill="#CAA52A"/>
<path id="Vector_20" d="M12.2501 5.9048C12.4483 5.79342 12.5937 5.80456 12.7301 5.94078C12.7217 5.94892 12.7138 5.95706 12.7054 5.9652C12.6436 5.98019 12.5819 5.99476 12.5202 6.00975C12.5126 6.01532 12.505 6.02089 12.4975 6.02646C12.4425 6.08086 12.3908 6.08986 12.337 6.0226C12.3127 5.99219 12.2791 5.96949 12.2497 5.94293C12.2497 5.93007 12.2497 5.91722 12.2501 5.9048Z" fill="#C19505"/>
<path id="Vector_21" d="M13.1333 8.51435C13.1585 8.45952 13.1833 8.40469 13.2085 8.34985C13.2148 8.34985 13.2211 8.34985 13.2278 8.34985C13.2492 8.62273 13.2702 8.8956 13.2916 9.16848L13.2929 9.16719C13.2715 9.16805 13.25 9.16848 13.2286 9.16933C13.2316 8.98085 13.1803 8.80564 13.1047 8.63601C13.1144 8.59531 13.1236 8.55462 13.1333 8.51392V8.51435Z" fill="#C19505"/>
<path id="Vector_22" d="M12.2119 6.38789C12.1938 6.24953 12.1628 6.11845 12.0174 6.05933C11.9826 6.0452 11.9439 6.04006 11.8898 6.02678C11.9024 5.9955 11.9183 5.95695 11.9343 5.91797C11.9406 5.92268 11.9473 5.92782 11.9536 5.93253C11.9166 6.00793 11.9801 5.9818 12.0078 5.9848C12.1237 5.99722 12.2262 6.03063 12.2875 6.14715C12.1829 6.20755 12.2476 6.30736 12.2312 6.38832C12.2249 6.38832 12.2186 6.38832 12.2123 6.38832L12.2119 6.38789Z" fill="#C59B12"/>
<path id="Vector_23" d="M12.0485 7.22018C12.0397 7.21289 12.0305 7.20604 12.0217 7.19876C12.1615 7.19062 12.2144 7.09252 12.2476 6.973C12.2577 6.93659 12.2682 6.90018 12.2787 6.86377C12.2833 6.86891 12.2883 6.87362 12.2938 6.87833C12.2602 6.98628 12.2266 7.09423 12.193 7.20218C12.1867 7.21161 12.1804 7.22103 12.1745 7.23046C12.1876 7.22746 12.201 7.22446 12.214 7.22189C12.3135 7.17991 12.3917 7.12037 12.3988 6.99828C12.3992 6.98843 12.416 6.979 12.4248 6.96958C12.4299 6.97472 12.4349 6.97943 12.44 6.98457C12.44 7.04669 12.44 7.10923 12.44 7.17134C12.4358 7.17734 12.4311 7.18334 12.4269 7.18891C12.3996 7.19148 12.3698 7.18719 12.3459 7.1979C12.2573 7.23731 12.1708 7.28143 12.0834 7.32384C12.0775 7.31399 12.0712 7.30414 12.0653 7.29428C12.0733 7.28058 12.0813 7.26644 12.0893 7.25273C12.0985 7.24502 12.1082 7.23731 12.1279 7.22146C12.1048 7.22318 12.0939 7.2236 12.083 7.22446L12.0481 7.2206L12.0485 7.22018Z" fill="#C8A121"/>
<path id="Vector_24" d="M13.3618 9.58562C13.3773 9.55178 13.3928 9.51837 13.4134 9.47339C13.4365 9.5008 13.4592 9.52822 13.4819 9.55564C13.397 9.6306 13.4621 9.71028 13.4806 9.78439C13.5058 9.88548 13.5453 9.98315 13.5785 10.0821C13.5604 10.0821 13.5423 10.0821 13.5243 10.0821C13.4945 9.97887 13.4642 9.87563 13.4294 9.75569C13.3861 9.85978 13.3508 9.94417 13.3051 10.0534C13.2773 10.0046 13.2631 9.9793 13.2488 9.95445C13.2761 9.93475 13.3198 9.92018 13.3282 9.89405C13.3597 9.7951 13.4604 9.70043 13.3618 9.58648V9.58562Z" fill="#C9A224"/>
<path id="Vector_25" d="M14.0867 10.0192C14.0795 9.83453 14.0728 9.6499 14.0657 9.4657C14.0863 9.4657 14.1068 9.46527 14.127 9.46484C14.1396 9.47984 14.1635 9.49483 14.1635 9.51025C14.166 9.71459 14.1656 9.91892 14.1656 10.1233C14.1392 10.0886 14.1123 10.0539 14.0858 10.0187L14.0867 10.0192Z" fill="#FFFFFE"/>
<path id="Vector_26" d="M13.2097 8.02307C13.1736 8.17686 13.1379 8.33065 13.1018 8.48486C13.0086 8.63436 12.9157 8.78344 12.8225 8.93294C12.8049 8.93294 12.7872 8.93337 12.7696 8.9338C12.7662 8.92823 12.7671 8.92309 12.7721 8.9188C12.8074 8.88111 12.8473 8.84684 12.8775 8.80528C13.0476 8.57182 13.14 8.30494 13.1925 8.02222C13.1984 8.02222 13.2043 8.02264 13.2106 8.02307H13.2097Z" fill="#A8840C"/>
<path id="Vector_27" d="M13.2098 8.02296C13.2039 8.02296 13.198 8.02253 13.1917 8.0221C13.1988 7.91201 13.206 7.80192 13.2123 7.70425C13.0539 7.67341 12.9116 7.64556 12.7696 7.61815C12.7629 7.61558 12.7587 7.61087 12.7574 7.60401C12.7679 7.59887 12.778 7.59373 12.7885 7.58816C12.7952 7.58816 12.7999 7.58473 12.8015 7.57788C12.8494 7.59073 12.8973 7.60358 12.9452 7.61601C13.043 7.62886 13.1409 7.64171 13.2627 7.65756C13.2455 7.77622 13.2278 7.89959 13.2102 8.02253L13.2098 8.02296Z" fill="#C2970A"/>
<path id="Vector_28" d="M12.8225 8.93245C12.9158 8.78295 13.0086 8.63388 13.1018 8.48438C13.1123 8.49423 13.1228 8.50408 13.1333 8.51436C13.1237 8.55506 13.1144 8.59575 13.1048 8.63645C13.0833 8.67329 13.0619 8.71056 13.0405 8.7474C13.0199 8.77481 12.9998 8.80223 12.9792 8.82964C12.9544 8.86134 12.9292 8.89304 12.9044 8.92431C12.8986 8.93203 12.8923 8.94016 12.8864 8.94788L12.807 9.02712L12.8221 8.93288L12.8225 8.93245Z" fill="#FFFFFE"/>
<path id="Vector_29" d="M12.2119 6.38794C12.2182 6.38794 12.2245 6.38794 12.2308 6.38794C12.2757 6.62312 12.2228 6.83645 12.0901 7.03136C12.0834 7.0245 12.0767 7.01722 12.0699 7.01037C12.1926 6.8206 12.2199 6.60855 12.2119 6.38794Z" fill="#CAA52A"/>
<path id="Vector_30" d="M12.7054 5.96558C12.7138 5.95744 12.7218 5.9493 12.7302 5.94116C12.7747 6.0037 12.8196 6.06668 12.8549 6.11594V6.42351C12.8431 6.42522 12.8314 6.42651 12.82 6.42822C12.8066 6.26673 12.8322 6.09366 12.7058 5.96558H12.7054Z" fill="#CAA52A"/>
<path id="Vector_31" d="M12.8016 7.57799C12.7995 7.58485 12.7953 7.58828 12.7885 7.58828C12.7045 7.55101 12.6201 7.51374 12.5361 7.47647C12.5361 7.47647 12.5328 7.47818 12.5328 7.47776C12.5357 7.47047 12.5382 7.46362 12.5408 7.45677C12.5466 7.44134 12.5529 7.42635 12.5588 7.41093C12.5634 7.40579 12.5685 7.40065 12.5731 7.39551C12.6516 7.42764 12.731 7.45762 12.8079 7.49318C12.8398 7.50774 12.8667 7.5343 12.8956 7.55529C12.8646 7.563 12.8331 7.57028 12.802 7.57799H12.8016Z" fill="#D1AF43"/>
<path id="Vector_32" d="M11.6886 7.62121C11.6874 7.61479 11.6865 7.60793 11.6861 7.60108C11.907 7.5938 12.1203 7.55182 12.3228 7.45972C12.3274 7.46486 12.3324 7.47 12.3375 7.47471C12.3354 7.48028 12.3337 7.48542 12.3324 7.49099C12.3081 7.50427 12.2833 7.51798 12.2589 7.53126C12.0691 7.56124 11.8789 7.5908 11.689 7.62078L11.6886 7.62121Z" fill="#D1AF43"/>
<path id="Vector_33" d="M14.0867 10.0192C14.1131 10.0539 14.14 10.0886 14.1664 10.1237C14.1732 10.1529 14.1795 10.182 14.1862 10.2107C14.1056 10.1396 14.0249 10.0685 13.9447 9.99738C13.9565 9.99738 13.9678 9.99652 13.9791 9.99609C13.9863 9.99609 13.993 9.99609 14.0001 9.99609C14.0291 10.0038 14.0577 10.0111 14.0867 10.0188V10.0192Z" fill="#CAA52A"/>
<path id="Vector_34" d="M12.5374 7.19024C12.6222 7.10671 12.5365 7.02832 12.5219 6.94736C12.5311 6.9435 12.5403 6.93965 12.5491 6.93579C12.5819 7.00476 12.6151 7.07373 12.6474 7.14141C12.6151 7.16626 12.5848 7.18896 12.5542 7.21209C12.5483 7.20481 12.5428 7.19753 12.537 7.18982L12.5374 7.19024Z" fill="#C9A326"/>
<path id="Vector_35" d="M12.2501 5.9048C12.2501 5.91766 12.2501 5.93051 12.2497 5.94293C12.1561 5.93393 12.0624 5.92494 11.9692 5.91594C11.9646 5.90952 11.9595 5.90266 11.9549 5.89624C12.0557 5.82041 12.1531 5.84954 12.2501 5.90438V5.9048Z" fill="#C59B12"/>
<path id="Vector_36" d="M13.6855 9.74243C13.72 9.74929 13.7544 9.75571 13.7889 9.76257C13.8174 9.78998 13.8456 9.81783 13.8741 9.84524C13.8771 9.87865 13.8796 9.9125 13.8825 9.94591C13.817 9.87823 13.7515 9.81011 13.686 9.74243H13.6855Z" fill="#C59B12"/>
<path id="Vector_37" d="M11.4572 9.56903C11.4576 9.58488 11.4585 9.60073 11.4589 9.61658C11.4043 9.66841 11.3501 9.72068 11.2955 9.77251C11.322 9.72667 11.3484 9.68084 11.3749 9.635C11.4022 9.61273 11.4295 9.59088 11.4568 9.5686L11.4572 9.56903Z" fill="#C59B12"/>
<path id="Vector_38" d="M12.8015 7.57788C12.8326 7.57017 12.8641 7.56289 12.8952 7.55518C12.9094 7.56203 12.9233 7.56846 12.9376 7.57531C12.9447 7.58302 12.9514 7.59073 12.9586 7.59844C12.954 7.60444 12.9498 7.61001 12.9451 7.616C12.8973 7.60315 12.8494 7.5903 12.8015 7.57788Z" fill="#FFFFFE"/>
<path id="Vector_39" d="M13.29 8.10815C13.2963 8.13643 13.3026 8.16427 13.3089 8.19254H13.2404C13.2602 8.1587 13.2749 8.13343 13.29 8.10815Z" fill="#FDFBF6"/>
<path id="Vector_40" d="M12.576 6.82349C12.5777 6.84919 12.5794 6.87446 12.5811 6.90017C12.5731 6.90145 12.5655 6.90274 12.5576 6.90402C12.5529 6.87832 12.5479 6.85262 12.5433 6.82691C12.5542 6.82606 12.5651 6.82477 12.576 6.82392V6.82349Z" fill="#FEFEFD"/>
<path id="Vector_41" d="M10.7928 7.13163C10.7714 7.13848 10.7504 7.14534 10.729 7.15219C10.7277 7.07294 10.7764 7.15347 10.7928 7.13163Z" fill="#FFFFFE"/>
<path id="Vector_42" d="M12.2732 6.74912C12.2862 6.7367 12.2997 6.72385 12.3127 6.71143C12.3177 6.71614 12.3223 6.72042 12.3274 6.72513C12.316 6.7397 12.3047 6.75426 12.2934 6.76883C12.2866 6.7624 12.2799 6.75598 12.2732 6.74912Z" fill="#FCF9F2"/>
<path id="Vector_43" d="M12.3505 7.44502C12.3761 7.42874 12.4013 7.41203 12.4269 7.39575C12.4319 7.40089 12.4366 7.40603 12.4416 7.41117C12.4164 7.42831 12.3908 7.44544 12.3656 7.46258C12.3605 7.45658 12.3555 7.45101 12.3505 7.44502Z" fill="#D1AF43"/>
<path id="Vector_44" d="M12.4269 7.39585C12.466 7.39156 12.5055 7.38685 12.5445 7.38257C12.5412 7.38642 12.5378 7.38985 12.5349 7.39371C12.5038 7.39928 12.4727 7.40527 12.4416 7.41127C12.4366 7.40613 12.432 7.40099 12.4269 7.39585Z" fill="#D1AF43"/>
<path id="Vector_45" d="M11.062 10.3363C11.0553 10.3346 11.0482 10.3329 11.0414 10.3312C11.0545 10.3201 11.0671 10.3085 11.0801 10.2974C11.0851 10.3046 11.0902 10.3119 11.0952 10.3192C11.0843 10.3248 11.0729 10.3308 11.062 10.3363Z" fill="#FCF9F2"/>
<path id="Vector_46" d="M12.4794 7.21246C12.4987 7.20518 12.5181 7.19747 12.5378 7.19019C12.5437 7.19747 12.5491 7.20475 12.555 7.21246C12.5479 7.22188 12.5407 7.23088 12.5332 7.24031C12.5126 7.24159 12.492 7.24288 12.4714 7.24416L12.4719 7.24288C12.4744 7.23302 12.4765 7.22274 12.479 7.21289L12.4794 7.21246Z" fill="#C9A326"/>
<path id="Vector_47" d="M11.1284 9.91174C11.1284 9.90446 11.1284 9.89717 11.1284 9.88989C11.1347 9.88218 11.1405 9.87447 11.1468 9.86719C11.1607 9.86933 11.1746 9.87147 11.1884 9.87361C11.1683 9.88646 11.1485 9.89889 11.1284 9.91174Z" fill="#FDFBF6"/>
<path id="Vector_48" d="M11.0658 9.98446C11.0708 9.96604 11.0759 9.94762 11.0809 9.9292C11.0906 9.93477 11.1002 9.93991 11.1099 9.94548C11.0952 9.95833 11.0805 9.97161 11.0658 9.98446Z" fill="#C2970A"/>
<path id="Vector_49" d="M12.8066 6.60858C12.8125 6.61115 12.8213 6.61244 12.823 6.61672C12.8246 6.62101 12.8188 6.62829 12.8162 6.63386C12.8104 6.63129 12.8015 6.63 12.7999 6.62572C12.7982 6.62143 12.8041 6.61415 12.8066 6.60815V6.60858Z" fill="#FEFEFD"/>
<path id="Vector_50" d="M13.2219 8.26158C13.2349 8.25643 13.2475 8.25172 13.2606 8.24658C13.2622 8.25258 13.2643 8.25858 13.266 8.26457C13.253 8.26843 13.24 8.27228 13.227 8.27657C13.2253 8.27143 13.2236 8.26672 13.2219 8.26158Z" fill="#FDFBF6"/>
<path id="Vector_51" d="M10.8713 10.0813C10.8734 10.095 10.8751 10.1091 10.8772 10.1229C10.8688 10.1233 10.86 10.1241 10.8516 10.1246C10.8407 10.1134 10.8293 10.1027 10.8184 10.0916C10.8361 10.0882 10.8537 10.0847 10.8718 10.0813H10.8713Z" fill="#FFFFFE"/>
<path id="Vector_52" d="M12.8314 6.76538C12.8297 6.75981 12.8255 6.75296 12.8276 6.74996C12.8301 6.74568 12.8373 6.74397 12.8427 6.74097C12.8444 6.74654 12.8486 6.75339 12.8465 6.75725C12.8444 6.76153 12.8368 6.76281 12.8314 6.76581V6.76538Z" fill="#FEFEFD"/>
<path id="Vector_53" d="M12.4714 7.24433C12.492 7.24305 12.5126 7.24176 12.5332 7.24048C12.513 7.24733 12.4966 7.32187 12.4714 7.24433Z" fill="#C8A121"/>
<path id="Vector_54" d="M12.5575 6.72963C12.552 6.73134 12.5453 6.73563 12.5424 6.73349C12.5382 6.73092 12.5365 6.72363 12.5336 6.71807C12.539 6.71635 12.5457 6.71207 12.5491 6.71421C12.5533 6.71635 12.5546 6.72406 12.5575 6.72963Z" fill="#FEFEFD"/>
<path id="Vector_55" d="M12.8687 6.83476L12.8566 6.84846C12.8536 6.84418 12.8498 6.8399 12.8482 6.83518C12.8477 6.83347 12.8528 6.82747 12.854 6.8279C12.8591 6.82919 12.8637 6.83219 12.8687 6.83476Z" fill="#FEFEFD"/>
<path id="Vector_56" d="M11.1884 9.87307C11.1746 9.87093 11.1607 9.86879 11.1469 9.86665C11.1611 9.85765 11.1758 9.84908 11.1901 9.84009C11.1897 9.85123 11.1893 9.86193 11.1888 9.87307H11.1884Z" fill="#C09301"/>
<path id="Vector_57" d="M12.4244 6.9693C12.4332 6.96201 12.442 6.95473 12.4508 6.94702C12.4471 6.95944 12.4433 6.97187 12.4395 6.98429C12.4345 6.97915 12.4294 6.97444 12.4244 6.9693Z" fill="#C8A121"/>
<path id="Vector_58" d="M12.2787 6.86384C12.2867 6.85527 12.2942 6.8467 12.3022 6.83813C12.3056 6.84071 12.3093 6.84285 12.3127 6.84542C12.3064 6.85655 12.3001 6.86726 12.2938 6.8784C12.2883 6.87412 12.2833 6.86941 12.2787 6.86384Z" fill="#C8A121"/>
<path id="Vector_59" d="M12.0834 7.2237C12.0943 7.22285 12.1052 7.22242 12.1283 7.2207C12.1086 7.23655 12.0993 7.24426 12.0897 7.25197C12.0876 7.24255 12.0855 7.23313 12.0834 7.2237Z" fill="#FFFFFE"/>
<path id="Vector_60" d="M12.44 7.1709L12.4563 7.1906C12.4467 7.18975 12.437 7.18889 12.4269 7.18846C12.4311 7.18246 12.4358 7.1769 12.44 7.1709Z" fill="#C8A121"/>
<path id="Vector_61" d="M11.9692 5.91619C11.9637 5.92176 11.9587 5.9269 11.9532 5.93247C11.9469 5.92776 11.9402 5.92262 11.9339 5.9179C11.9406 5.91062 11.9478 5.90377 11.9545 5.89648C11.9591 5.90291 11.9641 5.90976 11.9688 5.91619H11.9692Z" fill="#C59B12"/>
<path id="Vector_62" d="M13.8199 10.2716C13.8241 10.2674 13.8283 10.2631 13.8325 10.2588C13.8304 10.2652 13.8262 10.2695 13.8199 10.2716Z" fill="#FCF9F2"/>
<path id="Vector_63" d="M11.167 10.2588C11.1713 10.2631 11.1751 10.2675 11.1794 10.2718C11.1734 10.2692 11.1691 10.2649 11.167 10.2588Z" fill="#FCF9F2"/>
<path id="Vector_64" d="M13.311 7.75098C13.316 7.75312 13.3215 7.75483 13.3265 7.75697C13.3215 7.75954 13.3164 7.76254 13.3118 7.76511C13.3118 7.7604 13.3118 7.75569 13.3114 7.75098H13.311Z" fill="#FDFBF6"/>
<path id="Vector_65" d="M13.9791 9.99611C13.9678 9.99654 13.956 9.99697 13.9447 9.9974L13.9413 9.98926C13.9539 9.9914 13.9665 9.99397 13.9791 9.99611Z" fill="#C59B12"/>
<path id="Vector_66" d="M12.3232 7.45963C12.3324 7.45492 12.3412 7.45021 12.3505 7.44507C12.3555 7.45107 12.3606 7.45663 12.3656 7.46263C12.3564 7.46649 12.3471 7.47077 12.3379 7.47463C12.3328 7.46991 12.3278 7.46477 12.3232 7.45963Z" fill="#D1AF43"/>
<path id="Vector_67" d="M12.5445 7.38306C12.5538 7.38734 12.5634 7.39162 12.5731 7.39591C12.5684 7.40105 12.5634 7.40619 12.5588 7.41133C12.5508 7.40576 12.5428 7.40019 12.5349 7.39462C12.5382 7.39077 12.5416 7.38691 12.5445 7.38348V7.38306Z" fill="#D1AF43"/>
<path id="Vector_68" d="M12.4795 7.2124C12.4769 7.22225 12.4748 7.23254 12.4723 7.24239C12.4669 7.23468 12.4614 7.22697 12.4559 7.21926C12.4639 7.21711 12.4715 7.21454 12.4795 7.2124Z" fill="#C8A121"/>
<path id="Vector_69" d="M11.7915 10.5487H11.9553C11.9595 10.5376 11.9637 10.5265 11.9679 10.5158C11.8499 10.5256 11.8247 10.4464 11.802 10.3508C11.8625 10.3615 11.9204 10.3718 11.9788 10.3817C11.9885 10.4009 11.9981 10.4198 12.0082 10.4391C12.0124 10.4198 12.0166 10.4009 12.0208 10.3817H12.3257C12.3278 10.4104 12.3299 10.4365 12.332 10.4626L12.3328 10.4618C12.2946 10.4815 12.256 10.5008 12.2056 10.5265C12.2686 10.5505 12.3219 10.571 12.3752 10.5911L12.374 10.5903C12.3849 10.6177 12.3958 10.6451 12.4177 10.7004C12.4391 10.6413 12.4525 10.6143 12.4584 10.5856C12.4697 10.5303 12.4924 10.5333 12.5243 10.5684C12.5399 10.604 12.5554 10.6396 12.5747 10.6841C12.6046 10.6451 12.6205 10.6241 12.6365 10.6027C12.6465 10.592 12.657 10.5809 12.6671 10.5702C12.6953 10.5569 12.7234 10.5436 12.7578 10.5269C12.7226 10.4995 12.6965 10.4785 12.6701 10.4579C12.6625 10.4519 12.6549 10.4464 12.6474 10.4404C12.6583 10.3363 12.7431 10.3962 12.7906 10.3735C12.8994 10.368 13.0086 10.365 13.1173 10.3551C13.1715 10.35 13.1896 10.371 13.1871 10.4215L13.1875 10.4189C13.1463 10.4554 13.1047 10.4922 13.0716 10.5213C13.1241 10.556 13.1971 10.6044 13.2652 10.6494C13.2706 10.6323 13.2811 10.6001 13.2916 10.568L13.2904 10.5697C13.2975 10.5547 13.3046 10.5402 13.3118 10.5252L13.3101 10.5265C13.4638 10.4909 13.6175 10.4519 13.7725 10.4219C13.8036 10.4159 13.8699 10.4404 13.8708 10.4536C13.8766 10.5492 13.9569 10.5693 14.0123 10.6126C14.0614 10.6507 14.0719 10.6991 14.0425 10.7484C13.9623 10.8837 13.9056 11.0349 13.7028 11.0427C13.4575 11.0516 13.2139 11.1048 12.9687 11.1176C12.6974 11.1322 12.4248 11.1206 12.1531 11.1249C11.8129 11.1305 11.4778 11.0949 11.1473 11.0144C11.0771 10.9972 11.0183 10.9733 11.0175 10.8824C11.0175 10.8606 10.9935 10.837 10.9767 10.8178C10.9007 10.7317 10.8856 10.6503 10.9742 10.601C11.0544 10.556 11.0847 10.4853 11.138 10.4271C11.3207 10.4605 11.5038 10.4935 11.6865 10.5269L11.6852 10.526C11.6966 10.5702 11.7075 10.6143 11.7188 10.6584C11.726 10.658 11.7335 10.6571 11.7407 10.6567C11.7508 10.6276 11.7604 10.5984 11.7705 10.5689L11.7692 10.5697C11.7764 10.5624 11.7839 10.5547 11.7911 10.5475L11.7898 10.5483L11.7915 10.5487ZM12.1409 11.0311C12.1359 11.0409 12.1312 11.0508 12.1262 11.0606C12.138 11.0564 12.1497 11.0516 12.1615 11.0474C12.1665 11.0422 12.1716 11.0371 12.177 11.0319C12.248 10.9578 12.395 10.9484 12.4777 11.0088C12.4928 11.0199 12.5201 11.0135 12.5416 11.0152C12.592 10.993 12.6444 10.9745 12.6915 10.9463C12.7104 10.9351 12.7217 10.9034 12.7259 10.879C12.7276 10.8704 12.6965 10.8447 12.6839 10.8469C12.6629 10.8503 12.644 10.8696 12.6256 10.8837C12.6167 10.8906 12.61 10.9004 12.6012 10.9107C12.5852 10.8914 12.5747 10.8786 12.5642 10.8657C12.4689 10.8516 12.3736 10.8375 12.2761 10.8229C12.2728 10.843 12.2669 10.8747 12.2614 10.9069C12.2245 10.8812 12.193 10.8593 12.1623 10.8383V11.0101C12.1552 11.017 12.148 11.0238 12.1409 11.0307V11.0311ZM12.8956 10.5038C12.8931 10.4841 12.8901 10.4643 12.8876 10.4446C12.8763 10.4643 12.8649 10.4845 12.8536 10.5042C12.8313 10.5076 12.8095 10.5106 12.7872 10.514C12.7881 10.5166 12.7889 10.5188 12.7898 10.5213H13.0044C13.0044 10.5175 13.0044 10.5136 13.0044 10.5098C12.9678 10.5076 12.9313 10.5059 12.8952 10.5038H12.8956ZM12.8133 10.7377C12.8112 10.7419 12.8103 10.7466 12.8108 10.7514C12.7965 10.7604 12.7822 10.7694 12.7473 10.7912C12.799 10.8002 12.8259 10.8049 12.8628 10.8109C12.8498 10.8422 12.8406 10.8632 12.8318 10.8846C12.8116 10.894 12.791 10.903 12.7486 10.9227C12.794 10.9364 12.8154 10.9428 12.8368 10.9493L12.8414 10.957C12.8431 10.9625 12.8448 10.9681 12.8465 10.9737C12.8465 10.9681 12.8465 10.9625 12.8465 10.9574C12.8767 10.9536 12.9074 10.9497 12.9376 10.9463C12.9447 10.9403 12.9519 10.9347 12.959 10.9287C12.9909 10.9214 13.0228 10.9141 13.0594 10.9056C13.0627 10.9454 13.0661 10.9793 13.0703 11.0294C13.143 10.9827 13.1799 10.927 13.1644 10.8542C13.1577 10.8225 13.1148 10.7989 13.1068 10.7908C13.0447 10.8503 13.0027 10.8906 12.9607 10.9304C12.9531 10.9304 12.9456 10.93 12.938 10.9296C12.9229 10.8593 12.9074 10.7891 12.8922 10.7188C12.883 10.7021 12.8738 10.6858 12.8645 10.6691L12.8145 10.7372L12.8133 10.7377ZM13.5293 10.7702C13.5029 10.7436 13.4546 10.6952 13.4126 10.6533C13.4008 10.709 13.3857 10.7809 13.3655 10.8782C13.3214 10.8302 13.2996 10.807 13.2597 10.7638C13.2421 10.8075 13.2227 10.8392 13.2181 10.8726C13.2135 10.9051 13.2244 10.9398 13.2299 10.987C13.2589 10.9681 13.2925 10.942 13.3294 10.9231C13.3605 10.9073 13.4038 10.8812 13.4281 10.8919C13.5079 10.9261 13.5503 10.8966 13.5759 10.8242C13.6923 10.8657 13.8955 10.7899 13.9081 10.7038C13.8006 10.7265 13.7872 10.7111 13.7691 10.5702C13.7653 10.5406 13.7448 10.4948 13.7246 10.4901C13.6872 10.4815 13.6444 10.4982 13.6041 10.5042C13.6058 10.5145 13.6079 10.5247 13.6095 10.535C13.6452 10.5325 13.6814 10.5303 13.72 10.5277C13.7301 10.5911 13.7397 10.6503 13.7473 10.6965C13.6755 10.7209 13.6163 10.7406 13.5289 10.7702H13.5293ZM11.6365 10.7766C11.629 10.7801 11.621 10.7839 11.6134 10.7873C11.6054 10.8417 11.5979 10.8966 11.5899 10.951C11.6999 10.9094 11.8066 10.8503 11.9028 10.9895C11.9414 11.0457 11.9914 10.9934 11.9964 10.9471C12.0061 10.8619 11.9994 10.7749 11.9994 10.6884L11.9859 10.6892C11.978 10.7822 11.9696 10.8752 11.9616 10.9685C11.9528 10.9677 11.9439 10.9668 11.9351 10.966C11.9124 10.9343 11.8893 10.9026 11.8658 10.87C11.8835 10.8507 11.8998 10.8332 11.9162 10.8156C11.8587 10.7167 11.8335 10.7119 11.731 10.7831C11.7432 10.8079 11.7562 10.8336 11.7747 10.8709C11.7361 10.8782 11.7079 10.8837 11.6844 10.888C11.6659 10.8452 11.6516 10.8109 11.6369 10.7766H11.6365ZM11.3619 10.5192C11.3493 10.5149 11.3367 10.5106 11.3241 10.5068C11.2909 10.5873 11.2548 10.6665 11.2279 10.7488C11.2233 10.7629 11.2527 10.7989 11.2741 10.81C11.3182 10.8332 11.3858 10.8327 11.4106 10.867C11.4593 10.9338 11.4891 10.8615 11.5261 10.8615C11.5437 10.8615 11.5634 10.8032 11.5769 10.7694C11.579 10.7642 11.5508 10.7466 11.5277 10.7274C11.5277 10.8542 11.5172 10.8606 11.4219 10.8135C11.4261 10.7766 11.4303 10.7402 11.4345 10.7042L11.4123 10.6995C11.3963 10.7325 11.3799 10.7655 11.364 10.7989C11.293 10.7912 11.2791 10.7616 11.3106 10.6948C11.3362 10.6408 11.3455 10.5783 11.3619 10.5196V10.5192ZM12.0985 10.4472C12.0972 10.4528 12.0955 10.4584 12.0943 10.4639C12.1069 10.4673 12.1195 10.4708 12.1317 10.4742C12.1333 10.4682 12.1346 10.4622 12.1363 10.4562C12.1237 10.4532 12.1111 10.4502 12.0985 10.4472ZM13.001 10.4374C12.9943 10.4279 12.9892 10.4215 12.9842 10.4151C12.9775 10.4215 12.9678 10.4267 12.9653 10.4344C12.9636 10.4395 12.9733 10.4481 12.9775 10.4549C12.9842 10.4498 12.9913 10.4446 13.0006 10.4374H13.001ZM11.8872 10.4151C11.8851 10.4155 11.8818 10.4151 11.8809 10.4168C11.8797 10.4189 11.8797 10.4219 11.8793 10.4245C11.883 10.4237 11.8864 10.4232 11.8902 10.4224C11.8893 10.4198 11.8885 10.4177 11.8872 10.4151Z" fill="#FEFEFC"/>
<path id="Vector_70" d="M12.7915 10.3744C12.744 10.3971 12.6592 10.3371 12.6483 10.4412C12.6411 10.4412 12.6336 10.4417 12.6264 10.4421C12.6189 10.4348 12.6117 10.4275 12.6042 10.4198C12.6042 10.4078 12.6042 10.3958 12.6042 10.3838C12.6508 10.3611 12.6978 10.3384 12.7583 10.3089C12.6138 10.245 12.639 10.0981 12.6033 9.97516C12.5576 10.0938 12.6373 10.2455 12.4954 10.3316C12.3005 10.1846 12.4446 9.97687 12.4043 9.79824C12.382 9.89034 12.3665 9.9833 12.3568 10.0771C12.3476 10.1662 12.3383 10.2523 12.2426 10.2892C12.2035 10.2707 12.1657 10.2523 12.1502 10.245C12.1359 10.1576 12.1271 10.0848 12.1103 10.0137C12.1019 9.97773 12.0779 9.94603 12.0607 9.91219C12.0733 9.88906 12.0863 9.86592 12.1069 9.8278C12.1288 9.90619 12.1443 9.96145 12.1598 10.0163C12.1691 10.015 12.1783 10.0133 12.188 10.012C12.1632 9.90276 12.2867 9.80252 12.1884 9.68472C12.293 9.61361 12.2888 9.51937 12.2451 9.41656C12.2409 9.40671 12.2476 9.39214 12.2489 9.37972C12.2669 9.40028 12.2846 9.42084 12.3043 9.44312C12.3207 9.35573 12.3362 9.27434 12.3526 9.18652C12.3824 9.20751 12.4143 9.22294 12.437 9.24735C12.4866 9.30004 12.5261 9.29362 12.563 9.23493C12.5903 9.2345 12.6176 9.23364 12.6449 9.23322L12.684 9.40328C12.6932 9.43112 12.7029 9.45897 12.7121 9.48724C12.6718 9.59048 12.7776 9.62603 12.8058 9.69757C12.7881 9.70486 12.7545 9.71599 12.7554 9.71942C12.7789 9.82566 12.8053 9.93061 12.8318 10.0364C12.8394 10.0446 12.8469 10.0523 12.8545 10.0604C12.8541 10.1242 12.8536 10.1876 12.8532 10.2515C12.8326 10.2926 12.8116 10.3337 12.7911 10.3748L12.7915 10.3744Z" fill="#C19403"/>
<path id="Vector_71" d="M12.8536 10.2509C12.8541 10.1871 12.8545 10.1237 12.8549 10.0598C12.8704 10.0127 12.886 9.96601 12.9024 9.91632C12.9267 9.9326 12.9427 9.94374 12.9586 9.95444L12.9578 9.95316C12.9654 9.9673 12.9733 9.98143 12.9809 9.99514C13.009 10.0307 13.0367 10.0662 13.072 10.1112C13.1035 10.02 13.1287 9.94673 13.156 9.86791C13.1921 9.9009 13.2211 9.92746 13.2505 9.95402L13.2493 9.95316C13.2635 9.97843 13.2778 10.0033 13.3055 10.0521C13.3509 9.94331 13.3862 9.85849 13.4298 9.75439C13.4647 9.87434 13.4945 9.97758 13.5248 10.0808C13.5373 10.1292 13.5504 10.1776 13.5701 10.2513C13.5096 10.2423 13.463 10.2355 13.4164 10.2282L13.4181 10.2295C13.4109 10.2149 13.4038 10.1999 13.3967 10.1853L13.3975 10.1866C13.3778 10.1524 13.358 10.1177 13.3278 10.0645C13.2879 10.1609 13.2568 10.2359 13.2165 10.3336C13.1686 10.265 13.1312 10.2119 13.0943 10.1588C13.0229 10.2085 13.0729 10.3387 12.9637 10.331C12.9259 10.3284 12.891 10.2787 12.8549 10.2505L12.8536 10.2509Z" fill="#FDFBF6"/>
<path id="Vector_72" d="M13.3139 10.4223C13.3005 10.3962 13.287 10.3705 13.2719 10.3409C13.4269 10.305 13.5915 10.2668 13.7658 10.2266V10.3744C13.6415 10.4022 13.5121 10.4339 13.3811 10.4583C13.3614 10.4622 13.3357 10.4339 13.3126 10.4206L13.3143 10.4223H13.3139Z" fill="#FCF9F2"/>
<path id="Vector_73" d="M13.3122 10.4207C13.3122 10.4563 13.3118 10.4918 13.3114 10.5274L13.3131 10.5261C13.3059 10.5411 13.2988 10.5557 13.2917 10.5706L13.2929 10.5689C13.1963 10.5638 13.1778 10.5021 13.1883 10.4194L13.1879 10.422C13.2299 10.422 13.2719 10.422 13.3139 10.422L13.3122 10.4203V10.4207Z" fill="#FCF9F2"/>
<path id="Vector_74" d="M13.416 10.229C13.3807 10.2565 13.345 10.2839 13.3097 10.3113C13.3005 10.3027 13.2916 10.2937 13.2824 10.2852C13.2946 10.2462 13.3072 10.2072 13.3194 10.1682C13.3509 10.1759 13.374 10.1815 13.3966 10.1871L13.3958 10.1858C13.4029 10.2003 13.4101 10.2153 13.4172 10.2299L13.4155 10.2286L13.416 10.229Z" fill="#FAF6EA"/>
<path id="Vector_75" d="M12.6844 9.40331L12.6453 9.23325C12.6336 9.20926 12.6222 9.1857 12.6105 9.16171C12.6495 9.13515 12.689 9.10859 12.7281 9.08203C12.7146 9.12187 12.7281 9.14457 12.7701 9.148C12.7911 9.18356 12.8121 9.21954 12.8335 9.25509C12.841 9.26109 12.8486 9.26752 12.8562 9.27351C12.8675 9.28294 12.8788 9.29193 12.8902 9.30136C12.9108 9.33006 12.9309 9.35876 12.9679 9.41059C12.9813 9.29108 12.9901 9.20369 13.0031 9.1163C13.0052 9.10345 13.0283 9.0936 13.0418 9.08246C13.0556 9.08974 13.0699 9.09745 13.0838 9.10473L13.0825 9.10345C13.0901 9.11116 13.0976 9.11844 13.1048 9.12615L13.1035 9.12444C13.1107 9.14286 13.1174 9.16128 13.1245 9.1797C13.1279 9.18227 13.1312 9.1857 13.1338 9.18912C13.1506 9.21483 13.1674 9.2401 13.1846 9.2658C13.1942 9.26109 13.2039 9.25638 13.214 9.25124C13.219 9.22297 13.2245 9.19512 13.2295 9.16685L13.2287 9.16856C13.2501 9.16771 13.2715 9.16728 13.2929 9.16642C13.3101 9.25938 13.329 9.35191 13.3425 9.44529C13.345 9.46371 13.3257 9.48513 13.316 9.50526C13.2866 9.47828 13.2576 9.45172 13.2283 9.42473C13.2077 9.43244 13.1774 9.43373 13.1678 9.44872C13.1434 9.4877 13.1287 9.53225 13.1039 9.58794C13.054 9.51897 13.017 9.46757 12.9666 9.39774C12.9339 9.52711 12.9074 9.63121 12.8793 9.74301C12.8595 9.72759 12.8461 9.71774 12.8331 9.70746C12.8242 9.7036 12.815 9.70017 12.8062 9.69632C12.778 9.62478 12.6722 9.58923 12.7125 9.48599C12.7495 9.42516 12.7869 9.36433 12.8238 9.30307C12.8125 9.29536 12.8007 9.28808 12.7894 9.28037C12.7709 9.30693 12.7537 9.3352 12.7327 9.36005C12.7192 9.37632 12.7003 9.38832 12.684 9.40203L12.6844 9.40331Z" fill="#FDFBF6"/>
<path id="Vector_76" d="M12.8061 9.69751C12.815 9.70137 12.8242 9.70479 12.833 9.70865C12.8481 9.74249 12.8628 9.7759 12.878 9.80974C12.8864 9.80675 12.8952 9.80375 12.9036 9.80075C12.9284 9.70094 12.9536 9.60113 12.983 9.48161C13.0292 9.55143 13.0619 9.60198 13.1031 9.6641C13.127 9.61869 13.1438 9.58142 13.1656 9.54715C13.1841 9.51802 13.2076 9.49232 13.2291 9.46533C13.2471 9.48075 13.2648 9.49617 13.2828 9.5116C13.3093 9.53644 13.3357 9.56129 13.3618 9.58613C13.4605 9.70008 13.3597 9.79475 13.3282 9.89371C13.3198 9.91984 13.2761 9.93397 13.2488 9.95411L13.2501 9.95496C13.2215 9.90099 13.1929 9.84701 13.1648 9.79304C13.1543 9.79646 13.1442 9.79946 13.1337 9.80289C13.1068 9.87571 13.0804 9.94811 13.0523 10.0244C13.0342 10.0072 13.017 9.99137 12.9998 9.97552C12.9855 9.96867 12.9712 9.96139 12.9573 9.95453L12.9582 9.95582C12.941 9.91684 12.9233 9.87786 12.9061 9.83887C12.8948 9.84144 12.8834 9.84359 12.8725 9.84616C12.8591 9.90998 12.8456 9.97338 12.8322 10.0372C12.8061 9.93183 12.7793 9.82645 12.7558 9.72021C12.7549 9.71679 12.7885 9.70565 12.8061 9.69837V9.69751Z" fill="#FDFCF8"/>
<path id="Vector_77" d="M13.2828 9.51127C13.2647 9.49585 13.2471 9.48043 13.229 9.46501C13.229 9.45216 13.2286 9.43888 13.2282 9.42603C13.2576 9.45301 13.2866 9.47957 13.316 9.50656C13.3051 9.50827 13.2937 9.50999 13.2828 9.51127Z" fill="#C9A224"/>
<path id="Vector_78" d="M12.2497 9.37968C12.248 9.3921 12.2417 9.40667 12.2459 9.41652C12.2896 9.51933 12.2934 9.614 12.1892 9.68468C12.2875 9.80206 12.164 9.9023 12.1888 10.012C12.1796 10.0132 12.1703 10.015 12.1607 10.0162C12.1451 9.96098 12.1296 9.90615 12.1078 9.82776C12.0868 9.86546 12.0742 9.88902 12.0616 9.91215L12.0632 9.91086C12.0561 9.92586 12.049 9.94042 12.0418 9.95542L12.0431 9.9537C12.0355 9.96141 12.028 9.9687 12.0204 9.97641L12.0217 9.97512C12.0145 9.97512 12.0074 9.97555 12.0002 9.97598C11.9801 9.99226 11.9599 10.0081 11.9322 10.0304C11.9066 9.94813 11.8839 9.87574 11.8612 9.80334C11.8524 9.79992 11.8432 9.79606 11.8344 9.79263C11.8062 9.84661 11.7781 9.90101 11.7499 9.95499L11.7512 9.9537C11.7252 9.93742 11.6987 9.92157 11.6731 9.90487C11.6706 9.90315 11.6706 9.89844 11.6693 9.89544C11.5568 9.64013 11.5572 9.63842 11.7953 9.46364C11.8247 9.52661 11.8533 9.58873 11.8911 9.67055C11.9272 9.60929 11.9557 9.56088 11.9935 9.49663C12.0288 9.61058 12.0595 9.7091 12.0897 9.80763C12.1036 9.81534 12.117 9.82305 12.1309 9.83076C12.1447 9.80291 12.1586 9.7755 12.1729 9.74765C12.1766 9.73737 12.1804 9.72666 12.1842 9.71638L12.1582 9.72409C12.1393 9.71724 12.1082 9.7151 12.1036 9.70268C12.0687 9.61315 12.0393 9.52147 12.0015 9.41181C11.9658 9.46793 11.9343 9.51762 11.8953 9.57888C11.865 9.51548 11.8373 9.45807 11.8125 9.40581C11.7298 9.41181 11.7109 9.55789 11.6063 9.48506C11.6336 9.41224 11.6609 9.33899 11.6882 9.26616C11.7054 9.22889 11.7226 9.19163 11.7424 9.14922C11.7604 9.18606 11.7764 9.21947 11.8029 9.27344C11.8293 9.23918 11.8478 9.21519 11.8667 9.19077C11.8688 9.18649 11.8717 9.18349 11.8759 9.18134C11.8831 9.16292 11.8898 9.1445 11.8969 9.12608L11.8961 9.12737C11.9171 9.11323 11.9385 9.0991 11.9595 9.08496C11.9734 9.1021 11.9969 9.11752 11.9994 9.13637C12.0116 9.21818 12.0179 9.30086 12.0267 9.38354C12.0359 9.38482 12.0452 9.38611 12.0544 9.38739C12.08 9.35184 12.1057 9.31628 12.1309 9.28073C12.1493 9.27302 12.1682 9.26531 12.1867 9.2576C12.1943 9.26402 12.2018 9.27045 12.2094 9.27687L12.2086 9.27516C12.2228 9.31114 12.2371 9.34713 12.2514 9.38311L12.2506 9.38097L12.2497 9.37968Z" fill="#FDFCF8"/>
<path id="Vector_79" d="M11.8751 9.18047C11.8709 9.18261 11.8679 9.18561 11.8658 9.18989C11.7743 9.17404 11.7377 9.10679 11.7667 9.0104C11.7894 8.93458 11.8116 8.85833 11.8331 8.78208C11.8511 8.71782 11.891 8.64843 11.8797 8.58931C11.8637 8.50278 11.8104 8.42353 11.773 8.34128C11.7449 8.43467 11.731 8.52634 11.7297 8.61801C11.7264 8.81592 11.7436 9.01554 11.6705 9.2066C11.6647 9.22159 11.6815 9.24515 11.6878 9.26486C11.6117 9.25329 11.6206 9.19717 11.6269 9.14277C11.6323 9.09479 11.642 9.04724 11.6453 8.99926C11.6668 8.70369 11.6915 8.40811 11.7062 8.1121C11.7125 7.98359 11.6978 7.85379 11.6928 7.72485C11.7037 7.72485 11.7146 7.72485 11.7255 7.72485C11.7356 8.00587 11.7995 8.2736 11.9158 8.52891C11.9376 8.57732 11.9515 8.62915 11.9691 8.6797C11.9515 8.68098 11.9339 8.68227 11.9162 8.68355C11.9175 8.68869 11.9187 8.69383 11.92 8.69898C11.9368 8.69255 11.9532 8.68612 11.97 8.6797C11.9809 8.6827 11.9918 8.68612 12.0031 8.68912C12.0019 8.69512 12.004 8.69855 12.0094 8.70026C12.0094 8.70626 12.012 8.71011 12.0174 8.71225C12.0208 8.71911 12.0241 8.72553 12.0275 8.73239C12.0409 8.75424 12.0548 8.77565 12.0682 8.7975L12.0804 8.82792C12.0645 8.8292 12.0489 8.83006 12.033 8.83134C12.0086 8.8005 11.9847 8.76966 11.946 8.72039C11.9502 8.75295 11.9523 8.76109 11.9519 8.76837C11.9418 8.86604 12.0296 8.96799 11.9397 9.06224C11.925 9.08323 11.9103 9.10422 11.8952 9.12521L11.8961 9.12392C11.8889 9.14234 11.8822 9.16076 11.8751 9.17918V9.18047ZM11.7591 8.26503C11.7562 8.25989 11.7541 8.25261 11.7495 8.25004C11.7465 8.24833 11.7398 8.25261 11.7348 8.25432C11.7373 8.25946 11.7386 8.26717 11.7428 8.26932C11.7461 8.27103 11.7528 8.26675 11.7587 8.26503H11.7591Z" fill="#FFFFFE"/>
<path id="Vector_80" d="M11.7251 7.72579C11.7142 7.72579 11.7033 7.72579 11.6924 7.72579C11.6911 7.69109 11.6899 7.65597 11.6886 7.62127C11.8784 7.59128 12.0687 7.56172 12.2585 7.53174C12.2736 7.5463 12.2892 7.56044 12.3043 7.575C12.2917 7.58229 12.2795 7.58957 12.2669 7.59642C12.2602 7.59 12.2522 7.57672 12.2463 7.57757C12.08 7.60542 11.9133 7.63326 11.7478 7.66582C11.7369 7.66796 11.7323 7.7048 11.7247 7.72536L11.7251 7.72579Z" fill="#FAF6EA"/>
<path id="Vector_81" d="M12.0611 9.91166C12.0779 9.9455 12.1019 9.97763 12.1107 10.0132C12.1275 10.0843 12.1359 10.1571 12.1506 10.2445C12.1657 10.2518 12.2039 10.2698 12.243 10.2886C12.3387 10.2518 12.3484 10.1657 12.3572 10.0766C12.3669 9.98277 12.3828 9.88982 12.4047 9.79772C12.445 9.97635 12.3005 10.1841 12.4958 10.331C12.6378 10.2454 12.558 10.0937 12.6037 9.97463C12.6394 10.0976 12.6142 10.2445 12.7587 10.3083C12.6982 10.3379 12.6512 10.3606 12.6046 10.3833C12.5764 10.409 12.5483 10.4351 12.5206 10.4608C12.4929 10.4467 12.4656 10.433 12.4378 10.4189V10.4197C12.3694 10.3914 12.3009 10.3619 12.2312 10.3349C12.201 10.3233 12.1686 10.3178 12.1271 10.3071C12.0918 10.3118 12.0238 10.3417 11.9948 10.3195C11.9557 10.2891 11.9465 10.2188 11.9167 10.1468C11.8721 10.2094 11.8356 10.2608 11.7882 10.3272C11.7651 10.2784 11.7474 10.2428 11.7315 10.2064C11.7151 10.1678 11.7008 10.1284 11.676 10.0654C11.6454 10.116 11.6244 10.1511 11.6029 10.1863V10.1854C11.5962 10.2 11.5891 10.2145 11.5824 10.2291L11.5836 10.2282C11.5383 10.2359 11.4929 10.2441 11.4396 10.2531C11.448 10.1824 11.4539 10.1314 11.4597 10.0804C11.4946 9.97763 11.5299 9.87482 11.5702 9.75659C11.6105 9.85255 11.6462 9.93694 11.6907 10.0432C11.7172 10.0029 11.734 9.97763 11.7508 9.95236L11.7495 9.95364C11.7789 9.92666 11.8083 9.89967 11.844 9.86711C11.8721 9.94765 11.8978 10.0218 11.9297 10.1143C11.9658 10.0654 11.9918 10.0303 12.0183 9.99477C12.0191 9.98791 12.0204 9.98063 12.0212 9.97378L12.02 9.97506C12.0275 9.96735 12.0351 9.96007 12.0427 9.95236L12.0414 9.95407C12.0485 9.93908 12.0557 9.92451 12.0628 9.90952L12.0611 9.91081V9.91166Z" fill="#FDFBF6"/>
<path id="Vector_82" d="M11.6882 10.4206C11.5319 10.4891 11.3896 10.4116 11.2455 10.3709C11.2279 10.3658 11.2136 10.3067 11.2195 10.2771C11.2224 10.2625 11.2766 10.2445 11.3031 10.2497C11.4412 10.2784 11.5786 10.3144 11.7146 10.3473C11.7075 10.3675 11.6974 10.3949 11.6873 10.4223L11.6886 10.4206H11.6882Z" fill="#FCF9F2"/>
<path id="Vector_83" d="M11.6878 10.5277C11.6878 10.4921 11.6878 10.4566 11.6882 10.421L11.687 10.4227C11.7176 10.4138 11.7483 10.4048 11.7915 10.3923C11.7915 10.4536 11.7915 10.5016 11.7915 10.5495L11.7928 10.5487C11.7856 10.556 11.7781 10.5637 11.7709 10.571L11.7722 10.5701C11.7436 10.556 11.7155 10.5414 11.687 10.5273L11.6882 10.5281L11.6878 10.5277Z" fill="#FAF6EA"/>
<path id="Vector_84" d="M12.3325 10.4629C12.3677 10.4488 12.403 10.4347 12.4383 10.4205L12.4379 10.4197C12.4123 10.4749 12.4933 10.5713 12.3745 10.5906L12.3757 10.5915C12.3614 10.5482 12.3476 10.5054 12.3333 10.4621L12.3325 10.4629Z" fill="#FAF6EA"/>
<path id="Vector_85" d="M11.6033 10.1871C11.6269 10.1819 11.6504 10.1763 11.6794 10.1699C11.692 10.2055 11.705 10.241 11.718 10.2766C11.7113 10.2864 11.7041 10.2963 11.6974 10.3061C11.6596 10.2804 11.6218 10.2547 11.584 10.2295L11.5828 10.2303C11.5899 10.2158 11.597 10.2012 11.6042 10.1866L11.6038 10.1875L11.6033 10.1871Z" fill="#FAF6EA"/>
<path id="Vector_86" d="M12.0208 10.3821C12.0166 10.4014 12.0124 10.4202 12.0082 10.4395C11.9986 10.4202 11.9889 10.4014 11.9788 10.3821C11.9927 10.3821 12.007 10.3821 12.0208 10.3821Z" fill="#FDFBF6"/>
<path id="Vector_87" d="M12.8171 7.22186C12.8192 7.22186 12.8221 7.22144 12.8234 7.22229C12.8251 7.22401 12.8255 7.227 12.8263 7.22915C12.8221 7.22915 12.8175 7.22872 12.8133 7.22829C12.8146 7.22615 12.8158 7.22401 12.8171 7.22144V7.22186Z" fill="white"/>
<path id="Vector_88" d="M13.1342 9.18999C13.1317 9.18657 13.1283 9.18357 13.1249 9.18057C13.1178 9.16215 13.1111 9.14373 13.1039 9.12531L13.1052 9.12702C13.0976 9.11931 13.0901 9.11203 13.0829 9.10432L13.0842 9.1056C13.0762 9.0919 13.0682 9.07776 13.0598 9.06405C12.9822 8.96296 13.0317 8.85415 13.0405 8.74791C13.0619 8.71107 13.0834 8.6738 13.1048 8.63696C13.1804 8.8066 13.2316 8.9818 13.2287 9.17029L13.2295 9.16857C13.1976 9.17586 13.1657 9.18314 13.1338 9.19085L13.1342 9.18999Z" fill="#FDFCF8"/>
<path id="Vector_89" d="M12.2132 7.22161C12.2002 7.22461 12.1867 7.22761 12.1737 7.23018C12.18 7.22075 12.1863 7.21133 12.1922 7.2019C12.1989 7.20833 12.206 7.21476 12.2128 7.22161H12.2132Z" fill="white"/>
<path id="Vector_90" d="M12.2673 7.59645C12.2799 7.58916 12.2921 7.58188 12.3047 7.57503C12.2896 7.56046 12.274 7.54633 12.2589 7.53176C12.2833 7.51848 12.3081 7.50478 12.3324 7.4915C12.3824 7.56389 12.4223 7.54461 12.4571 7.47736C12.4823 7.47736 12.5071 7.47736 12.5323 7.47779C12.5323 7.47779 12.5357 7.47607 12.5361 7.47607C12.61 7.51848 12.6839 7.56132 12.7574 7.60373C12.7591 7.61101 12.7629 7.61572 12.7696 7.61787C12.7704 8.05138 12.7709 8.48489 12.7717 8.91841C12.7667 8.92269 12.7658 8.92783 12.7692 8.9334L12.7637 8.93383C12.7595 8.94154 12.7549 8.94968 12.7507 8.95739C12.6739 9.02893 12.5974 9.10089 12.5206 9.17243L12.4366 9.16729L12.4378 9.16858C12.4231 9.1613 12.4089 9.15401 12.3942 9.14673L12.3958 9.14802C12.4114 9.07519 12.3475 9.08205 12.3114 9.06148L12.3127 9.0632C12.3051 9.05549 12.298 9.0482 12.2904 9.04049L12.2921 9.04221C12.2845 9.0345 12.2774 9.02721 12.2698 9.0195L12.2711 9.02079C12.2635 9.01308 12.2564 9.0058 12.2488 8.99809L12.2501 8.99937C12.2505 8.99252 12.2501 8.98609 12.248 8.97966C12.2434 8.97153 12.2388 8.96339 12.2341 8.95525C12.2329 8.94197 12.2316 8.92869 12.2304 8.91541C12.2295 8.90084 12.2287 8.88628 12.2278 8.87172C12.2278 8.45362 12.2283 8.03553 12.2287 7.61744C12.2413 7.61058 12.2539 7.60373 12.2669 7.59688L12.2673 7.59645Z" fill="white"/>
<path id="Vector_91" d="M12.7717 8.91822C12.7709 8.4847 12.7704 8.05119 12.7696 7.61768C12.9115 7.64552 13.0539 7.67294 13.2122 7.70378C13.2059 7.80145 13.1988 7.91154 13.1917 8.02163C13.1392 8.30436 13.0468 8.57123 12.8767 8.8047C12.8464 8.84625 12.807 8.88052 12.7713 8.91822H12.7717Z" fill="black"/>
<path id="Vector_92" d="M12.521 9.17275C12.5979 9.10121 12.6743 9.02925 12.7511 8.95771C12.7553 8.95 12.76 8.94186 12.7642 8.93415L12.7696 8.93372C12.7873 8.93372 12.8049 8.93329 12.8225 8.93286C12.8175 8.96413 12.8125 8.99583 12.8074 9.0271C12.8074 9.0301 12.8083 9.03353 12.8095 9.03738L12.8074 9.03867C12.7562 9.00783 12.7327 9.02753 12.7285 9.08322C12.6894 9.10935 12.6499 9.13548 12.6109 9.16204C12.5937 9.17489 12.5769 9.18817 12.5596 9.20102C12.5533 9.20359 12.547 9.20531 12.5407 9.20616C12.5344 9.19503 12.5277 9.18389 12.5214 9.17275H12.521Z" fill="#C9A224"/>
<path id="Vector_93" d="M12.7575 7.60397C12.6835 7.56156 12.6096 7.51873 12.5361 7.47632C12.6201 7.51359 12.7045 7.55086 12.7885 7.58812C12.778 7.59326 12.768 7.59883 12.7575 7.60397Z" fill="#C8A121"/>
<path id="Vector_94" d="M13.0405 8.74731C13.0317 8.85355 12.9821 8.96279 13.0598 9.06345C13.0539 9.06988 13.0476 9.07631 13.0417 9.08316C13.0283 9.0943 13.0052 9.10415 13.0031 9.117C12.9901 9.20396 12.9817 9.29178 12.9678 9.41129C12.9309 9.35946 12.9107 9.33076 12.8901 9.30206C12.8969 9.2952 12.9036 9.28792 12.9103 9.28107C12.9191 9.27336 12.9351 9.2665 12.9363 9.25708C12.9557 9.13585 12.9729 9.01419 12.9909 8.89253C12.9871 8.87154 12.9834 8.85055 12.9796 8.82999C13.0002 8.80257 13.0203 8.77516 13.0409 8.74774L13.0405 8.74731Z" fill="#C69E19"/>
<path id="Vector_95" d="M12.9792 8.8291C12.983 8.85009 12.9867 8.87108 12.9905 8.89164C12.967 8.90707 12.9435 8.92249 12.92 8.93791C12.9149 8.93277 12.9099 8.92806 12.9044 8.92377C12.9292 8.89207 12.9544 8.86037 12.9792 8.8291Z" fill="#D1AF43"/>
<path id="Vector_96" d="M12.8091 9.03704C12.8083 9.03318 12.8074 9.02976 12.807 9.02676C12.8335 9.00063 12.8599 8.97407 12.8864 8.94751C12.891 8.95222 12.896 8.95651 12.9007 8.96122C12.8746 8.9912 12.8486 9.02119 12.8221 9.05118C12.8175 9.04689 12.8129 9.04175 12.8087 9.03704H12.8091Z" fill="#D1AF43"/>
<path id="Vector_97" d="M12.8868 8.94788C12.8927 8.94017 12.899 8.93246 12.9048 8.92432C12.9103 8.9286 12.9153 8.93331 12.9204 8.93845C12.9141 8.94616 12.9078 8.95345 12.9015 8.96116C12.8964 8.95687 12.8918 8.95216 12.8872 8.94745L12.8868 8.94788Z" fill="#D1AF43"/>
<path id="Vector_98" d="M12.4572 7.47715C12.4223 7.54397 12.3824 7.56368 12.3325 7.49128C12.3341 7.48572 12.3358 7.48015 12.3375 7.47501C12.3467 7.47115 12.356 7.46687 12.3652 7.46301C12.3904 7.44588 12.416 7.42874 12.4412 7.41161C12.4723 7.40561 12.5034 7.40004 12.5345 7.39404C12.5424 7.39961 12.5504 7.40518 12.5584 7.41118C12.5525 7.4266 12.5462 7.44159 12.5403 7.45701C12.5126 7.46387 12.4849 7.47072 12.4572 7.47758V7.47715Z" fill="#FAF6EA"/>
<path id="Vector_99" d="M12.4572 7.47735C12.4849 7.47049 12.5126 7.46364 12.5403 7.45679C12.5378 7.46364 12.5353 7.47092 12.5323 7.47778C12.5071 7.47778 12.4819 7.47778 12.4572 7.47778V7.47735Z" fill="#C8A121"/>
<path id="Vector_100" d="M13.5298 10.7706C13.6171 10.741 13.6759 10.7213 13.7482 10.6969C13.7406 10.6511 13.7314 10.5915 13.7209 10.5281C13.6822 10.5307 13.6461 10.5333 13.6104 10.5354C13.6087 10.5251 13.6066 10.5149 13.605 10.5046C13.6453 10.4986 13.6881 10.4819 13.7255 10.4904C13.7457 10.4951 13.7662 10.541 13.77 10.5705C13.7881 10.711 13.8015 10.7269 13.909 10.7042C13.896 10.7903 13.6932 10.8661 13.5768 10.8246C13.5512 10.897 13.5084 10.9265 13.429 10.8922C13.4046 10.8815 13.3614 10.9077 13.3303 10.9235C13.2933 10.9424 13.2597 10.9685 13.2308 10.9873C13.2253 10.9402 13.2144 10.9055 13.219 10.873C13.2236 10.8396 13.2429 10.8083 13.2606 10.7642C13.3001 10.807 13.3219 10.8306 13.3664 10.8785C13.3866 10.7813 13.4017 10.7089 13.4135 10.6536C13.4555 10.6956 13.5042 10.744 13.5302 10.7706H13.5298Z" fill="#C69E19"/>
<path id="Vector_101" d="M11.6369 10.7765C11.6516 10.8107 11.6663 10.845 11.6844 10.8879C11.7079 10.8831 11.7361 10.878 11.7747 10.8707C11.7562 10.833 11.7436 10.8077 11.731 10.7829C11.8335 10.7122 11.8583 10.7169 11.9162 10.8155C11.8998 10.833 11.8835 10.851 11.8658 10.8699C11.8893 10.9024 11.9124 10.9341 11.9351 10.9658C11.9439 10.9667 11.9528 10.9675 11.9616 10.9684C11.9696 10.8754 11.978 10.7825 11.9859 10.6891L11.9994 10.6882C11.9994 10.7743 12.0061 10.8617 11.9964 10.947C11.9914 10.9932 11.9414 11.0455 11.9028 10.9894C11.8066 10.8497 11.6995 10.9093 11.5899 10.9508C11.5979 10.8964 11.6054 10.842 11.6134 10.7872C11.621 10.7838 11.629 10.7799 11.6365 10.7765H11.6369Z" fill="#C8A121"/>
<path id="Vector_102" d="M12.542 11.0156C12.5206 11.0139 12.4933 11.0199 12.4782 11.0092C12.3954 10.9488 12.2485 10.9582 12.1775 11.0323C12.1724 11.0251 12.1678 11.0182 12.1628 11.0109V10.8392C12.1934 10.8606 12.2245 10.882 12.2619 10.9077C12.2674 10.8756 12.2728 10.8443 12.2766 10.8237C12.3736 10.8383 12.4694 10.8524 12.5647 10.8666C12.5307 10.8863 12.4962 10.9056 12.4614 10.9257C12.492 10.96 12.5172 10.9878 12.5424 11.0156H12.542Z" fill="#C2970A"/>
<path id="Vector_103" d="M11.3627 10.5192C11.3463 10.5779 11.3371 10.6404 11.3115 10.6944C11.28 10.7612 11.2939 10.7908 11.3648 10.7985C11.3808 10.7655 11.3972 10.7321 11.4131 10.6991L11.4354 10.7038C11.4312 10.7402 11.427 10.7767 11.4228 10.8131C11.5181 10.8602 11.5282 10.8538 11.5286 10.727C11.5517 10.7462 11.5799 10.7638 11.5778 10.7689C11.5643 10.8032 11.5446 10.861 11.5269 10.861C11.4904 10.861 11.4602 10.9334 11.4114 10.8666C11.3867 10.8323 11.319 10.8328 11.275 10.8096C11.2535 10.7985 11.2241 10.7625 11.2288 10.7484C11.2556 10.6661 11.2922 10.5865 11.3249 10.5063C11.3375 10.5106 11.3501 10.5149 11.3627 10.5188V10.5192Z" fill="#C69E19"/>
<path id="Vector_104" d="M12.542 11.0157C12.5168 10.9879 12.492 10.96 12.4609 10.9257C12.4958 10.9056 12.5298 10.8863 12.5643 10.8666C12.5748 10.8795 12.5857 10.8923 12.6012 10.9116C12.6104 10.9013 12.6167 10.8915 12.6256 10.8846C12.644 10.8705 12.6629 10.8512 12.6839 10.8478C12.6965 10.8456 12.7276 10.8713 12.7259 10.8799C12.7213 10.9043 12.71 10.9356 12.6915 10.9472C12.6445 10.9754 12.592 10.9939 12.5416 11.0161L12.542 11.0157Z" fill="#C69E19"/>
<path id="Vector_105" d="M12.9603 10.9309C13.0023 10.8906 13.0443 10.8508 13.1064 10.7913C13.1144 10.7994 13.1573 10.823 13.164 10.8547C13.1795 10.9275 13.143 10.9832 13.0699 11.0299C13.0653 10.9797 13.0624 10.9463 13.059 10.9061C13.0225 10.9146 12.9905 10.9219 12.9586 10.9292L12.9603 10.9309Z" fill="#C9A224"/>
<path id="Vector_106" d="M13.1883 10.4197C13.1778 10.5024 13.1963 10.564 13.2929 10.5692C13.2824 10.6013 13.2719 10.6334 13.2664 10.6506C13.1984 10.6056 13.1249 10.5572 13.0728 10.5225C13.106 10.4929 13.1472 10.4565 13.1887 10.4201L13.1883 10.4197Z" fill="#C2970A"/>
<path id="Vector_107" d="M12.374 10.5906C12.4929 10.5713 12.4118 10.4749 12.4374 10.4197C12.4652 10.4338 12.4925 10.4475 12.5202 10.4617L12.5563 10.5054C12.5567 10.5195 12.5575 10.5341 12.558 10.5482C12.5466 10.555 12.5357 10.5619 12.5244 10.5688C12.492 10.5332 12.4698 10.5302 12.4584 10.5859C12.4526 10.6146 12.4391 10.6416 12.4177 10.7007C12.3954 10.6454 12.3845 10.618 12.374 10.5906Z" fill="#C59B12"/>
<path id="Vector_108" d="M12.8918 10.7192C12.907 10.7895 12.9225 10.8597 12.9376 10.93C12.9372 10.9356 12.9368 10.9411 12.9372 10.9467C12.907 10.9506 12.8763 10.9544 12.8461 10.9583L12.8414 10.9578L12.8368 10.9501C12.8351 10.9287 12.8335 10.9069 12.8318 10.8854C12.8406 10.8645 12.8498 10.843 12.8629 10.8118C12.8259 10.8053 12.799 10.8006 12.7474 10.7921C12.7822 10.7702 12.7965 10.7612 12.8108 10.7522C12.8175 10.7548 12.8242 10.7578 12.8309 10.7604C12.8511 10.7471 12.8713 10.7334 12.891 10.7201L12.8918 10.7192Z" fill="#C2970A"/>
<path id="Vector_109" d="M12.3329 10.4622C12.3472 10.5054 12.361 10.5483 12.3753 10.5915C12.322 10.5714 12.2686 10.5508 12.2056 10.5268C12.256 10.5011 12.2947 10.4819 12.3329 10.4622Z" fill="#C59B12"/>
<path id="Vector_110" d="M12.5248 10.5689C12.5361 10.562 12.547 10.5552 12.5584 10.5483C12.579 10.5603 12.5995 10.5723 12.6201 10.5843C12.626 10.5907 12.6319 10.5972 12.6373 10.6036C12.6214 10.6246 12.605 10.646 12.5756 10.685C12.5563 10.6404 12.5407 10.6049 12.5252 10.5693L12.5248 10.5689Z" fill="#C2970A"/>
<path id="Vector_111" d="M11.6865 10.5264C11.7151 10.5405 11.7432 10.5551 11.7718 10.5692C11.7617 10.5983 11.752 10.6275 11.742 10.657C11.7348 10.6574 11.7273 10.6583 11.7201 10.6587C11.7088 10.6146 11.6979 10.5705 11.6865 10.5264Z" fill="#C59B12"/>
<path id="Vector_112" d="M12.671 10.4587C12.6974 10.4793 12.7234 10.5003 12.7587 10.5277C12.7243 10.544 12.6962 10.5573 12.668 10.571C12.6634 10.5658 12.6584 10.5603 12.6537 10.5551C12.6537 10.5294 12.6533 10.5033 12.6529 10.4776C12.6588 10.4712 12.6647 10.4652 12.671 10.4587Z" fill="#C2970A"/>
<path id="Vector_113" d="M12.8918 10.7191C12.8717 10.7324 12.8515 10.7461 12.8318 10.7594C12.8259 10.7521 12.82 10.7448 12.8141 10.7375C12.8309 10.7148 12.8473 10.6921 12.8641 10.6694C12.8734 10.6861 12.8826 10.7024 12.8918 10.7191Z" fill="#C69E19"/>
<path id="Vector_114" d="M12.8956 10.5042C12.9321 10.5063 12.9687 10.508 13.0048 10.5101C13.0048 10.514 13.0048 10.5179 13.0048 10.5217H12.7902C12.7893 10.5191 12.7885 10.517 12.7877 10.5144C12.8099 10.511 12.8318 10.508 12.854 10.5046C12.8679 10.5046 12.8817 10.5046 12.896 10.5046L12.8956 10.5042Z" fill="#D1AF43"/>
<path id="Vector_115" d="M12.8318 10.885C12.8334 10.9064 12.8351 10.9283 12.8368 10.9497C12.8154 10.9433 12.794 10.9368 12.7486 10.9231C12.7914 10.9034 12.8116 10.8944 12.8318 10.885Z" fill="#C69E19"/>
<path id="Vector_116" d="M12.8956 10.5041C12.8818 10.5041 12.8679 10.5041 12.8536 10.5041C12.865 10.4844 12.8763 10.4643 12.8877 10.4446C12.8902 10.4643 12.8931 10.484 12.8956 10.5037V10.5041Z" fill="#FDFBF6"/>
<path id="Vector_117" d="M12.0994 10.4468C12.112 10.4498 12.1246 10.4528 12.1372 10.4558L12.1325 10.4738C12.1199 10.4703 12.1073 10.4669 12.0952 10.4635C12.0964 10.4579 12.0981 10.4523 12.0994 10.4468Z" fill="#FDFBF6"/>
<path id="Vector_118" d="M13.0018 10.4368C12.9926 10.4437 12.9855 10.4492 12.9788 10.4544C12.9741 10.4475 12.9649 10.439 12.9666 10.4338C12.9687 10.4261 12.9788 10.421 12.9855 10.4146C12.9905 10.421 12.9951 10.4278 13.0023 10.4368H13.0018Z" fill="#FDFBF6"/>
<path id="Vector_119" d="M12.668 10.571C12.6579 10.5817 12.6474 10.5929 12.6373 10.6036C12.6315 10.5972 12.6256 10.5907 12.6201 10.5843C12.6315 10.5745 12.6428 10.5646 12.6541 10.5552C12.6588 10.5603 12.6638 10.5659 12.6684 10.571H12.668Z" fill="#C2970A"/>
<path id="Vector_120" d="M12.626 10.442C12.6331 10.442 12.6407 10.4416 12.6478 10.4412C12.6554 10.4472 12.6629 10.4527 12.6705 10.4587C12.6646 10.4652 12.6587 10.4711 12.6529 10.4776C12.644 10.4656 12.6348 10.454 12.626 10.442Z" fill="#C2970A"/>
<path id="Vector_121" d="M12.1619 11.0473C12.1502 11.0516 12.1384 11.0563 12.1262 11.0606C12.1313 11.0507 12.1359 11.0409 12.1409 11.031C12.1481 11.0366 12.1548 11.0417 12.1619 11.0473Z" fill="#C2970A"/>
<path id="Vector_122" d="M11.8878 10.4146C11.8887 10.4172 11.8896 10.4193 11.8908 10.4219C11.887 10.4228 11.8836 10.4232 11.8797 10.4241C11.8801 10.4215 11.8797 10.418 11.8814 10.4163C11.8823 10.415 11.8857 10.415 11.8878 10.4146Z" fill="#FDFBF6"/>
<path id="Vector_123" d="M12.8137 10.7375C12.8196 10.7448 12.8254 10.7521 12.8313 10.7594C12.8246 10.7568 12.8179 10.7538 12.8112 10.7513C12.8103 10.7465 12.8112 10.7418 12.8137 10.7375Z" fill="#F6D5D8"/>
<path id="Vector_124" d="M12.9372 10.9463C12.9372 10.9407 12.9372 10.9351 12.9376 10.9296C12.9452 10.9296 12.9527 10.93 12.9603 10.9304L12.9586 10.9287C12.9515 10.9347 12.9443 10.9403 12.9372 10.9463Z" fill="#C69E19"/>
<path id="Vector_125" d="M12.8414 10.9573L12.8461 10.9577C12.8461 10.9634 12.8461 10.9686 12.8461 10.9742C12.8444 10.9686 12.8427 10.9629 12.841 10.9573H12.8414Z" fill="#FAF6EA"/>
<path id="Vector_126" d="M12.1409 11.0315C12.1481 11.0247 12.1552 11.0178 12.1623 11.011C12.1674 11.0178 12.172 11.0251 12.177 11.0324C12.172 11.0375 12.167 11.0427 12.1619 11.0478C12.1548 11.0427 12.1481 11.0371 12.1409 11.0315Z" fill="#C2970A"/>
<path id="Vector_127" d="M12.5407 9.20574C12.547 9.20488 12.5533 9.20274 12.5596 9.2006C12.5609 9.21217 12.5622 9.2233 12.5638 9.23487C12.5269 9.29356 12.4878 9.29998 12.4378 9.24729C12.4152 9.2233 12.3837 9.20745 12.3534 9.18646C12.337 9.27428 12.3215 9.35567 12.3051 9.44306C12.2858 9.42078 12.2678 9.40022 12.2497 9.37966L12.2505 9.3818C12.2363 9.34582 12.222 9.30984 12.2077 9.27385L12.2085 9.27557C12.2073 9.26143 12.206 9.24729 12.2048 9.23359C12.2132 9.19675 12.2216 9.1599 12.23 9.12306C12.1884 9.0678 12.1468 9.01212 12.1052 8.95686C12.1287 8.956 12.1518 8.95514 12.1754 8.95386C12.1934 8.962 12.2115 8.97056 12.2291 8.9787L12.2279 8.97742C12.2354 8.9847 12.2434 8.99198 12.251 8.99884L12.2497 8.99755C12.2573 9.00526 12.2644 9.01254 12.272 9.02026L12.2707 9.01897C12.2783 9.02668 12.2854 9.03396 12.293 9.04167L12.2913 9.03996C12.2988 9.04767 12.306 9.05495 12.3135 9.06266L12.3123 9.06095C12.3404 9.08965 12.3685 9.11878 12.3967 9.14748L12.395 9.1462C12.4097 9.15348 12.424 9.16076 12.4387 9.16804L12.4374 9.16676C12.4567 9.22159 12.4836 9.255 12.5407 9.20531V9.20574Z" fill="#FCF9F2"/>
<path id="Vector_128" d="M12.626 10.442C12.6348 10.4539 12.644 10.4655 12.6529 10.4775C12.6529 10.5032 12.6533 10.5293 12.6537 10.555C12.6424 10.5649 12.631 10.5747 12.6197 10.5842C12.5991 10.5722 12.5785 10.5602 12.558 10.5482C12.5575 10.5341 12.5567 10.5195 12.5563 10.5054C12.5722 10.4767 12.5882 10.4484 12.6042 10.4197C12.6117 10.427 12.6188 10.4342 12.6264 10.442H12.626Z" fill="#FAF6EA"/>
<path id="Vector_129" d="M12.8322 10.036C12.8456 9.97216 12.8591 9.90876 12.8725 9.84493C12.8839 9.84236 12.8952 9.84022 12.9061 9.83765C12.9233 9.87663 12.941 9.91561 12.9582 9.95459C12.9422 9.94388 12.9263 9.93275 12.9019 9.91647C12.8855 9.96616 12.87 10.0129 12.8545 10.06C12.8469 10.0518 12.8393 10.0441 12.8318 10.036H12.8322Z" fill="#C59B12"/>
<path id="Vector_130" d="M12.6844 9.40315C12.7008 9.38944 12.7197 9.37745 12.7331 9.36117C12.7537 9.33633 12.7709 9.30805 12.7898 9.28149C12.8011 9.2892 12.8129 9.29649 12.8242 9.3042C12.7873 9.36503 12.7499 9.42586 12.7129 9.48711C12.7037 9.45927 12.694 9.43142 12.6848 9.40315H12.6844Z" fill="#FAF6EA"/>
<path id="Vector_131" d="M12.6041 10.4198C12.5882 10.4485 12.5722 10.4768 12.5563 10.5055C12.5441 10.4909 12.5319 10.4764 12.5201 10.4618L12.6041 10.3843C12.6041 10.3963 12.6041 10.4083 12.6041 10.4203V10.4198Z" fill="#C2970A"/>
<path id="Vector_132" d="M12.5634 9.23487C12.5621 9.22331 12.5609 9.21217 12.5592 9.2006C12.5764 9.18775 12.5932 9.17447 12.6104 9.16162C12.6222 9.18561 12.6335 9.20917 12.6453 9.23316C12.618 9.23359 12.5907 9.23444 12.5634 9.23487Z" fill="#FAF6EA"/>
<path id="Vector_133" d="M13.0002 9.97472C13.0174 9.99057 13.0346 10.0069 13.0526 10.0236C13.0808 9.94731 13.1072 9.87491 13.1341 9.80209C13.1446 9.79866 13.1547 9.79566 13.1652 9.79224C13.1938 9.84621 13.2223 9.90019 13.2505 9.95416C13.2215 9.9276 13.1921 9.90104 13.156 9.86806C13.1287 9.94688 13.1035 10.0201 13.072 10.1114C13.0367 10.0664 13.009 10.0308 12.9808 9.99529C12.9871 9.98843 12.9939 9.98115 13.0002 9.9743V9.97472Z" fill="#C9A224"/>
<path id="Vector_134" d="M13.0002 9.9746C12.9939 9.98146 12.9872 9.98874 12.9809 9.99559C12.9733 9.98146 12.9653 9.96732 12.9578 9.95361C12.972 9.96047 12.9863 9.96775 13.0002 9.9746Z" fill="#C59B12"/>
<path id="Vector_135" d="M13.2282 9.42585C13.2282 9.4387 13.2286 9.45198 13.229 9.46484C13.2076 9.49182 13.1837 9.51753 13.1656 9.54665C13.1442 9.58092 13.127 9.61819 13.103 9.6636C13.0623 9.60149 13.0291 9.55094 12.9829 9.48111C12.9531 9.60063 12.9283 9.70044 12.9036 9.80025C12.8952 9.80325 12.8863 9.80625 12.8779 9.80925C12.8628 9.77541 12.8481 9.74199 12.833 9.70815C12.846 9.71843 12.8595 9.72829 12.8792 9.74371C12.9073 9.63233 12.9338 9.52823 12.9666 9.39844C13.0174 9.46869 13.0543 9.51967 13.1039 9.58864C13.1287 9.53295 13.1434 9.48797 13.1677 9.44941C13.177 9.43442 13.2072 9.43314 13.2282 9.42543V9.42585Z" fill="#C59B12"/>
<path id="Vector_136" d="M12.8901 9.30161C12.8788 9.29219 12.8675 9.28319 12.8561 9.27377C12.8486 9.26777 12.841 9.26134 12.8334 9.25535C12.8124 9.21979 12.7914 9.18381 12.77 9.14825C12.7772 9.14097 12.7843 9.13369 12.7914 9.12598C12.8309 9.17738 12.8704 9.22921 12.9099 9.28062C12.9031 9.28747 12.8964 9.29476 12.8897 9.30161H12.8901Z" fill="#C69E19"/>
<path id="Vector_137" d="M12.7919 9.12603C12.7847 9.13331 12.7776 9.1406 12.7705 9.14831C12.7285 9.14488 12.715 9.12218 12.7285 9.08234V9.08277C12.7482 9.07463 12.7675 9.06649 12.7873 9.05835C12.7927 9.06306 12.7978 9.0682 12.8032 9.07291C12.7994 9.09091 12.7957 9.10847 12.7923 9.12646L12.7919 9.12603Z" fill="#D1AF43"/>
<path id="Vector_138" d="M13.1342 9.19C13.1661 9.18272 13.198 9.17544 13.2299 9.16772C13.2249 9.196 13.2194 9.22384 13.2144 9.25211C13.2047 9.25683 13.1951 9.26154 13.185 9.26668C13.1682 9.24098 13.1514 9.2157 13.1342 9.19Z" fill="#C19505"/>
<path id="Vector_139" d="M13.0417 9.08318C13.0476 9.07676 13.0539 9.07033 13.0598 9.06348C13.0678 9.07718 13.0758 9.09132 13.0842 9.10503C13.0703 9.09775 13.056 9.09004 13.0422 9.08275L13.0417 9.08318Z" fill="#C19505"/>
<path id="Vector_140" d="M13.0825 9.10376C13.0901 9.11147 13.0976 9.11875 13.1048 9.12646C13.0972 9.11875 13.0897 9.11147 13.0825 9.10376Z" fill="#C19505"/>
<path id="Vector_141" d="M11.6877 9.26488C11.6814 9.24518 11.6651 9.22162 11.6705 9.20662C11.744 9.01557 11.7268 8.81595 11.7297 8.61804C11.7314 8.52637 11.7449 8.43469 11.773 8.34131C11.8104 8.42356 11.8633 8.50281 11.8797 8.58934C11.8906 8.64845 11.8511 8.71785 11.8331 8.7821C11.8116 8.85835 11.7894 8.93461 11.7667 9.01043C11.7377 9.10681 11.7747 9.17364 11.8658 9.18992C11.8473 9.21391 11.8284 9.23789 11.802 9.27259C11.7759 9.21862 11.7596 9.1852 11.7415 9.14836C11.7218 9.19077 11.7045 9.22804 11.6873 9.26531L11.6877 9.26488Z" fill="#C2970A"/>
<path id="Vector_142" d="M11.9393 9.06303C12.0292 8.96879 11.9418 8.86684 11.9515 8.76917C11.9523 8.76146 11.9498 8.75375 11.9456 8.72119C11.9843 8.77045 12.0086 8.8013 12.0326 8.83214C12.0326 8.98678 12.0326 9.141 12.0326 9.29564C12.0431 9.29693 12.054 9.29821 12.0645 9.2995C12.0792 9.28622 12.0935 9.27251 12.1082 9.25923C12.1153 9.26608 12.1224 9.27294 12.1296 9.27936L12.0531 9.38603C12.0439 9.38474 12.0347 9.38346 12.0254 9.38217C12.017 9.29992 12.0107 9.21682 11.9981 9.135C11.9952 9.11615 11.9721 9.10073 11.9582 9.0836C11.9519 9.07674 11.9456 9.06989 11.9393 9.06303Z" fill="#C8A121"/>
<path id="Vector_143" d="M12.0183 9.99571C11.9923 10.0313 11.9658 10.0664 11.9297 10.1152C11.8978 10.0231 11.8717 9.94902 11.844 9.86806C11.8087 9.90061 11.7793 9.9276 11.7495 9.95459C11.7776 9.90062 11.8058 9.84621 11.8339 9.79224C11.8427 9.79566 11.852 9.79952 11.8608 9.80295C11.8835 9.87534 11.9062 9.94774 11.9318 10.03C11.9595 10.0077 11.9797 9.99143 11.9998 9.97558C12.0061 9.98243 12.012 9.98886 12.0183 9.99571Z" fill="#C9A224"/>
<path id="Vector_144" d="M12.23 9.12256C12.2216 9.1594 12.2132 9.19624 12.2048 9.23308C12.1985 9.24079 12.1922 9.2485 12.1859 9.25621C12.1674 9.26392 12.1485 9.27163 12.13 9.27934C12.1229 9.27249 12.1157 9.26563 12.1086 9.25921C12.1489 9.2138 12.1896 9.16839 12.23 9.12299V9.12256Z" fill="#C8A121"/>
<path id="Vector_145" d="M11.9394 9.06299C11.9457 9.06984 11.952 9.0767 11.9583 9.08355C11.9373 9.09769 11.9158 9.11182 11.8948 9.12596C11.9095 9.10497 11.9242 9.08398 11.9394 9.06299Z" fill="#C2970A"/>
<path id="Vector_146" d="M12.1859 9.25629C12.1922 9.24858 12.1985 9.24087 12.2047 9.23315C12.206 9.24729 12.2073 9.26143 12.2085 9.27514C12.201 9.26871 12.1934 9.26228 12.1859 9.25586V9.25629Z" fill="#C19403"/>
<path id="Vector_147" d="M12.0183 9.9956C12.012 9.98875 12.0061 9.98232 11.9998 9.97547C12.007 9.97547 12.0141 9.97504 12.0212 9.97461C12.0204 9.98146 12.0191 9.98875 12.0183 9.9956Z" fill="#C19403"/>
<path id="Vector_148" d="M12.1577 9.72329L12.1838 9.71558C12.18 9.72586 12.1762 9.73657 12.1724 9.74685C12.1674 9.73871 12.1628 9.731 12.1577 9.72286V9.72329Z" fill="#C9A224"/>
<path id="Vector_149" d="M12.2673 7.59634C12.2547 7.60319 12.2421 7.61005 12.2291 7.6169C12.0775 7.64475 11.9259 7.67259 11.765 7.70215C11.7705 7.76683 11.7739 7.83323 11.7818 7.8992C11.8142 8.17464 11.9036 8.4321 12.0217 8.68013C12.0154 8.68355 12.0091 8.68655 12.0023 8.68998C11.9914 8.68698 11.9805 8.68355 11.9692 8.68055H11.9683C11.9507 8.63001 11.9368 8.57774 11.915 8.52977C11.7986 8.27446 11.7348 8.00672 11.7247 7.72571C11.7323 7.70515 11.7369 7.66831 11.7478 7.66617C11.9133 7.63361 12.08 7.60576 12.2463 7.57792C12.2518 7.57706 12.2598 7.59034 12.2669 7.59677L12.2673 7.59634Z" fill="#C48C0E"/>
<path id="Vector_150" d="M12.23 9.12266C12.1897 9.16807 12.1489 9.21348 12.1086 9.25888C12.0939 9.27216 12.0796 9.28587 12.0649 9.29915C12.0544 9.29787 12.0435 9.29658 12.033 9.2953C12.033 9.14065 12.033 8.98644 12.033 8.8318C12.049 8.83051 12.0645 8.82965 12.0805 8.82837C12.0838 8.83736 12.0872 8.84593 12.0906 8.85493C12.0885 8.88106 12.0859 8.90762 12.0838 8.93375L12.1032 8.95431L12.1053 8.95602C12.1468 9.01129 12.1884 9.06697 12.23 9.12223V9.12266Z" fill="#FDFCF8"/>
<path id="Vector_151" d="M12.0905 8.85577C12.0872 8.84678 12.0838 8.83821 12.0801 8.82921L12.0679 8.7988C12.0738 8.79537 12.0792 8.79109 12.0838 8.78638C12.1073 8.81893 12.1304 8.85106 12.154 8.88362C12.1498 8.88833 12.1456 8.89261 12.1414 8.89733C12.1241 8.88362 12.1069 8.86991 12.0901 8.8562L12.0905 8.85577Z" fill="#C69E19"/>
<path id="Vector_152" d="M12.0683 8.79836C12.0548 8.77651 12.041 8.75509 12.0275 8.73325C12.033 8.72982 12.038 8.72639 12.0426 8.72168C12.0565 8.7431 12.0704 8.76409 12.0842 8.78551C12.0796 8.79022 12.0741 8.7945 12.0683 8.79793V8.79836Z" fill="#C69E19"/>
<path id="Vector_153" d="M11.7592 8.26515C11.7537 8.26686 11.747 8.27114 11.7432 8.26943C11.739 8.26729 11.7377 8.25958 11.7352 8.25444C11.7403 8.25272 11.7466 8.24844 11.7499 8.25015C11.7545 8.25272 11.7562 8.26001 11.7596 8.26515H11.7592Z" fill="#FCF9F2"/>
<path id="Vector_154" d="M11.9696 8.68066L11.9196 8.69994C11.9184 8.6948 11.9171 8.68966 11.9158 8.68452C11.9335 8.68323 11.9511 8.68195 11.9687 8.68066H11.9696Z" fill="#FCF9F2"/>
<path id="Vector_155" d="M12.0027 8.69052C12.009 8.68709 12.0153 8.68409 12.0221 8.68066C12.0292 8.69437 12.0359 8.70851 12.0431 8.72222C12.0384 8.7265 12.0334 8.73036 12.0279 8.73378C12.0246 8.72693 12.0212 8.7205 12.0179 8.71365C12.0153 8.70979 12.0124 8.70551 12.0095 8.70165C12.004 8.69994 12.0019 8.69609 12.0032 8.69052H12.0027Z" fill="#C69E19"/>
<path id="Vector_156" d="M12.009 8.70166C12.012 8.70557 12.0146 8.70992 12.0176 8.71384C12.012 8.71166 12.009 8.70775 12.009 8.70166Z" fill="#C48C0E"/>
<path id="Vector_157" d="M12.0427 8.72221C12.0355 8.7085 12.0288 8.69436 12.0217 8.68065C11.9037 8.43263 11.8142 8.17517 11.7819 7.89973C11.7739 7.83376 11.7705 7.76736 11.7651 7.70268C11.9259 7.67312 12.0775 7.64528 12.2291 7.61743C12.2291 8.03552 12.2291 8.45362 12.2287 8.87171C12.2212 8.87985 12.2136 8.88799 12.206 8.89613C12.1888 8.89184 12.1716 8.88799 12.1544 8.8837C12.1309 8.85115 12.1078 8.81902 12.0843 8.78646C12.0704 8.76504 12.0565 8.74405 12.0427 8.72263V8.72221Z" fill="#CE1226"/>
<path id="Vector_158" d="M12.1543 8.8833C12.1716 8.88758 12.1888 8.89144 12.206 8.89572C12.2144 8.90215 12.2228 8.90857 12.2316 8.91543C12.2329 8.92871 12.2341 8.94199 12.2354 8.95527C12.2333 8.96341 12.2316 8.97112 12.2295 8.97926C12.2115 8.97112 12.1934 8.96255 12.1758 8.95441C12.1648 8.93556 12.1535 8.91629 12.1426 8.89744C12.1468 8.89315 12.151 8.88844 12.1552 8.88373L12.1543 8.8833Z" fill="#C69E19"/>
<path id="Vector_159" d="M12.5408 9.20579C12.4836 9.25548 12.4568 9.22207 12.4374 9.16724C12.4656 9.16895 12.4933 9.17066 12.5214 9.17238C12.5277 9.18351 12.5345 9.19465 12.5408 9.20579Z" fill="#C69E19"/>
<path id="Vector_160" d="M12.3967 9.14781C12.3685 9.11911 12.3404 9.08998 12.3123 9.06128C12.3484 9.08184 12.4122 9.07499 12.3967 9.14781Z" fill="#C69E19"/>
<path id="Vector_161" d="M12.2312 8.91522C12.2228 8.90879 12.2144 8.90194 12.2056 8.89551C12.2132 8.88737 12.2207 8.87923 12.2283 8.87109C12.2291 8.88566 12.23 8.90022 12.2308 8.91479L12.2312 8.91522Z" fill="#F6D5D8"/>
<path id="Vector_162" d="M12.2291 8.97882C12.2312 8.97068 12.2329 8.96297 12.235 8.95483C12.2396 8.96297 12.2442 8.97111 12.2488 8.97925C12.2417 8.97882 12.235 8.97797 12.2278 8.97754L12.2291 8.97882Z" fill="#F6D5D8"/>
<path id="Vector_163" d="M12.2278 8.97754C12.235 8.97797 12.2417 8.97882 12.2488 8.97925C12.2509 8.98568 12.2518 8.9921 12.2509 8.99896C12.2434 8.99168 12.2354 8.98439 12.2278 8.97754Z" fill="#C69E19"/>
<path id="Vector_164" d="M12.7868 9.05828C12.7671 9.06642 12.7478 9.07456 12.728 9.0827C12.7322 9.02744 12.7557 9.00731 12.807 9.03815C12.8003 9.04458 12.7935 9.05143 12.7868 9.05786V9.05828Z" fill="#FAF6EA"/>
<path id="Vector_165" d="M12.7869 9.05786C12.7936 9.05143 12.8003 9.04458 12.807 9.03815L12.8091 9.03687C12.8133 9.04201 12.8179 9.04672 12.8226 9.051C12.8158 9.05828 12.8091 9.06514 12.8028 9.07242C12.7974 9.06771 12.7923 9.06257 12.7869 9.05786Z" fill="#D1AF43"/>
<path id="Vector_166" d="M12.8028 9.07243C12.8095 9.06515 12.8162 9.0583 12.8225 9.05102C12.8486 9.02103 12.8746 8.99104 12.9011 8.96106C12.9074 8.95335 12.9137 8.94606 12.92 8.93835C12.9435 8.92293 12.967 8.90751 12.9905 8.89209C12.9729 9.01375 12.9552 9.13541 12.9363 9.25664C12.9351 9.26563 12.9191 9.27249 12.9103 9.28062C12.8708 9.22922 12.8313 9.17739 12.7919 9.12598C12.7956 9.10799 12.7994 9.09043 12.8028 9.07243Z" fill="#FDFCF8"/>
<path id="Vector_167" d="M12.1417 8.89635C12.1527 8.9152 12.164 8.93447 12.1749 8.95332C12.1514 8.95418 12.1283 8.95504 12.1048 8.95632L12.1027 8.95461C12.0964 8.94775 12.0897 8.9409 12.0834 8.93405C12.0855 8.90791 12.0876 8.88178 12.0901 8.85522C12.1073 8.86893 12.1245 8.88264 12.1417 8.89635Z" fill="#FFFFFE"/>
</g>
</g>
<defs>
<clipPath id="clip0_116_912">
<rect width="25" height="17" rx="1" fill="white"/>
</clipPath>
</defs>
</svg>
