<svg width="25" height="13" viewBox="0 0 25 13" fill="none" xmlns="http://www.w3.org/2000/svg">
<g id="Layer_1">
<g clip-path="url(#clip0_116_1100)">
<path id="Vector" d="M0 6.99425V0H9.99992C10.0008 0.334068 10.0012 0.66772 10.002 1.00179C10.002 1.33461 10.002 1.66743 10.0024 2.00026C10.0024 2.33308 10.0024 2.6659 10.0024 2.99872C10.0024 3.33196 10.0024 3.6652 10.0024 3.99844C10.0024 4.00342 10.0024 4.00881 10.0024 4.01379C10.0024 4.33831 10.0024 4.66284 10.0024 4.98736C10.0024 4.99234 10.0024 4.99773 10.0024 5.00271C10.0024 5.33554 10.0024 5.66836 10.0024 6.00077C10.0012 6.33276 10.0003 6.66475 9.99908 6.99674C9.99698 7.00048 9.99362 7.00255 9.98942 7.00214C9.9533 6.99923 9.9176 6.99425 9.88148 6.99425C6.58766 6.99425 3.29383 6.99425 0.00041997 6.99425H0ZM3.55211 4.51012C3.55547 4.50556 3.55883 4.50141 3.56219 4.49684C3.54161 4.43335 3.52439 4.36861 3.49877 4.30719C3.47819 4.25864 3.49289 4.23332 3.53405 4.20718C3.59159 4.17066 3.64492 4.12874 3.71884 4.07562C3.62476 4.07562 3.55505 4.07106 3.48617 4.07687C3.43032 4.08185 3.40764 4.05944 3.39504 4.01006C3.37908 3.94615 3.35766 3.88348 3.33289 3.80007C3.29635 3.9034 3.26695 3.98806 3.23503 4.07853H2.95281C3.02505 4.1304 3.08216 4.17481 3.14222 4.21382C3.17624 4.23581 3.18422 4.25905 3.17036 4.2964C3.14516 4.36487 3.12332 4.43459 3.09392 4.52257C3.1838 4.45908 3.25897 4.40637 3.33415 4.35325C3.40974 4.4072 3.48071 4.45866 3.55169 4.5097L3.55211 4.51012ZM1.66476 3.80713C1.62991 3.90382 1.59925 3.98972 1.56691 4.07936H1.28721C1.35692 4.12957 1.41152 4.17232 1.46906 4.20967C1.50727 4.23457 1.52071 4.25781 1.50139 4.30387C1.47452 4.36819 1.4573 4.43667 1.43042 4.52049C1.52071 4.45742 1.59379 4.40596 1.66686 4.3545C1.74204 4.4072 1.81217 4.45617 1.90079 4.51842C1.87643 4.4404 1.86509 4.38189 1.83947 4.3296C1.80797 4.26403 1.82687 4.22793 1.88567 4.1939C1.93816 4.1636 1.98478 4.12335 2.0503 4.07604C1.96084 4.07604 1.89155 4.07396 1.82225 4.07687C1.77186 4.07894 1.74204 4.06857 1.7307 4.01172C1.71768 3.94615 1.68954 3.88348 1.66392 3.80796L1.66476 3.80713ZM8.34061 3.82124C8.33557 3.82124 8.33095 3.82041 8.32591 3.81999C8.2961 3.90423 8.2667 3.98889 8.23478 4.07936H7.95298C8.02773 4.13289 8.09031 4.17356 8.14785 4.22129C8.16381 4.23457 8.17514 4.26943 8.16968 4.28934C8.15079 4.36197 8.12433 4.43293 8.09493 4.52174C8.18438 4.45908 8.25956 4.40679 8.33431 4.35408C8.40991 4.40803 8.4813 4.45866 8.55228 4.50929C8.54346 4.43957 8.5296 4.38189 8.50566 4.32835C8.4792 4.26901 8.48844 4.23125 8.54724 4.19722C8.60141 4.16609 8.64887 4.12459 8.71607 4.07521C8.62703 4.07521 8.55942 4.07064 8.49306 4.07645C8.43175 4.08185 8.40445 4.05695 8.39101 4.00217C8.37589 3.94117 8.35741 3.88099 8.34019 3.82041L8.34061 3.82124ZM7.0513 4.07562C6.95597 4.07562 6.88332 4.07355 6.81066 4.07645C6.76782 4.07811 6.74514 4.064 6.73381 4.02168C6.71533 3.9532 6.69097 3.88639 6.66493 3.8063C6.62965 3.90465 6.59942 3.98889 6.56624 4.08102H6.28864C6.36129 4.13331 6.42261 4.17273 6.47762 4.21963C6.49484 4.23415 6.5066 4.27067 6.50114 4.29266C6.48434 4.36404 6.4583 4.43335 6.43059 4.52091C6.5192 4.45866 6.59228 4.4072 6.66703 4.3545C6.74053 4.40637 6.8115 4.45659 6.90221 4.52049C6.87492 4.43584 6.85686 4.37193 6.83334 4.31051C6.81612 4.26569 6.8199 4.23664 6.86484 4.20925C6.92405 4.17315 6.97781 4.12916 7.0513 4.07562ZM5.45122 1.97702C5.52429 2.02972 5.58015 2.07454 5.64062 2.11272C5.67926 2.1372 5.68388 2.16252 5.66918 2.20194C5.6444 2.26792 5.6234 2.33557 5.59401 2.42272C5.6843 2.35922 5.75905 2.30652 5.83423 2.25381C5.90898 2.30693 5.98122 2.35798 6.07067 2.42147C6.04253 2.3364 6.02574 2.27207 6.00012 2.21107C5.9787 2.16044 5.99298 2.13264 6.03707 2.10483C6.09377 2.06914 6.14585 2.02681 6.21556 1.97577C6.12485 1.97577 6.05681 1.97038 5.99004 1.97743C5.9304 1.98366 5.9073 1.95585 5.89345 1.90688C5.87623 1.84463 5.85733 1.78322 5.83339 1.70146C5.79643 1.80562 5.76703 1.88862 5.73554 1.97743H5.45122V1.97702ZM8.78662 1.97826C8.85466 2.02723 8.90589 2.06956 8.96217 2.10359C9.01172 2.13347 9.01928 2.16584 8.99787 2.2173C8.97267 2.27747 8.95587 2.34096 8.92941 2.42147C9.0197 2.35798 9.0932 2.3061 9.16711 2.25381C9.24145 2.3061 9.312 2.3559 9.38256 2.4057C9.3729 2.32893 9.34728 2.26211 9.3309 2.19281C9.32586 2.17082 9.33804 2.13388 9.35568 2.11894C9.41196 2.07122 9.47453 2.03055 9.55139 1.97536C9.45689 1.97536 9.38298 1.97328 9.30864 1.97619C9.26455 1.97785 9.24439 1.96083 9.23347 1.91933C9.21541 1.85169 9.19063 1.78571 9.16459 1.70478C9.1289 1.8048 9.09908 1.88945 9.06758 1.97785H8.78662V1.97826ZM0.448108 1.97536C0.518243 2.02599 0.56654 2.06624 0.619876 2.09778C0.673213 2.12932 0.689171 2.16252 0.662293 2.22186C0.635835 2.27996 0.621556 2.34304 0.595938 2.42147C0.684972 2.35881 0.758467 2.30693 0.834061 2.25381C0.908396 2.30652 0.981051 2.35798 1.06924 2.42106C1.04111 2.33391 1.02263 2.2646 0.99659 2.19862C0.981051 2.15961 0.98903 2.13803 1.02263 2.11562C1.0831 2.07537 1.14106 2.03138 1.21833 1.97577C1.1209 1.97577 1.04867 1.97411 0.976431 1.97619C0.934854 1.97743 0.911336 1.96913 0.901257 1.92182C0.886138 1.85335 0.859259 1.78778 0.832381 1.70561C0.797524 1.80355 0.767706 1.88613 0.736208 1.97494H0.448108V1.97536ZM3.78309 1.9766C3.85617 2.0293 3.9095 2.07122 3.9662 2.10691C4.00778 2.13305 4.0208 2.1592 4.00064 2.20692C3.9746 2.27 3.95696 2.33681 3.92966 2.42147C4.01912 2.35798 4.09177 2.3061 4.16653 2.25299C4.24002 2.30486 4.31142 2.35549 4.39961 2.41774C4.37945 2.35258 4.36643 2.30652 4.35131 2.26087C4.3264 2.18479 4.34557 2.12378 4.40885 2.07786C4.45127 2.04715 4.49326 2.01603 4.54954 1.97453C4.45883 1.97453 4.38869 1.97245 4.31898 1.97536C4.2711 1.97743 4.2438 1.96664 4.23204 1.91352C4.21734 1.84671 4.19004 1.78239 4.16443 1.70603C4.12999 1.80189 4.09933 1.88655 4.06699 1.97536H3.78267L3.78309 1.9766ZM2.50932 1.73176C2.50302 1.73093 2.49672 1.7301 2.49042 1.72927C2.46733 1.79484 2.44339 1.85999 2.42197 1.92597C2.41063 1.96125 2.39299 1.97868 2.35141 1.9766C2.28002 1.97287 2.20862 1.97536 2.11581 1.97536C2.18301 2.02391 2.2292 2.06499 2.28254 2.09404C2.34679 2.1289 2.35225 2.17082 2.32664 2.23182C2.30312 2.28701 2.288 2.34594 2.26322 2.42106C2.35309 2.35756 2.42659 2.3061 2.5005 2.25381C2.57106 2.30361 2.63909 2.35134 2.70671 2.39906C2.71217 2.39408 2.71763 2.3891 2.72309 2.38412C2.70503 2.32602 2.69201 2.26626 2.66765 2.21107C2.64497 2.15961 2.66009 2.13222 2.70461 2.10442C2.76173 2.06873 2.81422 2.02681 2.86882 1.98739C2.8663 1.98283 2.86378 1.97826 2.86126 1.9737H2.58324C2.55762 1.89028 2.53326 1.81102 2.50932 1.73176ZM7.50865 1.73093C7.50277 1.73093 7.49731 1.73051 7.49143 1.7301C7.46917 1.78861 7.43894 1.84546 7.42718 1.90564C7.415 1.96955 7.38098 1.97951 7.32554 1.97619C7.26255 1.97287 7.19871 1.97536 7.11472 1.97536C7.19157 2.03055 7.24827 2.07454 7.30833 2.11355C7.34234 2.13596 7.35074 2.15837 7.33646 2.19655C7.31126 2.26419 7.29111 2.33349 7.26297 2.42064C7.35368 2.35632 7.42676 2.30444 7.49857 2.25381C7.57165 2.30361 7.63926 2.35009 7.7073 2.39657C7.71276 2.39159 7.7178 2.38661 7.72326 2.38205C7.70268 2.31938 7.67832 2.25755 7.66404 2.19364C7.659 2.17123 7.67118 2.1343 7.68882 2.11936C7.74509 2.07205 7.80725 2.0318 7.88284 1.97743H7.58509C7.55863 1.89236 7.53385 1.81143 7.50865 1.73093ZM3.93386 6.60582C4.00736 6.55768 4.05943 6.51868 4.11655 6.48838C4.13797 6.47718 4.17577 6.47718 4.19718 6.48838C4.26186 6.52241 4.32234 6.56474 4.39877 6.61288C4.37273 6.53154 4.35467 6.46763 4.33157 6.40538C4.31646 6.36347 4.32066 6.33608 4.36265 6.31035C4.42271 6.27342 4.4773 6.22818 4.54954 6.17548C4.45589 6.17548 4.38323 6.17382 4.311 6.17631C4.26816 6.17797 4.24506 6.16427 4.23372 6.12153C4.21524 6.05264 4.19088 5.98541 4.16527 5.90573C4.12999 6.00326 4.09933 6.08791 4.06615 6.18046H3.78855C3.86205 6.23316 3.92294 6.27259 3.97796 6.31906C3.99518 6.33359 4.00652 6.37011 4.00148 6.3921C3.98636 6.45809 3.96158 6.522 3.93386 6.60582ZM8.7841 6.17714C8.86222 6.23316 8.92353 6.27259 8.97813 6.31948C8.99535 6.334 9.00627 6.37052 9.00081 6.39252C8.98569 6.4585 8.96091 6.52241 8.93445 6.60333C9.00039 6.561 9.05246 6.52905 9.10328 6.49461C9.1373 6.47137 9.16459 6.45726 9.20617 6.48963C9.26161 6.5332 9.32502 6.56681 9.3981 6.61288C9.3729 6.53196 9.35316 6.4639 9.32964 6.39667C9.31662 6.35973 9.3225 6.33649 9.35694 6.31408C9.41826 6.27425 9.47579 6.22943 9.55097 6.17506C9.45563 6.17506 9.38298 6.17299 9.31074 6.17589C9.26749 6.17755 9.24565 6.16261 9.23431 6.12028C9.21583 6.05181 9.19147 5.985 9.16543 5.9049C9.13016 6.00326 9.09992 6.0875 9.068 6.17672H8.78494L8.7841 6.17714ZM4.61716 4.07521C4.70367 4.13953 4.80782 4.17813 4.83134 4.24411C4.85528 4.31134 4.79942 4.40554 4.77296 4.50846C4.85402 4.4541 4.92667 4.40513 5.00143 4.35491C5.0703 4.40222 5.13918 4.44995 5.20805 4.49726C5.21351 4.49311 5.21897 4.48896 5.22443 4.48522C5.20427 4.42256 5.18705 4.35948 5.16354 4.29806C5.14926 4.2603 5.15556 4.23747 5.19041 4.21506C5.25131 4.17481 5.30927 4.12999 5.38528 4.07479H5.08542C5.05812 3.98931 5.03251 3.90838 5.00647 3.82787C4.96783 3.89261 4.93969 3.95279 4.92415 4.01587C4.91155 4.06732 4.88552 4.07811 4.83806 4.07562C4.77128 4.0723 4.70451 4.07479 4.61757 4.07479L4.61716 4.07521ZM6.19792 6.19C6.19624 6.18502 6.19456 6.18046 6.19246 6.17548C6.12023 6.17548 6.04841 6.17423 5.9766 6.17589C5.93544 6.17714 5.91192 6.16884 5.90142 6.12194C5.88631 6.05347 5.85943 5.98749 5.83171 5.90241C5.79643 6.00367 5.76661 6.08791 5.73512 6.17838H5.45206C5.52513 6.23067 5.58225 6.27466 5.64272 6.31367C5.67674 6.33566 5.6843 6.3589 5.67044 6.39625C5.64734 6.45933 5.62802 6.52366 5.60115 6.60499C5.67464 6.55727 5.72924 6.51743 5.78845 6.48589C5.80903 6.4751 5.84683 6.47552 5.86741 6.48714C5.92872 6.52117 5.985 6.56349 6.06185 6.61495C6.03791 6.53444 6.0228 6.46846 5.99886 6.4058C5.98248 6.36222 5.9871 6.33691 6.02868 6.31118C6.08747 6.27466 6.14207 6.23067 6.19834 6.19H6.19792ZM1.06169 6.61454C1.03775 6.53403 1.02263 6.46805 0.99827 6.40538C0.981471 6.36139 0.98777 6.33649 1.02851 6.31077C1.08772 6.27342 1.14232 6.22901 1.21581 6.17548C1.11754 6.17548 1.04237 6.17921 0.968452 6.1734C0.946613 6.17174 0.915955 6.14809 0.907556 6.12734C0.879838 6.06011 0.860099 5.98956 0.831541 5.90283C0.796264 6.00409 0.766866 6.08833 0.734948 6.1788H0.452728C0.525383 6.23109 0.582919 6.27466 0.642975 6.31408C0.677412 6.33649 0.683712 6.36015 0.670273 6.39667C0.647174 6.45975 0.627856 6.52365 0.601398 6.60458C0.673213 6.5581 0.729489 6.52573 0.780725 6.48714C0.816003 6.46058 0.840361 6.46224 0.875218 6.48963C0.928135 6.53113 0.98735 6.56515 1.06169 6.61454ZM1.28889 5.47995C1.37624 5.54303 1.4447 5.59325 1.51273 5.64221C1.4867 5.73144 1.4615 5.81734 1.43168 5.91984C1.49929 5.8717 1.55515 5.8356 1.60723 5.79452C1.64922 5.76173 1.6866 5.76588 1.7265 5.79452C1.77815 5.83187 1.83023 5.8688 1.88189 5.90573C1.88651 5.90241 1.89071 5.89951 1.89533 5.89619C1.86677 5.81361 1.83821 5.73102 1.80965 5.64885C1.88441 5.59532 1.9558 5.54386 2.04568 5.47954H1.75968C1.72902 5.38824 1.70004 5.30151 1.66644 5.20149C1.63956 5.28034 1.61395 5.34425 1.59715 5.41023C1.58287 5.46584 1.55221 5.48369 1.49677 5.48037C1.43504 5.47622 1.3733 5.47954 1.28931 5.47954L1.28889 5.47995ZM3.56975 1.72097C3.54203 1.63797 3.52607 1.57074 3.49709 1.51015C3.47274 1.45952 3.49121 1.43628 3.53027 1.41055C3.58655 1.3732 3.63988 1.33171 3.71044 1.28066H3.42738C3.39714 1.19227 3.36774 1.10471 3.33289 1.00179C3.30517 1.08603 3.28165 1.15367 3.26107 1.22215C3.24847 1.26448 3.22747 1.28564 3.17792 1.28232C3.10736 1.27734 3.03597 1.28108 2.95365 1.28108C3.01959 1.32797 3.07292 1.36781 3.12794 1.40474C3.16742 1.4313 3.1817 1.45703 3.1607 1.50642C3.13508 1.56701 3.12374 1.63382 3.10022 1.71848C3.18968 1.6554 3.26107 1.60518 3.33372 1.55373C3.40806 1.60684 3.47945 1.65747 3.56975 1.72138V1.72097ZM8.55144 1.7081C8.55606 1.70561 8.56068 1.70312 8.5653 1.70063C8.54388 1.64419 8.52414 1.58692 8.5002 1.53173C8.475 1.47363 8.48382 1.43338 8.54304 1.39976C8.59679 1.36905 8.64467 1.32839 8.71229 1.27983H8.42713C8.39731 1.19144 8.36749 1.10471 8.33263 1.00137C8.30492 1.08603 8.28098 1.15367 8.2604 1.22215C8.24738 1.26489 8.22596 1.28481 8.17682 1.28149C8.10627 1.27693 8.03529 1.28025 7.9534 1.28025C8.02186 1.3288 8.08149 1.3649 8.13273 1.41097C8.15289 1.42923 8.16464 1.47114 8.15961 1.49853C8.14785 1.56576 8.12391 1.63091 8.10459 1.6969C8.10921 1.6998 8.11425 1.70229 8.11887 1.7052C8.18984 1.65457 8.26082 1.60435 8.33347 1.5529C8.40865 1.60643 8.48004 1.65747 8.55144 1.7081ZM7.95256 5.47995C8.02186 5.52892 8.08191 5.56503 8.13315 5.61109C8.15331 5.62894 8.16464 5.67085 8.15961 5.69865C8.14827 5.76588 8.12517 5.83145 8.10123 5.91694C8.19068 5.85428 8.26208 5.80406 8.33389 5.75385C8.40991 5.80738 8.48172 5.85842 8.56908 5.91984C8.54136 5.83602 8.52498 5.76879 8.49642 5.70778C8.47458 5.66089 8.48844 5.6389 8.52582 5.61358C8.58335 5.57499 8.63837 5.53224 8.71103 5.47954H8.42671C8.39689 5.39156 8.36707 5.30483 8.33263 5.20315C8.30702 5.27951 8.28098 5.33927 8.26754 5.4011C8.25284 5.4675 8.21798 5.48742 8.15247 5.48161C8.09073 5.47622 8.02815 5.48037 7.95256 5.48037V5.47995ZM6.87954 5.90407C6.88457 5.90075 6.88962 5.89743 6.89423 5.8937C6.87072 5.82481 6.84468 5.75634 6.82536 5.6862C6.82032 5.66836 6.83208 5.6364 6.84678 5.62437C6.90431 5.57706 6.96647 5.53515 7.02695 5.49157C7.02443 5.48701 7.02149 5.48244 7.01897 5.47746H6.75858C6.72793 5.38658 6.69937 5.30068 6.66577 5.20066C6.63805 5.28449 6.61411 5.35214 6.59354 5.42102C6.58052 5.46501 6.55532 5.48244 6.5087 5.48037C6.44235 5.47746 6.37599 5.47954 6.28948 5.47954C6.37599 5.54262 6.44613 5.59366 6.51248 5.64221C6.48602 5.7331 6.46125 5.81859 6.43227 5.91943C6.49904 5.87212 6.55364 5.83768 6.60361 5.79701C6.64771 5.76132 6.68677 5.76505 6.72919 5.79659C6.77874 5.83311 6.82956 5.86838 6.87954 5.90407ZM3.42654 5.47995C3.39588 5.38824 3.3669 5.30275 3.33247 5.20066C3.30475 5.28449 3.28123 5.35214 3.26065 5.42061C3.24805 5.46294 3.22663 5.48369 3.1775 5.48078C3.10652 5.47622 3.03513 5.47954 2.95239 5.47954C3.01623 5.52477 3.06662 5.56378 3.11996 5.59823C3.1649 5.62727 3.1817 5.65591 3.15776 5.71152C3.13256 5.77003 3.1229 5.83519 3.10148 5.91611C3.18884 5.85427 3.26023 5.80406 3.33289 5.7526C3.40806 5.80572 3.48071 5.85718 3.55295 5.90864C3.54287 5.8439 3.52313 5.78663 3.49919 5.73102C3.47442 5.67375 3.48155 5.63267 3.54161 5.59906C3.59579 5.56876 3.64366 5.52726 3.71044 5.47912H3.42528L3.42654 5.47995ZM7.7031 6.59711C7.70898 6.59296 7.71486 6.58881 7.72032 6.58466C7.70688 6.53859 7.70016 6.48963 7.67874 6.4473C7.63842 6.36845 7.66152 6.32114 7.73586 6.2813C7.78289 6.25599 7.82321 6.21864 7.88368 6.17423H7.58509C7.55737 6.09123 7.53091 6.01031 7.49815 5.91196C7.46833 5.99039 7.4381 6.04932 7.42424 6.11198C7.41206 6.16759 7.38434 6.17921 7.33394 6.17631C7.26843 6.17299 7.20207 6.17548 7.11556 6.17548C7.19241 6.23109 7.24953 6.27508 7.30959 6.3145C7.34402 6.33732 7.35074 6.36015 7.33604 6.39791C7.31168 6.46058 7.29237 6.5249 7.26423 6.60914C7.32134 6.56847 7.36292 6.5415 7.40198 6.51121C7.46161 6.46473 7.51915 6.46265 7.57921 6.50996C7.61868 6.54108 7.66152 6.56847 7.70268 6.59711H7.7031ZM2.26532 6.60375C2.31488 6.57221 2.35225 6.55021 2.38795 6.52573C2.49168 6.45352 2.49126 6.45352 2.5992 6.52698C2.63489 6.55104 2.67227 6.57304 2.70881 6.59586C2.70251 6.52158 2.68739 6.45975 2.66429 6.40082C2.64749 6.35807 2.65883 6.33566 2.69495 6.31201C2.75417 6.273 2.81002 6.22984 2.88478 6.17548H2.58576C2.55804 6.0904 2.532 6.01073 2.49882 5.90905C2.46859 5.99288 2.44213 6.05638 2.42323 6.12236C2.41105 6.16427 2.39089 6.17838 2.34721 6.17631C2.27708 6.17299 2.20694 6.17548 2.11581 6.17548C2.19435 6.23233 2.25566 6.27176 2.31068 6.31865C2.32832 6.33359 2.34134 6.37052 2.33588 6.39293C2.31992 6.4585 2.29388 6.522 2.26616 6.60416L2.26532 6.60375ZM4.62051 5.47995C4.70577 5.54137 4.77674 5.59242 4.84688 5.64263C4.82042 5.72936 4.79564 5.81153 4.77086 5.8937C4.84142 5.86465 4.90147 5.82606 4.95691 5.78207C4.98967 5.75592 5.01319 5.758 5.04468 5.7829C5.0997 5.82647 5.15808 5.86589 5.21477 5.90698C5.20595 5.83602 5.18369 5.77252 5.16144 5.70861C5.14716 5.66836 5.1522 5.63765 5.19377 5.61192C5.25089 5.57623 5.30339 5.53307 5.37562 5.47995C5.28365 5.47995 5.21645 5.47705 5.14968 5.48078C5.10516 5.48327 5.08542 5.46833 5.07366 5.42559C5.05518 5.35919 5.02957 5.29487 5.00689 5.2293C4.96993 5.2903 4.94767 5.34757 4.93213 5.4065C4.91743 5.46418 4.88342 5.48369 4.82546 5.48037C4.76162 5.47663 4.69779 5.47954 4.61967 5.47954L4.62051 5.47995ZM1.51315 1.44292C1.4867 1.53298 1.4615 1.61929 1.43168 1.72055C1.51819 1.65913 1.59127 1.60726 1.66686 1.55373C1.74162 1.60684 1.81385 1.6583 1.90163 1.72097C1.86677 1.61888 1.83821 1.53422 1.80965 1.45039C1.88483 1.39603 1.95538 1.34457 2.04442 1.28066H1.75926C1.7286 1.18936 1.69962 1.10263 1.66602 1.0022C1.63872 1.08437 1.61395 1.15118 1.59463 1.21966C1.58119 1.2678 1.55431 1.28481 1.50475 1.28232C1.43966 1.279 1.37414 1.28149 1.28931 1.28149C1.37708 1.34499 1.44596 1.39478 1.51315 1.44334V1.44292ZM6.5129 1.44292C6.48644 1.53422 6.46167 1.62012 6.43227 1.72097C6.5024 1.67117 6.56162 1.63382 6.61495 1.58941C6.65527 1.5558 6.68425 1.56037 6.72205 1.59107C6.77328 1.63216 6.82872 1.66785 6.88205 1.70561L6.89381 1.69607C6.86568 1.6139 6.83712 1.53132 6.8094 1.45081C6.88457 1.39603 6.95555 1.34499 7.04458 1.28025H6.759C6.72835 1.18853 6.69937 1.1018 6.66577 1.00137C6.64183 1.07483 6.61915 1.13209 6.60488 1.19144C6.5885 1.25908 6.5549 1.29145 6.47972 1.28274C6.42345 1.2761 6.36591 1.28149 6.28906 1.28149C6.37557 1.34416 6.44277 1.39271 6.51248 1.44292H6.5129ZM5.00983 1.03416C5.00311 1.03499 4.99639 1.0354 4.98925 1.03623C4.96867 1.09682 4.94515 1.15658 4.92835 1.218C4.91533 1.26655 4.8872 1.28357 4.8389 1.28191C4.77044 1.27983 4.70199 1.28149 4.62093 1.28149C4.69443 1.33378 4.75617 1.37486 4.81412 1.42134C4.8284 1.43296 4.83932 1.46326 4.8347 1.4811C4.81706 1.5529 4.7927 1.62303 4.77002 1.69648C4.78136 1.69648 4.7906 1.69939 4.79606 1.69607C4.8305 1.67324 4.86452 1.65 4.89853 1.62593C4.96685 1.57752 5.03377 1.57683 5.09928 1.62386C5.13834 1.65208 5.17656 1.68071 5.23493 1.72346C5.20931 1.64876 5.19377 1.59315 5.17152 1.54045C5.14506 1.47737 5.1522 1.43213 5.21771 1.39561C5.26769 1.36822 5.31095 1.32839 5.37478 1.28149C5.28155 1.28149 5.21183 1.28523 5.14296 1.27942C5.12028 1.27734 5.08878 1.25493 5.07996 1.23377C5.05182 1.16944 5.03251 1.10097 5.00983 1.03457V1.03416ZM6.07361 3.82456C6.04505 3.74861 6.02574 3.69134 6.00264 3.63615C5.97744 3.57681 5.98248 3.53323 6.04631 3.49837C6.09923 3.46974 6.14543 3.42907 6.21094 3.38176H5.92998C5.8968 3.2942 5.86531 3.21203 5.82625 3.10953C5.79895 3.19709 5.77753 3.26183 5.75905 3.32698C5.74772 3.36765 5.72504 3.38425 5.68094 3.38217C5.60913 3.37885 5.53689 3.38135 5.45332 3.38135C5.52219 3.4299 5.57637 3.46974 5.6318 3.5075C5.66876 3.5324 5.68052 3.55772 5.66246 3.60378C5.63768 3.66644 5.62508 3.73367 5.60199 3.8175C5.67128 3.76853 5.72882 3.7345 5.77879 3.69134C5.82163 3.65441 5.85187 3.66063 5.89219 3.69342C5.94384 3.73575 6.00054 3.77227 6.07403 3.82497L6.07361 3.82456ZM0.929394 3.38176C0.896637 3.2942 0.865979 3.21286 0.826922 3.1087C0.800464 3.1946 0.779465 3.25809 0.761406 3.322C0.749227 3.36475 0.727389 3.38508 0.678672 3.38217C0.607697 3.37761 0.536722 3.38093 0.453988 3.38093C0.517404 3.42616 0.56822 3.46517 0.621556 3.49962C0.666913 3.52867 0.683292 3.5573 0.659354 3.61291C0.634155 3.67142 0.624076 3.73699 0.603078 3.81667C0.689591 3.75567 0.760986 3.70587 0.834901 3.65399C0.909656 3.70711 0.981891 3.75899 1.07176 3.82248C1.04237 3.73658 1.02347 3.66852 0.99491 3.60419C0.976011 3.56104 0.98903 3.53946 1.02389 3.5158C1.08226 3.47638 1.13812 3.43363 1.20993 3.38135H0.929814L0.929394 3.38176ZM9.16795 3.13609C9.16249 3.13692 9.15703 3.13733 9.15116 3.13816C9.13142 3.20041 9.11714 3.26515 9.09026 3.32408C9.0785 3.34939 9.04154 3.37512 9.01383 3.37844C8.94663 3.38632 8.87776 3.38093 8.78998 3.38093C8.87691 3.44401 8.94537 3.49381 9.0134 3.54319C8.98737 3.632 8.96217 3.71832 8.93193 3.82124C9.00417 3.76978 9.06338 3.73035 9.11966 3.68636C9.15368 3.6598 9.17929 3.65731 9.21457 3.68595C9.26917 3.73035 9.3288 3.76853 9.40566 3.82331C9.3687 3.71749 9.33888 3.63283 9.3099 3.55066C9.38634 3.49547 9.45689 3.44442 9.52745 3.39338C9.52493 3.38881 9.52199 3.38383 9.51947 3.37927H9.26077C9.22843 3.29461 9.19819 3.21535 9.16795 3.13609ZM4.40297 3.82207C4.37315 3.73243 4.35593 3.66063 4.32528 3.59507C4.30512 3.55191 4.32108 3.53904 4.35257 3.51829C4.41221 3.47928 4.46848 3.43571 4.54114 3.383H4.26312C4.22952 3.2971 4.19844 3.21701 4.15897 3.11534C4.13293 3.19584 4.11109 3.2527 4.09723 3.31121C4.08379 3.36724 4.05271 3.38508 3.99728 3.38135C3.9347 3.37761 3.87171 3.38051 3.78981 3.38051C3.87759 3.44401 3.94646 3.49381 4.01366 3.54236C3.9872 3.63241 3.962 3.71832 3.93218 3.81999C4.004 3.76895 4.06405 3.72911 4.12033 3.6847C4.15519 3.65731 4.18081 3.65814 4.21524 3.68595C4.269 3.72952 4.32737 3.7677 4.40297 3.82165V3.82207ZM7.73082 3.81875C7.70688 3.74239 7.69302 3.67931 7.66782 3.62079C7.64514 3.56851 7.65438 3.53697 7.70268 3.50667C7.75685 3.47264 7.80641 3.43114 7.87445 3.38093C7.80263 3.38093 7.75517 3.37595 7.7094 3.38217C7.62498 3.39338 7.57249 3.37222 7.55821 3.27967C7.55107 3.23485 7.52419 3.19335 7.49521 3.12488C7.47295 3.18671 7.4528 3.2278 7.44398 3.27096C7.4276 3.3552 7.38644 3.39504 7.29489 3.38259C7.24197 3.37512 7.18695 3.38135 7.12144 3.38135C7.20669 3.44276 7.27767 3.49381 7.34696 3.54402C7.3205 3.63158 7.29573 3.71334 7.27095 3.79551C7.33856 3.76936 7.39442 3.73284 7.44608 3.69134C7.48387 3.66063 7.51327 3.65565 7.55317 3.68927C7.60398 3.73201 7.66026 3.76812 7.73082 3.81916V3.81875ZM2.34721 3.54319C2.32076 3.63075 2.29598 3.71251 2.2649 3.81418C2.3111 3.7843 2.34134 3.76604 2.36989 3.74571C2.45669 3.68401 2.54236 3.68332 2.62691 3.74363C2.65589 3.76438 2.68403 3.78596 2.73065 3.82082C2.70629 3.74239 2.69243 3.67931 2.66765 3.62121C2.64497 3.56892 2.65337 3.53738 2.70167 3.50709C2.75585 3.47264 2.80582 3.43114 2.87344 3.38093C2.80246 3.38093 2.75501 3.37636 2.70923 3.38176C2.62566 3.39213 2.5719 3.37263 2.55762 3.27967C2.55048 3.23485 2.5236 3.19335 2.50554 3.1502C2.49924 3.14812 2.49294 3.14605 2.48664 3.14397C2.47279 3.18339 2.45809 3.22282 2.44591 3.26307C2.41021 3.38093 2.41105 3.38093 2.28716 3.38093C2.2355 3.38093 2.18343 3.38093 2.12043 3.38093C2.20526 3.44193 2.27666 3.49298 2.34637 3.54319H2.34721ZM3.09812 3.09459C3.10232 3.09998 3.10694 3.10538 3.11114 3.11119C3.167 3.07135 3.22579 3.03483 3.27829 2.99084C3.32029 2.95556 3.35136 2.95888 3.3921 2.9925C3.4425 3.03441 3.49877 3.0701 3.56387 3.11658C3.53321 3.01657 3.50675 2.93149 3.48155 2.84808C3.55421 2.79455 3.6193 2.74682 3.70162 2.68624H3.42906C3.3963 2.59369 3.36564 2.50696 3.32785 2.39948C3.30349 2.47874 3.28207 2.5385 3.26737 2.59992C3.25351 2.65926 3.23209 2.69661 3.15902 2.68748C3.09938 2.68001 3.03807 2.68582 2.96331 2.68582C3.03303 2.73603 3.0914 2.7738 3.14348 2.81862C3.1607 2.83356 3.17414 2.86966 3.16868 2.89041C3.15062 2.95971 3.1229 3.02653 3.09854 3.09459H3.09812ZM8.33473 2.42064C8.32969 2.42064 8.32465 2.42064 8.31919 2.42064C8.30072 2.48455 8.28098 2.54846 8.26418 2.61278C8.25116 2.66217 8.23184 2.69454 8.16926 2.6879C8.10585 2.68126 8.04075 2.68624 7.96264 2.68624C8.04747 2.74724 8.11635 2.79704 8.18354 2.84559C8.15373 2.93398 8.12601 3.01574 8.09829 3.09749C8.10207 3.10164 8.10585 3.10579 8.11005 3.10994C8.1848 3.05807 8.25956 3.00661 8.33431 2.95432C8.40949 3.00702 8.4813 3.05682 8.56404 3.11492C8.53254 3.01491 8.5065 2.93149 8.48088 2.84933C8.55312 2.79579 8.61905 2.74641 8.70137 2.68499H8.42839C8.39647 2.59535 8.36581 2.5082 8.33473 2.42106V2.42064ZM0.980211 0.749888C1.05161 0.697185 1.11796 0.647801 1.2007 0.586797H0.928135C0.896217 0.496329 0.865139 0.408766 0.826082 0.298793C0.801304 0.383036 0.781985 0.44653 0.764346 0.510439C0.751327 0.557748 0.736208 0.594682 0.671533 0.588042C0.606857 0.580987 0.540922 0.586382 0.463227 0.586382C0.545962 0.646556 0.614837 0.696355 0.683292 0.745738C0.653894 0.833301 0.626176 0.916715 0.598458 0.999713C0.603078 1.00303 0.607697 1.00635 0.612317 1.01009C0.685392 0.958629 0.758887 0.90717 0.834061 0.854466C0.908396 0.90717 0.980211 0.958214 1.06421 1.01756C1.03271 0.917545 1.00667 0.834131 0.980211 0.749888ZM5.82625 0.297963C5.80147 0.381792 5.78047 0.44238 5.76577 0.504629C5.75233 0.561483 5.7305 0.595512 5.66204 0.588042C5.60073 0.581402 5.53815 0.586797 5.46256 0.586797C5.54655 0.647386 5.61542 0.697185 5.68346 0.746153C5.65364 0.834131 5.62592 0.9163 5.59821 0.998053C5.60199 1.00262 5.60618 1.00677 5.60996 1.01133C5.6843 0.959044 5.75863 0.90717 5.83339 0.854881C5.90898 0.907585 5.98122 0.957384 6.06269 1.01424C6.03749 0.929994 6.01314 0.861521 5.99802 0.790972C5.9934 0.768978 6.00684 0.734119 6.02406 0.719179C6.07445 0.67519 6.13073 0.638256 6.20212 0.585967H5.92746C5.89596 0.496329 5.86531 0.408766 5.82667 0.298378L5.82625 0.297963ZM9.16039 4.50307C9.13688 4.57984 9.11378 4.6425 9.09866 4.70683C9.0848 4.767 9.0554 4.79314 8.99073 4.78733C8.92941 4.78194 8.86726 4.78609 8.79334 4.78609C8.86306 4.83506 8.91597 4.87656 8.97309 4.91183C9.01509 4.93798 9.01719 4.96536 8.99997 5.00728C8.97435 5.0687 8.95545 5.13261 8.93403 5.19568C8.96469 5.19568 8.97771 5.1878 8.99073 5.18033C9.05498 5.14215 9.12218 5.06994 9.18307 5.07492C9.24901 5.08032 9.30864 5.15751 9.37122 5.20315C9.37584 5.20647 9.3813 5.20938 9.39936 5.22017C9.37374 5.14672 9.35148 5.08654 9.33216 5.02512C9.31704 4.97657 9.31578 4.93466 9.37206 4.90395C9.42372 4.87573 9.46865 4.83589 9.51653 4.80103C9.51359 4.79563 9.51023 4.79024 9.50729 4.78526H9.26035C9.22801 4.69396 9.19735 4.60681 9.16039 4.50307ZM3.93344 5.19651C3.9389 5.19983 3.94436 5.20315 3.9494 5.20689C4.0208 5.15709 4.09177 5.10729 4.16779 5.05417C4.24044 5.10646 4.3131 5.15875 4.39415 5.21685C4.36979 5.1351 4.34501 5.06455 4.3299 4.99192C4.32528 4.96993 4.33955 4.93466 4.35761 4.91889C4.40633 4.87573 4.46177 4.84004 4.51468 4.80103C4.51258 4.79605 4.5109 4.79148 4.5088 4.7865H4.26018C4.227 4.6923 4.19592 4.60557 4.15939 4.50223C4.13629 4.57859 4.11445 4.6396 4.09975 4.70226C4.08505 4.76368 4.05733 4.79522 3.98762 4.78733C3.92756 4.78069 3.86667 4.78609 3.79485 4.78609C3.87717 4.84502 3.9473 4.89565 4.01702 4.94586C3.98804 5.03301 3.96074 5.11476 3.93344 5.19651ZM5.59737 5.199C5.60199 5.20315 5.60661 5.20772 5.61122 5.21187C5.66288 5.17493 5.7179 5.14215 5.76493 5.10065C5.81575 5.05542 5.85565 5.0604 5.90436 5.10231C5.95014 5.14174 6.00222 5.17411 6.06731 5.22058C6.04043 5.14008 6.02574 5.07658 5.99844 5.0189C5.97198 4.96371 5.99088 4.9359 6.03665 4.90685C6.08789 4.87448 6.13535 4.83589 6.20044 4.78816H5.92914C5.89638 4.69521 5.86573 4.60806 5.82751 4.50058C5.80357 4.57859 5.78173 4.63835 5.76703 4.69977C5.75318 4.7587 5.7326 4.79729 5.6591 4.78816C5.59905 4.78069 5.53773 4.7865 5.46214 4.7865C5.53395 4.83838 5.59401 4.8778 5.6486 4.92345C5.66414 4.93632 5.6738 4.97117 5.66834 4.99109C5.64902 5.06164 5.62172 5.13012 5.59737 5.19942V5.199ZM0.834061 5.05542C0.908816 5.10771 0.980631 5.15792 1.07134 5.221C1.04195 5.14381 1.02347 5.08945 1.00079 5.03716C0.974331 4.97657 0.983991 4.93383 1.04615 4.89938C1.0957 4.87158 1.13896 4.83257 1.2007 4.78692H0.929394C0.897057 4.69645 0.865559 4.60889 0.827342 4.50182C0.802983 4.57942 0.779885 4.63669 0.768126 4.69645C0.755107 4.76119 0.730749 4.79688 0.655574 4.78816C0.596358 4.78111 0.535882 4.78692 0.462807 4.78692C0.546802 4.84751 0.615677 4.89731 0.684132 4.94669C0.654734 5.03425 0.626596 5.11601 0.598878 5.19817C0.602658 5.20274 0.606437 5.2073 0.610217 5.21145C0.684552 5.16 0.759307 5.10812 0.834481 5.05583L0.834061 5.05542ZM2.5068 4.54041C2.49966 4.53875 2.49294 4.53668 2.4858 4.53502C2.46943 4.58689 2.45011 4.63835 2.43751 4.69147C2.42197 4.75621 2.39551 4.79812 2.31656 4.78816C2.26196 4.78111 2.20568 4.78692 2.12967 4.78692C2.19981 4.83755 2.25146 4.87573 2.30396 4.91225C2.3363 4.93466 2.35435 4.95209 2.3321 4.99856C2.30186 5.06164 2.288 5.13219 2.267 5.19942C2.33756 5.17037 2.39551 5.13261 2.44885 5.08945C2.48538 5.05998 2.51268 5.05666 2.55048 5.08779C2.60088 5.1297 2.65715 5.16498 2.71049 5.20315C2.70335 5.13551 2.68487 5.07658 2.66387 5.01848C2.64707 4.972 2.65337 4.93756 2.69999 4.90893C2.75375 4.87614 2.80288 4.83589 2.87134 4.7865C2.77978 4.7865 2.71007 4.78982 2.64119 4.78443C2.61978 4.78277 2.59038 4.76243 2.58198 4.74334C2.553 4.67736 2.53158 4.60806 2.5068 4.54V4.54041ZM7.59768 4.78941C7.56493 4.70102 7.53511 4.61968 7.50487 4.53875C7.49773 4.53834 7.49059 4.53751 7.48345 4.53709C7.46749 4.59021 7.4507 4.64333 7.436 4.69728C7.42088 4.75372 7.39946 4.79605 7.32638 4.78816C7.26843 4.78194 7.20963 4.78692 7.13152 4.78692C7.21509 4.84875 7.28271 4.89855 7.34906 4.94752C7.31966 5.0355 7.29279 5.11725 7.26549 5.199C7.33604 5.17078 7.39442 5.13427 7.44734 5.09069C7.48723 5.05791 7.51621 5.05957 7.55485 5.09194C7.60398 5.13261 7.65858 5.16664 7.72704 5.21477C7.70436 5.13966 7.69302 5.08073 7.66908 5.0272C7.64472 4.972 7.65354 4.93839 7.7052 4.90644C7.75685 4.87448 7.80431 4.83547 7.86689 4.78982H7.5981L7.59768 4.78941ZM1.66728 2.95349C1.74204 3.00744 1.81511 3.05973 1.89785 3.11907C1.87559 3.05143 1.85753 2.9925 1.83653 2.9344C1.81679 2.87921 1.81469 2.8348 1.87685 2.80077C1.9264 2.77338 1.96966 2.73396 2.03392 2.68665H1.76136C1.7286 2.59535 1.69752 2.5082 1.65972 2.40197C1.63536 2.48247 1.61353 2.54389 1.59925 2.60656C1.58581 2.66673 1.55683 2.69371 1.49173 2.6879C1.43084 2.6825 1.3691 2.68665 1.29519 2.68665C1.35776 2.73147 1.40732 2.77131 1.46108 2.80409C1.50895 2.83314 1.52197 2.86136 1.49593 2.91531C1.46864 2.97258 1.45562 3.0369 1.43672 3.09791L1.451 3.10745C1.52197 3.05682 1.59295 3.00661 1.66728 2.95349ZM6.29536 2.68624C6.37767 2.74599 6.44823 2.79662 6.51542 2.84518C6.4877 2.93357 6.4625 3.01532 6.43689 3.09708C6.44235 3.09998 6.44781 3.10247 6.45285 3.10538C6.52382 3.05516 6.5948 3.00495 6.66703 2.9539C6.74346 3.00868 6.81486 3.05973 6.89549 3.117C6.87114 3.03856 6.85056 2.96967 6.82788 2.90162C6.81486 2.86219 6.82284 2.83605 6.86064 2.81239C6.91439 2.77919 6.96395 2.73935 7.01519 2.702C7.01309 2.69703 7.01141 2.69205 7.00931 2.68707H6.76068C6.72709 2.59245 6.69643 2.50571 6.65989 2.40238C6.63595 2.48123 6.61327 2.54472 6.59732 2.60988C6.58346 2.6659 6.55826 2.69329 6.49484 2.68748C6.43311 2.68167 6.37053 2.68624 6.29494 2.68624H6.29536ZM4.16023 0.302113C4.13545 0.381377 4.11109 0.44653 4.09555 0.513759C4.08295 0.568537 4.05775 0.591777 3.9998 0.587627C3.93554 0.583477 3.87087 0.586797 3.79485 0.586797C3.86583 0.637011 3.92084 0.679755 3.97964 0.717104C4.01618 0.740344 4.0166 0.763998 4.00232 0.800517C3.9767 0.864841 3.95738 0.931654 3.93554 0.997638C3.94058 1.00096 3.94562 1.00469 3.95066 1.00801C4.02164 0.957799 4.09261 0.907585 4.16821 0.854051C4.24128 0.906755 4.31436 0.959044 4.40003 1.02046C4.37483 0.948254 4.35509 0.88974 4.33451 0.831642C4.31478 0.776033 4.31814 0.731629 4.37987 0.698844C4.42901 0.6727 4.471 0.633276 4.51636 0.599662C4.51342 0.594682 4.51048 0.590117 4.50754 0.585137H4.26102C4.22868 0.493839 4.1976 0.406276 4.16107 0.302943L4.16023 0.302113ZM9.26161 0.588457C9.22759 0.492179 9.19693 0.405446 9.16039 0.302113C9.13562 0.382207 9.1121 0.447775 9.0953 0.514589C9.08312 0.563557 9.06254 0.590947 9.00585 0.587212C8.93991 0.583062 8.87355 0.586382 8.79544 0.586382C8.86054 0.632861 8.91219 0.674775 8.96847 0.708389C9.01299 0.735364 9.01886 0.762753 8.99997 0.808817C8.97435 0.869821 8.95713 0.934559 8.93613 0.997223C8.94117 1.00054 8.94621 1.00345 8.95125 1.00677C9.02222 0.956554 9.0932 0.905925 9.16795 0.853221C9.24187 0.90634 9.31452 0.958214 9.39516 1.0159C9.3708 0.934144 9.34644 0.863596 9.3309 0.790972C9.32628 0.768978 9.34056 0.734119 9.3582 0.718349C9.40734 0.675605 9.46277 0.639501 9.53375 0.588042H9.26203L9.26161 0.588457ZM2.2649 0.993903C2.26994 0.999298 2.27456 1.00428 2.2796 1.00967C2.33168 0.973153 2.38753 0.940369 2.43499 0.898455C2.48412 0.854881 2.5215 0.859446 2.56854 0.900115C2.61264 0.938294 2.66303 0.969418 2.72519 1.01382C2.70251 0.931654 2.68907 0.865256 2.66513 0.803422C2.64665 0.756113 2.66387 0.733289 2.70041 0.709219C2.75291 0.67436 2.80288 0.636181 2.86966 0.587627H2.59752C2.56644 0.503384 2.5362 0.421631 2.5026 0.331993C2.4879 0.349007 2.47447 0.358552 2.47069 0.371002C2.45683 0.413746 2.44507 0.45732 2.43499 0.501309C2.42155 0.561483 2.39215 0.595512 2.32244 0.588457C2.2649 0.582647 2.2061 0.587212 2.12967 0.587212C2.19854 0.636181 2.24852 0.676435 2.30312 0.710049C2.34763 0.737854 2.35141 0.767733 2.33168 0.812967C2.30564 0.871896 2.28716 0.933729 2.26532 0.994733L2.2649 0.993903ZM7.59684 0.586382C7.56577 0.502139 7.53553 0.420801 7.50529 0.339462C7.49857 0.338632 7.49143 0.337802 7.48471 0.336558C7.46917 0.386771 7.44944 0.43657 7.43852 0.488029C7.42382 0.557748 7.39316 0.597587 7.31252 0.588042C7.25793 0.581402 7.20207 0.586797 7.12942 0.586797C7.19703 0.635351 7.24533 0.67436 7.29825 0.706314C7.3457 0.734949 7.352 0.765658 7.331 0.814212C7.30497 0.873971 7.28691 0.936634 7.26507 0.998468C7.27053 1.0022 7.27599 1.00594 7.28145 1.00967C7.33982 0.968174 7.39946 0.927919 7.45573 0.88393C7.48765 0.858616 7.51201 0.858201 7.54435 0.88393C7.59768 0.926259 7.65438 0.964024 7.72578 1.01507C7.70058 0.927919 7.67748 0.861521 7.66404 0.793877C7.65942 0.771053 7.67244 0.734949 7.6905 0.719594C7.74131 0.675605 7.79885 0.639086 7.87109 0.586797H7.59643L7.59684 0.586382ZM5.00647 2.44181C4.99891 2.44015 4.99135 2.43849 4.98379 2.43683C4.96783 2.48994 4.94935 2.54265 4.93633 2.5966C4.92121 2.65968 4.89266 2.69619 4.81916 2.6879C4.76372 2.68167 4.70745 2.68665 4.63143 2.68665C4.71543 2.74807 4.78262 2.79787 4.84898 2.84642C4.81958 2.9344 4.7927 3.01657 4.7654 3.09832C4.77044 3.10247 4.77506 3.10662 4.7801 3.11077C4.83806 3.06927 4.89727 3.02985 4.95271 2.98586C4.98757 2.95805 5.01361 2.95888 5.04804 2.98586C5.10012 3.02736 5.1564 3.06388 5.22653 3.11368C5.20427 3.03939 5.19377 2.97963 5.16858 2.92693C5.14044 2.86676 5.15808 2.83356 5.21015 2.8016C5.26055 2.77048 5.30633 2.73271 5.37226 2.68458H5.0955C5.06526 2.60199 5.03587 2.52148 5.00647 2.44139V2.44181Z" fill="#3D3C6E"/>
<path id="Vector_2" d="M25 11.9966V13H0C0 12.6655 0 12.3311 0 11.9966C0.0310778 11.9974 0.0625756 11.9987 0.0936534 11.9987C8.36455 11.9987 16.6354 11.9987 24.9063 11.9987C24.9374 11.9987 24.9689 11.9974 25 11.9966Z" fill="#B22234"/>
<path id="Vector_3" d="M25 11.9966C24.9689 11.9974 24.9374 11.9987 24.9063 11.9987C16.6354 11.9987 8.36455 11.9987 0.0936534 11.9987C0.0625756 11.9987 0.0310778 11.9974 0 11.9966C0 11.6621 0 11.3276 0 10.9932C0.028138 10.9952 0.056696 10.999 0.084834 10.999C8.36161 10.999 16.638 10.999 24.9147 10.999C24.9429 10.999 24.9714 10.9952 24.9996 10.9932V11.9966H25Z" fill="white"/>
<path id="Vector_4" d="M0 10.0051C0 9.67058 0 9.33568 0 9.0012C0.00503964 9.00037 0.0104993 8.99912 0.0155389 8.99829C0.0466167 8.99912 0.0781145 9.00078 0.109192 9.00078C8.36959 9.00078 16.6304 9.00078 24.8908 9.00078C24.9219 9.00078 24.9534 8.99912 24.9845 8.99829C24.9895 8.99912 24.995 9.00037 25 9.0012V10.0046C24.9689 10.0034 24.9378 10.0013 24.9068 10.0013C16.6359 10.0013 8.36497 10.0013 0.0936534 10.0013C0.0625756 10.0013 0.0314978 10.0034 0.00041997 10.0046L0 10.0051Z" fill="white"/>
<path id="Vector_5" d="M24.9845 8.99832C24.9534 8.99915 24.9219 9.00081 24.8908 9.00081C16.6304 9.00081 8.36959 9.00081 0.109192 9.00081C0.0781145 9.00081 0.0466167 8.99915 0.0155389 8.99832C0.0104993 8.99417 0.00503964 8.99002 0 8.98587C0 8.66176 0 8.33724 0 8.01313C0.00545962 8.00898 0.0104993 8.00525 0.0159589 8.0011C0.0470367 8.00027 0.0785345 7.99902 0.109612 7.99902C8.37001 7.99902 16.6304 7.99902 24.8904 7.99902C24.9215 7.99902 24.953 8.00027 24.984 8.0011C24.9895 8.00525 24.9945 8.00898 25 8.01313V8.98587C24.995 8.99002 24.9895 8.99417 24.9845 8.99832Z" fill="#B22234"/>
<path id="Vector_6" d="M24.984 8.0014C24.953 8.00057 24.9215 7.99932 24.8904 7.99932C16.63 7.99932 8.36959 7.99932 0.109612 7.99932C0.0785345 7.99932 0.0470367 8.00057 0.0159589 8.0014C0.0104993 8.00015 0.00545962 7.99891 0 7.99808V7.00998C3.29635 7.00998 6.5927 7.00998 9.88904 7.00998C9.92222 7.00998 9.95582 7.00542 9.989 7.00293C9.99362 7.00293 9.99656 7.00127 9.99908 6.99753C10.0226 6.99795 10.0457 6.99919 10.0692 6.99919C15.0202 6.99919 19.9713 6.99919 24.9223 6.99919C24.9483 6.99919 24.974 6.99629 25 6.99463V7.99808C24.9945 7.99932 24.9895 8.00057 24.984 8.0014Z" fill="white"/>
<path id="Vector_7" d="M0 10.005C0.0310778 10.0038 0.0621556 10.0017 0.0932334 10.0017C8.36413 10.0017 16.635 10.0017 24.9063 10.0017C24.9374 10.0017 24.9685 10.0038 24.9996 10.005V10.9931C24.9714 10.9952 24.9429 10.9989 24.9147 10.9989C16.638 10.9989 8.36161 10.9989 0.084834 10.9989C0.056696 10.9989 0.028138 10.9952 0 10.9931C0 10.6636 0 10.3345 0 10.005Z" fill="#B22234"/>
<path id="Vector_8" d="M10.0024 6.0013C10.0024 5.66848 10.0024 5.33565 10.0024 5.00325C10.0075 5.00325 10.0117 5.002 10.0159 4.99951C10.0419 5.00034 10.068 5.00159 10.094 5.00159C15.0316 5.00159 19.9688 5.00159 24.9064 5.00159C24.9324 5.00159 24.9584 5.00034 24.9845 4.99951C24.9899 5.00076 24.995 5.002 25.0004 5.00283V6.00628C24.9643 6.00462 24.9278 6.00171 24.8917 6.00171C19.9289 6.00171 14.9661 6.00171 10.0033 6.0013H10.0024Z" fill="white"/>
<path id="Vector_9" d="M10.002 1.00179C10.0012 0.66772 10.0008 0.334068 9.99994 0H25V1.00345C24.9664 1.00262 24.9324 1.00137 24.8988 1.00137C20.3787 1.00137 15.8585 1.00137 11.338 1.00137C10.8928 1.00137 10.4476 1.00137 10.002 1.00179Z" fill="#B22234"/>
<path id="Vector_10" d="M10.002 3.99839C10.002 3.66516 10.002 3.33192 10.002 2.99868C14.9673 2.99868 19.9326 2.99868 24.8979 2.99868C24.9315 2.99868 24.9656 2.99661 24.9991 2.99536V3.99881C24.9941 3.99964 24.9887 4.00088 24.9836 4.00171C24.9551 4.00088 24.9265 3.99922 24.8979 3.99922C19.9654 3.99922 15.0328 3.99922 10.1007 3.99922C10.0721 3.99922 10.0436 4.00088 10.015 4.00171C10.0108 3.99922 10.0066 3.99839 10.0016 3.99839H10.002Z" fill="white"/>
<path id="Vector_11" d="M10.002 1.00188C10.4472 1.00188 10.8924 1.00146 11.3379 1.00146C15.8581 1.00146 20.3782 1.00146 24.8988 1.00146C24.9324 1.00146 24.9664 1.00271 25 1.00354V2.00699C24.9664 2.00491 24.9328 2.00118 24.8992 2.00118C21.1367 2.00118 17.3742 2.00118 13.6117 2.00118C12.4089 2.00118 11.2056 2.00118 10.0029 2.00076C10.0029 1.66794 10.0029 1.33512 10.0024 1.00229L10.002 1.00188Z" fill="white"/>
<path id="Vector_12" d="M10.0154 4.00176C10.044 4.00093 10.0726 3.99927 10.1011 3.99927C15.0337 3.99927 19.9662 3.99927 24.8984 3.99927C24.9269 3.99927 24.9555 4.00093 24.984 4.00176C24.9891 4.00591 24.9945 4.01006 24.9996 4.01421V4.98695C24.9941 4.9911 24.9891 4.99483 24.9836 4.99898C24.9576 4.99981 24.9315 5.00106 24.9055 5.00106C19.9679 5.00106 15.0307 5.00106 10.0931 5.00106C10.0671 5.00106 10.0411 4.99981 10.015 4.99898C10.0104 4.99525 10.0062 4.9911 10.0016 4.98736C10.0016 4.66284 10.0016 4.33831 10.0016 4.01379C10.0062 4.00964 10.0104 4.00591 10.015 4.00176H10.0154Z" fill="#B22234"/>
<path id="Vector_13" d="M10.0024 6.00122C14.9652 6.00122 19.928 6.00122 24.8908 6.00164C24.9269 6.00164 24.9635 6.00454 24.9996 6.0062V6.99429C24.9735 6.99595 24.9479 6.99886 24.9219 6.99886C19.9709 6.99886 15.0198 6.99886 10.0688 6.99886C10.0453 6.99886 10.0222 6.99761 9.99866 6.9972C9.99992 6.66521 10.0008 6.33321 10.002 6.00122H10.0024Z" fill="#B22234"/>
<path id="Vector_14" d="M10.0024 2.00059C11.2052 2.00059 12.4085 2.001 13.6112 2.001C17.3738 2.001 21.1363 2.001 24.8988 2.001C24.9324 2.001 24.966 2.00474 24.9996 2.00681V2.9949C24.966 2.99615 24.932 2.99822 24.8984 2.99822C19.9331 2.99822 14.9678 2.99822 10.0024 2.99822C10.0024 2.6654 10.0024 2.33258 10.0024 1.99976V2.00059Z" fill="#B22234"/>
<path id="Vector_15" d="M9.98942 7.0022C9.95625 7.00469 9.92265 7.00925 9.88947 7.00925C6.59312 7.00925 3.29677 7.00925 0.000427246 7.00925V6.9939C3.29426 6.9939 6.58808 6.9939 9.88149 6.9939C9.91761 6.9939 9.95331 6.99888 9.98942 7.00178V7.0022Z" fill="#A28097"/>
<path id="Vector_16" d="M0 7.9978C0.00545962 7.99905 0.0104993 8.00029 0.0159589 8.00112C0.0104993 8.00527 0.00545962 8.00901 0 8.01316C0 8.00818 0 8.00278 0 7.9978Z" fill="#BE4453"/>
<path id="Vector_17" d="M24.9841 8.00137C24.9895 8.00012 24.9946 7.99888 25 7.99805V8.0134C24.9946 8.00925 24.9895 8.00552 24.9841 8.00137Z" fill="#BE4453"/>
<path id="Vector_18" d="M0 8.98584C0.00503964 8.98999 0.0104993 8.99414 0.0155389 8.99829C0.0104993 8.99912 0.00503964 9.00036 0 9.00119C0 8.99621 0 8.99082 0 8.98584Z" fill="#B83243"/>
<path id="Vector_19" d="M24.9844 8.99829C24.9895 8.99414 24.9949 8.98999 25 8.98584V9.00119C24.9949 9.00036 24.9895 8.99912 24.9844 8.99829Z" fill="#B83243"/>
<path id="Vector_20" d="M25 4.01413C24.9949 4.00998 24.9895 4.00583 24.9844 4.00168C24.9895 4.00085 24.9949 3.99961 25 3.99878V4.01413Z" fill="#B83243"/>
<path id="Vector_21" d="M24.9841 4.9991C24.9895 4.99495 24.9946 4.99121 25 4.98706V5.00242C24.9946 5.00117 24.9895 4.99993 24.9841 4.9991Z" fill="#BE4453"/>
<path id="Vector_22" d="M3.55212 4.51017C3.48115 4.45913 3.40975 4.40808 3.33458 4.35372C3.25941 4.40684 3.18465 4.45954 3.09436 4.52304C3.12376 4.43464 3.14559 4.36492 3.17079 4.29687C3.18465 4.25952 3.17667 4.23669 3.14265 4.21428C3.0826 4.17486 3.02548 4.13087 2.95325 4.079H3.23547C3.26739 3.98853 3.2972 3.90387 3.33332 3.80054C3.3581 3.88395 3.37952 3.94661 3.39548 4.01052C3.40807 4.05991 3.43033 4.08232 3.48661 4.07734C3.55548 4.07111 3.6252 4.07609 3.71927 4.07609C3.64536 4.12921 3.5916 4.17154 3.53449 4.20764C3.49333 4.23379 3.47863 4.2591 3.49921 4.30766C3.52525 4.36866 3.54205 4.43381 3.56262 4.49731C3.55926 4.50187 3.5559 4.50602 3.55254 4.51059L3.55212 4.51017Z" fill="#FBFBFC"/>
<path id="Vector_23" d="M1.66517 3.80747C1.69078 3.88341 1.71892 3.94566 1.73194 4.01123C1.74328 4.0685 1.77352 4.07846 1.82349 4.07638C1.89237 4.07348 1.96166 4.07555 2.05154 4.07555C1.98602 4.12328 1.93899 4.16312 1.88691 4.19341C1.82811 4.22744 1.8088 4.26396 1.84071 4.32911C1.86591 4.3814 1.87725 4.43992 1.90203 4.51793C1.81342 4.4561 1.74328 4.40672 1.66811 4.35401C1.59503 4.40547 1.52196 4.45693 1.43166 4.52001C1.45854 4.43577 1.47576 4.36771 1.50264 4.30338C1.52196 4.25732 1.50852 4.23408 1.4703 4.20918C1.41234 4.17183 1.35775 4.12909 1.28845 4.07887H1.56815C1.60049 3.98924 1.63115 3.90333 1.66601 3.80664L1.66517 3.80747Z" fill="#FBFBFC"/>
<path id="Vector_24" d="M8.34058 3.82122C8.3578 3.8818 8.37628 3.94198 8.3914 4.00298C8.40484 4.05776 8.43214 4.08266 8.49345 4.07727C8.55981 4.07146 8.627 4.07602 8.71646 4.07602C8.64926 4.12499 8.6018 4.1669 8.54763 4.19803C8.48883 4.23164 8.47959 4.26941 8.50605 4.32916C8.52999 4.3827 8.54427 4.4408 8.55267 4.5101C8.48169 4.45947 8.4103 4.40884 8.3347 4.35489C8.25995 4.40718 8.18477 4.45989 8.09532 4.52255C8.12472 4.43374 8.15117 4.36278 8.17007 4.29016C8.17511 4.26982 8.16419 4.23538 8.14824 4.2221C8.0907 4.17479 8.02812 4.1337 7.95337 4.08017H8.23517C8.26709 3.9897 8.29648 3.90504 8.3263 3.8208C8.33134 3.8208 8.33596 3.82163 8.341 3.82205L8.34058 3.82122Z" fill="#FBFBFC"/>
<path id="Vector_25" d="M7.05173 4.07597C6.97823 4.1295 6.92448 4.17349 6.86526 4.2096C6.82033 4.23699 6.81613 4.26604 6.83376 4.31085C6.8577 4.37227 6.87534 4.43618 6.90264 4.52084C6.81193 4.45693 6.74095 4.40672 6.66746 4.35484C6.5927 4.40755 6.51921 4.45901 6.43101 4.52125C6.45873 4.43411 6.48477 4.36439 6.50157 4.29301C6.50661 4.27101 6.49527 4.2345 6.47805 4.21997C6.42303 4.17308 6.36172 4.13365 6.28906 4.08136H6.56666C6.59984 3.98924 6.63008 3.90458 6.66536 3.80664C6.69139 3.88673 6.71575 3.95355 6.73423 4.02202C6.74557 4.06476 6.76825 4.07846 6.81109 4.0768C6.88374 4.07431 6.95682 4.07597 7.05173 4.07597Z" fill="#FBFBFC"/>
<path id="Vector_26" d="M5.45123 1.97738H5.73555C5.76705 1.88816 5.79645 1.80558 5.83341 1.70142C5.85734 1.78317 5.87624 1.845 5.89346 1.90684C5.9069 1.95622 5.93042 1.98361 5.99006 1.97738C6.05683 1.97075 6.12487 1.97572 6.21558 1.97572C6.14586 2.02677 6.09379 2.0691 6.03709 2.10479C5.99257 2.13259 5.97872 2.1604 6.00013 2.21102C6.02575 2.27203 6.04297 2.33635 6.07069 2.42142C5.98124 2.35793 5.90942 2.30689 5.83425 2.25377C5.75907 2.30689 5.68432 2.35918 5.59402 2.42267C5.62342 2.33552 5.644 2.26788 5.6692 2.20189C5.68432 2.16247 5.67928 2.13716 5.64064 2.11267C5.58016 2.07449 5.52431 2.02967 5.45123 1.97697V1.97738Z" fill="#FBFBFC"/>
<path id="Vector_27" d="M8.78662 1.97863H9.06758C9.09908 1.88982 9.1289 1.80558 9.16459 1.70557C9.19105 1.78607 9.21541 1.85206 9.23347 1.92012C9.24481 1.96162 9.26497 1.97863 9.30864 1.97697C9.38256 1.97407 9.45689 1.97614 9.55139 1.97614C9.47453 2.03175 9.41196 2.07242 9.35568 2.11973C9.33804 2.13467 9.32586 2.17119 9.3309 2.1936C9.34728 2.26248 9.3729 2.32971 9.38256 2.40649C9.312 2.35669 9.24145 2.30689 9.16711 2.2546C9.09278 2.30689 9.0197 2.35835 8.92941 2.42226C8.95587 2.34175 8.97309 2.27825 8.99787 2.21808C9.01928 2.16704 9.01214 2.13425 8.96217 2.10437C8.90589 2.07034 8.85466 2.02801 8.78662 1.97905V1.97863Z" fill="#FBFBFC"/>
<path id="Vector_28" d="M0.44812 1.97587H0.73622C0.768138 1.88706 0.797535 1.80407 0.832393 1.70654C0.859271 1.78871 0.886149 1.85428 0.901268 1.92275C0.911767 1.96965 0.935286 1.97836 0.976443 1.97712C1.04868 1.97504 1.12091 1.9767 1.21835 1.9767C1.14107 2.03231 1.08312 2.0763 1.02264 2.11655C0.989042 2.13896 0.981483 2.16054 0.996601 2.19955C1.02264 2.26554 1.04112 2.33484 1.06926 2.42199C0.980643 2.35932 0.907988 2.30745 0.834073 2.25475C0.758478 2.30786 0.684983 2.35974 0.59595 2.4224C0.621148 2.34397 0.635847 2.28089 0.662305 2.22279C0.689183 2.16345 0.673224 2.13025 0.619888 2.09871C0.566552 2.06717 0.518675 2.02692 0.44812 1.97629V1.97587Z" fill="#FBFBFC"/>
<path id="Vector_29" d="M3.78351 1.97709H4.06783C4.10017 1.88828 4.1304 1.80363 4.16526 1.70776C4.19088 1.78412 4.21818 1.84803 4.23288 1.91526C4.24464 1.96796 4.27193 1.97875 4.31981 1.97709C4.38995 1.97419 4.46008 1.97626 4.55037 1.97626C4.4941 2.01776 4.4521 2.04889 4.40968 2.0796C4.34613 2.12552 4.32695 2.18652 4.35215 2.26261C4.36727 2.30826 4.38071 2.35432 4.40044 2.41947C4.31225 2.35681 4.24086 2.3066 4.16736 2.25472C4.09261 2.30784 4.01953 2.35971 3.9305 2.42321C3.9578 2.33855 3.97543 2.27174 4.00147 2.20866C4.02121 2.16052 4.00861 2.13479 3.96704 2.10864C3.91034 2.07296 3.85742 2.03104 3.78393 1.97834L3.78351 1.97709Z" fill="#FBFBFC"/>
<path id="Vector_30" d="M2.5093 1.73247C2.53365 1.81173 2.55759 1.891 2.58321 1.97441H2.86123C2.86375 1.97898 2.86627 1.98354 2.86879 1.9881C2.81419 2.02753 2.76128 2.06944 2.70458 2.10513C2.66007 2.13294 2.64495 2.15991 2.66762 2.21178C2.69156 2.26698 2.705 2.32715 2.72306 2.38484C2.7176 2.38982 2.71214 2.3948 2.70668 2.39978C2.63907 2.35205 2.57103 2.30433 2.50048 2.25453C2.42614 2.30682 2.35307 2.35869 2.26319 2.42177C2.28797 2.34666 2.30309 2.28773 2.32661 2.23253C2.35265 2.17112 2.34677 2.12962 2.28251 2.09476C2.22918 2.06612 2.18298 2.02462 2.11578 1.97607C2.20818 1.97607 2.27999 1.97317 2.35139 1.97732C2.39296 1.97939 2.4106 1.96196 2.42194 1.92669C2.44336 1.8607 2.46772 1.79555 2.4904 1.72998C2.4967 1.73081 2.503 1.73164 2.5093 1.73247Z" fill="#FBFBFC"/>
<path id="Vector_31" d="M7.50904 1.73179C7.53382 1.8123 7.55902 1.8928 7.58548 1.97829H7.88324C7.80764 2.03224 7.74549 2.07249 7.68921 2.12022C7.67157 2.13516 7.65939 2.17209 7.66443 2.1945C7.67871 2.25841 7.70307 2.32024 7.72365 2.38291C7.71819 2.38789 7.71315 2.39287 7.70769 2.39743C7.63966 2.35095 7.57204 2.30489 7.49897 2.25468C7.42757 2.3053 7.35408 2.35718 7.26336 2.4215C7.2915 2.33435 7.31166 2.26505 7.33686 2.19741C7.35114 2.15923 7.34316 2.13682 7.30872 2.11441C7.24866 2.07498 7.19155 2.03141 7.11511 1.97622C7.19911 1.97622 7.26252 1.97331 7.32594 1.97705C7.38137 1.97995 7.41497 1.97041 7.42757 1.9065C7.43933 1.84632 7.46957 1.78947 7.49183 1.73096C7.49771 1.73096 7.50317 1.73137 7.50904 1.73179Z" fill="#FBFBFC"/>
<path id="Vector_32" d="M3.93388 6.60658C3.96118 6.52276 3.98596 6.45885 4.0015 6.39286C4.00654 6.37087 3.9952 6.33435 3.97798 6.31982C3.92296 6.27335 3.86165 6.23392 3.78857 6.18122H4.06617C4.09977 6.08867 4.13001 6.00402 4.16529 5.90649C4.19091 5.98659 4.21568 6.05382 4.23374 6.12229C4.24508 6.16503 4.26818 6.17873 4.31102 6.17707C4.38325 6.17458 4.45591 6.17624 4.54956 6.17624C4.47733 6.22894 4.42231 6.27418 4.36267 6.31111C4.32068 6.33684 4.31648 6.36423 4.3316 6.40614C4.35427 6.46839 4.37275 6.5323 4.39879 6.61364C4.32236 6.5655 4.26188 6.52317 4.19721 6.48914C4.17579 6.47794 4.13799 6.47794 4.11657 6.48914C4.05946 6.51944 4.00738 6.55844 3.93388 6.60658Z" fill="#FCFCFD"/>
<path id="Vector_33" d="M8.7841 6.17807H9.06716C9.09908 6.08926 9.12932 6.0046 9.1646 5.90625C9.19064 5.98634 9.21499 6.05316 9.23347 6.12163C9.24481 6.16354 9.26665 6.1789 9.30991 6.17724C9.38256 6.17433 9.45522 6.17641 9.55013 6.17641C9.47538 6.23077 9.41742 6.27559 9.3561 6.31543C9.32125 6.33784 9.31579 6.36108 9.32881 6.39801C9.35232 6.46483 9.37206 6.5333 9.39726 6.61422C9.32419 6.56816 9.26077 6.53455 9.20533 6.49097C9.16418 6.45819 9.13688 6.47271 9.10244 6.49595C9.05205 6.5304 8.99955 6.56235 8.93361 6.60468C8.96007 6.52334 8.98485 6.45943 8.99997 6.39386C9.00501 6.37187 8.99409 6.33494 8.97729 6.32083C8.92227 6.27393 8.86096 6.23451 8.78326 6.17848L8.7841 6.17807Z" fill="#FCFCFD"/>
<path id="Vector_34" d="M4.61718 4.07602C4.70411 4.07602 4.77089 4.07353 4.83766 4.07685C4.88512 4.07893 4.91116 4.06814 4.92376 4.01709C4.9393 3.95401 4.96744 3.89384 5.00607 3.8291C5.03169 3.91002 5.05773 3.99053 5.08503 4.07602H5.38489C5.30887 4.13121 5.25134 4.17603 5.19002 4.21629C5.15558 4.23911 5.14886 4.26152 5.16314 4.29929C5.18624 4.3607 5.20388 4.42378 5.22404 4.48645C5.21858 4.4906 5.21312 4.49475 5.20766 4.49848C5.13878 4.45117 5.06991 4.40345 5.00103 4.35614C4.92628 4.40635 4.85404 4.45532 4.77257 4.50969C4.79861 4.40677 4.85446 4.31215 4.83095 4.24534C4.80743 4.17894 4.70369 4.14034 4.61676 4.07644L4.61718 4.07602Z" fill="#FCFCFC"/>
<path id="Vector_35" d="M6.19795 6.19091C6.14167 6.23158 6.08708 6.27557 6.02828 6.31209C5.9867 6.33782 5.98208 6.36355 5.99846 6.4067C6.0224 6.46937 6.03752 6.53494 6.06146 6.61586C5.98502 6.5644 5.92833 6.52249 5.86701 6.48804C5.84643 6.47642 5.80906 6.47601 5.78806 6.4868C5.72884 6.51792 5.67466 6.55776 5.60075 6.6059C5.62721 6.52498 5.64653 6.46024 5.67004 6.39716C5.6839 6.35981 5.67634 6.33699 5.64233 6.31458C5.58227 6.27557 5.52515 6.23158 5.45166 6.17929H5.73472C5.76664 6.08882 5.79604 6.00458 5.83131 5.90332C5.85903 5.98839 5.88591 6.05438 5.90103 6.12285C5.91111 6.16974 5.93505 6.17804 5.9762 6.1768C6.04802 6.17514 6.12025 6.17638 6.19207 6.17638C6.19375 6.18136 6.19543 6.18593 6.19753 6.19091H6.19795Z" fill="#FCFCFD"/>
<path id="Vector_36" d="M1.06208 6.61527C0.987747 6.56589 0.928532 6.53186 0.875615 6.49036C0.840758 6.46297 0.816819 6.46131 0.781122 6.48787C0.729466 6.52647 0.673609 6.55883 0.601795 6.60531C0.628253 6.52439 0.647571 6.46007 0.67067 6.3974C0.684109 6.36047 0.677809 6.33723 0.643372 6.31482C0.582896 6.27581 0.52578 6.23182 0.453125 6.17953H0.735345C0.766843 6.08907 0.796241 6.00482 0.831938 5.90356C0.860496 5.99071 0.880235 6.06126 0.907953 6.12807C0.916772 6.14882 0.94701 6.17248 0.968849 6.17414C1.04318 6.17995 1.11794 6.17621 1.21621 6.17621C1.14272 6.23016 1.08812 6.27415 1.0289 6.3115C0.988167 6.33723 0.981868 6.36213 0.998667 6.40612C1.02302 6.46878 1.03814 6.53477 1.06208 6.61527Z" fill="#FCFCFD"/>
<path id="Vector_37" d="M1.28887 5.48068C1.37287 5.48068 1.43502 5.47778 1.49634 5.48151C1.55177 5.48525 1.58243 5.46699 1.59671 5.41138C1.61393 5.34539 1.63955 5.28148 1.66601 5.20264C1.6996 5.30223 1.72858 5.38897 1.75924 5.48068H2.04524C1.95537 5.545 1.88397 5.59646 1.80922 5.65C1.83735 5.73175 1.86633 5.81433 1.89489 5.89733C1.89027 5.90065 1.88607 5.90356 1.88145 5.90688C1.82937 5.86994 1.7773 5.83301 1.72606 5.79566C1.68616 5.76661 1.64879 5.76246 1.60679 5.79566C1.55471 5.83674 1.49928 5.87285 1.43124 5.92099C1.46106 5.8189 1.48626 5.73299 1.5123 5.64336C1.44426 5.59397 1.37581 5.54417 1.28845 5.4811L1.28887 5.48068Z" fill="#FBFBFC"/>
<path id="Vector_38" d="M3.5702 1.72179C3.4799 1.65788 3.40851 1.60684 3.33417 1.55414C3.2611 1.60559 3.19013 1.65581 3.10067 1.71889C3.12377 1.63423 3.13511 1.56741 3.16115 1.50683C3.18215 1.45703 3.16787 1.4313 3.12839 1.40515C3.07337 1.36822 3.02004 1.32838 2.9541 1.28149C3.03642 1.28149 3.10739 1.27775 3.17837 1.28273C3.22792 1.28605 3.2485 1.26489 3.26152 1.22256C3.2821 1.15408 3.30562 1.08644 3.33334 1.0022C3.36819 1.10511 3.39801 1.19268 3.42783 1.28107H3.71089C3.64033 1.33211 3.587 1.37361 3.53072 1.41096C3.49166 1.43711 3.47319 1.46035 3.49754 1.51056C3.52652 1.57115 3.54248 1.63838 3.5702 1.72138V1.72179Z" fill="#FAFAFC"/>
<path id="Vector_39" d="M8.55183 1.70893C8.48044 1.65788 8.40904 1.60725 8.33387 1.55372C8.26163 1.60518 8.19066 1.65581 8.11926 1.70602C8.11465 1.70312 8.10961 1.70063 8.10499 1.69772C8.12388 1.63174 8.14782 1.56658 8.16 1.49936C8.16504 1.47197 8.15286 1.43005 8.13312 1.41179C8.08231 1.36573 8.02225 1.32963 7.9538 1.28107C8.03569 1.28107 8.10667 1.27734 8.17722 1.28232C8.22636 1.28564 8.24778 1.26572 8.26079 1.22297C8.28137 1.1545 8.30489 1.08686 8.33303 1.0022C8.36789 1.10511 8.39729 1.19226 8.42752 1.28066H8.71268C8.64507 1.32921 8.59719 1.37029 8.54343 1.40059C8.48464 1.4342 8.4754 1.47446 8.5006 1.53256C8.52454 1.58775 8.54428 1.64502 8.56569 1.70146C8.56107 1.70395 8.55645 1.70644 8.55183 1.70893Z" fill="#FAFAFC"/>
<path id="Vector_40" d="M7.953 5.48083C8.02902 5.48083 8.09117 5.47668 8.15291 5.48207C8.218 5.48788 8.25328 5.46796 8.26798 5.40156C8.28142 5.33932 8.30746 5.27997 8.33308 5.20361C8.36751 5.30529 8.39733 5.39202 8.42715 5.48H8.71147C8.63881 5.5327 8.58422 5.57544 8.52626 5.61404C8.48847 5.63935 8.47503 5.66135 8.49687 5.70824C8.52542 5.76966 8.54138 5.83647 8.56952 5.9203C8.48217 5.85888 8.41035 5.80784 8.33434 5.75431C8.26252 5.80452 8.19113 5.85473 8.10167 5.9174C8.12561 5.83191 8.14871 5.76676 8.16005 5.69911C8.16467 5.67131 8.15333 5.62981 8.13359 5.61155C8.08235 5.56549 8.0223 5.52938 7.953 5.48041V5.48083Z" fill="#FBFBFC"/>
<path id="Vector_41" d="M6.87998 5.90483C6.82958 5.86914 6.77918 5.83345 6.72963 5.79734C6.68721 5.76622 6.64815 5.76207 6.60405 5.79776C6.55408 5.83843 6.49948 5.87287 6.43271 5.92018C6.46168 5.81975 6.48688 5.73426 6.51292 5.64297C6.44615 5.59441 6.37643 5.54378 6.28992 5.48029C6.37643 5.48029 6.44321 5.47822 6.50914 5.48112C6.55576 5.48319 6.58096 5.46577 6.59398 5.42178C6.61455 5.35289 6.63849 5.28524 6.66621 5.20142C6.69981 5.30101 6.72879 5.38733 6.75902 5.47821H7.01941C7.02193 5.48278 7.02487 5.48735 7.02738 5.49232C6.96691 5.53631 6.90517 5.57823 6.84722 5.62512C6.8321 5.63757 6.82076 5.66911 6.8258 5.68696C6.8447 5.75709 6.87116 5.82556 6.89467 5.89445C6.88963 5.89777 6.8846 5.90109 6.87998 5.90483Z" fill="#FBFBFC"/>
<path id="Vector_42" d="M3.42699 5.4811H3.71215C3.64537 5.52923 3.5975 5.57073 3.54332 5.60103C3.48326 5.63464 3.47612 5.67531 3.5009 5.73299C3.52442 5.7886 3.54458 5.84546 3.55466 5.91061C3.482 5.85915 3.40977 5.80769 3.33459 5.75457C3.26194 5.80603 3.19055 5.85625 3.10319 5.91808C3.12461 5.83716 3.13427 5.772 3.15947 5.71349C3.18341 5.65788 3.16661 5.62925 3.12167 5.6002C3.06833 5.56575 3.01752 5.52674 2.9541 5.48151C3.03684 5.48151 3.10823 5.47819 3.17921 5.48276C3.22792 5.48566 3.24934 5.46491 3.26236 5.42258C3.28294 5.35411 3.30646 5.28646 3.33417 5.20264C3.36861 5.30431 3.39717 5.39021 3.42825 5.48193L3.42699 5.4811Z" fill="#FBFBFC"/>
<path id="Vector_43" d="M7.70309 6.59799C7.66193 6.56894 7.61909 6.54155 7.57961 6.51084C7.51914 6.46353 7.46202 6.46519 7.40239 6.51209C7.36333 6.54238 7.32175 6.56977 7.26464 6.61003C7.29319 6.52578 7.31209 6.46146 7.33645 6.3988C7.35115 6.36103 7.34443 6.33779 7.30999 6.31538C7.24994 6.27596 7.19282 6.23197 7.11597 6.17636C7.20248 6.17636 7.26842 6.17387 7.33435 6.17719C7.38517 6.1801 7.41247 6.16848 7.42464 6.11287C7.4385 6.0502 7.46874 5.99128 7.49856 5.91284C7.53132 6.01119 7.55778 6.0917 7.58549 6.17512H7.88409C7.82362 6.21952 7.7833 6.25728 7.73626 6.28218C7.66193 6.32202 7.63883 6.36975 7.67915 6.44818C7.70057 6.49009 7.70728 6.53948 7.72072 6.58554C7.71484 6.58969 7.70896 6.59384 7.7035 6.59799H7.70309Z" fill="#FCFCFD"/>
<path id="Vector_44" d="M2.26577 6.60453C2.2939 6.52237 2.31994 6.45887 2.33548 6.3933C2.34094 6.37131 2.32792 6.33437 2.31028 6.31902C2.25527 6.27213 2.19395 6.2327 2.11542 6.17585C2.20655 6.17585 2.27669 6.17336 2.34682 6.17668C2.39008 6.17875 2.41066 6.16423 2.42284 6.12273C2.44173 6.05675 2.46819 5.99325 2.49843 5.90942C2.53161 6.0111 2.55765 6.09078 2.58536 6.17585H2.88438C2.80963 6.2298 2.75335 6.27337 2.69456 6.31238C2.65886 6.33603 2.6471 6.35844 2.6639 6.40119C2.68742 6.46012 2.70254 6.52195 2.70842 6.59623C2.67188 6.57341 2.6345 6.55183 2.5988 6.52735C2.49087 6.45431 2.49129 6.45431 2.38756 6.5261C2.35186 6.55058 2.31448 6.57258 2.26493 6.60412L2.26577 6.60453Z" fill="#FCFCFD"/>
<path id="Vector_45" d="M4.62054 5.48071C4.69824 5.48071 4.76249 5.4778 4.82633 5.48154C4.88429 5.48486 4.91788 5.46535 4.933 5.40767C4.94812 5.34874 4.97038 5.29147 5.00776 5.23047C5.03044 5.29562 5.05647 5.36036 5.07453 5.42676C5.08629 5.46909 5.10561 5.48444 5.15055 5.48195C5.21732 5.47822 5.28452 5.48112 5.37649 5.48112C5.30426 5.53424 5.25176 5.5774 5.19464 5.61309C5.15307 5.63923 5.14803 5.66953 5.16231 5.70978C5.18456 5.77328 5.20682 5.83718 5.21564 5.90815C5.15853 5.86706 5.10057 5.82723 5.04555 5.78407C5.01406 5.75917 4.99096 5.75751 4.95778 5.78324C4.90234 5.82723 4.84229 5.86623 4.77173 5.89487C4.79651 5.8127 4.82171 5.73095 4.84775 5.6438C4.77761 5.59317 4.70664 5.54213 4.62138 5.48112L4.62054 5.48071Z" fill="#FBFBFC"/>
<path id="Vector_46" d="M1.51315 1.44284C1.44596 1.39429 1.37708 1.34449 1.28931 1.281C1.37414 1.281 1.43966 1.27851 1.50475 1.28183C1.55431 1.28432 1.58119 1.26689 1.59463 1.21916C1.61394 1.15069 1.63872 1.08429 1.66602 1.00171C1.69962 1.10214 1.7286 1.18887 1.75925 1.28017H2.04441C1.9558 1.34449 1.88482 1.39595 1.80965 1.4499C1.83821 1.53331 1.86719 1.61839 1.90162 1.72047C1.81343 1.65781 1.74119 1.60635 1.66686 1.55323C1.59127 1.60677 1.51819 1.65864 1.43168 1.72006C1.46149 1.61839 1.48669 1.53248 1.51315 1.44243V1.44284Z" fill="#FBFBFC"/>
<path id="Vector_47" d="M6.51291 1.44302C6.4432 1.3928 6.376 1.34425 6.28949 1.28158C6.36634 1.28158 6.4243 1.27619 6.48016 1.28283C6.55491 1.29196 6.58851 1.25959 6.60531 1.19153C6.61959 1.13219 6.64226 1.07492 6.6662 1.00146C6.6998 1.10189 6.72878 1.18863 6.75944 1.28034H7.04502C6.95598 1.34508 6.88501 1.39612 6.80983 1.4509C6.83755 1.53141 6.86569 1.61358 6.89425 1.69616L6.88249 1.7057C6.82873 1.66752 6.7733 1.63184 6.72248 1.59117C6.68468 1.56046 6.6557 1.55589 6.61539 1.58951C6.56247 1.63391 6.50283 1.67126 6.4327 1.72106C6.46168 1.62022 6.48688 1.53431 6.51333 1.44302H6.51291Z" fill="#FBFBFC"/>
<path id="Vector_48" d="M5.00944 1.03411C5.03212 1.10092 5.05143 1.16898 5.07957 1.2333C5.08881 1.25405 5.11989 1.27688 5.14257 1.27895C5.21144 1.28476 5.28116 1.28103 5.37439 1.28103C5.31056 1.32833 5.2673 1.36776 5.21732 1.39515C5.15139 1.43125 5.14467 1.47649 5.17113 1.53998C5.19338 1.59268 5.20892 1.64829 5.23454 1.72299C5.17617 1.68025 5.13795 1.6512 5.09889 1.62339C5.03338 1.57608 4.96646 1.57678 4.89814 1.62547C4.86455 1.64954 4.83053 1.67319 4.79567 1.6956C4.79063 1.69892 4.78097 1.69602 4.76963 1.69602C4.79231 1.62256 4.81667 1.55243 4.83431 1.48064C4.83851 1.46279 4.82801 1.4325 4.81373 1.42088C4.75578 1.3744 4.69404 1.33331 4.62054 1.28103C4.7016 1.28103 4.77005 1.27937 4.83851 1.28144C4.88681 1.2831 4.91494 1.26567 4.92796 1.21753C4.94476 1.15611 4.96828 1.09635 4.98886 1.03577C4.99558 1.03494 5.0023 1.03452 5.00944 1.03369V1.03411Z" fill="#FBFBFC"/>
<path id="Vector_49" d="M6.0736 3.82458C6.0001 3.77187 5.94383 3.73535 5.89175 3.69302C5.85185 3.66024 5.82119 3.65401 5.77836 3.69095C5.7288 3.73411 5.67085 3.76855 5.60155 3.81711C5.62465 3.73328 5.63725 3.66605 5.66203 3.60338C5.68009 3.55732 5.66833 3.53201 5.63137 3.50711C5.57593 3.46934 5.52176 3.42992 5.45288 3.38095C5.53645 3.38095 5.60869 3.37846 5.6805 3.38178C5.72502 3.38385 5.74728 3.36767 5.75862 3.32659C5.7771 3.26143 5.79852 3.19711 5.82581 3.10913C5.86487 3.21205 5.89637 3.29422 5.92955 3.38136H6.21051C6.14499 3.42867 6.0988 3.46934 6.04588 3.49798C5.98204 3.53242 5.977 3.576 6.0022 3.63575C6.0253 3.69095 6.04462 3.7478 6.07318 3.82416L6.0736 3.82458Z" fill="#FBFBFC"/>
<path id="Vector_50" d="M0.928951 3.38178H1.20907C1.13726 3.43407 1.0814 3.47681 1.02302 3.51624C0.988167 3.53989 0.975148 3.56147 0.994047 3.60463C1.02218 3.66895 1.04108 3.73701 1.0709 3.82292C0.981448 3.75901 0.908793 3.70755 0.834038 3.65443C0.760123 3.7063 0.688728 3.75652 0.602214 3.81711C0.623213 3.73701 0.633292 3.67186 0.658491 3.61334C0.682429 3.55774 0.66605 3.5291 0.620693 3.50005C0.567357 3.46561 0.516541 3.42701 0.453125 3.38136C0.535859 3.38136 0.606834 3.37804 0.677809 3.38261C0.726526 3.38551 0.748364 3.36518 0.760543 3.32244C0.779022 3.25853 0.799601 3.19503 0.826059 3.10913C0.865116 3.21329 0.895774 3.29422 0.928531 3.38219L0.928951 3.38178Z" fill="#FBFBFC"/>
<path id="Vector_51" d="M9.16795 3.13599C9.19819 3.21525 9.22843 3.29451 9.26076 3.37917H9.51947C9.52199 3.38374 9.52493 3.38872 9.52745 3.39328C9.45689 3.44432 9.38592 3.49537 9.3099 3.55056C9.33846 3.63273 9.36828 3.71739 9.40565 3.82321C9.3288 3.76843 9.26916 3.73025 9.21457 3.68585C9.17929 3.65721 9.15367 3.6597 9.11965 3.68626C9.0638 3.73025 9.00416 3.76968 8.93193 3.82114C8.96217 3.71822 8.98736 3.63232 9.0134 3.54309C8.94537 3.49371 8.87691 3.44391 8.78998 3.38083C8.87775 3.38083 8.94663 3.38623 9.01382 3.37834C9.04196 3.37502 9.07892 3.34929 9.09026 3.32398C9.11755 3.26505 9.13183 3.20031 9.15115 3.13806C9.15661 3.13723 9.16207 3.13682 9.16795 3.13599Z" fill="#FCFCFD"/>
<path id="Vector_52" d="M4.40295 3.82253C4.32736 3.76858 4.26898 3.7304 4.21523 3.68682C4.18079 3.65902 4.15517 3.65819 4.12031 3.68558C4.06404 3.72998 4.00398 3.76941 3.93216 3.82087C3.96198 3.71961 3.98718 3.63329 4.01364 3.54324C3.94644 3.49468 3.87757 3.44488 3.78979 3.38139C3.87211 3.38139 3.93468 3.37849 3.99726 3.38222C4.0527 3.38554 4.08419 3.36811 4.09721 3.31209C4.11107 3.25357 4.13291 3.19713 4.15895 3.11621C4.19843 3.21747 4.22992 3.29798 4.2631 3.38388H4.54112C4.46847 3.43658 4.41177 3.48016 4.35256 3.51917C4.32106 3.53992 4.3051 3.55237 4.32526 3.59594C4.35592 3.66151 4.37313 3.7333 4.40295 3.82294V3.82253Z" fill="#FCFCFD"/>
<path id="Vector_53" d="M7.73084 3.81928C7.66028 3.76824 7.60359 3.73213 7.55319 3.68939C7.51329 3.65577 7.48389 3.66034 7.4461 3.69146C7.39486 3.73296 7.339 3.76948 7.27097 3.79562C7.29575 3.71387 7.32053 3.6317 7.34698 3.54414C7.27769 3.49393 7.20629 3.44288 7.12146 3.38146C7.18698 3.38146 7.24199 3.37524 7.29491 3.38271C7.38646 3.39557 7.42762 3.35532 7.444 3.27108C7.4524 3.22792 7.47297 3.18683 7.49523 3.125C7.52379 3.19347 7.55109 3.23497 7.55823 3.27979C7.57293 3.37233 7.625 3.3935 7.70942 3.38229C7.7552 3.37648 7.80265 3.38105 7.87447 3.38105C7.80643 3.43126 7.75688 3.47276 7.7027 3.50679C7.6544 3.53709 7.64516 3.56862 7.66784 3.62091C7.69304 3.67943 7.70732 3.74251 7.73084 3.81886V3.81928Z" fill="#FCFCFD"/>
<path id="Vector_54" d="M2.34722 3.54351C2.27751 3.49329 2.20611 3.44225 2.12128 3.38125C2.18427 3.38125 2.23593 3.38125 2.28801 3.38125C2.41148 3.38125 2.41106 3.38125 2.44675 3.26339C2.45893 3.22314 2.47363 3.18413 2.48749 3.14429C2.49379 3.14636 2.50009 3.14844 2.50639 3.15051C2.52445 3.19367 2.55133 3.23517 2.55847 3.27999C2.57275 3.37295 2.6265 3.39245 2.71008 3.38208C2.75585 3.37627 2.80331 3.38125 2.87428 3.38125C2.80625 3.43146 2.75669 3.47296 2.70252 3.5074C2.65422 3.5377 2.64582 3.56965 2.6685 3.62153C2.6937 3.67963 2.70756 3.7427 2.73149 3.82114C2.68488 3.78628 2.65674 3.7647 2.62776 3.74395C2.54321 3.68336 2.45753 3.68405 2.37074 3.74602C2.34218 3.76636 2.31194 3.78462 2.26575 3.8145C2.2964 3.71282 2.3216 3.63066 2.34806 3.54351H2.34722Z" fill="#FCFCFD"/>
<path id="Vector_55" d="M3.09812 3.09501C3.12206 3.02737 3.14978 2.96014 3.16826 2.89084C3.17372 2.86967 3.16028 2.83357 3.14306 2.81904C3.09098 2.77422 3.03261 2.73687 2.96289 2.68625C3.03765 2.68625 3.09896 2.68044 3.1586 2.68791C3.23167 2.69704 3.25309 2.65969 3.26695 2.60034C3.28165 2.53892 3.30307 2.47917 3.32742 2.3999C3.36522 2.50738 3.39588 2.59412 3.42864 2.68666H3.7012C3.6193 2.74683 3.55379 2.79497 3.48113 2.84851C3.50675 2.93192 3.53279 3.01699 3.56345 3.11701C3.49835 3.07053 3.4425 3.03484 3.39168 2.99292C3.35094 2.95931 3.32029 2.95599 3.27787 2.99126C3.22537 3.03525 3.167 3.07177 3.11072 3.11161C3.10652 3.10622 3.1019 3.10082 3.0977 3.09501H3.09812Z" fill="#FCFCFD"/>
<path id="Vector_56" d="M8.33431 2.42107C8.36539 2.50822 8.39605 2.59537 8.42797 2.685H8.70095C8.61821 2.74642 8.55228 2.79581 8.48046 2.84934C8.5065 2.93192 8.53254 3.01492 8.56362 3.11493C8.48088 3.05725 8.40907 3.00704 8.33389 2.95433C8.25872 3.00621 8.18438 3.05808 8.10963 3.10995C8.10585 3.1058 8.10207 3.10165 8.09787 3.0975C8.12559 3.01575 8.15331 2.93358 8.18312 2.8456C8.11551 2.79705 8.04663 2.74725 7.96222 2.68625C8.04033 2.68625 8.10543 2.68085 8.16884 2.68791C8.23142 2.69455 8.25074 2.66218 8.26376 2.61279C8.28056 2.54847 8.3003 2.48498 8.31877 2.42065C8.32381 2.42065 8.32885 2.42065 8.33431 2.42065V2.42107Z" fill="#FCFCFD"/>
<path id="Vector_57" d="M0.98024 0.749923C1.0067 0.834166 1.03274 0.917164 1.06423 1.01759C0.98066 0.958248 0.908426 0.907205 0.834091 0.854501C0.758916 0.907205 0.685841 0.958663 0.612346 1.01012C0.607727 1.0068 0.603107 1.00348 0.598487 0.999747C0.626205 0.916749 0.653923 0.833751 0.683321 0.745773C0.614866 0.695974 0.545991 0.646175 0.463257 0.586417C0.540951 0.586417 0.606887 0.581022 0.671562 0.588077C0.736238 0.595132 0.751357 0.557782 0.764376 0.510473C0.782014 0.446565 0.801333 0.383071 0.826111 0.298828C0.865169 0.408801 0.896246 0.496364 0.928164 0.586832H1.20072C1.11799 0.647835 1.05164 0.697219 0.98024 0.749923Z" fill="#FCFCFD"/>
<path id="Vector_58" d="M5.82627 0.298022C5.86491 0.408825 5.89557 0.495973 5.92707 0.585611H6.20173C6.13033 0.6379 6.07405 0.674834 6.02366 0.718823C6.00644 0.734178 5.993 0.769037 5.99762 0.790616C6.01274 0.861165 6.0371 0.929638 6.0623 1.01388C5.98082 0.957028 5.90859 0.907229 5.83299 0.854525C5.75866 0.906814 5.68432 0.958688 5.60957 1.01098C5.60579 1.00641 5.60159 1.00226 5.59781 0.997697C5.62553 0.915529 5.65325 0.833775 5.68306 0.745797C5.61503 0.696828 5.54615 0.64703 5.46216 0.586441C5.53733 0.586441 5.60033 0.581046 5.66164 0.587686C5.7301 0.595156 5.75194 0.561127 5.76538 0.504273C5.78008 0.442024 5.80107 0.381436 5.82585 0.297607L5.82627 0.298022Z" fill="#FCFCFD"/>
<path id="Vector_59" d="M9.16039 4.50317C9.19693 4.60692 9.228 4.69407 9.26034 4.78537H9.50728C9.51022 4.79076 9.51358 4.79616 9.51652 4.80114C9.46865 4.836 9.42371 4.87584 9.37205 4.90405C9.31578 4.93476 9.31704 4.97709 9.33216 5.02523C9.35148 5.08624 9.37373 5.14682 9.39935 5.22028C9.38129 5.20949 9.37625 5.20658 9.37121 5.20326C9.30864 5.15761 9.24858 5.08043 9.18307 5.07503C9.12217 5.07005 9.05498 5.14226 8.99072 5.18044C8.9777 5.18832 8.96468 5.19621 8.93402 5.19579C8.95586 5.13271 8.97434 5.06881 8.99996 5.00739C9.0176 4.96547 9.01508 4.93808 8.97308 4.91194C8.91597 4.87667 8.86305 4.83517 8.79333 4.7862C8.86767 4.7862 8.92941 4.78205 8.99072 4.78744C9.0554 4.79325 9.08479 4.76711 9.09865 4.70693C9.11335 4.64261 9.13645 4.57995 9.16039 4.50317Z" fill="#FCFCFD"/>
<path id="Vector_60" d="M3.93345 5.19648C3.96075 5.11472 3.98805 5.03297 4.01703 4.94582C3.94731 4.89561 3.87718 4.84498 3.79486 4.78605C3.86668 4.78605 3.92799 4.78107 3.98763 4.7873C4.05734 4.79477 4.08548 4.76364 4.09976 4.70222C4.11446 4.63956 4.1363 4.57856 4.1594 4.5022C4.19593 4.60553 4.22659 4.69226 4.26019 4.78647H4.50881C4.51091 4.79145 4.51259 4.79601 4.51469 4.80099C4.46177 4.83958 4.40676 4.87569 4.35762 4.91885C4.33998 4.93462 4.32528 4.96989 4.3299 4.99189C4.34502 5.06451 4.3698 5.13506 4.39416 5.21681C4.3131 5.15871 4.24045 5.10642 4.16779 5.05414C4.09178 5.10725 4.02038 5.15705 3.94941 5.20685C3.94395 5.20353 3.93849 5.20021 3.93345 5.19648Z" fill="#FCFCFD"/>
<path id="Vector_61" d="M5.59739 5.1986C5.62175 5.1293 5.64905 5.06082 5.66836 4.99027C5.67382 4.97036 5.66416 4.93591 5.64863 4.92263C5.59403 4.87698 5.53397 4.83756 5.46216 4.78568C5.53775 4.78568 5.59907 4.77987 5.65912 4.78734C5.73262 4.79647 5.75278 4.7583 5.76706 4.69895C5.78134 4.63753 5.80317 4.57777 5.82753 4.49976C5.86533 4.60724 5.89641 4.69439 5.92917 4.78734H6.20047C6.13537 4.83507 6.08791 4.87366 6.03668 4.90603C5.9909 4.93508 5.97242 4.96247 5.99846 5.01808C6.02576 5.07576 6.04088 5.13967 6.06734 5.21976C6.00224 5.17329 5.95016 5.14092 5.90439 5.10149C5.85567 5.05958 5.81577 5.0546 5.76496 5.09983C5.71792 5.14175 5.6629 5.17453 5.61125 5.21105C5.60663 5.2069 5.60201 5.20234 5.59739 5.19819V5.1986Z" fill="#FCFCFD"/>
<path id="Vector_62" d="M0.834076 5.05499C0.758901 5.10728 0.684147 5.15874 0.609812 5.21061C0.606032 5.20605 0.602252 5.20148 0.598473 5.19733C0.626191 5.11516 0.653909 5.03341 0.683727 4.94585C0.615272 4.89646 0.546396 4.84666 0.462402 4.78608C0.535477 4.78608 0.595953 4.78027 0.655169 4.78732C0.730343 4.79645 0.754702 4.76035 0.767721 4.69561C0.7799 4.63585 0.802998 4.57816 0.826937 4.50098C0.865154 4.60804 0.896652 4.69561 0.928989 4.78608H1.20029C1.13855 4.83172 1.09572 4.87115 1.04574 4.89854C0.983586 4.93298 0.973926 4.97573 1.00038 5.03631C1.02306 5.0886 1.04154 5.14297 1.07094 5.22016C0.980226 5.15666 0.908411 5.10686 0.833656 5.05457L0.834076 5.05499Z" fill="#FCFCFD"/>
<path id="Vector_63" d="M2.50683 4.53989C2.53119 4.60795 2.55261 4.67725 2.58201 4.74324C2.59041 4.76233 2.61981 4.78266 2.64122 4.78432C2.7101 4.7893 2.77981 4.7864 2.87137 4.7864C2.80291 4.83578 2.75378 4.87603 2.70002 4.90882C2.6534 4.93745 2.64752 4.97148 2.6639 5.01838C2.6849 5.07648 2.70296 5.13499 2.71052 5.20305C2.65676 5.16487 2.60091 5.12959 2.55051 5.08768C2.51271 5.05656 2.48541 5.05988 2.44888 5.08934C2.39554 5.1325 2.33759 5.17026 2.26703 5.19931C2.28803 5.13208 2.30147 5.06112 2.33213 4.99846C2.3548 4.95156 2.33675 4.93455 2.30399 4.91214C2.25149 4.87562 2.19983 4.83744 2.1297 4.78681C2.20571 4.78681 2.26199 4.78142 2.31659 4.78806C2.39554 4.79802 2.422 4.75652 2.43754 4.69136C2.45014 4.63824 2.46946 4.5872 2.48583 4.53491C2.49297 4.53657 2.49969 4.53865 2.50683 4.54031V4.53989Z" fill="#FBFBFC"/>
<path id="Vector_64" d="M7.59726 4.78911H7.86604C7.80347 4.83476 7.75643 4.87418 7.70436 4.90572C7.6527 4.93726 7.64388 4.97129 7.66824 5.02648C7.69218 5.08002 7.70394 5.13894 7.72619 5.21406C7.65816 5.16592 7.60314 5.13189 7.55401 5.09122C7.51537 5.05927 7.48639 5.05719 7.44649 5.08997C7.39358 5.13355 7.3352 5.17007 7.26465 5.19829C7.29195 5.11653 7.31924 5.03478 7.34822 4.9468C7.28187 4.89783 7.21467 4.84804 7.13068 4.7862C7.20837 4.7862 7.26759 4.78122 7.32554 4.78745C7.39862 4.79533 7.42004 4.753 7.43515 4.69656C7.44985 4.64303 7.46665 4.58991 7.48261 4.53638C7.48975 4.53679 7.49689 4.53762 7.50403 4.53804C7.53385 4.61938 7.56409 4.7003 7.59684 4.78869L7.59726 4.78911Z" fill="#FBFBFC"/>
<path id="Vector_65" d="M1.66726 2.95338C1.59293 3.00608 1.52195 3.05671 1.45098 3.10734L1.4367 3.09779C1.45601 3.03679 1.46861 2.97247 1.49591 2.9152C1.52195 2.86084 1.50851 2.83303 1.46105 2.80398C1.4073 2.7712 1.35774 2.73136 1.29517 2.68654C1.36908 2.68654 1.43082 2.68239 1.49171 2.68778C1.55681 2.69359 1.58579 2.66662 1.59922 2.60645C1.6135 2.54337 1.63534 2.48236 1.6597 2.40186C1.6975 2.50809 1.72858 2.59524 1.76133 2.68654H2.03389C1.96964 2.73426 1.9268 2.77327 1.87682 2.80066C1.81467 2.83469 1.81635 2.87909 1.83651 2.93429C1.85751 2.99239 1.87557 3.05132 1.89782 3.11896C1.81509 3.05962 1.74243 3.00733 1.66726 2.95338Z" fill="#FCFCFD"/>
<path id="Vector_66" d="M6.29535 2.6862C6.37094 2.6862 6.43352 2.68163 6.49526 2.68744C6.55825 2.69325 6.58387 2.66586 6.59773 2.60984C6.61369 2.54469 6.63595 2.48119 6.6603 2.40234C6.69684 2.50568 6.7275 2.59241 6.7611 2.68703H7.00972C7.01182 2.69201 7.0135 2.69699 7.0156 2.70197C6.96436 2.7389 6.91481 2.77874 6.86105 2.81235C6.82367 2.83559 6.81569 2.86215 6.82829 2.90158C6.85097 2.96964 6.87113 3.03852 6.89591 3.11696C6.81569 3.05927 6.74388 3.00823 6.66744 2.95387C6.59521 3.00491 6.52423 3.05512 6.45326 3.10534C6.4478 3.10243 6.44234 3.09994 6.4373 3.09704C6.4625 3.01529 6.48812 2.93395 6.51583 2.84514C6.44864 2.79658 6.37808 2.74554 6.29577 2.6862H6.29535Z" fill="#FCFCFD"/>
<path id="Vector_67" d="M4.16022 0.3021C4.19676 0.405432 4.22784 0.492995 4.26017 0.584293H4.5067C4.50964 0.589273 4.51258 0.593838 4.51552 0.598818C4.47016 0.632432 4.42816 0.671856 4.37903 0.698001C4.31729 0.730785 4.31435 0.774774 4.33367 0.830798C4.35425 0.888896 4.37399 0.94741 4.39918 1.01962C4.31351 0.9582 4.24044 0.905911 4.16736 0.853207C4.09177 0.906741 4.02079 0.956955 3.94982 1.00717C3.94478 1.00385 3.93974 1.00011 3.9347 0.996794C3.95654 0.930811 3.97627 0.863997 4.00147 0.799673C4.01575 0.763154 4.01533 0.7395 3.97879 0.71626C3.92 0.678911 3.86456 0.636167 3.79401 0.585953C3.87002 0.585953 3.9347 0.582633 3.99895 0.586783C4.05691 0.590518 4.08253 0.567694 4.09471 0.512915C4.10982 0.445686 4.1346 0.380533 4.15938 0.30127L4.16022 0.3021Z" fill="#FCFCFD"/>
<path id="Vector_68" d="M9.26163 0.588907H9.53335C9.46238 0.640781 9.40694 0.67647 9.3578 0.719214C9.34017 0.734569 9.32589 0.769843 9.33051 0.791838C9.34563 0.864461 9.3704 0.934594 9.39476 1.01676C9.31413 0.959079 9.24147 0.90679 9.16756 0.854086C9.0928 0.90679 9.02183 0.957419 8.95085 1.00763C8.94581 1.00431 8.94077 1.00141 8.93573 0.998088C8.95673 0.935009 8.97437 0.870686 8.99957 0.809682C9.01847 0.763618 9.01259 0.736229 8.96807 0.709254C8.9118 0.675225 8.86014 0.633726 8.79504 0.587247C8.87316 0.587247 8.93993 0.583927 9.00545 0.588077C9.06214 0.591812 9.0823 0.564838 9.0949 0.515454C9.1117 0.44864 9.13522 0.383072 9.16 0.302979C9.19654 0.405896 9.22719 0.493044 9.26121 0.589322L9.26163 0.588907Z" fill="#FCFCFD"/>
<path id="Vector_69" d="M2.26492 0.993795C2.28676 0.933206 2.30566 0.870958 2.33128 0.812029C2.35102 0.766795 2.34724 0.736916 2.30272 0.709111C2.24854 0.675497 2.19815 0.635658 2.12927 0.586274C2.20571 0.586274 2.2645 0.581709 2.32204 0.587519C2.39175 0.594574 2.42073 0.560545 2.43459 0.500371C2.44467 0.456382 2.45643 0.413223 2.47029 0.370064C2.47407 0.357614 2.48793 0.348484 2.50221 0.331055C2.53538 0.421108 2.56562 0.502446 2.59712 0.586689H2.86926C2.80207 0.635243 2.75209 0.673422 2.70001 0.708281C2.66347 0.732351 2.64626 0.755175 2.66473 0.802484C2.68909 0.864318 2.70211 0.930716 2.72479 1.01288C2.66263 0.96848 2.61224 0.937771 2.56814 0.899177C2.5211 0.858508 2.48373 0.853528 2.43459 0.897517C2.38713 0.939431 2.33128 0.9718 2.2792 1.00873C2.27416 1.00334 2.26954 0.99836 2.2645 0.992965L2.26492 0.993795Z" fill="#FBFBFC"/>
<path id="Vector_70" d="M7.5964 0.585933H7.87106C7.79883 0.638222 7.74129 0.674741 7.69047 0.71873C7.67242 0.734084 7.6594 0.770189 7.66402 0.793013C7.67746 0.861072 7.70055 0.927055 7.72575 1.0142C7.65436 0.963159 7.59766 0.925395 7.54433 0.883066C7.51199 0.857337 7.48763 0.858167 7.45571 0.883066C7.39944 0.927055 7.3398 0.967309 7.28142 1.00881C7.27596 1.00507 7.27051 1.00134 7.26505 0.997604C7.28646 0.936185 7.30494 0.873106 7.33098 0.813348C7.3524 0.764794 7.34568 0.733669 7.29822 0.70545C7.24531 0.673496 7.19701 0.634487 7.12939 0.585933C7.20205 0.585933 7.25791 0.580538 7.3125 0.587178C7.39314 0.596723 7.42337 0.556883 7.43849 0.487165C7.44941 0.435706 7.46915 0.386322 7.48469 0.335693C7.49141 0.336523 7.49855 0.337353 7.50527 0.338598C7.53551 0.419936 7.56574 0.501275 7.59682 0.585518L7.5964 0.585933Z" fill="#FBFBFC"/>
<path id="Vector_71" d="M5.00644 2.44133C5.03584 2.52184 5.06524 2.60193 5.09548 2.68452H5.37224C5.3063 2.73266 5.26052 2.77042 5.21013 2.80154C5.15805 2.8335 5.14041 2.8667 5.16855 2.92687C5.19333 2.97958 5.20425 3.03933 5.22651 3.11362C5.15637 3.06382 5.1001 3.0273 5.04802 2.9858C5.01358 2.95841 4.98754 2.95758 4.95269 2.9858C4.89725 3.0302 4.83761 3.06921 4.78008 3.11071C4.77504 3.10656 4.77042 3.10241 4.76538 3.09826C4.79268 3.01651 4.81956 2.93434 4.84895 2.84636C4.7826 2.79781 4.7154 2.74801 4.63141 2.68659C4.707 2.68659 4.7637 2.68161 4.81914 2.68784C4.89263 2.69614 4.92119 2.6592 4.93631 2.59654C4.94933 2.54259 4.9678 2.48989 4.98376 2.43677C4.99132 2.43843 4.99888 2.44009 5.00644 2.44175V2.44133Z" fill="#FBFBFC"/>
<path id="Vector_72" d="M10.002 4.9873C10.0066 4.99104 10.0108 4.99519 10.0155 4.99892C10.0113 5.00141 10.0071 5.00307 10.002 5.00266C10.002 4.99768 10.002 4.99228 10.002 4.9873Z" fill="#BE4453"/>
<path id="Vector_73" d="M10.0155 4.00186C10.0108 4.00601 10.0066 4.00974 10.002 4.01389C10.002 4.00891 10.002 4.00352 10.002 3.99854C10.0066 3.99854 10.0113 3.99937 10.0155 4.00186Z" fill="#B83243"/>
</g>
</g>
<defs>
<clipPath id="clip0_116_1100">
<rect width="25" height="13" rx="1" fill="white"/>
</clipPath>
</defs>
</svg>
