<svg width="25" height="24" viewBox="0 0 25 24" fill="none" xmlns="http://www.w3.org/2000/svg">
<g id="barbell">
<path id="Vector" d="M2.5 12H3.5M6.5 8H4.5C4.23478 8 3.98043 8.10536 3.79289 8.29289C3.60536 8.48043 3.5 8.73478 3.5 9V15C3.5 15.2652 3.60536 15.5196 3.79289 15.7071C3.98043 15.8946 4.23478 16 4.5 16H6.5M9.5 12H15.5M18.5 8H20.5C20.7652 8 21.0196 8.10536 21.2071 8.29289C21.3946 8.48043 21.5 8.73478 21.5 9V15C21.5 15.2652 21.3946 15.5196 21.2071 15.7071C21.0196 15.8946 20.7652 16 20.5 16H18.5M22.5 12H21.5M6.5 7V17C6.5 17.2652 6.60536 17.5196 6.79289 17.7071C6.98043 17.8946 7.23478 18 7.5 18H8.5C8.76522 18 9.01957 17.8946 9.20711 17.7071C9.39464 17.5196 9.5 17.2652 9.5 17V7C9.5 6.73478 9.39464 6.48043 9.20711 6.29289C9.01957 6.10536 8.76522 6 8.5 6H7.5C7.23478 6 6.98043 6.10536 6.79289 6.29289C6.60536 6.48043 6.5 6.73478 6.5 7ZM15.5 7V17C15.5 17.2652 15.6054 17.5196 15.7929 17.7071C15.9804 17.8946 16.2348 18 16.5 18H17.5C17.7652 18 18.0196 17.8946 18.2071 17.7071C18.3946 17.5196 18.5 17.2652 18.5 17V7C18.5 6.73478 18.3946 6.48043 18.2071 6.29289C18.0196 6.10536 17.7652 6 17.5 6H16.5C16.2348 6 15.9804 6.10536 15.7929 6.29289C15.6054 6.48043 15.5 6.73478 15.5 7Z" stroke="#E6B13B" stroke-width="1.5" stroke-linecap="round" stroke-linejoin="round"/>
</g>
</svg>
