<svg width="160" height="93" viewBox="0 0 160 93" fill="none" xmlns="http://www.w3.org/2000/svg">
    <g filter="url(#filter0_d_99_2617)">
        <rect x="4" width="152" height="85" rx="5" fill="#5FCDD9" shape-rendering="crispEdges"/>
        <path d="M77.9167 38.9167V34.75H75.8333L77.9167 28.5C77.9167 28.2237 78.0264 27.9588 78.2218 27.7634C78.4171 27.5681 78.6821 27.4583 78.9583 27.4583H81.0417C81.3179 27.4583 81.5829 27.5681 81.7782 27.7634C81.9736 27.9588 82.0833 28.2237 82.0833 28.5L84.1667 34.75H82.0833V38.9167M82.0833 21.2083C82.0833 22.3589 81.1506 23.2917 80 23.2917C78.8494 23.2917 77.9167 22.3589 77.9167 21.2083C77.9167 20.0577 78.8494 19.125 80 19.125C81.1506 19.125 82.0833 20.0577 82.0833 21.2083Z" stroke="white" stroke-width="1.5" stroke-linecap="round" stroke-linejoin="round"/>
        <path d="M68.92 64.014C68.92 63.79 68.9387 63.552 68.976 63.3C69.0227 63.0387 69.088 62.7633 69.172 62.474C69.2653 62.1753 69.3773 61.8627 69.508 61.536L70.516 61.928C70.4227 62.1893 70.3387 62.4367 70.264 62.67C70.1987 62.9033 70.1473 63.1227 70.11 63.328C70.082 63.5333 70.068 63.7293 70.068 63.916C70.068 64.308 70.152 64.6393 70.32 64.91C70.4973 65.19 70.74 65.4187 71.048 65.596C71.356 65.7733 71.706 65.904 72.098 65.988C72.4993 66.072 72.924 66.114 73.372 66.114C73.9133 66.114 74.4173 66.0673 74.884 65.974C75.36 65.8807 75.7753 65.7453 76.13 65.568C76.494 65.4 76.7787 65.204 76.984 64.98C77.1893 64.7653 77.292 64.532 77.292 64.28C77.292 64.1587 77.2453 64.0467 77.152 63.944C77.0587 63.8413 76.9187 63.7433 76.732 63.65C76.5453 63.5567 76.3213 63.468 76.06 63.384C75.7987 63.2907 75.5 63.1973 75.164 63.104L75.43 61.942C75.9153 62.1287 76.3447 62.2873 76.718 62.418C77.0913 62.5393 77.418 62.6373 77.698 62.712C77.978 62.7867 78.2207 62.8427 78.426 62.88C78.6313 62.908 78.804 62.922 78.944 62.922C79.14 62.922 79.28 62.978 79.364 63.09C79.4573 63.1927 79.504 63.3187 79.504 63.468C79.504 63.6173 79.4387 63.7573 79.308 63.888C79.1773 64.0093 79.0093 64.07 78.804 64.07C78.748 64.07 78.692 64.07 78.636 64.07C78.58 64.07 78.5193 64.07 78.454 64.07C78.398 64.07 78.342 64.07 78.286 64.07C78.3047 64.154 78.3187 64.2193 78.328 64.266C78.3373 64.322 78.342 64.392 78.342 64.476C78.342 64.8213 78.2207 65.1573 77.978 65.484C77.7447 65.8107 77.3993 66.1047 76.942 66.366C76.4847 66.6367 75.9293 66.8513 75.276 67.01C74.632 67.1687 73.8947 67.248 73.064 67.248C72.3267 67.248 71.6407 67.1267 71.006 66.884C70.3807 66.6507 69.8767 66.296 69.494 65.82C69.1113 65.344 68.92 64.742 68.92 64.014ZM78.8086 64.07L78.9486 62.922C79.4153 62.922 79.7793 62.8893 80.0406 62.824C80.3019 62.7493 80.4979 62.614 80.6286 62.418C80.7686 62.2127 80.8806 61.9187 80.9646 61.536C81.0486 61.1533 81.1513 60.654 81.2726 60.038L82.3646 60.248C82.3273 60.416 82.2853 60.6027 82.2386 60.808C82.1919 61.0133 82.1499 61.2187 82.1126 61.424C82.0846 61.62 82.0706 61.7927 82.0706 61.942C82.0706 62.082 82.0799 62.2127 82.0986 62.334C82.1173 62.4553 82.1873 62.558 82.3086 62.642C82.4299 62.726 82.6353 62.796 82.9246 62.852C83.2139 62.8987 83.6293 62.922 84.1706 62.922C84.3666 62.922 84.5066 62.978 84.5906 63.09C84.6839 63.1927 84.7306 63.3187 84.7306 63.468C84.7306 63.6173 84.6653 63.7573 84.5346 63.888C84.4039 64.0093 84.2359 64.07 84.0306 64.07C83.4613 64.07 83.0086 64.042 82.6726 63.986C82.3366 63.9207 82.0799 63.8273 81.9026 63.706C81.7346 63.5847 81.6133 63.4353 81.5386 63.258C81.4733 63.0713 81.4219 62.8567 81.3846 62.614L81.8046 62.642C81.6553 62.9407 81.4919 63.1833 81.3146 63.37C81.1466 63.5567 80.9506 63.7013 80.7266 63.804C80.5026 63.9067 80.2319 63.9767 79.9146 64.014C79.6066 64.0513 79.2379 64.07 78.8086 64.07ZM81.5946 57.056C81.3986 57.056 81.2306 56.9907 81.0906 56.86C80.9599 56.72 80.8946 56.5567 80.8946 56.37C80.8946 56.1833 80.9599 56.02 81.0906 55.88C81.2306 55.74 81.3986 55.67 81.5946 55.67C81.7813 55.67 81.9399 55.74 82.0706 55.88C82.2106 56.02 82.2806 56.1833 82.2806 56.37C82.2806 56.5567 82.2106 56.72 82.0706 56.86C81.9399 56.9907 81.7813 57.056 81.5946 57.056ZM80.6426 58.596C80.4466 58.596 80.2786 58.5307 80.1386 58.4C80.0079 58.26 79.9426 58.0967 79.9426 57.91C79.9426 57.7233 80.0079 57.56 80.1386 57.42C80.2786 57.28 80.4466 57.21 80.6426 57.21C80.8293 57.21 80.9879 57.28 81.1186 57.42C81.2586 57.56 81.3286 57.7233 81.3286 57.91C81.3286 58.0967 81.2586 58.26 81.1186 58.4C80.9879 58.5307 80.8293 58.596 80.6426 58.596ZM82.5466 58.596C82.3506 58.596 82.1826 58.5307 82.0426 58.4C81.9119 58.26 81.8466 58.0967 81.8466 57.91C81.8466 57.7233 81.9119 57.56 82.0426 57.42C82.1826 57.28 82.3506 57.21 82.5466 57.21C82.7333 57.21 82.8919 57.28 83.0226 57.42C83.1626 57.56 83.2326 57.7233 83.2326 57.91C83.2326 58.0967 83.1626 58.26 83.0226 58.4C82.8919 58.5307 82.7333 58.596 82.5466 58.596ZM84.0312 64.07L84.1713 62.922C84.6286 62.922 84.9926 62.894 85.2633 62.838C85.5339 62.782 85.7299 62.67 85.8513 62.502C85.9726 62.3247 86.0333 62.0633 86.0333 61.718C86.0333 61.4847 85.9959 61.2093 85.9213 60.892C85.8466 60.5653 85.7486 60.22 85.6273 59.856C85.5059 59.492 85.3753 59.1327 85.2353 58.778L86.3693 58.358C86.4906 58.6567 86.6026 58.9973 86.7053 59.38C86.8173 59.7627 86.9106 60.1407 86.9853 60.514C87.0599 60.8873 87.0973 61.214 87.0973 61.494C87.0973 61.8673 87.0553 62.1987 86.9713 62.488C86.8966 62.768 86.7799 63.0107 86.6213 63.216C86.4626 63.412 86.2573 63.5753 86.0053 63.706C85.7626 63.8273 85.4779 63.9207 85.1513 63.986C84.8246 64.042 84.4513 64.07 84.0312 64.07ZM85.8233 56.902C85.6273 56.902 85.4593 56.8367 85.3193 56.706C85.1886 56.566 85.1233 56.4027 85.1233 56.216C85.1233 56.0293 85.1886 55.866 85.3193 55.726C85.4593 55.586 85.6273 55.516 85.8233 55.516C86.0099 55.516 86.1686 55.586 86.2993 55.726C86.4393 55.866 86.5093 56.0293 86.5093 56.216C86.5093 56.4027 86.4393 56.566 86.2993 56.706C86.1686 56.8367 86.0099 56.902 85.8233 56.902ZM89.079 64L88.799 54.004H89.933L90.213 64H89.079Z" fill="white"/>
    </g>
    <defs>
        <filter id="filter0_d_99_2617" x="0" y="0" width="160" height="93" filterUnits="userSpaceOnUse" color-interpolation-filters="sRGB">
            <feFlood flood-opacity="0" result="BackgroundImageFix"/>
            <feColorMatrix in="SourceAlpha" type="matrix" values="0 0 0 0 0 0 0 0 0 0 0 0 0 0 0 0 0 0 127 0" result="hardAlpha"/>
            <feOffset dy="4"/>
            <feGaussianBlur stdDeviation="2"/>
            <feComposite in2="hardAlpha" operator="out"/>
            <feColorMatrix type="matrix" values="0 0 0 0 0.713726 0 0 0 0 0.85098 0 0 0 0 0.509804 0 0 0 0.47 0"/>
            <feBlend mode="normal" in2="BackgroundImageFix" result="effect1_dropShadow_99_2617"/>
            <feBlend mode="normal" in="SourceGraphic" in2="effect1_dropShadow_99_2617" result="shape"/>
        </filter>
    </defs>
</svg>
