<svg width="26" height="25" viewBox="0 0 26 25" fill="none" xmlns="http://www.w3.org/2000/svg">
<g id="man">
<path id="Vector" d="M10.9167 22.9167V17.7083L9.875 16.6667V12.5C9.875 12.2237 9.98475 11.9588 10.1801 11.7634C10.3754 11.5681 10.6404 11.4583 10.9167 11.4583H15.0833C15.3596 11.4583 15.6246 11.5681 15.8199 11.7634C16.0153 11.9588 16.125 12.2237 16.125 12.5V16.6667L15.0833 17.7083V22.9167M15.0833 5.20833C15.0833 6.35893 14.1506 7.29167 13 7.29167C11.8494 7.29167 10.9167 6.35893 10.9167 5.20833C10.9167 4.05774 11.8494 3.125 13 3.125C14.1506 3.125 15.0833 4.05774 15.0833 5.20833Z" stroke="#CFCFCF" stroke-width="1.5" stroke-linecap="round" stroke-linejoin="round"/>
</g>
</svg>
