<svg width="26" height="25" viewBox="0 0 26 25" fill="none" xmlns="http://www.w3.org/2000/svg">
<g id="woman">
<path id="Vector" d="M10.9167 22.9167V18.75H8.83334L10.9167 12.5C10.9167 12.2237 11.0264 11.9588 11.2218 11.7634C11.4171 11.5681 11.6821 11.4583 11.9583 11.4583H14.0417C14.3179 11.4583 14.5829 11.5681 14.7782 11.7634C14.9736 11.9588 15.0833 12.2237 15.0833 12.5L17.1667 18.75H15.0833V22.9167M15.0833 5.20833C15.0833 6.35893 14.1506 7.29167 13 7.29167C11.8494 7.29167 10.9167 6.35893 10.9167 5.20833C10.9167 4.05774 11.8494 3.125 13 3.125C14.1506 3.125 15.0833 4.05774 15.0833 5.20833Z" stroke="white" stroke-width="1.5" stroke-linecap="round" stroke-linejoin="round"/>
</g>
</svg>
