<svg width="24" height="24" viewBox="0 0 24 24" fill="none" xmlns="http://www.w3.org/2000/svg">
<g id="notifications">
<path id="Vector" d="M20.6293 15.9989C20.5515 15.9052 20.4751 15.8114 20.4001 15.7209C19.3689 14.4736 18.7449 13.7208 18.7449 10.1897C18.7449 8.36157 18.3076 6.86157 17.4456 5.73656C16.8099 4.90547 15.9507 4.275 14.8182 3.80906C14.8037 3.80096 14.7906 3.79032 14.7798 3.77766C14.3724 2.41359 13.2578 1.5 12.0006 1.5C10.7434 1.5 9.62916 2.41359 9.22182 3.77625C9.21095 3.78845 9.19811 3.79875 9.18385 3.80672C6.54104 4.89469 5.25666 6.98203 5.25666 10.1883C5.25666 13.7208 4.63369 14.4736 3.6015 15.7195C3.5265 15.81 3.4501 15.9019 3.37229 15.9975C3.17129 16.2399 3.04394 16.5348 3.00531 16.8473C2.96668 17.1599 3.01839 17.4769 3.15432 17.7609C3.44354 18.3703 4.05994 18.7486 4.76354 18.7486H19.2428C19.9431 18.7486 20.5553 18.3708 20.8454 17.7642C20.9819 17.4801 21.0341 17.1628 20.9958 16.8499C20.9575 16.5371 20.8303 16.2417 20.6293 15.9989Z" fill="#283459"/>
<path id="Vector_2" d="M12.0006 22.5007C12.678 22.5001 13.3427 22.3162 13.9241 21.9685C14.5055 21.6208 14.982 21.1222 15.3029 20.5256C15.318 20.497 15.3255 20.465 15.3246 20.4326C15.3237 20.4003 15.3144 20.3687 15.2977 20.3411C15.281 20.3134 15.2574 20.2904 15.2293 20.2746C15.2011 20.2587 15.1693 20.2503 15.137 20.2504H8.86513C8.83274 20.2503 8.80088 20.2585 8.77265 20.2744C8.74441 20.2902 8.72076 20.3131 8.704 20.3408C8.68725 20.3686 8.67795 20.4001 8.67702 20.4325C8.67609 20.4649 8.68356 20.4969 8.6987 20.5256C9.01962 21.1221 9.49599 21.6207 10.0773 21.9684C10.6586 22.3161 11.3232 22.5001 12.0006 22.5007Z" fill="#283459"/>
</g>
</svg>
