<svg width="30" height="30" viewBox="0 0 30 30" fill="none" xmlns="http://www.w3.org/2000/svg">
<g id="noun-workout-2017373 1">
<g id="Group">
<path id="Vector" d="M26.1534 6.99797H24.6545C24.4879 6.99797 24.3518 7.13391 24.3518 7.30065V8.37122H22.5515C22.3849 8.37122 22.2488 8.50615 22.2488 8.6739V10.5154H19.7723V9.68541C19.7723 9.18754 19.3684 8.78357 18.8697 8.78357H18.2241C17.7264 8.78357 17.3235 9.18653 17.3225 9.68323C17.3215 9.18651 16.9173 8.78357 16.4206 8.78357H15.7751C15.2762 8.78357 14.8723 9.18653 14.8723 9.68541C14.8723 9.18651 14.4695 8.78357 13.9706 8.78357H13.3251C12.8274 8.78357 12.4233 9.18653 12.4233 9.68541C12.4233 9.18651 12.0193 8.78357 11.5216 8.78357H10.8761C10.377 8.78357 9.97325 9.18653 9.97325 9.68541V10.5154H7.95562V8.6739C7.95562 8.50615 7.82052 8.37122 7.65294 8.37122L5.85277 8.37105V7.30048C5.85277 7.13374 5.71784 6.9978 5.55026 6.9978L4.05262 6.99797C3.88504 6.99797 3.74994 7.13391 3.74994 7.30065V15.8339C3.74994 16.0005 3.88504 16.1368 4.05262 16.1368H5.55026C5.71784 16.1368 5.85277 16.0007 5.85277 15.8339V14.7634H7.65311C7.82069 14.7634 7.95579 14.6284 7.95579 14.4607V12.618H9.97342V13.0295C9.97342 13.035 9.97409 13.0405 9.97443 13.0461V13.0293C9.97443 13.5272 10.3784 13.9312 10.8761 13.9312H11.5216C11.8348 13.9312 12.11 13.772 12.2726 13.5294C12.3442 13.4217 12.5025 13.4217 12.5743 13.5294C12.7367 13.772 13.0121 13.9312 13.3253 13.9312H13.9708C14.0731 13.9312 14.1712 13.9143 14.2619 13.8826C14.2229 13.7475 14.2018 13.6042 14.2018 13.4566V12.9165C14.2018 12.735 14.2334 12.5601 14.2914 12.3985C14.5045 11.8057 15.0718 11.3818 15.7363 11.3818H18.8697C19.117 11.3818 19.3512 11.4406 19.5589 11.5454C19.6909 11.612 19.7724 11.7493 19.7724 11.8971V12.9165C19.7724 12.7234 19.7123 12.5451 19.609 12.3985C19.4454 12.1664 19.1756 12.0146 18.8697 12.0146H16.5462V12.3136C16.5462 12.5738 16.3353 12.7847 16.0751 12.7847H14.8441C14.8378 12.8279 14.8343 12.8719 14.8343 12.9166V13.4567C14.8343 13.7003 14.9314 13.9208 15.0872 14.0822C15.2508 14.2531 15.4816 14.3585 15.7359 14.3585H16.5196C16.5229 14.3585 16.5261 14.3596 16.5295 14.3596C16.5355 14.3599 16.541 14.3607 16.5469 14.3612C16.7086 14.3753 16.8362 14.5096 16.8362 14.6748C16.8362 14.8278 16.7277 14.9554 16.5834 14.9848C16.3699 15.0627 14.9434 15.6201 14.5369 16.7537C14.4906 16.8829 14.3689 16.9633 14.2391 16.9633C14.2036 16.9633 14.1676 16.9572 14.1323 16.9447C13.9679 16.8858 13.8824 16.7046 13.9413 16.5401C14.2055 15.8034 14.7794 15.2773 15.3079 14.9281C15.0147 14.8424 14.7568 14.6736 14.5644 14.4461C14.3821 14.5219 14.1805 14.5643 13.9707 14.5643H13.3252C12.9889 14.5643 12.6765 14.4556 12.4236 14.271C12.1704 14.4556 11.8582 14.5643 11.5219 14.5643H10.8764C10.5389 14.5643 10.2276 14.4556 9.9747 14.27C9.9757 14.7762 10.1508 15.2656 10.4692 15.657L11.7096 17.1777L11.3466 22.9986C11.3208 23.4129 11.6498 23.7633 12.0651 23.7633L17.6357 23.763C18.0511 23.763 18.38 23.4126 18.3543 22.9982L17.9911 17.1735L17.9913 17.1734L19.258 15.6632C19.4562 15.4269 19.6008 15.1537 19.6852 14.8616C19.7431 14.6642 19.7727 14.4576 19.7727 14.2487V13.0335C19.7727 13.0321 19.7729 13.031 19.7729 13.0296V12.6181H22.2494V14.4608C22.2494 14.6286 22.3855 14.7635 22.5521 14.7635H24.3524V15.8341C24.3524 16.0006 24.4885 16.1369 24.6551 16.1369H26.1538C26.3205 16.1369 26.4556 16.0008 26.4556 15.8341L26.4553 7.30078C26.4553 7.13404 26.3204 6.99811 26.1536 6.99811L26.1534 6.99797Z" fill="#283459"/>
</g>
</g>
</svg>
