<svg width="34" height="35" viewBox="0 0 34 35" fill="none" xmlns="http://www.w3.org/2000/svg">
<g id="noun-running-shoe-1200375 1" clip-path="url(#clip0_64_517)">
<g id="Group">
<path id="Vector" d="M12.7031 29.8995C12.7031 30.2774 12.4041 30.5839 12.0353 30.5839H0.949419C0.580475 30.5839 0.281594 30.2774 0.281594 29.8995C0.281594 29.5215 0.580475 29.2152 0.949419 29.2152H12.0353C12.2125 29.2152 12.3823 29.2872 12.5075 29.4157C12.6327 29.544 12.7031 29.718 12.7031 29.8995ZM0.949419 27.28H8.45863C8.82739 27.28 9.12646 26.9735 9.12646 26.5956C9.12646 26.2177 8.82739 25.9113 8.45863 25.9113H0.949419C0.580475 25.9113 0.281594 26.2177 0.281594 26.5956C0.281594 26.9735 0.580475 27.28 0.949419 27.28ZM0.949419 23.9798H4.52596C4.89471 23.9798 5.19378 23.6736 5.19378 23.2955C5.19378 22.9176 4.89471 22.6111 4.52596 22.6111H0.949419C0.580475 22.6111 0.281594 22.9176 0.281594 23.2955C0.281594 23.6736 0.580475 23.9798 0.949419 23.9798ZM32.8934 28.8008C31.3388 30.3939 26.2891 30.5155 24.8055 30.5155H24.453C21.8039 30.5155 16.929 30.1353 14.1351 27.6298H14.1353C13.3383 26.9019 12.6239 26.0844 12.0057 25.1927C11.3986 24.2619 10.6167 23.4645 9.70533 22.847C9.22774 22.6133 8.71886 22.4544 8.19529 22.3755C7.45758 22.2356 6.73461 22.0244 6.03602 21.7445C3.57623 20.6762 0.593245 18.7713 0.288907 16.9046V16.8475C-0.00792643 13.095 3.55013 7.91671 6.22539 5.85584C7.37935 4.96623 8.34755 4.66204 9.10071 4.95475C10.4326 5.47563 10.7481 6.59342 11.0263 7.58196C11.2786 8.48306 11.516 9.33082 12.4249 10.0723C13.3341 10.8135 14.8588 10.5512 16.3318 10.0455C16.5153 8.60713 17.3027 7.32265 18.4873 6.52871C18.6438 6.43266 18.8319 6.40631 19.0078 6.45596C19.1837 6.50541 19.3322 6.62647 19.4186 6.79107L20.4574 8.76429C20.4574 8.76429 20.4574 8.79847 20.4796 8.81756L20.4982 8.85556C22.4089 14.1783 24.6908 20.0676 25.2509 20.7975C26.0493 21.1335 26.8642 21.4266 27.6923 21.6756C30.2262 22.5007 31.9329 23.0976 32.545 23.7134C33.1431 24.3781 33.5221 25.2186 33.6283 26.1163C33.8128 27.0798 33.5402 28.0758 32.8936 28.8006L32.8934 28.8008ZM32.1997 27.4207C31.5801 27.4587 30.5523 27.5081 29.2872 27.5081C25.8145 27.5081 20.5645 27.1469 17.0846 25.246C14.265 23.6948 12.8811 22.1473 10.9702 20.0068C8.49288 17.1654 5.78075 14.5487 2.86331 12.1862C2.03225 13.7869 1.5165 15.4216 1.60556 16.7028C1.79842 17.7066 3.95783 19.3642 6.54746 20.4705C7.16963 20.7169 7.81304 20.9026 8.46913 21.0256C9.15317 21.1277 9.81465 21.3502 10.4245 21.6834C11.468 22.3829 12.3659 23.2873 13.066 24.3448C13.6296 25.1617 14.2818 25.9103 15.0102 26.5765C16.8097 28.1923 20.2527 29.1237 24.4561 29.1237C26.8306 29.1617 30.9379 28.8387 31.9434 27.8121H31.9432C32.0541 27.6983 32.1413 27.5624 32.1992 27.4129L32.1997 27.4207Z" fill="#B6D982"/>
</g>
</g>
<defs>
<clipPath id="clip0_64_517">
<rect width="33.3912" height="34.2175" fill="white" transform="translate(0.271484 0.572021)"/>
</clipPath>
</defs>
</svg>
