<svg width="239" height="246" viewBox="0 0 239 246" fill="none" xmlns="http://www.w3.org/2000/svg">
<g clip-path="url(#clip0_171_2847)">
<path d="M164.434 246L167.744 243.826L173.311 220.892L164.434 219.843V246Z" fill="#894031"/>
<path d="M155.406 219.243L157.906 246H164.434L168.723 219.243H155.406Z" fill="#934A38"/>
<path d="M217.386 246L214.076 243.826L208.509 220.892L217.386 219.843V246Z" fill="#894031"/>
<path d="M226.414 219.243L223.915 246H217.386L213.098 219.243H226.414Z" fill="#934A38"/>
<path d="M81.7013 246L78.3912 243.826L72.8242 220.892L81.7013 219.843V246Z" fill="#894031"/>
<path d="M90.7303 219.243L88.2295 246H81.7012L77.4141 219.243H90.7303Z" fill="#934A38"/>
<path d="M21.116 246L24.426 243.826L29.993 220.892L21.116 219.843V246Z" fill="#894031"/>
<path d="M12.0881 219.243L14.589 246H21.1158L25.4044 219.243H12.0881Z" fill="#934A38"/>
<path d="M10.8472 185.979C11.2991 185.28 42.1055 173.251 42.1055 173.251L68.9633 185.729L63.8856 199.772C63.8856 199.772 21.3412 193.262 20.7773 192.699C20.2135 192.137 10.8472 185.978 10.8472 185.978V185.979Z" fill="#E1EFEF"/>
<path d="M92.7378 128.543L91.082 172.241L42.7827 174.939L13.1256 185.981C13.1256 185.981 1.93141 135.591 2.60863 134.916C3.28586 134.242 13.8933 121.651 14.5705 121.2C15.2477 120.752 34.9961 113.331 35.6734 113.331C36.3506 113.331 53.1649 110.969 53.1649 110.969L67.2717 112.88L79.0083 116.815C79.0083 116.815 85.647 120.774 86.5696 120.526C86.9656 120.419 88.1852 121.149 89.4478 122.017C91.5914 123.49 92.8368 125.949 92.7378 128.541V128.543Z" fill="#934A38"/>
<path d="M13.1255 185.979L16.9033 216.533L97.118 216.975L95.8927 185.979H13.1255Z" fill="#D6E4E4"/>
<g style="mix-blend-mode:multiply" opacity="0.5">
<path d="M14.5891 197.807L16.9034 216.533L97.1182 216.973L96.4065 198.998C53.459 204.619 28.7591 202.46 14.5876 197.806L14.5891 197.807Z" fill="#D6E4E4"/>
</g>
<path d="M59.8365 145.679C59.8365 145.679 26.3672 160.99 23.8578 168.636C21.3483 176.281 27.505 177.833 30.4635 180.213C33.4206 182.593 37.4854 182.975 40.9519 183.141C44.4183 183.308 52.3068 185.145 56.0128 187.024C59.7189 188.904 68.3248 191.881 74.1816 190.69C80.0384 189.5 91.1924 178.915 91.1924 178.915L95.9358 164.731L81.6166 147.94L59.8365 145.678V145.679Z" fill="#F7FBFA"/>
<path opacity="0.5" d="M91.5769 171.184C91.5769 171.184 80.2866 181.897 74.358 183.102C68.4295 184.307 59.7174 181.294 55.9669 179.392C52.2164 177.489 44.2303 175.63 40.7223 175.461C37.2142 175.292 33.0992 174.906 30.1062 172.498C28.4275 171.147 25.7287 170.059 24.1318 167.998C24.0199 168.216 23.9252 168.43 23.8563 168.636C21.3454 176.281 27.5035 177.834 30.4621 180.213C33.4192 182.593 37.4839 182.975 40.9504 183.141C44.4168 183.308 52.3053 185.145 56.0114 187.024C59.7174 188.904 68.3233 191.881 74.1801 190.69C80.0369 189.5 91.191 178.916 91.191 178.916L95.9344 164.731L94.3547 162.878L91.5769 171.184Z" fill="#CEECF4"/>
<path d="M84.4749 147.69C85.8709 149.516 88.1924 150.092 89.6602 148.977C91.128 147.862 91.1854 145.478 89.7893 143.651C88.3933 141.826 86.0704 141.25 84.604 142.365C83.1362 143.48 83.0788 145.864 84.4749 147.69Z" fill="#F99893"/>
<path d="M93.0877 151.898C91.2426 149.633 88.9928 147.718 86.9282 146.221C86.4848 145.899 86.0615 145.554 85.644 145.201C83.9596 143.771 81.9638 142.611 79.6567 141.849C72.2302 139.4 63.9098 142.162 59.4448 148.574C53.4301 157.211 56.1605 168.867 64.9974 174.05C63.8969 174.695 63.1365 175.7 63.0002 176.896C62.7391 179.192 64.8611 181.313 67.7393 181.633C70.6189 181.953 73.1642 180.354 73.4254 178.058C73.4612 177.739 73.4469 177.425 73.3967 177.118C81.3684 180.762 90.8093 178.022 95.0491 170.58C98.2845 164.898 97.8053 157.48 93.0877 151.898Z" fill="#FFC0BB"/>
<path d="M75.7858 158.806C75.1373 159.314 74.5576 159.821 74.0483 160.37C73.5389 160.917 73.1157 161.51 72.7957 162.148C72.4844 162.787 72.2218 163.463 72.1113 164.199C72.0209 164.615 72.0797 164.249 71.9506 165.327C71.909 165.714 71.9219 166.106 71.8588 166.525C71.6766 166.162 71.5144 165.777 71.3982 165.378C71.3293 164.974 71.2031 164.561 71.226 164.135C71.1773 163.284 71.404 162.414 71.7899 161.639C72.1816 160.862 72.7742 160.193 73.4686 159.705C74.1674 159.228 74.9551 158.88 75.7858 158.806Z" fill="#752911"/>
<path d="M76.001 165.517C76.43 165.25 76.8174 164.978 77.1646 164.675C77.5118 164.375 77.8074 164.041 78.0456 163.672C78.2766 163.303 78.4817 162.907 78.5965 162.466C78.6682 162.25 78.717 162.011 78.7687 161.788C78.8189 161.554 78.8376 161.315 78.9036 161.063C78.9911 161.296 79.0642 161.542 79.1087 161.794C79.1245 162.045 79.1747 162.306 79.1317 162.563C79.1059 163.085 78.9107 163.601 78.6238 164.049C78.3339 164.498 77.9293 164.868 77.4731 165.12C77.0154 165.366 76.5118 165.526 76.001 165.517Z" fill="#333333"/>
<path d="M82.7976 155.819C83.2266 155.552 83.614 155.28 83.9598 154.977C84.307 154.676 84.6025 154.343 84.8407 153.974C85.0732 153.605 85.2769 153.209 85.3917 152.767C85.4634 152.553 85.5122 152.313 85.5638 152.09C85.6141 151.856 85.6327 151.615 85.6987 151.365C85.7862 151.6 85.8594 151.844 85.9039 152.096C85.9197 152.347 85.9699 152.607 85.9269 152.866C85.901 153.388 85.7045 153.905 85.4189 154.353C85.1291 154.801 84.7245 155.172 84.2682 155.423C83.8105 155.669 83.3069 155.829 82.7961 155.82L82.7976 155.819Z" fill="#333333"/>
<path d="M78.9409 154.321C78.6568 153.541 78.6381 152.683 78.7773 151.851C78.9265 151.018 79.2838 150.202 79.8247 149.519C80.3656 148.843 81.0629 148.268 81.8564 147.952C82.2337 147.751 82.6627 147.691 83.0602 147.58C83.4719 147.516 83.8909 147.499 84.2984 147.509C83.944 147.743 83.5824 147.898 83.2481 148.099C82.3628 148.647 82.5824 148.5 82.2911 148.721C81.6684 149.133 81.1648 149.656 80.7143 150.208C80.2695 150.766 79.9094 151.4 79.6267 152.09C79.3426 152.783 79.126 153.519 78.9394 154.32L78.9409 154.321Z" fill="#752911"/>
<path d="M78.0785 137.605C78.0785 137.605 79.4702 135.091 78.9939 133.694C78.9939 133.694 78.0771 137.313 73.8588 136.403C69.6405 135.492 64.1123 136.512 60.0963 140.498C56.0789 144.483 49.0269 157.008 50.0484 162.017C51.07 167.025 53.2638 170.034 57.4893 172.402C61.7162 174.771 62.6057 177.098 61.851 178.325C61.851 178.325 63.425 177.209 63.59 175.109C63.59 175.109 65.2945 176.383 64.778 178.31C64.778 178.31 66.9216 174.276 65.1539 171.953C65.1539 171.953 69.5587 174.845 69.9174 176.476C69.9174 176.476 70.6578 172.624 63.8985 167.122C63.8985 167.122 67.3276 151.655 62.9945 145.819C62.9945 145.819 67.5887 151.275 67.1927 153.842C67.1927 153.842 70.8859 148.79 67.6347 142.686C67.6347 142.686 73.0711 140.76 75.7068 141.037C78.2492 141.306 83.5393 143.674 83.8894 143.891L79.519 138.677C79.519 138.677 81.4474 138.025 81.9022 135.633C81.9022 135.633 79.4272 137.832 78.0799 137.606L78.0785 137.605Z" fill="#752911"/>
<path d="M205.703 168.889C205.703 168.889 178.575 161.849 151.258 182.013C148.214 184.26 146.787 188.086 147.631 191.765L154.477 221.803C154.477 221.803 183.317 217.132 183.619 216.531C183.92 215.932 197.075 208.737 197.72 204.839C198.364 200.942 205.703 168.886 205.703 168.886V168.889Z" fill="#934A38"/>
<path d="M0.117727 141.593L8.9962 222.37C9.21429 224.358 10.9002 225.864 12.9074 225.864H227.403L238.755 186.603C239.525 183.94 238.436 181.094 236.083 179.616C225.423 172.917 194.4 157.681 160.768 180.988C156.724 183.791 154.667 188.669 155.426 193.519L159.155 217.316L16.9019 216.536L7.67189 141.857C7.12667 137.451 8.61024 133.033 11.7166 129.847C22.0442 119.255 47.6049 99.4117 91.4923 124.101C91.4923 124.101 77.2376 105.762 38.946 110.859C19.9106 113.393 9.98047 120.793 4.80805 126.651C1.19669 130.74 -0.476276 136.179 0.117727 141.593Z" fill="#B9704E"/>
<path opacity="0.2" d="M16.9033 216.533L15.7742 218.032H82.7975L77.2362 216.864L16.9033 216.533Z" fill="#934A38"/>
<path d="M152.052 211.163L147.631 191.765C146.786 188.086 148.214 184.26 151.258 182.013C172.394 166.412 193.414 167.096 201.845 168.204L203.458 168.441C203.458 168.441 194.754 165.42 189.638 163.021C184.521 160.623 177.451 158.525 169.625 157.776C161.801 157.027 150.065 155.077 142.993 149.831C135.921 144.584 128.097 144.885 128.097 144.885L122.379 144.882C122.379 144.882 108.235 152.08 107.935 152.53C107.634 152.979 96.8011 165.72 95.7479 167.219C94.6948 168.719 86.5696 198.097 86.5696 198.097C86.5696 198.097 87.3214 217.583 91.686 219.381C96.0492 221.18 112.149 220.281 119.522 218.783C126.896 217.283 135.773 220.731 139.535 221.481C142.016 221.976 149.601 221.909 154.48 221.806L152.055 211.164L152.052 211.163Z" fill="#01A9D6"/>
<g style="mix-blend-mode:multiply" opacity="0.3">
<path d="M148.033 193.522C139.539 195.779 131.08 198.397 126.066 197.422C116.814 195.624 113.879 189.104 104.625 185.981C98.7481 183.997 95.2472 178.052 93.4738 173.977C90.7204 183.086 86.5696 198.099 86.5696 198.099C86.5696 198.099 87.3214 217.585 91.686 219.383C96.0492 221.181 112.149 220.282 119.522 218.784C126.896 217.284 135.773 220.732 139.535 221.482C142.02 221.977 149.626 221.91 154.503 221.805L148.035 193.523L148.033 193.522Z" fill="#01A9D6"/>
</g>
<path d="M128.097 144.885C128.097 144.885 109.439 153.728 101.765 172.015C94.0921 190.302 91.6845 219.38 91.6845 219.38C91.6845 219.38 82.2048 222.378 77.2405 219.38C77.2405 219.38 76.338 165.419 107.635 147.731C107.635 147.731 115.459 141.584 128.098 144.883L128.097 144.885Z" fill="#283459"/>
<path opacity="0.6" d="M118.33 174.908L115.232 174.922C115.052 174.922 114.882 175.012 114.78 175.161L113.036 177.712C112.779 178.087 112.202 178.007 112.059 177.575L111.087 174.644C111.03 174.472 110.892 174.341 110.719 174.289L107.744 173.426C107.307 173.299 107.205 172.727 107.573 172.458L110.071 170.633C110.218 170.526 110.301 170.354 110.295 170.174L110.201 167.09C110.186 166.635 110.701 166.363 111.071 166.628L113.587 168.43C113.733 168.536 113.924 168.562 114.093 168.502L117.009 167.46C117.438 167.307 117.857 167.71 117.719 168.141L116.776 171.082C116.722 171.253 116.755 171.442 116.865 171.583L118.762 174.025C119.042 174.383 118.785 174.907 118.33 174.908Z" fill="#B6D982"/>
<path opacity="0.6" d="M153.969 172.336L151.399 170.611C151.248 170.511 151.057 170.49 150.89 170.555L148.007 171.686C147.582 171.852 147.152 171.462 147.277 171.026L148.129 168.058C148.179 167.885 148.139 167.698 148.024 167.56L146.054 165.178C145.765 164.828 146.004 164.298 146.459 164.282L149.555 164.173C149.736 164.166 149.902 164.072 150 163.92L151.664 161.318C151.91 160.935 152.489 160.997 152.646 161.425L153.708 164.324C153.769 164.494 153.911 164.621 154.086 164.667L157.085 165.44C157.527 165.553 157.645 166.122 157.286 166.402L154.845 168.303C154.703 168.414 154.624 168.589 154.636 168.769L154.825 171.849C154.852 172.302 154.347 172.591 153.969 172.338V172.336Z" fill="#B6D982"/>
<path opacity="0.6" d="M136.899 190.761L134.335 189.028C134.186 188.927 133.995 188.905 133.826 188.971L130.939 190.093C130.514 190.259 130.084 189.866 130.21 189.43L131.072 186.466C131.123 186.293 131.084 186.105 130.969 185.965L129.006 183.578C128.718 183.227 128.959 182.698 129.414 182.683L132.51 182.583C132.691 182.578 132.857 182.483 132.955 182.332L134.628 179.735C134.875 179.353 135.453 179.417 135.608 179.845L136.659 182.748C136.721 182.918 136.862 183.047 137.038 183.092L140.035 183.874C140.476 183.988 140.594 184.559 140.233 184.838L137.787 186.731C137.644 186.841 137.565 187.016 137.576 187.196L137.756 190.278C137.781 190.731 137.275 191.018 136.898 190.764L136.899 190.761Z" fill="#B6D982"/>
<path opacity="0.6" d="M146.353 214.107L143.422 213.108C143.249 213.05 143.061 213.08 142.915 213.187L140.427 215.027C140.061 215.297 139.542 215.032 139.549 214.578L139.598 211.492C139.601 211.312 139.515 211.142 139.367 211.037L136.843 209.248C136.471 208.985 136.565 208.412 137.001 208.277L139.962 207.37C140.136 207.317 140.271 207.182 140.325 207.009L141.254 204.065C141.39 203.632 141.967 203.542 142.229 203.913L144.011 206.438C144.116 206.585 144.285 206.672 144.466 206.671L147.564 206.639C148.02 206.635 148.283 207.152 148.01 207.517L146.151 209.985C146.042 210.13 146.011 210.318 146.069 210.488L147.056 213.414C147.201 213.844 146.788 214.255 146.356 214.107H146.353Z" fill="#B6D982"/>
<path opacity="0.6" d="M109.978 213.344L107.212 211.955C107.05 211.873 106.859 211.878 106.7 211.963L103.982 213.446C103.582 213.664 103.104 213.33 103.174 212.881L103.646 209.831C103.674 209.652 103.612 209.472 103.48 209.349L101.224 207.232C100.893 206.921 101.064 206.366 101.513 206.293L104.57 205.797C104.75 205.767 104.902 205.653 104.979 205.49L106.304 202.7C106.499 202.29 107.081 202.28 107.291 202.683L108.708 205.427C108.791 205.587 108.948 205.697 109.127 205.72L112.201 206.112C112.653 206.169 112.842 206.719 112.522 207.041L110.341 209.232C110.213 209.361 110.157 209.542 110.192 209.719L110.767 212.752C110.852 213.198 110.386 213.549 109.98 213.344H109.978Z" fill="#B6D982"/>
<path opacity="0.6" d="M140.037 154.31L142.968 155.309C143.4 155.456 143.813 155.046 143.668 154.616L142.681 151.69C142.624 151.518 142.654 151.331 142.763 151.187L143.508 150.198C143.334 150.076 143.162 149.955 142.993 149.83C141.129 148.448 139.215 147.453 137.403 146.734L136.938 148.209C136.883 148.382 136.747 148.517 136.575 148.57L133.613 149.477C133.177 149.612 133.084 150.185 133.457 150.448L135.981 152.237C136.129 152.342 136.215 152.512 136.212 152.692L136.163 155.778C136.156 156.232 136.675 156.497 137.041 156.227L139.529 154.387C139.674 154.28 139.863 154.25 140.036 154.308L140.037 154.31Z" fill="#B6D982"/>
<path opacity="0.6" d="M170.02 160.024L172.545 161.814C172.693 161.918 172.779 162.088 172.776 162.268L172.727 165.354C172.72 165.809 173.239 166.073 173.605 165.803L176.093 163.963C176.238 163.856 176.427 163.826 176.6 163.885L179.531 164.884C179.963 165.031 180.376 164.621 180.231 164.191L179.244 161.265C179.187 161.093 179.217 160.906 179.326 160.762L180.161 159.653C177.902 159.059 175.501 158.559 172.995 158.188L170.178 159.052C169.741 159.187 169.65 159.76 170.021 160.023L170.02 160.024Z" fill="#B6D982"/>
<path d="M200.891 183.967C200.891 181.104 202.607 178.641 205.069 177.539C204.185 177.143 203.206 176.922 202.175 176.922C198.269 176.922 195.103 180.076 195.103 183.967C195.103 187.858 198.269 191.012 202.175 191.012C203.206 191.012 204.185 190.791 205.069 190.395C202.607 189.293 200.891 186.83 200.891 183.967Z" fill="#934A38"/>
<g style="mix-blend-mode:multiply" opacity="0.2">
<path d="M196.608 183.967C196.608 180.329 199.376 177.336 202.928 176.962C202.681 176.936 202.43 176.922 202.175 176.922C198.269 176.922 195.103 180.076 195.103 183.967C195.103 187.858 198.269 191.012 202.175 191.012C202.429 191.012 202.68 190.998 202.928 190.972C199.376 190.598 196.608 187.605 196.608 183.967Z" fill="#934A38"/>
</g>
<path d="M193.685 189.297C193.543 188.684 192.994 188.226 192.335 188.226C192.214 188.226 192.097 188.242 191.985 188.271C191.661 187.579 190.955 187.099 190.138 187.099C189.927 187.099 189.724 187.13 189.531 187.19C189.091 186.464 188.292 185.979 187.379 185.979C186.293 185.979 185.368 186.667 185.016 187.629C184.768 187.492 184.482 187.412 184.178 187.412C183.226 187.412 182.454 188.181 182.454 189.13C182.454 189.185 182.456 189.241 182.462 189.297H193.685Z" fill="#934A38"/>
<path d="M218.863 183.38C218.732 182.815 218.226 182.393 217.619 182.393C217.507 182.393 217.399 182.408 217.296 182.435C216.996 181.797 216.346 181.356 215.593 181.356C215.398 181.356 215.21 181.386 215.033 181.44C214.627 180.771 213.891 180.324 213.049 180.324C212.047 180.324 211.194 180.957 210.871 181.843C210.643 181.716 210.379 181.643 210.099 181.643C209.221 181.643 208.509 182.352 208.509 183.227C208.509 183.278 208.512 183.33 208.516 183.38H218.863Z" fill="#934A38"/>
<path opacity="0.2" d="M236.084 179.615C231.965 177.026 224.803 173.164 215.627 170.743C212.839 191.644 200.407 222.547 151.713 225.864H227.404L238.756 186.603C239.527 183.94 238.438 181.094 236.084 179.616V179.615Z" fill="#934A38"/>
<g style="mix-blend-mode:multiply" opacity="0.5">
<path d="M50.9925 126.648C50.9925 123.785 52.7085 121.322 55.1706 120.22C54.2868 119.824 53.3083 119.603 52.2767 119.603C48.3712 119.603 45.2046 122.757 45.2046 126.648C45.2046 130.538 48.3712 133.693 52.2767 133.693C53.3083 133.693 54.2868 133.471 55.1706 133.075C52.7085 131.973 50.9925 129.511 50.9925 126.648Z" fill="#934A38"/>
<g style="mix-blend-mode:multiply" opacity="0.2">
<path d="M46.7082 126.648C46.7082 123.01 49.4759 120.016 53.0285 119.643C52.7817 119.617 52.5306 119.603 52.2752 119.603C48.3697 119.603 45.2031 122.757 45.2031 126.648C45.2031 130.538 48.3697 133.693 52.2752 133.693C52.5292 133.693 52.7802 133.679 53.0285 133.653C49.4759 133.278 46.7082 130.285 46.7082 126.648Z" fill="#934A38"/>
</g>
<path d="M43.7869 131.978C43.6449 131.364 43.0954 130.907 42.4368 130.907C42.3163 130.907 42.1986 130.923 42.0867 130.951C41.7625 130.26 41.0565 129.781 40.2402 129.781C40.0292 129.781 39.8255 129.812 39.6332 129.872C39.1928 129.146 38.3936 128.662 37.4811 128.662C36.3949 128.662 35.4695 129.348 35.118 130.31C34.8697 130.172 34.5842 130.094 34.28 130.094C33.3273 130.094 32.5554 130.863 32.5554 131.812C32.5554 131.868 32.5583 131.923 32.564 131.979H43.7869V131.978Z" fill="#934A38"/>
<path d="M68.9633 126.06C68.8327 125.496 68.3262 125.074 67.7193 125.074C67.6074 125.074 67.4998 125.088 67.3965 125.116C67.0966 124.478 66.4466 124.036 65.6934 124.036C65.4983 124.036 65.3103 124.066 65.1338 124.121C64.7278 123.452 63.9917 123.004 63.1495 123.004C62.148 123.004 61.2943 123.638 60.9715 124.524C60.7419 124.397 60.4794 124.324 60.1981 124.324C59.3201 124.324 58.6084 125.033 58.6084 125.907C58.6084 125.959 58.6113 126.01 58.6156 126.062H68.9618L68.9633 126.06Z" fill="#934A38"/>
</g>
<path d="M153.467 217.283L155.632 225.864H160.672L159.157 217.313C159.157 217.313 156.233 212.335 155.782 212.635C155.33 212.935 153.467 217.282 153.467 217.282V217.283Z" fill="#934A38"/>
<path d="M136.16 15.8799C133.913 6.13042 147.848 0.917632 156.112 9.11058C163.308 -5.78452 182.271 -0.638915 182.996 11.8192C203.237 0.716096 211.334 18.7929 209.052 25.0548C232.103 18.6428 231.236 39.807 228.79 42.8743C244.541 48.8704 239.989 65.4207 227.21 66.7743C230.268 80.1828 214.297 90.2125 201.041 81.292C193.341 95.1037 174.724 94.8335 166.526 82.2296C153.987 99.0201 134.847 87.6454 136.418 80.0628C120.864 97.1248 102.922 80.6045 105.368 71.6669C89.0574 71.3924 82.532 44.428 105.641 41.3621C96.428 21.1341 116.515 20.7825 120.864 23.747C118.145 9.92101 131.338 10.4613 136.159 15.8785L136.16 15.8799Z" fill="#5FCDD9"/>
<g style="mix-blend-mode:multiply">
<path d="M164.015 72.0671C193.761 72.0671 217.876 68.2454 217.876 63.5311C217.876 58.8168 193.761 54.9951 164.015 54.9951C134.269 54.9951 110.155 58.8168 110.155 63.5311C110.155 68.2454 134.269 72.0671 164.015 72.0671Z" fill="#E8E8E8"/>
</g>
<path d="M151.409 29.5675C151.409 29.5675 147.065 31.5857 147.588 32.4762C148.016 33.2038 152.613 31.4056 152.883 31.1612C153.012 30.5595 152.611 29.2774 151.409 29.5675Z" fill="#F4A640"/>
<path d="M153.124 32.4303C153.124 32.4303 148.779 34.4485 149.303 35.339C149.73 36.0651 154.327 34.2684 154.597 34.024C154.726 33.4223 154.326 32.1402 153.124 32.4303Z" fill="#F4A640"/>
<path d="M148.588 31.1499C147.891 31.6402 147.39 32.139 147.588 32.4763C147.733 32.7236 148.365 32.6779 149.142 32.5006L148.588 31.1499Z" fill="#4A3A34"/>
<path d="M150.238 34.0586C149.575 34.5331 149.111 35.012 149.303 35.3393C149.458 35.6008 150.155 35.5337 150.996 35.3307L150.238 34.0586Z" fill="#4A3A34"/>
<path d="M173.142 28.7754C173.142 28.7754 177.717 30.1976 177.318 31.1496C176.993 31.9271 172.195 30.7565 171.896 30.5507C171.687 29.9718 171.912 28.6482 173.143 28.774L173.142 28.7754Z" fill="#F4A640"/>
<path d="M171.376 31.0039C171.376 31.0039 175.951 32.4261 175.552 33.3781C175.227 34.1556 170.429 32.985 170.13 32.7792C169.921 32.2003 170.146 30.8767 171.377 31.0025L171.376 31.0039Z" fill="#F4A640"/>
<path d="M176.149 29.9673C176.907 30.3604 177.469 30.7877 177.318 31.1493C177.208 31.4138 176.577 31.4524 175.782 31.3809L176.15 29.9687L176.149 29.9673Z" fill="#4A3A34"/>
<path d="M174.455 32.2344C175.176 32.6174 175.7 33.0291 175.554 33.3793C175.436 33.6594 174.734 33.6866 173.875 33.5965L174.456 32.2358L174.455 32.2344Z" fill="#4A3A34"/>
<path d="M174.218 25.4379C174.235 26.0054 173.885 26.4971 173.383 26.6915C173.607 26.9173 173.75 27.2246 173.76 27.5677C173.779 28.188 173.36 28.7183 172.782 28.8684C173.115 29.0956 173.338 29.4715 173.351 29.9032C173.373 30.6236 172.805 31.2239 172.083 31.2453C171.899 31.2511 171.724 31.2182 171.564 31.1553C171.607 31.2782 171.632 31.4097 171.637 31.5455C171.658 32.2659 171.09 32.8662 170.368 32.8876C170.112 32.8948 169.872 32.8276 169.665 32.7075C169.665 32.7133 169.665 32.719 169.665 32.7261C169.687 33.4465 169.119 34.0468 168.397 34.0683C168.097 34.0769 167.817 33.9839 167.592 33.821C167.598 33.8667 167.602 33.9139 167.604 33.9611C167.625 34.6815 167.057 35.2818 166.335 35.3032C165.843 35.3175 165.407 35.0588 165.17 34.6657C165.097 35.2975 164.569 35.7978 163.91 35.8178C163.344 35.8349 162.853 35.4905 162.655 34.9931C162.489 35.5005 162.018 35.8735 161.451 35.8907C160.887 35.9078 160.398 35.5662 160.199 35.0745C159.971 35.4104 159.592 35.6363 159.154 35.6491C158.526 35.6677 157.986 35.2418 157.844 34.6557C157.63 35.0559 157.214 35.3347 156.728 35.349C156.175 35.3661 155.693 35.0374 155.487 34.5614C155.246 34.7872 154.916 34.9316 154.548 34.9416C153.788 34.9645 153.155 34.4142 153.134 33.7124C153.124 33.3708 153.261 33.0563 153.492 32.8205C152.857 32.7476 152.355 32.2216 152.335 31.5655C152.325 31.2382 152.438 30.9366 152.632 30.7008C151.921 30.7079 151.333 30.1476 151.312 29.4372C151.3 29.0327 151.474 28.6668 151.755 28.4195C151.725 28.4224 151.695 28.4253 151.665 28.4267C150.941 28.4481 150.339 27.8821 150.317 27.1617C150.296 26.4413 150.864 25.841 151.586 25.8196C151.609 25.8196 151.63 25.8196 151.653 25.8196C151.485 25.608 151.38 25.3436 151.372 25.0535C151.352 24.3988 151.821 23.8442 152.449 23.7328C152.134 23.5041 151.923 23.1381 151.91 22.7179C151.888 21.9975 152.457 21.3972 153.18 21.3758C153.389 21.3701 153.587 21.4144 153.765 21.4958C153.715 21.3643 153.683 21.2214 153.679 21.0728C153.657 20.3524 154.226 19.7521 154.949 19.7306C155.134 19.7249 155.31 19.7592 155.472 19.8235C155.472 19.8135 155.471 19.8035 155.47 19.7921C155.448 19.0717 156.016 18.4714 156.739 18.4499C157.17 18.4371 157.556 18.6329 157.804 18.9459C157.827 18.2627 158.376 17.7067 159.071 17.6852C159.549 17.6709 159.973 17.9139 160.213 18.2884C160.321 17.6952 160.833 17.2364 161.461 17.2164C162.134 17.1964 162.702 17.6852 162.796 18.3327C163.027 18.0411 163.381 17.8496 163.783 17.8382C164.401 17.8196 164.931 18.2327 165.084 18.803C165.314 18.5557 165.639 18.397 166.004 18.3856C166.649 18.367 167.198 18.8158 167.324 19.4247C167.533 19.0131 167.957 18.7244 168.453 18.7101C169.176 18.6886 169.779 19.2546 169.8 19.975C169.803 20.0922 169.79 20.2052 169.764 20.3138C169.958 20.188 170.188 20.1108 170.436 20.1037C171.159 20.0822 171.762 20.6482 171.783 21.3686C171.789 21.553 171.754 21.7303 171.69 21.8918C171.802 21.8575 171.919 21.8346 172.043 21.8317C172.766 21.8103 173.369 22.3763 173.39 23.0967C173.403 23.5369 173.195 23.9314 172.868 24.1773C172.868 24.1773 172.868 24.1773 172.869 24.1773C173.592 24.1558 174.195 24.7219 174.217 25.4408L174.218 25.4379Z" fill="white"/>
<path d="M173.584 20.3767C175.079 20.5382 176.458 20.7183 176.865 20.7483C177.522 20.7969 178.056 22.3849 177.769 23.6284C177.482 24.872 176.458 25.7195 174.651 25.6724C172.845 25.6252 169.012 23.1224 169.693 24.6347C170.846 27.1975 170.826 29.2714 169.18 29.1399C168.704 28.9527 167.345 26.3842 167.863 24.3159C168.259 22.7337 168.938 22.9395 169.322 22.5007C170.429 21.2343 172.145 20.2209 173.584 20.3767Z" fill="#F4A640"/>
<g style="mix-blend-mode:multiply">
<path d="M174.064 21.9746C174.106 22.1761 173.975 22.3734 173.773 22.4134C173.571 22.4534 173.373 22.3248 173.333 22.1233C173.291 21.9217 173.422 21.7245 173.624 21.6845C173.826 21.643 174.024 21.7731 174.064 21.9746Z" fill="#5E4A42"/>
</g>
<g style="mix-blend-mode:multiply">
<path d="M176.788 23.8844C176.927 23.7872 177.033 23.65 177.128 23.5085C177.169 23.447 177.188 23.3741 177.181 23.2998C177.142 22.8796 177.148 22.4493 177.026 22.0434C177.02 22.0448 177.016 22.0477 177.011 22.0491C176.882 22.0777 176.673 21.9462 176.574 21.8762C176.435 21.779 176.295 21.6432 176.225 21.486C176.316 21.5846 176.459 21.6861 176.598 21.7675C176.808 21.8905 177.072 21.7361 177.072 21.4945C177.072 21.3902 177.069 21.283 177.072 21.1958C177.118 21.3259 177.225 21.7247 177.142 21.9291C177.108 22.012 177.102 22.1049 177.141 22.1863C177.219 22.355 177.255 22.5537 177.271 22.7252C177.288 22.9139 177.28 23.1011 177.25 23.2855C177.229 23.4056 177.283 23.5299 177.387 23.5914C177.429 23.6157 177.473 23.6271 177.519 23.6114C177.656 23.5628 177.712 23.3284 177.746 23.2112C177.752 23.3612 177.724 23.5814 177.594 23.68C177.529 23.7286 177.462 23.7343 177.397 23.7157C177.281 23.6828 177.155 23.7071 177.075 23.7972C176.968 23.9173 176.842 24.0159 176.689 24.0559C176.469 24.1131 176.291 24.0102 176.145 23.8558C176.366 23.973 176.562 24.0387 176.786 23.883L176.788 23.8844Z" fill="#5E4A42"/>
</g>
<path d="M167.035 20.6638C167.149 20.661 167.259 20.6753 167.364 20.701C167.157 20.5109 167.025 20.2493 167.018 19.9563C167.004 19.3603 167.507 18.8657 168.143 18.85C168.374 18.8443 168.589 18.9043 168.773 19.0087C168.761 18.9515 168.754 18.8943 168.753 18.8357C168.738 18.2397 169.242 17.7451 169.878 17.7294C170.235 17.7208 170.558 17.8666 170.774 18.101C170.929 17.6908 171.341 17.3907 171.833 17.3792C172.469 17.3649 172.995 17.8352 173.01 18.4312C173.013 18.537 172.997 18.6399 172.97 18.7385C172.985 18.7385 173.001 18.7357 173.017 18.7357C173.653 18.7199 174.179 19.1916 174.193 19.7877C174.208 20.3837 173.704 20.8782 173.069 20.894C173.028 20.894 172.988 20.894 172.948 20.8911C173.132 21.0769 173.248 21.3242 173.255 21.5986C173.269 22.1947 172.766 22.6892 172.13 22.7049C171.879 22.7106 171.647 22.6406 171.454 22.5177C171.532 22.6592 171.579 22.8178 171.584 22.9879C171.598 23.584 171.094 24.0785 170.459 24.0942C169.985 24.1057 169.572 23.847 169.387 23.4668C169.302 23.9742 168.842 24.3687 168.276 24.3815C167.641 24.3973 167.114 23.9256 167.1 23.3295C167.096 23.1437 167.142 22.9665 167.226 22.8121C167.18 22.8178 167.134 22.8236 167.087 22.8236C166.451 22.8393 165.925 22.3676 165.91 21.7716C165.896 21.1755 166.4 20.681 167.035 20.6653V20.6638Z" fill="white"/>
<path d="M187.587 51.4717C187.587 51.4717 182.808 51.8376 182.983 52.8553C183.126 53.6857 188.065 53.6143 188.402 53.4813C188.736 52.9625 188.814 51.6232 187.586 51.4731L187.587 51.4717Z" fill="#F4A640"/>
<path d="M188.181 54.752C188.181 54.752 183.402 55.1179 183.577 56.1355C183.72 56.966 188.659 56.8945 188.996 56.7616C189.33 56.2427 189.408 54.9035 188.18 54.7534L188.181 54.752Z" fill="#F4A640"/>
<path d="M184.388 51.9633C183.561 52.1777 182.917 52.4693 182.983 52.8538C183.032 53.1368 183.639 53.3155 184.429 53.4213L184.388 51.9619V51.9633Z" fill="#4A3A34"/>
<path d="M184.904 55.2651C184.115 55.4767 183.512 55.7625 183.577 56.1356C183.629 56.4358 184.306 56.6173 185.165 56.7216L184.904 55.2651Z" fill="#4A3A34"/>
<path d="M208.211 58.3483C208.211 58.3483 211.991 61.2841 211.281 62.0345C210.702 62.6477 206.624 59.8705 206.417 59.5732C206.426 58.9572 207.105 57.798 208.211 58.3483Z" fill="#F4A640"/>
<path d="M205.769 59.816C205.769 59.816 209.55 62.7519 208.839 63.5023C208.26 64.1155 204.182 61.3383 203.975 61.041C203.984 60.4249 204.663 59.2658 205.769 59.816Z" fill="#F4A640"/>
<path d="M210.604 60.5195C211.174 61.1527 211.55 61.7502 211.281 62.0346C211.083 62.2433 210.479 62.0589 209.76 61.7116L210.604 60.5181V60.5195Z" fill="#4A3A34"/>
<path d="M208.215 62.0474C208.755 62.6577 209.099 63.228 208.839 63.5039C208.63 63.7254 207.964 63.5039 207.191 63.1179L208.215 62.0474Z" fill="#4A3A34"/>
<path d="M210.396 55.6025C210.211 56.14 209.71 56.4773 209.171 56.483C209.301 56.7732 209.326 57.1105 209.215 57.4349C209.013 58.0224 208.433 58.3711 207.839 58.3083C208.07 58.637 208.146 59.0672 208.006 59.4775C207.772 60.1592 207.027 60.5223 206.344 60.2893C206.171 60.2307 206.019 60.1378 205.891 60.0235C205.888 60.1535 205.865 60.285 205.821 60.4151C205.587 61.0969 204.842 61.4599 204.159 61.227C203.917 61.1441 203.716 60.9968 203.565 60.8125C203.564 60.8182 203.562 60.8239 203.561 60.8296C203.327 61.5114 202.582 61.8745 201.899 61.6415C201.615 61.5443 201.387 61.3585 201.234 61.1269C201.224 61.1726 201.211 61.217 201.195 61.2627C200.961 61.9445 200.216 62.3075 199.533 62.0746C199.067 61.9159 198.75 61.52 198.668 61.0697C198.375 61.6358 197.705 61.9188 197.083 61.7058C196.546 61.5228 196.207 61.0283 196.199 60.4937C195.863 60.9096 195.292 61.0955 194.755 60.9125C194.222 60.731 193.885 60.2393 193.872 59.709C193.54 59.9434 193.105 60.0206 192.691 59.8805C192.095 59.6776 191.742 59.0887 191.816 58.4912C191.474 58.7914 190.986 58.9057 190.526 58.7485C190.002 58.5698 189.668 58.0953 189.643 57.5764C189.339 57.7022 188.979 57.7222 188.63 57.6036C187.912 57.3578 187.513 56.6216 187.741 55.9584C187.851 55.634 188.092 55.3881 188.392 55.2495C187.824 54.9579 187.538 54.2904 187.752 53.6686C187.858 53.3585 188.071 53.1155 188.335 52.964C187.668 52.721 187.315 51.9906 187.546 51.3188C187.678 50.9372 187.969 50.6542 188.32 50.5212C188.292 50.5141 188.262 50.5069 188.233 50.4969C187.549 50.264 187.184 49.5221 187.418 48.8418C187.652 48.16 188.396 47.7969 189.079 48.0299C189.101 48.0371 189.121 48.0471 189.143 48.0542C189.061 47.7969 189.057 47.5125 189.15 47.2381C189.362 46.6192 189.998 46.2633 190.625 46.379C190.409 46.0531 190.342 45.6372 190.478 45.2398C190.712 44.5581 191.457 44.195 192.14 44.428C192.338 44.4952 192.507 44.6067 192.645 44.7453C192.645 44.6038 192.666 44.4594 192.714 44.3194C192.948 43.6376 193.692 43.2745 194.375 43.5075C194.55 43.5675 194.704 43.6604 194.833 43.7776C194.836 43.7676 194.839 43.7576 194.842 43.7476C195.075 43.0658 195.82 42.7028 196.503 42.9358C196.911 43.0744 197.203 43.3931 197.325 43.7734C197.588 43.1416 198.299 42.8143 198.957 43.0387C199.409 43.193 199.72 43.569 199.812 44.0035C200.122 43.4846 200.763 43.2359 201.358 43.4389C201.995 43.6561 202.354 44.3122 202.212 44.9511C202.532 44.7596 202.931 44.7038 203.311 44.8339C203.897 45.034 204.247 45.6058 204.189 46.1932C204.492 46.0431 204.852 46.0074 205.198 46.126C205.809 46.3347 206.163 46.9479 206.066 47.5611C206.407 47.2495 206.905 47.128 207.374 47.2881C208.059 47.5211 208.423 48.2629 208.189 48.9433C208.152 49.0533 208.099 49.1548 208.036 49.2477C208.263 49.1977 208.504 49.2063 208.739 49.2863C209.423 49.5193 209.788 50.2611 209.554 50.9415C209.494 51.1158 209.4 51.2702 209.283 51.3989C209.4 51.406 209.518 51.426 209.634 51.466C210.319 51.699 210.683 52.4408 210.449 53.1212C210.306 53.5371 209.973 53.8344 209.578 53.9502C210.263 54.1832 210.627 54.925 210.393 55.6054L210.396 55.6025Z" fill="white"/>
<path d="M211.59 50.6413C212.931 51.316 214.159 51.9692 214.53 52.1393C215.127 52.4151 215.066 54.0875 214.359 55.1523C213.652 56.2157 212.423 56.433 210.733 55.7969C208.852 55.0894 207.763 53.1069 206.584 52.8897C206.318 52.8411 205.627 53.1198 205.915 54.7521C206.412 57.5607 205.541 58.7185 204.046 58.0196C203.665 57.678 203.536 54.9965 204.918 52.2479C205.651 50.79 206.336 51.4132 206.849 51.1373C208.333 50.3397 210.297 49.9924 211.588 50.6428L211.59 50.6413Z" fill="#F4A640"/>
<g style="mix-blend-mode:multiply">
<path d="M211.475 52.3063C211.442 52.5092 211.251 52.6479 211.047 52.615C210.844 52.5821 210.705 52.392 210.738 52.189C210.771 51.9861 210.961 51.8474 211.165 51.8803C211.369 51.9132 211.508 52.1033 211.475 52.3063Z" fill="#5E4A42"/>
</g>
<g style="mix-blend-mode:multiply">
<path d="M213.35 55.0492C213.515 55.0063 213.662 54.9148 213.801 54.8176C213.861 54.7747 213.904 54.7119 213.924 54.6404C214.037 54.2345 214.194 53.8314 214.224 53.4097C214.218 53.4097 214.214 53.4097 214.208 53.4097C214.078 53.3912 213.928 53.1953 213.86 53.0938C213.763 52.9538 213.682 52.778 213.672 52.6064C213.722 52.7308 213.819 52.8766 213.921 53.0009C214.073 53.1896 214.376 53.1382 214.462 52.9109C214.499 52.8123 214.534 52.7122 214.568 52.6307C214.565 52.768 214.527 53.1796 214.376 53.3411C214.314 53.4069 214.277 53.4912 214.284 53.5813C214.299 53.7671 214.263 53.9643 214.217 54.1315C214.167 54.3131 214.092 54.486 213.999 54.649C213.938 54.7533 213.943 54.8891 214.019 54.9834C214.049 55.0206 214.088 55.0478 214.135 55.0478C214.28 55.0506 214.415 54.8491 214.488 54.7533C214.441 54.8948 214.337 55.0921 214.18 55.1392C214.102 55.1621 214.037 55.1435 213.983 55.1035C213.885 55.032 213.759 55.0092 213.652 55.0663C213.511 55.1407 213.357 55.1893 213.2 55.1735C212.974 55.1507 212.844 54.992 212.762 54.7962C212.927 54.9834 213.089 55.1135 213.353 55.0463L213.35 55.0492Z" fill="#5E4A42"/>
</g>
<path d="M205.359 48.6161C205.466 48.6532 205.564 48.7047 205.653 48.7662C205.526 48.516 205.496 48.2244 205.593 47.9472C205.791 47.384 206.436 47.0981 207.036 47.3068C207.254 47.3826 207.435 47.5141 207.57 47.677C207.58 47.6198 207.593 47.5627 207.611 47.5069C207.808 46.9438 208.455 46.6579 209.055 46.8666C209.392 46.9838 209.643 47.2339 209.763 47.5298C210.053 47.1996 210.544 47.0638 211.009 47.2253C211.609 47.434 211.936 48.0601 211.738 48.6218C211.703 48.7219 211.653 48.8133 211.591 48.8948C211.607 48.8991 211.621 48.9034 211.637 48.9077C212.237 49.1164 212.564 49.7424 212.366 50.3041C212.17 50.8673 211.522 51.1532 210.923 50.9445C210.884 50.9316 210.847 50.9159 210.811 50.8987C210.917 51.1374 210.939 51.409 210.848 51.6677C210.65 52.2309 210.004 52.5167 209.405 52.3081C209.168 52.2252 208.976 52.0779 208.839 51.8964C208.862 52.0565 208.851 52.2209 208.794 52.3824C208.597 52.9455 207.95 53.2314 207.35 53.0227C206.902 52.8669 206.607 52.4796 206.568 52.0594C206.31 52.5039 205.74 52.7126 205.205 52.5267C204.605 52.3181 204.278 51.692 204.476 51.1303C204.538 50.9545 204.643 50.8058 204.778 50.6901C204.733 50.68 204.689 50.6686 204.644 50.6529C204.044 50.4442 203.717 49.8196 203.915 49.2564C204.112 48.6933 204.759 48.4074 205.359 48.6161Z" fill="white"/>
<path d="M116.815 57.5635C116.815 57.5635 112.565 59.7704 113.128 60.638C113.587 61.3455 118.101 59.3473 118.357 59.0915C118.459 58.484 118.003 57.2219 116.815 57.5635Z" fill="#F4A640"/>
<path d="M118.577 59.6749C118.577 59.6749 114.327 61.8832 114.889 62.7494C115.349 63.4569 119.862 61.4587 120.119 61.2028C120.221 60.5953 119.765 59.3332 118.577 59.6749Z" fill="#F4A640"/>
<path d="M114.067 59.2686C113.391 59.7888 112.914 60.3091 113.127 60.6379C113.284 60.8794 113.912 60.8051 114.681 60.5935L114.067 59.2686Z" fill="#4A3A34"/>
<path d="M115.767 61.4297C115.126 61.9328 114.684 62.4317 114.889 62.7504C115.054 63.0062 115.75 62.9076 116.581 62.6675L115.767 61.4311V61.4297Z" fill="#4A3A34"/>
<path d="M138.513 55.2638C138.513 55.2638 143.009 56.9204 142.559 57.8509C142.194 58.6099 137.463 57.1948 137.175 56.9733C136.997 56.3844 137.289 55.0737 138.512 55.2638H138.513Z" fill="#F4A640"/>
<path d="M136.502 57.3204C136.502 57.3204 140.997 58.977 140.549 59.9075C140.183 60.6665 135.453 59.2515 135.164 59.0299C134.986 58.441 135.279 57.1303 136.502 57.3204Z" fill="#F4A640"/>
<path d="M141.455 56.6118C142.191 57.0435 142.73 57.4994 142.561 57.8525C142.436 58.1112 141.803 58.1169 141.014 58.004L141.456 56.6118H141.455Z" fill="#4A3A34"/>
<path d="M139.51 58.7085C140.21 59.1273 140.713 59.5661 140.548 59.9077C140.416 60.1821 139.714 60.1721 138.859 60.0378L139.51 58.7085Z" fill="#4A3A34"/>
<path d="M138.991 51.1287C139.071 51.6905 138.78 52.2179 138.302 52.468C138.551 52.6681 138.727 52.9568 138.776 53.2956C138.865 53.9102 138.508 54.4848 137.949 54.6978C138.305 54.8865 138.571 55.2352 138.631 55.6626C138.734 56.3758 138.236 57.0362 137.522 57.1391C137.341 57.1648 137.163 57.1519 136.997 57.1076C137.053 57.2248 137.093 57.3521 137.113 57.4878C137.216 58.2011 136.718 58.8614 136.004 58.9643C135.75 59.0001 135.503 58.9601 135.285 58.8643C135.285 58.87 135.288 58.8757 135.288 58.8814C135.39 59.5947 134.893 60.255 134.179 60.3579C133.882 60.4008 133.593 60.3379 133.351 60.2022C133.362 60.2479 133.372 60.2936 133.378 60.3408C133.482 61.054 132.984 61.7144 132.269 61.8173C131.781 61.8873 131.319 61.6787 131.041 61.3142C131.04 61.9502 130.57 62.5062 129.919 62.5991C129.358 62.6792 128.83 62.3919 128.579 61.9202C128.47 62.4433 128.045 62.8664 127.484 62.9465C126.926 63.0265 126.401 62.7421 126.148 62.2761C125.96 62.6349 125.609 62.9022 125.176 62.9636C124.553 63.0522 123.969 62.6892 123.761 62.1232C123.594 62.5448 123.211 62.8679 122.729 62.9365C122.183 63.0151 121.666 62.7435 121.408 62.2918C121.194 62.542 120.883 62.7235 120.518 62.775C119.765 62.8822 119.075 62.4062 118.974 61.713C118.926 61.3742 119.027 61.0469 119.231 60.7867C118.591 60.7867 118.033 60.3194 117.94 59.669C117.893 59.3445 117.971 59.0315 118.136 58.7771C117.432 58.8629 116.783 58.3726 116.682 57.6694C116.624 57.2692 116.755 56.8861 117.007 56.6074C116.977 56.6131 116.948 56.6202 116.918 56.6245C116.202 56.7274 115.539 56.2315 115.436 55.5196C115.333 54.8064 115.831 54.1461 116.545 54.0431C116.568 54.0403 116.59 54.0389 116.613 54.0374C116.422 53.8459 116.288 53.5943 116.247 53.307C116.154 52.6581 116.557 52.0549 117.168 51.8734C116.828 51.6805 116.577 51.3403 116.518 50.9258C116.415 50.2125 116.913 49.5522 117.627 49.4493C117.834 49.4192 118.036 49.4407 118.221 49.5021C118.157 49.3764 118.109 49.2392 118.088 49.0905C117.984 48.3773 118.482 47.7169 119.197 47.614C119.38 47.5883 119.56 47.6011 119.728 47.6469C119.726 47.6369 119.723 47.6269 119.722 47.6169C119.619 46.9036 120.116 46.2433 120.831 46.1403C121.257 46.0789 121.663 46.2318 121.944 46.5134C121.89 45.833 122.373 45.2184 123.062 45.1198C123.536 45.0526 123.983 45.247 124.264 45.5915C124.305 44.9897 124.761 44.4766 125.385 44.3866C126.051 44.2908 126.671 44.7139 126.837 45.3471C127.034 45.0312 127.364 44.8011 127.762 44.7439C128.375 44.6567 128.948 45.0069 129.164 45.5558C129.365 45.2842 129.671 45.0898 130.031 45.0383C130.669 44.9469 131.266 45.3328 131.46 45.9231C131.622 45.49 132.009 45.157 132.502 45.0869C133.218 44.984 133.88 45.48 133.984 46.1918C134.001 46.3076 133.999 46.4219 133.987 46.532C134.166 46.3848 134.384 46.2833 134.631 46.2475C135.347 46.1446 136.01 46.6406 136.113 47.3524C136.139 47.5354 136.126 47.7155 136.08 47.8827C136.188 47.8355 136.302 47.8012 136.424 47.7827C137.14 47.6797 137.803 48.1757 137.906 48.8875C137.97 49.3235 137.807 49.7394 137.509 50.0196C137.509 50.0196 137.509 50.0196 137.51 50.0196C138.226 49.9167 138.889 50.4126 138.993 51.1244L138.991 51.1287Z" fill="white"/>
<path d="M138.513 47.321C140.008 47.4725 141.389 47.644 141.798 47.6712C142.455 47.7155 143 49.2992 142.722 50.5441C142.443 51.7891 141.425 52.6267 139.618 52.6095C137.129 52.5866 135.905 50.78 134.725 50.9972C134.46 51.0458 134.114 52.3151 134.76 53.3985C136.008 55.4911 134.307 57.302 133.265 56.9718C132.787 56.7875 132.45 53.6729 132.823 51.2988C133.077 49.688 133.889 49.9152 134.269 49.4736C135.367 48.2 137.076 47.1752 138.516 47.321H138.513Z" fill="#F4A640"/>
<g style="mix-blend-mode:multiply">
<path d="M139.103 49.3279C139.056 49.528 138.855 49.6524 138.654 49.6067C138.453 49.5595 138.328 49.3594 138.374 49.1593C138.421 48.9592 138.622 48.8348 138.823 48.8806C139.024 48.9277 139.149 49.1278 139.103 49.3279Z" fill="#5E4A42"/>
</g>
<g style="mix-blend-mode:multiply">
<path d="M141.741 50.8072C141.879 50.7086 141.985 50.5714 142.079 50.4299C142.12 50.3684 142.137 50.2941 142.13 50.2212C142.089 49.801 142.092 49.3707 141.967 48.9662C141.961 48.9677 141.957 48.9705 141.952 48.972C141.823 49.0006 141.614 48.8705 141.513 48.8019C141.373 48.7047 141.234 48.5703 141.162 48.4131C141.254 48.5103 141.397 48.6118 141.538 48.6932C141.749 48.8147 142.011 48.6589 142.01 48.4174C142.01 48.313 142.005 48.2058 142.01 48.1187C142.057 48.2487 142.168 48.6461 142.086 48.8519C142.053 48.9348 142.047 49.0277 142.086 49.1092C142.166 49.2764 142.203 49.4751 142.221 49.648C142.239 49.8353 142.232 50.024 142.203 50.2083C142.185 50.3284 142.238 50.4528 142.343 50.5128C142.384 50.5371 142.43 50.5485 142.475 50.5314C142.611 50.4828 142.665 50.2469 142.698 50.1297C142.704 50.2798 142.68 50.4999 142.549 50.6C142.485 50.6486 142.419 50.6543 142.353 50.6371C142.235 50.6043 142.11 50.63 142.03 50.7215C141.925 50.8415 141.799 50.9416 141.645 50.983C141.426 51.0416 141.248 50.9402 141.1 50.7872C141.321 50.903 141.519 50.9673 141.741 50.8101V50.8072Z" fill="#5E4A42"/>
</g>
<path d="M131.966 47.6526C132.08 47.6497 132.19 47.6626 132.295 47.6883C132.087 47.4996 131.953 47.2381 131.945 46.945C131.926 46.349 132.427 45.8502 133.062 45.8316C133.293 45.8244 133.51 45.883 133.692 45.9874C133.681 45.9302 133.672 45.873 133.671 45.8144C133.652 45.2184 134.153 44.7196 134.789 44.701C135.146 44.6896 135.47 44.8339 135.688 45.0669C135.84 44.6552 136.251 44.3537 136.741 44.3379C137.377 44.3194 137.906 44.7853 137.925 45.3814C137.928 45.4871 137.914 45.59 137.886 45.6887C137.902 45.6887 137.918 45.6858 137.934 45.6844C138.569 45.6644 139.099 46.1318 139.117 46.7278C139.136 47.3238 138.635 47.8227 138 47.8412C137.959 47.8412 137.919 47.8412 137.879 47.8384C138.064 48.0228 138.182 48.2686 138.19 48.543C138.209 49.1391 137.708 49.6379 137.073 49.6565C136.822 49.6636 136.589 49.595 136.397 49.4735C136.476 49.6136 136.523 49.7723 136.529 49.9424C136.548 50.5384 136.047 51.0372 135.411 51.0558C134.938 51.0701 134.523 50.8143 134.335 50.4355C134.255 50.9429 133.797 51.3402 133.23 51.3574C132.595 51.3774 132.065 50.91 132.047 50.314C132.041 50.1282 132.085 49.9509 132.17 49.7951C132.124 49.8023 132.078 49.8066 132.031 49.808C131.395 49.8266 130.866 49.3606 130.847 48.7646C130.829 48.1686 131.329 47.6697 131.965 47.6511L131.966 47.6526Z" fill="white"/>
<path d="M155.911 58.3128C155.911 58.5001 157.577 58.5001 157.577 58.3128V43.4906C157.577 43.0318 157.204 42.6602 156.744 42.6602C156.283 42.6602 155.91 43.0318 155.91 43.4906V58.3128H155.911Z" fill="#B9704E"/>
<path d="M171.459 55.8402L171.899 53.8392L157.528 45.9893C157.257 45.8406 156.917 45.985 156.837 46.2823C156.782 46.4838 156.866 46.6982 157.043 46.8097L171.459 55.8388V55.8402Z" fill="#934A38"/>
<path d="M171.459 61.9203L171.899 59.9192L157.528 52.0693C157.257 51.9207 156.917 52.065 156.837 52.3623C156.782 52.5639 156.866 52.7783 157.043 52.8898L171.459 61.9189V61.9203Z" fill="#934A38"/>
<path d="M170.588 66.4929C170.588 66.8674 172.33 66.8674 172.33 66.4929V50.9603C172.33 50.5015 171.957 50.1299 171.496 50.1299H171.42C170.959 50.1299 170.586 50.5015 170.586 50.9603V66.4929H170.588Z" fill="#B9704E"/>
<path d="M85.8091 81.2707C74.6177 77.8403 70.4568 86.988 79.209 90.9902C76.3395 100.424 94.6488 98.2798 91.5913 89.9896C104.892 92.2766 95.4221 76.5539 85.8091 81.2707Z" fill="#5FCDD9"/>
<path d="M70.2989 103.075C66.151 103.913 68.3864 109.841 75.094 109.284C81.8002 108.725 76.1271 101.899 70.2989 103.075Z" fill="#5FCDD9"/>
</g>
<defs>
<clipPath id="clip0_171_2847">
<rect width="239" height="246" fill="white"/>
</clipPath>
</defs>
</svg>
