<svg width="30" height="24" viewBox="0 0 30 24" fill="none" xmlns="http://www.w3.org/2000/svg">
<path d="M26.6863 4.5625H22.7683C22.5691 4.5625 22.3221 4.43367 22.1295 4.23047L20.4069 1.5118C20.3797 1.46865 20.3493 1.42759 20.3159 1.38895C19.7209 0.695 18.9167 0.3125 18.0535 0.3125H11.9441C11.0808 0.3125 10.2766 0.695 9.68163 1.38895C9.64831 1.42759 9.6179 1.46865 9.59065 1.5118L7.86808 4.23445C7.72065 4.39516 7.51347 4.56649 7.29565 4.56649V4.03524C7.29565 3.75344 7.18371 3.48319 6.98446 3.28393C6.7852 3.08468 6.51495 2.97273 6.23315 2.97273H4.6394C4.35761 2.97273 4.08736 3.08468 3.8881 3.28393C3.68885 3.48319 3.5769 3.75344 3.5769 4.03524V4.56649H3.31128C2.46617 4.56736 1.65593 4.90347 1.05835 5.50105C0.460765 6.09864 0.124658 6.90888 0.123779 7.75399V20.5C0.124658 21.3451 0.460765 22.1554 1.05835 22.7529C1.65593 23.3505 2.46617 23.6866 3.31128 23.6875H26.6863C27.5314 23.6866 28.3416 23.3505 28.9392 22.7529C29.5368 22.1554 29.8729 21.3451 29.8738 20.5V7.75C29.8729 6.90489 29.5368 6.09465 28.9392 5.49707C28.3416 4.89949 27.5314 4.56338 26.6863 4.5625ZM14.9988 19.4375C13.7379 19.4375 12.5054 19.0636 11.457 18.3631C10.4087 17.6626 9.59156 16.667 9.10905 15.5021C8.62654 14.3372 8.50029 13.0554 8.74627 11.8188C8.99225 10.5822 9.59941 9.44626 10.491 8.5547C11.3825 7.66314 12.5184 7.05598 13.7551 6.81C14.9917 6.56401 16.2735 6.69026 17.4384 7.17277C18.6033 7.65528 19.5989 8.47238 20.2994 9.52074C20.9999 10.5691 21.3738 11.8016 21.3738 13.0625C21.3718 14.7527 20.6996 16.373 19.5044 17.5682C18.3093 18.7633 16.6889 19.4356 14.9988 19.4375Z" fill="#283459"/>
</svg>
