<svg width="42" height="42" viewBox="0 0 42 42" fill="none" xmlns="http://www.w3.org/2000/svg">
<path d="M35.1677 6.48408H37.0092C37.2543 6.48408 37.4521 6.28627 37.4521 6.04111C37.4521 5.79596 37.2543 5.59814 37.0092 5.59814H35.1677C34.394 5.59814 33.7399 6.17846 33.6454 6.94766L33.1291 11.2114H27.4624C27.0187 11.2114 26.659 11.5712 26.659 12.0151V24.2785L26.3873 24.4093C25.9711 23.959 25.4039 23.6579 24.7793 23.5765L23.5272 23.4111C22.3254 23.2531 21.1043 23.4495 20.013 23.975L19.6926 24.1287C19.7548 24.2187 19.8108 24.3134 19.864 24.4107C20.2066 25.0383 20.3543 25.7438 20.2922 26.4556C20.924 26.7863 21.4381 27.2914 21.7805 27.9188C21.998 28.3168 22.1358 28.7478 22.193 29.1884H21.2979C21.2482 28.9004 21.1519 28.6151 21.004 28.344C20.7277 27.8405 20.3173 27.4594 19.8417 27.2203C19.5422 27.0685 19.3692 26.7537 19.4046 26.4216C19.4606 25.8901 19.3617 25.3393 19.0873 24.8358C19.0252 24.7236 18.9574 24.6186 18.8836 24.5199C18.8524 24.4756 18.8187 24.4343 18.7831 24.3929C18.7521 24.3544 18.7212 24.319 18.6872 24.2836C18.6827 24.2778 18.6769 24.2719 18.671 24.2658C18.637 24.2288 18.6014 24.1934 18.5646 24.1594C18.5278 24.1254 18.4908 24.0917 18.4524 24.0591C18.4449 24.0532 18.4362 24.0458 18.4287 24.0399C18.3947 24.0118 18.3591 23.9839 18.3223 23.9574C18.281 23.9262 18.2381 23.8953 18.1938 23.8672C18.154 23.8407 18.1125 23.8156 18.0713 23.7919C18.0225 23.7624 17.9738 23.7359 17.9236 23.7106C17.6269 23.5615 17.4511 23.2515 17.4865 22.9208C17.5573 22.2696 17.3951 21.586 16.9594 20.9982C16.8945 20.9096 16.8251 20.8268 16.7513 20.7502C16.639 20.6321 16.5181 20.5273 16.3896 20.4326C16.3055 20.3705 16.2169 20.3131 16.1252 20.2627C16.1238 20.2627 16.1238 20.2627 16.1238 20.2613C15.9865 20.183 15.8433 20.1181 15.6956 20.0663C15.6293 20.0426 15.5613 20.022 15.4934 20.0028C15.4756 19.9983 15.4594 19.9939 15.4418 19.9894C15.4359 19.988 15.4284 19.9864 15.4226 19.985C15.3752 19.9733 15.3251 19.9629 15.2763 19.954C15.2705 19.9526 15.2632 19.951 15.2574 19.9498C15.2499 19.9484 15.2412 19.9468 15.2337 19.9454C15.1613 19.9336 15.0874 19.9233 15.0152 19.9172C15.0049 19.9158 14.9963 19.9158 14.9874 19.9142C14.9813 19.9142 14.974 19.9128 14.9681 19.9128C14.9135 19.9097 14.8589 19.9069 14.8043 19.9069C14.7968 19.9055 14.7909 19.9055 14.7837 19.9055H14.7586C14.7009 19.9055 14.6419 19.9086 14.5828 19.9114C14.5798 19.9114 14.577 19.9114 14.5739 19.9128C14.5444 19.9142 14.5163 19.917 14.4867 19.9203C14.4527 19.9233 14.4174 19.9275 14.3834 19.932C14.3271 19.9397 14.2706 19.9503 14.2142 19.9622C14.1935 19.9665 14.1734 19.9716 14.1527 19.9765C14.1338 19.981 14.1143 19.9847 14.0953 19.9897C14.0644 19.9972 14.0318 20.0058 14.0009 20.0161C13.9167 20.0412 13.834 20.0693 13.7513 20.1033C12.2156 20.7324 11.606 22.5294 12.378 23.9438C12.3884 23.9644 12.4001 23.9837 12.412 24.0026C12.6867 24.4768 13.0837 24.837 13.5401 25.0688C13.8396 25.2195 14.0126 25.5341 13.977 25.8676C13.9209 26.3977 14.0198 26.9499 14.2945 27.4534C14.5706 27.9568 14.981 28.3379 15.458 28.577C15.4985 28.5974 15.5358 28.6215 15.5714 28.6475C15.5358 28.6215 15.4985 28.5974 15.458 28.577C15.499 28.5976 15.537 28.6222 15.5731 28.6487C15.5806 28.6543 15.5881 28.6599 15.5953 28.6658C15.6652 28.7211 15.7247 28.787 15.7718 28.8606C15.7765 28.8681 15.7814 28.8756 15.7859 28.8833C15.8082 28.9208 15.8283 28.9595 15.844 29.0005C15.8285 28.9604 15.8089 28.9224 15.7871 28.8854C15.8412 28.9775 15.8778 29.0802 15.8904 29.1882H14.7434C14.2308 28.8631 13.8111 28.4162 13.5176 27.8771C13.175 27.2494 13.0273 26.544 13.0894 25.8336C12.4575 25.5012 11.9435 24.9964 11.6011 24.3687C11.5303 24.2403 11.4682 24.1076 11.415 23.9715C11.1359 23.9597 10.882 23.8032 10.7491 23.5491C10.448 22.9688 9.93559 22.4888 9.24751 22.2392C8.09131 21.8199 6.76992 22.2495 6.07878 23.2669C5.14572 24.6402 5.6316 26.4741 7.05775 27.2256C7.56563 27.4944 8.11783 27.5844 8.64799 27.5209C8.98033 27.481 9.29767 27.6481 9.45283 27.9463C9.69939 28.4188 10.0864 28.8233 10.5942 29.0907C10.6619 29.1259 10.7297 29.1584 10.7991 29.1877L9.89551 29.1887C9.31121 29.1887 9.08269 29.9469 9.56903 30.27L13.3753 32.7978V34.853C13.3753 35.2311 13.6823 35.5381 14.0604 35.5381H30.1176H30.1178H30.1183C30.4966 35.5381 30.8034 35.2313 30.8034 34.853V32.8055H36.2217C36.6656 32.8055 37.0254 32.446 37.0254 32.0021V12.0149C37.0254 11.571 36.6656 11.2112 36.2217 11.2112H34.0211L34.525 7.05358C34.5649 6.72874 34.841 6.48382 35.1674 6.48382L35.1677 6.48408ZM14.2031 19.9649C14.1914 19.9675 14.1794 19.9705 14.1677 19.9733C14.1797 19.9705 14.1914 19.9675 14.2031 19.9649ZM27.7703 12.8177C27.7703 12.4727 28.0509 12.1921 28.3956 12.1921H30.0531C30.2978 12.1921 30.4961 12.3904 30.4961 12.6351C30.4961 12.8798 30.2978 13.0781 30.0531 13.0781H28.6563V14.4431C28.6563 14.6877 28.458 14.886 28.2133 14.886C27.9686 14.886 27.7703 14.6877 27.7703 14.4431L27.7703 12.8177ZM24.2015 29.1887C24.2144 29.1076 24.231 29.0274 24.2493 28.948C24.231 29.0274 24.2142 29.1076 24.2015 29.1887ZM24.2671 28.8777C24.2821 28.8193 24.2985 28.7614 24.3166 28.7042C24.2985 28.7617 24.2821 28.8193 24.2671 28.8777ZM24.3384 28.6358C24.3642 28.5592 24.3918 28.4832 24.4228 28.4089C24.3916 28.4832 24.3642 28.5592 24.3384 28.6358ZM24.4235 28.4073C24.4544 28.3332 24.4886 28.261 24.5247 28.1893C24.4886 28.2608 24.4544 28.3332 24.4235 28.4073ZM24.5582 28.1251C24.5859 28.0726 24.6149 28.0206 24.6454 27.9695C24.6149 28.0206 24.5859 28.0726 24.5582 28.1251ZM24.6827 27.9071C24.7251 27.8389 24.7692 27.7714 24.8163 27.706C24.7692 27.7714 24.7253 27.8389 24.6827 27.9071ZM16.7519 30.196H20.1095C20.3542 30.196 20.5525 30.3943 20.5525 30.639C20.5525 30.8837 20.3542 31.0819 20.1095 31.0819H16.7519C16.5072 31.0819 16.3089 30.8837 16.3089 30.639C16.3089 30.3943 16.5072 30.196 16.7519 30.196ZM15.5964 28.6679C15.6651 28.7222 15.723 28.7867 15.7694 28.8586C15.723 28.7867 15.6648 28.7222 15.5964 28.6679ZM13.7479 30.196H14.8344C15.0791 30.196 15.2774 30.3943 15.2774 30.639C15.2774 30.8837 15.0791 31.0819 14.8344 31.0819H13.7479C13.5032 31.0819 13.3049 30.8837 13.3049 30.639C13.3049 30.3943 13.5032 30.196 13.7479 30.196ZM35.1517 16.6252C35.499 16.6252 35.7807 16.9067 35.7807 17.2542V30.9324C35.7807 31.2798 35.4992 31.5615 35.1517 31.5615H32.5283L34.3477 30.2579C34.5793 30.0919 34.6372 29.8273 34.5669 29.6025C34.5664 29.6011 34.5662 29.5995 34.5657 29.5979C34.5617 29.5854 34.5558 29.5735 34.5509 29.5611C34.5448 29.5458 34.5397 29.5301 34.5324 29.5156C34.5308 29.5121 34.5282 29.5088 34.5265 29.5053C34.4743 29.4033 34.3939 29.3154 34.2889 29.2585C34.2076 29.2142 34.1117 29.1882 34.0041 29.1882H32.2065C31.9259 27.4076 30.2396 26.0389 28.2019 26.0389C27.8166 26.0389 27.4444 26.0876 27.0915 26.1793C26.1444 26.424 25.3404 26.9743 24.8152 27.7056C24.7678 27.7717 24.7235 27.8394 24.6807 27.9081C24.6687 27.9273 24.6574 27.947 24.6457 27.9662C24.6139 28.0196 24.5834 28.074 24.5546 28.1288C24.5447 28.1476 24.5346 28.1666 24.525 28.1856C24.451 28.3323 24.3874 28.4844 24.3349 28.6407C24.3291 28.6585 24.3237 28.6761 24.3181 28.6939C24.2974 28.7581 24.2792 28.823 24.2628 28.8887C24.2583 28.906 24.2536 28.9231 24.2496 28.9405C24.2304 29.022 24.2131 29.1045 24.1999 29.1882H23.3037C23.5256 27.4039 24.8653 25.9304 26.6574 25.3822C26.7499 25.3538 26.8439 25.3287 26.9386 25.3055C26.9529 25.302 26.967 25.2987 26.981 25.2955C27.2782 25.2256 27.5857 25.1806 27.9012 25.1628V25.1621C27.9251 25.1607 27.949 25.1586 27.9729 25.1574L30.4062 23.9864C30.4934 23.9436 30.5968 23.9745 30.6528 24.0544C30.9748 24.5136 31.6332 24.645 32.1221 24.2714C32.441 24.0263 32.584 23.5981 32.4823 23.2097C32.3951 22.8835 32.175 22.6501 31.9048 22.5319C31.8103 22.4921 31.7616 22.3918 31.7881 22.2926C31.8485 22.0653 31.8338 21.8187 31.7246 21.5912C31.4808 21.0877 30.8813 20.8721 30.3764 21.1039C30.0546 21.2502 29.8582 21.5689 29.8064 21.9174C29.7694 22.1596 29.8106 22.3471 29.8892 22.5006C29.9393 22.5981 29.8995 22.7162 29.8006 22.7635L27.901 23.6783V17.2535C27.901 16.9059 28.1824 16.6245 28.53 16.6245L35.1517 16.6252Z" fill="white"/>
</svg>
