<svg width="16" height="16" viewBox="0 0 16 16" fill="none" xmlns="http://www.w3.org/2000/svg">
<path d="M12.7211 4.00098H5.78213C4.79816 4.00098 4.00049 4.79864 4.00049 5.78261V12.7216C4.00049 13.7056 4.79816 14.5033 5.78213 14.5033H12.7211C13.7051 14.5033 14.5028 13.7056 14.5028 12.7216V5.78261C14.5028 4.79864 13.7051 4.00098 12.7211 4.00098Z" stroke="#494C8C" stroke-width="1.00189" stroke-linejoin="round"/>
<path d="M11.9865 4.00103L12.0021 3.25087C12.0008 2.78705 11.8159 2.3426 11.488 2.01462C11.16 1.68665 10.7155 1.50181 10.2517 1.50049H3.50024C2.97017 1.50205 2.46227 1.71332 2.08745 2.08813C1.71263 2.46295 1.50137 2.97086 1.49981 3.50092V10.2524C1.50113 10.7162 1.68596 11.1607 2.01394 11.4886C2.34191 11.8166 2.78636 12.0015 3.25019 12.0028H4.00035" stroke="#494C8C" stroke-width="1.00189" stroke-linecap="round" stroke-linejoin="round"/>
</svg>
