<svg width="101" height="91" viewBox="0 0 101 91" fill="none" xmlns="http://www.w3.org/2000/svg">
    <path d="M20 40C20 26.1929 31.1929 15 45 15H93C97.4183 15 101 18.5817 101 23V83C101 87.4183 97.4183 91 93 91H20V40Z" fill="#B6D982"/>
    <path fill-rule="evenodd" clip-rule="evenodd" d="M65.5665 62.7635C65.477 62.7635 65.3826 62.7562 65.2893 62.7508C65.4636 62.0713 65.5665 61.3635 65.5665 60.6303C65.5665 57.7765 64.1293 55.1689 61.8658 53.608C62.2888 53.2 62.7767 52.8691 63.3069 52.6191C63.6002 52.9504 64.0237 53.1636 64.5 53.1636H66.6333C67.1134 53.1636 67.5395 52.947 67.8333 52.6111C69.6835 53.4857 70.9 55.3712 70.9 57.4303C70.9 60.3712 68.5074 62.7636 65.5665 62.7636V62.7635ZM51.7002 60.6303C51.7002 58.5711 52.9167 56.6856 54.7667 55.8111C55.0607 56.147 55.4869 56.3635 55.9667 56.3635H57.1125C57.0654 56.724 57.0335 57.082 57.0335 57.4303C57.0335 60.2383 58.44 62.8724 60.7406 64.4566C59.7801 65.3871 58.4734 65.9637 57.0335 65.9637C54.0926 65.9637 51.7002 63.5713 51.7002 60.6304L51.7002 60.6303ZM55.4335 52.6303C55.4335 52.3358 55.6726 52.097 55.9667 52.097H58.1002C58.3946 52.097 58.6335 52.3358 58.6335 52.6303V54.7635C58.6335 54.8318 58.6181 54.8959 58.5946 54.9555C58.585 54.98 58.5694 55.0004 58.5567 55.0227C58.538 55.0553 58.5188 55.0879 58.4942 55.1155C58.4788 55.1332 58.4607 55.1481 58.4431 55.1635C58.4116 55.1908 58.377 55.2142 58.3397 55.2334C58.3221 55.2425 58.3056 55.2521 58.2873 55.2591C58.2288 55.2814 58.1663 55.297 58.1002 55.297H55.9667C55.6725 55.297 55.4335 55.0579 55.4335 54.7635L55.4335 52.6303ZM62.2723 61.6114C61.0002 60.606 60.2333 59.0616 60.2333 57.4302C60.2333 57.1 60.2679 56.7726 60.3288 56.4498C61.5875 57.4463 62.3665 58.9826 62.3665 60.6302C62.3665 60.9656 62.3319 61.2924 62.2723 61.6114H62.2723ZM63.9665 49.4303C63.9665 49.1358 64.2056 48.897 64.5 48.897H66.6333C66.9277 48.897 67.1665 49.1358 67.1665 49.4303V51.5635C67.1665 51.8579 66.9277 52.097 66.6333 52.097H64.5C64.2056 52.097 63.9665 51.8579 63.9665 51.5635V49.4303ZM68.2237 49.3354C68.1848 48.6829 67.7569 48.1389 67.1665 47.9285V37.6971C67.1665 37.402 66.9281 37.1636 66.6333 37.1636H64.5C64.2049 37.1636 63.9665 37.402 63.9665 37.6971V47.9285C63.3761 48.139 62.9485 48.6829 62.9096 49.3354C61.5507 49.7827 60.3154 50.5747 59.3335 51.6238C59.1507 51.3999 58.9112 51.2276 58.6333 51.1285V37.6971C58.6333 37.402 58.3949 37.1636 58.1 37.1636H55.9665C55.6717 37.1636 55.4333 37.402 55.4333 37.6971V51.1285C54.8429 51.339 54.4152 51.8829 54.3761 52.5354C50.8989 53.676 48.5001 56.945 48.5001 60.6303C48.5001 65.3354 52.3282 69.1634 57.0333 69.1634C59.806 69.1634 62.267 67.8279 63.827 65.7725C64.4147 65.8969 64.9982 65.9634 65.5667 65.9634C70.2718 65.9634 74.1004 62.1353 74.1004 57.4302C74.1004 53.745 71.7016 50.476 68.2238 49.3354L68.2237 49.3354Z" fill="white"/>
    <circle opacity="0.07" cx="26.5" cy="26.5" r="26.5" fill="#F7FAFC"/>
    <circle opacity="0.04" cx="26.5" cy="26.5" r="22.5" fill="white"/>
    <circle opacity="0.08" cx="26.5" cy="26.5" r="17.5" fill="white"/>
</svg>
