<svg width="25" height="25" viewBox="0 0 25 25" fill="none" xmlns="http://www.w3.org/2000/svg">
<path d="M17.2311 3.90625C14.0612 3.90625 12.4987 7.03125 12.4987 7.03125C12.4987 7.03125 10.9362 3.90625 7.76625 3.90625C5.19007 3.90625 3.15004 6.06152 3.12367 8.6333C3.06996 13.9717 7.35853 17.7681 12.0592 20.9585C12.1888 21.0467 12.3419 21.0938 12.4987 21.0938C12.6554 21.0938 12.8085 21.0467 12.9381 20.9585C17.6383 17.7681 21.9269 13.9717 21.8737 8.6333C21.8473 6.06152 19.8073 3.90625 17.2311 3.90625Z" stroke="#283459" stroke-width="1.00189" stroke-linecap="round" stroke-linejoin="round"/>
<path d="M2.34277 12.5H7.81152L10.1553 7.8125L12.499 15.625L14.8428 10.9375L16.4053 14.0625H22.6553" stroke="#283459" stroke-width="1.00189" stroke-linecap="round" stroke-linejoin="round"/>
</svg>
