<svg width="19" height="24" viewBox="0 0 19 24" fill="none" xmlns="http://www.w3.org/2000/svg">
<path fill-rule="evenodd" clip-rule="evenodd" d="M12.8106 18.5785C12.7457 18.5785 12.6773 18.5732 12.6096 18.5693C12.736 18.0767 12.8106 17.5635 12.8106 17.0319C12.8106 14.9629 11.7686 13.0724 10.1276 11.9408C10.4343 11.6449 10.7881 11.4051 11.1724 11.2238C11.3851 11.464 11.6921 11.6185 12.0374 11.6185H13.584C13.9321 11.6185 14.241 11.4616 14.454 11.218C15.7954 11.8521 16.6774 13.2191 16.6774 14.7119C16.6774 16.8441 14.9428 18.5785 12.8106 18.5785V18.5785ZM2.75758 17.0319C2.75758 15.539 3.63955 14.1721 4.9808 13.538C5.19393 13.7815 5.50289 13.9385 5.8508 13.9385H6.68149C6.64734 14.1999 6.6242 14.4594 6.6242 14.7119C6.6242 16.7477 7.64388 18.6575 9.31188 19.806C8.61551 20.4806 7.66816 20.8986 6.6242 20.8986C4.49208 20.8986 2.75759 19.1642 2.75759 17.032L2.75758 17.0319ZM5.46419 11.2319C5.46419 11.0185 5.63751 10.8453 5.8508 10.8453H7.39758C7.61103 10.8453 7.78419 11.0185 7.78419 11.2319V12.7785C7.78419 12.828 7.77302 12.8745 7.75603 12.9177C7.74907 12.9355 7.73775 12.9502 7.72852 12.9664C7.71493 12.99 7.70101 13.0137 7.68321 13.0337C7.67204 13.0465 7.65893 13.0574 7.64615 13.0685C7.62333 13.0883 7.59825 13.1053 7.57122 13.1192C7.55844 13.1258 7.54646 13.1328 7.53319 13.1378C7.49079 13.154 7.44548 13.1653 7.39758 13.1653H5.8508C5.63751 13.1653 5.46419 12.992 5.46419 12.7785L5.46419 11.2319ZM10.4224 17.7432C9.50008 17.0143 8.94403 15.8947 8.94403 14.7118C8.94403 14.4725 8.96911 14.2351 9.01329 14.0011C9.92584 14.7235 10.4906 15.8374 10.4906 17.0318C10.4906 17.2751 10.4655 17.512 10.4223 17.7432H10.4224ZM11.6506 8.91191C11.6506 8.69845 11.824 8.5253 12.0374 8.5253H13.584C13.7975 8.5253 13.9706 8.69845 13.9706 8.91191V10.4585C13.9706 10.672 13.7975 10.8453 13.584 10.8453H12.0374C11.824 10.8453 11.6506 10.672 11.6506 10.4585V8.91191ZM14.7371 8.84313C14.7089 8.3701 14.3987 7.9757 13.9706 7.82311V0.405328C13.9706 0.191386 13.7978 0.0185547 13.584 0.0185547H12.0374C11.8235 0.0185547 11.6506 0.191391 11.6506 0.405328V7.82311C11.2226 7.97572 10.9126 8.3701 10.8844 8.84313C9.89917 9.16743 9.0036 9.74163 8.2917 10.5022C8.15916 10.3399 7.98551 10.215 7.78403 10.1431V0.405328C7.78403 0.191386 7.61119 0.0185547 7.39742 0.0185547H5.85064C5.63686 0.0185547 5.46403 0.191391 5.46403 0.405328V10.1431C5.03599 10.2957 4.72594 10.6901 4.6976 11.1631C2.17659 11.9901 0.4375 14.3601 0.4375 17.0319C0.4375 20.4431 3.21288 23.2184 6.62403 23.2184C8.63427 23.2184 10.4185 22.2502 11.5495 20.7601C11.9756 20.8502 12.3986 20.8984 12.8108 20.8984C16.222 20.8984 18.9977 18.123 18.9977 14.7119C18.9977 12.0401 17.2585 9.67003 14.7372 8.84312L14.7371 8.84313Z" fill="#283459"/>
</svg>
