<svg width="40" height="40" viewBox="0 0 40 40" fill="none" xmlns="http://www.w3.org/2000/svg">
<path d="M33.4931 6.17529H35.2469C35.4803 6.17529 35.6687 5.9869 35.6687 5.75342C35.6687 5.51994 35.4803 5.33154 35.2469 5.33154H33.4931C32.7562 5.33154 32.1333 5.88422 32.0433 6.6168L31.5516 10.6775H26.1547C25.7322 10.6775 25.3895 11.0201 25.3895 11.4429V23.1223L25.1308 23.2469C24.7344 22.8181 24.1942 22.5313 23.5993 22.4538L22.4069 22.2962C21.2623 22.1458 20.0993 22.3328 19.0601 22.8333L18.7549 22.9797C18.8141 23.0654 18.8674 23.1556 18.9181 23.2482C19.2444 23.846 19.3851 24.5179 19.3259 25.1958C19.9277 25.5107 20.4172 25.9918 20.7433 26.5893C20.9505 26.9683 21.0817 27.3788 21.1362 27.7985H20.2837C20.2364 27.5241 20.1447 27.2525 20.0038 26.9942C19.7407 26.5148 19.3498 26.1518 18.8969 25.9241C18.6117 25.7795 18.4469 25.4797 18.4806 25.1634C18.534 24.6572 18.4398 24.1326 18.1784 23.6531C18.1192 23.5462 18.0547 23.4462 17.9844 23.3523C17.9547 23.3101 17.9226 23.2708 17.8887 23.2313C17.8592 23.1947 17.8297 23.161 17.7974 23.1273C17.7931 23.1217 17.7875 23.1161 17.782 23.1103C17.7496 23.075 17.7157 23.0413 17.6806 23.009C17.6456 22.9766 17.6103 22.9444 17.5737 22.9134C17.5666 22.9078 17.5583 22.9007 17.5512 22.8951C17.5188 22.8683 17.4849 22.8418 17.4498 22.8165C17.4105 22.7869 17.3697 22.7574 17.3275 22.7306C17.2896 22.7054 17.25 22.6815 17.2108 22.659C17.1643 22.6308 17.1179 22.6056 17.0701 22.5815C16.7875 22.4395 16.6201 22.1442 16.6538 21.8293C16.7213 21.2092 16.5668 20.5581 16.1518 19.9982C16.09 19.9139 16.0239 19.8351 15.9536 19.7621C15.8467 19.6496 15.7315 19.5498 15.6092 19.4596C15.5291 19.4005 15.4447 19.3458 15.3574 19.2978C15.3561 19.2978 15.3561 19.2978 15.3561 19.2965C15.2253 19.2219 15.0889 19.1601 14.9483 19.1107C14.8851 19.0882 14.8204 19.0685 14.7556 19.0502C14.7387 19.046 14.7233 19.0418 14.7065 19.0375C14.7009 19.0362 14.6938 19.0346 14.6882 19.0333C14.6431 19.0221 14.5954 19.0123 14.5489 19.0038C14.5433 19.0025 14.5364 19.0009 14.5308 18.9998C14.5237 18.9985 14.5154 18.9969 14.5083 18.9956C14.4393 18.9844 14.369 18.9746 14.3003 18.9688C14.2904 18.9674 14.2822 18.9674 14.2737 18.9659C14.2679 18.9659 14.261 18.9645 14.2554 18.9645C14.2034 18.9616 14.1514 18.959 14.0994 18.959C14.0922 18.9576 14.0867 18.9576 14.0797 18.9576H14.0558C14.0009 18.9576 13.9447 18.9605 13.8884 18.9632C13.8855 18.9632 13.8829 18.9632 13.88 18.9645C13.8518 18.9659 13.825 18.9685 13.7969 18.9717C13.7646 18.9746 13.7309 18.9786 13.6985 18.9828C13.6449 18.9902 13.5911 19.0002 13.5373 19.0116C13.5177 19.0156 13.4985 19.0206 13.4788 19.0252C13.4608 19.0295 13.4422 19.0331 13.4242 19.0377C13.3947 19.0449 13.3637 19.0531 13.3342 19.063C13.2541 19.0869 13.1753 19.1136 13.0965 19.146C11.634 19.7451 11.0534 21.4565 11.7886 22.8036C11.7985 22.8232 11.8096 22.8416 11.821 22.8596C12.0826 23.3112 12.4607 23.6543 12.8954 23.8751C13.1806 24.0186 13.3454 24.3181 13.3114 24.6357C13.2581 25.1407 13.3523 25.6665 13.6139 26.146C13.8768 26.6255 14.2677 26.9884 14.7219 27.2161C14.7606 27.2356 14.796 27.2586 14.83 27.2833C14.796 27.2586 14.7606 27.2356 14.7219 27.2161C14.761 27.2358 14.7972 27.2592 14.8315 27.2844C14.8387 27.2898 14.8458 27.2952 14.8527 27.3007C14.9193 27.3534 14.976 27.4161 15.0208 27.4862C15.0253 27.4934 15.03 27.5005 15.0342 27.5079C15.0554 27.5436 15.0746 27.5804 15.0896 27.6195C15.0748 27.5813 15.0561 27.5452 15.0353 27.5099C15.0869 27.5976 15.1217 27.6954 15.1338 27.7983H14.0414C13.5532 27.4887 13.1534 27.063 12.8739 26.5496C12.5476 25.9518 12.407 25.2799 12.4661 24.6034C11.8644 24.2869 11.3748 23.8061 11.0487 23.2083C10.9813 23.086 10.9221 22.9596 10.8715 22.8299C10.6056 22.8188 10.3639 22.6697 10.2373 22.4277C9.95047 21.875 9.4625 21.4179 8.80718 21.1802C7.70604 20.7808 6.44758 21.19 5.78935 22.159C4.90073 23.4668 5.36346 25.2134 6.7217 25.9291C7.2054 26.1851 7.7313 26.2708 8.23621 26.2103C8.55273 26.1724 8.85495 26.3315 9.00273 26.6155C9.23755 27.0655 9.6061 27.4507 10.0898 27.7054C10.1543 27.7389 10.2188 27.7699 10.2848 27.7978L9.42433 27.7987C8.86786 27.7987 8.65022 28.5208 9.11339 28.8286L12.7384 31.236V33.1933C12.7384 33.5534 13.0308 33.8458 13.3909 33.8458H28.6835H28.6837H28.6841C29.0444 33.8458 29.3366 33.5536 29.3366 33.1933V31.2433H34.4969C34.9196 31.2433 35.2623 30.9009 35.2623 30.4781V11.4427C35.2623 11.0199 34.9197 10.6773 34.4969 10.6773H32.4011L32.881 6.71767C32.9189 6.4083 33.1819 6.17504 33.4928 6.17504L33.4931 6.17529ZM13.5268 19.0142C13.5156 19.0166 13.5043 19.0195 13.4931 19.0222C13.5045 19.0195 13.5156 19.0166 13.5268 19.0142ZM26.4479 12.2073C26.4479 11.8787 26.7151 11.6115 27.0435 11.6115H28.6221C28.8551 11.6115 29.0439 11.8004 29.0439 12.0334C29.0439 12.2664 28.8551 12.4553 28.6221 12.4553H27.2917V13.7553C27.2917 13.9883 27.1029 14.1771 26.8698 14.1771C26.6368 14.1771 26.448 13.9883 26.448 13.7553L26.4479 12.2073ZM23.0491 27.7987C23.0614 27.7215 23.0772 27.6452 23.0946 27.5695C23.0772 27.6452 23.0611 27.7215 23.0491 27.7987ZM23.1116 27.5025C23.1259 27.4469 23.1415 27.3918 23.1587 27.3373C23.1415 27.392 23.1259 27.4469 23.1116 27.5025ZM23.1794 27.2722C23.204 27.1992 23.2303 27.1268 23.2598 27.0561C23.2301 27.1269 23.204 27.1992 23.1794 27.2722ZM23.2605 27.0545C23.2899 26.984 23.3225 26.9152 23.3569 26.8469C23.3225 26.915 23.2899 26.984 23.2605 27.0545ZM23.3888 26.7858C23.4152 26.7358 23.4428 26.6862 23.4719 26.6376C23.4428 26.6862 23.4152 26.7358 23.3888 26.7858ZM23.5073 26.5782C23.5477 26.5132 23.5897 26.4489 23.6346 26.3867C23.5897 26.4489 23.548 26.5132 23.5073 26.5782ZM15.9542 28.7581H19.152C19.385 28.7581 19.5738 28.9469 19.5738 29.18C19.5738 29.413 19.385 29.6018 19.152 29.6018H15.9542C15.7212 29.6018 15.5323 29.413 15.5323 29.18C15.5323 28.9469 15.7212 28.7581 15.9542 28.7581ZM14.8537 27.3027C14.9191 27.3545 14.9743 27.4159 15.0185 27.4844C14.9743 27.4159 14.9189 27.3545 14.8537 27.3027ZM13.0932 28.7581H14.128C14.3611 28.7581 14.5499 28.9469 14.5499 29.18C14.5499 29.413 14.3611 29.6018 14.128 29.6018H13.0932C12.8602 29.6018 12.6714 29.413 12.6714 29.18C12.6714 28.9469 12.8602 28.7581 13.0932 28.7581ZM33.4778 15.8335C33.8086 15.8335 34.0769 16.1016 34.0769 16.4326V29.4594C34.0769 29.7903 33.8088 30.0585 33.4778 30.0585H30.9793L32.7121 28.817C32.9327 28.659 32.9878 28.4069 32.9209 28.1929C32.9204 28.1915 32.9202 28.19 32.9197 28.1884C32.9159 28.1766 32.9104 28.1652 32.9057 28.1534C32.8999 28.1389 32.895 28.1239 32.888 28.1101C32.8865 28.1067 32.884 28.1036 32.8825 28.1002C32.8327 28.0031 32.7561 27.9194 32.6561 27.8652C32.5787 27.823 32.4874 27.7982 32.3849 27.7982H30.6729C30.4057 26.1025 28.7997 24.7989 26.859 24.7989C26.4921 24.7989 26.1376 24.8453 25.8014 24.9326C24.8994 25.1657 24.1338 25.6898 23.6335 26.3862C23.5885 26.4492 23.5463 26.5137 23.5054 26.5791C23.494 26.5974 23.4833 26.6161 23.4722 26.6344C23.4418 26.6853 23.4128 26.7371 23.3853 26.7893C23.376 26.8072 23.3664 26.8253 23.3572 26.8434C23.2867 26.9831 23.2262 27.128 23.1762 27.2768C23.1706 27.2938 23.1655 27.3105 23.1601 27.3275C23.1405 27.3887 23.1231 27.4505 23.1074 27.513C23.1032 27.5295 23.0987 27.5458 23.0949 27.5623C23.0766 27.64 23.0601 27.7186 23.0476 27.7983H22.194C22.4054 26.099 23.6813 24.6956 25.388 24.1735C25.4762 24.1465 25.5657 24.1226 25.6559 24.1005C25.6695 24.0971 25.6829 24.094 25.6963 24.0909C25.9793 24.0244 26.2721 23.9815 26.5726 23.9645V23.9639C26.5954 23.9625 26.6181 23.9605 26.6409 23.9594L28.9583 22.8442C29.0414 22.8034 29.1398 22.8328 29.1932 22.9089C29.4999 23.3462 30.1269 23.4714 30.5925 23.1156C30.8963 22.8822 31.0324 22.4743 30.9356 22.1045C30.8525 21.7938 30.6429 21.5715 30.3856 21.459C30.2956 21.421 30.2492 21.3255 30.2744 21.2311C30.332 21.0145 30.3179 20.7797 30.2139 20.563C29.9818 20.0835 29.4108 19.8782 28.93 20.0989C28.6235 20.2382 28.4364 20.5418 28.3871 20.8737C28.3518 21.1043 28.3911 21.2829 28.4659 21.4291C28.5137 21.5219 28.4757 21.6345 28.3815 21.6795L26.5724 22.5507V16.4319C26.5724 16.1009 26.8405 15.8328 27.1715 15.8328L33.4778 15.8335Z" fill="white"/>
</svg>
