<svg width="100" height="87" viewBox="0 0 100 87" fill="none" xmlns="http://www.w3.org/2000/svg">
    <path d="M19 36C19 22.1929 30.1929 11 44 11H92C96.4183 11 100 14.5817 100 19V79C100 83.4183 96.4183 87 92 87H19V36Z" fill="#3E848C"/>
    <path d="M69.7502 40.8629H66.9331C66.8833 40.8629 66.8356 40.8425 66.8005 40.8063C66.7653 40.77 66.7456 40.7209 66.7456 40.6697C66.7456 40.4335 66.7456 40.235 66.7456 40.0863C66.7446 39.6771 66.5861 39.285 66.3049 38.996C66.0237 38.707 65.6427 38.5447 65.2456 38.5447L54.7554 38.5572C54.3586 38.558 53.9783 38.7207 53.6977 39.0097C53.4171 39.2987 53.2591 39.6905 53.2582 40.0993C53.2582 40.2553 53.2582 40.448 53.2582 40.6697C53.2582 40.7209 53.2385 40.77 53.2033 40.8063C53.1681 40.8425 53.1204 40.8629 53.0707 40.8629H50.2502C50.0513 40.8629 49.8606 40.9443 49.7199 41.0892C49.5793 41.2341 49.5002 41.4306 49.5002 41.6356V42.4083C49.5002 45.0419 50.9065 47.8391 53.0871 48.4622C53.1516 48.4806 53.2099 48.517 53.2558 48.5672C53.3017 48.6174 53.3333 48.6797 53.3473 48.7471C53.6177 50.0458 54.4498 51.2826 55.7571 52.3021C56.7373 53.0666 57.9063 53.6302 58.9573 53.8708C59.0404 53.8899 59.1146 53.9377 59.1679 54.0062C59.2211 54.0746 59.2502 54.1597 59.2502 54.2475V58.4424C59.2502 58.4936 59.2305 58.5428 59.1953 58.579C59.1602 58.6152 59.1125 58.6356 59.0627 58.6356H56.2713C55.8677 58.6356 55.5213 58.9553 55.5012 59.3711C55.4963 59.4756 55.512 59.58 55.5475 59.678C55.5829 59.7761 55.6373 59.8657 55.7073 59.9414C55.7774 60.0171 55.8616 60.0774 55.9549 60.1186C56.0483 60.1598 56.1487 60.181 56.2502 60.181H63.7291C64.1327 60.181 64.4791 59.8613 64.4993 59.4455C64.5042 59.341 64.4884 59.2366 64.453 59.1386C64.4176 59.0406 64.3632 58.951 64.2931 58.8752C64.2231 58.7995 64.1389 58.7392 64.0456 58.698C63.9522 58.6568 63.8518 58.6356 63.7502 58.6356H60.9377C60.888 58.6356 60.8403 58.6152 60.8052 58.579C60.77 58.5428 60.7502 58.4936 60.7502 58.4424V54.2475C60.7503 54.1597 60.7794 54.0746 60.8326 54.0062C60.8858 53.9377 60.9601 53.8899 61.0432 53.8708C62.0941 53.6293 63.2632 53.0666 64.2434 52.3021C65.5507 51.2826 66.3827 50.0458 66.6532 48.7471C66.6672 48.6797 66.6988 48.6174 66.7447 48.5672C66.7906 48.517 66.8489 48.4806 66.9134 48.4622C69.094 47.8391 70.5002 45.0419 70.5002 42.4083V41.6356C70.5002 41.4306 70.4212 41.2341 70.2806 41.0892C70.1399 40.9443 69.9492 40.8629 69.7502 40.8629ZM53.2502 46.5723C53.2501 46.6062 53.2414 46.6394 53.2249 46.6687C53.2084 46.698 53.1847 46.7223 53.1562 46.7391C53.1277 46.756 53.0954 46.7649 53.0626 46.7649C53.0297 46.7648 52.9974 46.7559 52.969 46.739C52.4881 46.4439 52.137 45.9967 51.9312 45.6818C51.3729 44.8274 51.0406 43.7176 51.0035 42.6087C51.0026 42.5828 51.0067 42.5569 51.0157 42.5326C51.0247 42.5083 51.0384 42.4861 51.0559 42.4674C51.0734 42.4487 51.0944 42.4338 51.1176 42.4237C51.1408 42.4135 51.1658 42.4083 51.191 42.4083H53.066C53.1158 42.4083 53.1634 42.4287 53.1986 42.4649C53.2338 42.5011 53.2535 42.5503 53.2535 42.6015C53.2526 43.9272 53.2502 45.4446 53.2502 46.5723ZM68.0688 45.6818C67.8631 45.9967 67.5124 46.4439 67.0315 46.739C67.003 46.7559 66.9707 46.7648 66.9378 46.7648C66.9049 46.7649 66.8726 46.7559 66.8441 46.739C66.8156 46.7221 66.7919 46.6977 66.7754 46.6684C66.759 46.639 66.7503 46.6058 66.7502 46.5719C66.7502 45.2916 66.7502 43.8369 66.7479 42.6015C66.7479 42.5503 66.7677 42.5011 66.8028 42.4649C66.838 42.4287 66.8857 42.4083 66.9354 42.4083H68.8104C68.8356 42.4083 68.8606 42.4135 68.8838 42.4237C68.907 42.4338 68.928 42.4487 68.9455 42.4674C68.963 42.4861 68.9767 42.5083 68.9857 42.5326C68.9947 42.5569 68.9988 42.5828 68.9979 42.6087C68.9609 43.7176 68.6276 44.8274 68.0693 45.6818H68.0688Z" fill="white"/>
    <circle opacity="0.07" cx="26.5" cy="26.5" r="26.5" fill="#F7FAFC"/>
    <circle opacity="0.04" cx="26.5" cy="26.5" r="22.5" fill="white"/>
    <circle opacity="0.08" cx="26.5" cy="26.5" r="17.5" fill="white"/>
</svg>
