<svg width="101" height="89" viewBox="0 0 101 89" fill="none" xmlns="http://www.w3.org/2000/svg">
    <path d="M20 38C20 24.1929 31.1929 13 45 13H93C97.4183 13 101 16.5817 101 21V81C101 85.4183 97.4183 89 93 89H20V38Z" fill="#5FCDD9"/>
    <path d="M73.5 53.62L61 66L56.1733 61.22M45.9783 47.7133C45.9644 45.9556 46.5066 44.2385 47.5275 42.8075C48.5484 41.3766 49.9956 40.3051 51.6622 39.7463C53.3288 39.1875 55.1294 39.17 56.8066 39.6963C58.4837 40.2226 59.9515 41.2658 61 42.6767C61.6892 41.76 62.5602 40.9955 63.5585 40.431C64.5567 39.8665 65.6608 39.5141 66.8015 39.3959C67.9422 39.2777 69.0951 39.3962 70.1879 39.744C71.2807 40.0918 72.29 40.6615 73.1525 41.4173C74.0151 42.1731 74.7123 43.0988 75.2007 44.1365C75.689 45.1742 75.9579 46.3015 75.9905 47.4479C76.0231 48.5942 75.8187 49.735 75.3902 50.7988C74.9616 51.8625 74.3181 52.8264 73.5 53.63M46 52.6667H49.3333L52.6667 57.6667L56 47.6667L57.6667 52.6667H62.6667" stroke="white" stroke-width="1.5" stroke-linecap="round" stroke-linejoin="round"/>
    <circle opacity="0.07" cx="26.5" cy="26.5" r="26.5" fill="#F7FAFC"/>
    <circle opacity="0.04" cx="26.5" cy="26.5" r="22.5" fill="white"/>
    <circle opacity="0.08" cx="26.5" cy="26.5" r="17.5" fill="white"/>
</svg>
