<svg width="101" height="90" viewBox="0 0 101 90" fill="none" xmlns="http://www.w3.org/2000/svg">
    <path d="M20 39C20 25.1929 31.1929 14 45 14H93C97.4183 14 101 17.5817 101 22V82C101 86.4183 97.4183 90 93 90H20V39Z" fill="#494C8C"/>
    <path d="M68.2098 52.6682C68.0638 50.0326 67.9234 47.359 67.1268 44.844C66.797 43.8016 66.6042 42.7157 66.5552 41.6241C66.524 40.9359 66.5496 40.2398 66.2733 39.5817C66.212 39.4354 66.1318 39.2957 66.0349 39.1683C65.6349 38.6466 65.1747 38.5259 64.4561 38.5851C63.7352 38.3784 62.9965 37.9438 62.3581 37.5494C62.338 37.2321 62.3224 36.8891 62.3024 36.5718C62.4639 36.2948 62.5731 35.9205 62.5252 35.6032C62.718 35.5082 62.8706 35.3317 62.9375 35.1272C63.0043 34.9216 62.9464 34.6691 62.8472 34.4781C63.0166 33.9116 62.9208 33.2703 62.591 32.7787C62.5876 32.7743 62.5843 32.7687 62.5809 32.7642C61.8834 31.7453 60.3514 31.7453 59.654 32.7642C59.6506 32.7687 59.6473 32.7743 59.6439 32.7787C59.3141 33.2703 59.2172 33.9105 59.3877 34.4781C59.2885 34.6703 59.2295 34.9216 59.2974 35.1272C59.3643 35.3328 59.5169 35.5082 59.7097 35.6032C59.6607 35.9205 59.771 36.2936 59.9325 36.5718C59.9125 36.8891 59.8969 37.2321 59.8768 37.5494C59.2384 37.9438 58.4997 38.3784 57.7788 38.5851C57.0602 38.5259 56.6 38.6455 56.2 39.1683C56.1031 39.2946 56.024 39.4343 55.9616 39.5817C55.6853 40.2398 55.7098 40.9359 55.6797 41.6241C55.6307 42.7168 55.4379 43.8016 55.1081 44.844C54.3081 47.359 54.1677 50.0326 54.0218 52.6682C53.9928 53.1956 53.965 53.7374 54.1343 54.2369C54.3037 54.7363 54.7193 55.1899 55.2429 55.239C55.4368 55.2569 55.6864 55.1619 55.683 54.9664C55.2708 54.8379 54.9209 54.5218 54.7505 54.124C54.6903 53.9821 54.6513 53.8201 54.7237 53.6771C54.7739 53.5788 54.8797 53.514 54.9878 53.5363C55.205 53.5821 55.2117 53.9084 55.1727 54.105C55.1527 54.2045 55.1549 54.3095 55.1984 54.4022C55.3176 54.6592 55.5672 54.5787 55.6708 54.4234C55.741 54.3184 55.7588 54.1877 55.771 54.0626C55.8479 53.2816 55.5504 52.4839 55.3042 51.7387C55.1828 51.37 55.3254 50.961 55.4669 50.6002C55.6073 50.2393 55.8134 49.9063 55.9683 49.5522C56.3315 48.722 56.6156 47.7981 56.7237 46.8976C56.8351 45.9792 56.9877 45.0574 57.3253 44.1971C57.7821 45.1725 57.9649 46.1792 57.9805 47.2562C57.9961 48.3332 57.8702 49.4069 57.7788 50.4795C57.4869 53.9128 57.312 57.3752 57.7209 60.7974C57.898 62.2822 57.2217 63.8297 57.5783 65.2821C57.8111 66.2307 58.22 67.1367 58.3504 68.1054C58.4495 68.8361 58.3849 69.5891 58.1621 70.2919C58.0128 70.7645 57.7933 71.2997 58.3983 71.6862C58.4963 71.7488 58.6033 71.7946 58.7136 71.8304C59.069 71.9454 59.6763 72.208 59.9158 71.6918C59.9481 71.6237 59.9659 71.5488 59.976 71.4728C60.2099 69.7511 59.4178 68.0484 59.5114 66.32C59.5537 65.5346 59.7776 64.7715 59.9102 63.995C60.0428 63.2196 60.0774 62.3929 59.7587 61.6733C60.6445 59.0735 61.0913 56.2703 61.1147 53.5229C61.1381 56.2703 61.5848 59.0735 62.4706 61.6733C62.152 62.3929 62.1865 63.2185 62.3191 63.995C62.4517 64.7715 62.6756 65.5335 62.718 66.32C62.8104 68.0484 62.0194 69.75 62.2534 71.4728C62.2634 71.5477 62.2812 71.6226 62.3135 71.6918C62.5531 72.208 63.1614 71.9454 63.5157 71.8304C63.626 71.7946 63.733 71.7488 63.831 71.6862C64.436 71.2997 64.2165 70.7645 64.0672 70.2919C63.8455 69.5891 63.7809 68.8361 63.8789 68.1054C64.0093 67.1379 64.4182 66.2307 64.6511 65.2821C65.0076 63.8297 64.3302 62.2822 64.5085 60.7974C64.9174 57.3764 64.7424 53.9128 64.4505 50.4795C64.3592 49.4058 64.2333 48.3332 64.2489 47.2562C64.2645 46.1792 64.4472 45.1725 64.904 44.1971C65.2416 45.0574 65.3942 45.9792 65.5057 46.8976C65.6148 47.7981 65.8978 48.7209 66.2611 49.5522C66.4159 49.9075 66.6221 50.2393 66.7625 50.6002C66.9028 50.961 67.0466 51.3711 66.9251 51.7387C66.6789 52.4839 66.3825 53.2816 66.4583 54.0626C66.4739 54.2212 66.4995 54.3877 66.6254 54.5005C66.69 54.5575 66.7803 54.5854 66.8627 54.562C67.1023 54.4949 67.0644 54.1385 67.0299 53.9374C67.012 53.8346 67.0299 53.7263 67.0922 53.6413C67.2505 53.4268 67.4811 53.5654 67.5301 53.7419C67.5658 53.8682 67.5301 54.0033 67.4778 54.124C67.3084 54.5218 66.9574 54.8379 66.5452 54.9664C66.5418 55.1619 66.7914 55.2569 66.9853 55.239C67.509 55.1899 67.9245 54.7363 68.0939 54.2369C68.2633 53.7374 68.2365 53.1944 68.2064 52.6682H68.2098Z" fill="#FF0000"/>
    <path d="M59.6518 32.7642C59.6518 32.7642 59.6451 32.7743 59.6418 32.7787C59.312 33.2703 59.2151 33.9105 59.3855 34.4781C59.2864 34.6703 59.2273 34.9216 59.2953 35.1272C59.3621 35.3328 59.5148 35.5082 59.7075 35.6032C59.6585 35.9205 59.7688 36.2936 59.9304 36.5718C59.9103 36.8891 59.8947 37.2321 59.8747 37.5494C59.2362 37.9438 58.4975 38.3784 57.7767 38.5851C57.058 38.5259 56.5979 38.6455 56.1979 39.1683C56.1009 39.2946 56.0207 39.4343 55.9594 39.5817C55.9015 39.7192 55.8569 39.8599 55.8224 40.0007H66.4116C66.377 39.8599 66.3325 39.7203 66.2745 39.5817C66.2132 39.4354 66.133 39.2957 66.0361 39.1683C65.6361 38.6466 65.1759 38.5259 64.4573 38.5851C63.7364 38.3784 62.9977 37.9438 62.3593 37.5494C62.3392 37.2321 62.3236 36.8891 62.3036 36.5718C62.4651 36.2948 62.5743 35.9205 62.5264 35.6032C62.7192 35.5082 62.8718 35.3317 62.9387 35.1272C63.0055 34.9216 62.9476 34.6691 62.8484 34.4781C63.0178 33.9116 62.922 33.2703 62.5922 32.7787C62.5888 32.7743 62.5855 32.7687 62.5821 32.7642C61.8847 31.7453 60.3527 31.7453 59.6552 32.7642H59.6518Z" fill="white"/>
    <path d="M55.6752 41.6231C55.6262 42.7158 55.4334 43.8007 55.1037 44.8431C54.7783 45.8732 54.5633 46.9301 54.4117 47.9993H56.5109C56.6067 47.6329 56.6813 47.2631 56.7259 46.8966C56.8373 45.9782 56.99 45.0565 57.3276 44.1962C57.7844 45.1716 57.9671 46.1782 57.9827 47.2552C57.986 47.5033 57.9816 47.7524 57.9727 48.0005H64.2611C64.2522 47.7524 64.2466 47.5044 64.2511 47.2552C64.2667 46.1782 64.4494 45.1716 64.9062 44.1962C65.2438 45.0565 65.3965 45.9782 65.5079 46.8966C65.5524 47.2631 65.6271 47.6329 65.7229 47.9993H67.822C67.6705 46.9301 67.4555 45.8732 67.1301 44.8431C66.8003 43.8007 66.6076 42.7147 66.5586 41.6231C66.534 41.079 66.5441 40.5305 66.4137 39.9998H55.8212C55.6897 40.5305 55.6997 41.079 55.6763 41.6231H55.6752Z" fill="#C9C9C9"/>
    <path d="M64.2601 47.999H57.9716C57.9404 48.8269 57.8502 49.6526 57.78 50.4782C57.624 52.3139 57.5026 54.1574 57.4847 55.9986H60.9799C61.0635 55.173 61.1092 54.3451 61.1159 53.5228C61.1225 54.3451 61.1682 55.173 61.2518 55.9986H64.747C64.7292 54.1574 64.6077 52.3128 64.4517 50.4782C64.3815 49.6526 64.2913 48.8269 64.2601 47.999Z" fill="#B4B4B4"/>
    <path d="M66.2611 49.5498C66.416 49.9051 66.6221 50.2369 66.7625 50.5978C66.9029 50.9587 67.0466 51.3687 66.9252 51.7363C66.6789 52.4815 66.3826 53.2792 66.4583 54.0602C66.4739 54.2189 66.4996 54.3853 66.6255 54.4982C66.6901 54.5552 66.7803 54.5831 66.8628 54.5596C67.1023 54.4926 67.0645 54.1362 67.0299 53.9351C67.0121 53.8323 67.0299 53.7239 67.0923 53.639C67.2505 53.4245 67.4812 53.563 67.5302 53.7396C67.5658 53.8658 67.5302 54.001 67.4778 54.1217C67.3085 54.5194 66.9575 54.8356 66.5452 54.9641C66.5419 55.1596 66.7915 55.2546 66.9853 55.2367C67.509 55.1875 67.9246 54.7339 68.094 54.2345C68.2633 53.7351 68.2366 53.1921 68.2065 52.6659C68.1207 51.1095 68.0349 49.5398 67.8165 47.9968H65.7174C65.8567 48.5298 66.0427 49.056 66.2589 49.5476L66.2611 49.5498Z" fill="#B4B4B4"/>
    <path d="M55.2429 55.2391C55.4368 55.257 55.6864 55.162 55.683 54.9665C55.2708 54.838 54.9209 54.5218 54.7505 54.1241C54.6903 53.9822 54.6513 53.8202 54.7237 53.6772C54.7739 53.5788 54.8797 53.514 54.9878 53.5364C55.205 53.5822 55.2117 53.9084 55.1727 54.1051C55.1527 54.2045 55.1549 54.3095 55.1984 54.4023C55.3176 54.6592 55.5672 54.5788 55.6708 54.4235C55.741 54.3185 55.7588 54.1877 55.771 54.0626C55.8479 53.2816 55.5504 52.4839 55.3042 51.7387C55.1828 51.37 55.3254 50.9611 55.4669 50.6002C55.6073 50.2393 55.8134 49.9064 55.9683 49.5522C56.1833 49.0595 56.3694 48.5344 56.5097 48.0015H54.4117C54.1934 49.5444 54.1076 51.1142 54.0218 52.6705C53.9928 53.1978 53.965 53.7397 54.1343 54.2391C54.3037 54.7386 54.7193 55.1922 55.2429 55.2413V55.2391Z" fill="#B4B4B4"/>
    <path d="M62.4719 61.6732C62.1532 62.3927 62.1878 63.2184 62.3203 63.9949C62.3203 63.996 62.3203 63.9971 62.3203 63.9993H64.747C64.688 62.9379 64.3827 61.852 64.5086 60.7962C64.6991 59.2041 64.7615 57.603 64.7459 55.9998H61.2507C61.4457 57.9315 61.8502 59.8521 62.4708 61.6743L62.4719 61.6732Z" fill="#A5A5A5"/>
    <path d="M59.7598 61.6733C60.3804 59.8522 60.7849 57.9305 60.9799 55.9988H57.4847C57.4691 57.602 57.5326 59.2031 57.722 60.7952C57.8479 61.8499 57.5437 62.937 57.4836 63.9984H59.9103C59.9103 63.9984 59.9103 63.9961 59.9103 63.9939C60.0428 63.2185 60.0774 62.3917 59.7587 61.6722L59.7598 61.6733Z" fill="#A5A5A5"/>
    <path d="M62.7183 66.3189C62.8108 68.0474 62.0197 69.7489 62.2537 71.4718C62.2637 71.5466 62.2815 71.6215 62.3138 71.6907C62.5534 72.2069 63.1617 71.9444 63.516 71.8293C63.6264 71.7935 63.7333 71.7477 63.8314 71.6852C64.4364 71.2986 64.2169 70.7634 64.0676 70.2908C63.8458 69.5881 63.7812 68.835 63.8793 68.1043C64.0096 67.1368 64.4185 66.2296 64.6514 65.281C64.755 64.8598 64.7706 64.4319 64.7461 63.9995H62.3194C62.452 64.7738 62.6748 65.5357 62.7172 66.3201L62.7183 66.3189Z" fill="#929292"/>
    <path d="M58.3516 68.1033C58.4507 68.8339 58.3861 69.587 58.1633 70.2897C58.014 70.7623 57.7945 71.2975 58.3995 71.6841C58.4975 71.7466 58.6045 71.7924 58.7148 71.8282C59.0702 71.9433 59.6774 72.2058 59.917 71.6897C59.9493 71.6215 59.9671 71.5466 59.9771 71.4707C60.2111 69.749 59.4189 68.0463 59.5125 66.3179C59.5549 65.5335 59.7777 64.7716 59.9103 63.9973H57.4836C57.4591 64.4297 57.4758 64.8587 57.5783 65.2788C57.8112 66.2274 58.2201 67.1335 58.3504 68.1021L58.3516 68.1033Z" fill="#929292"/>
    <circle opacity="0.07" cx="26.5" cy="26.5" r="26.5" fill="#F7FAFC"/>
    <circle opacity="0.04" cx="26.5" cy="26.5" r="22.5" fill="white"/>
    <circle opacity="0.08" cx="26.5" cy="26.5" r="17.5" fill="white"/>
</svg>
