<svg width="101" height="88" viewBox="0 0 101 88" fill="none" xmlns="http://www.w3.org/2000/svg">
    <path d="M20 37C20 23.1929 31.1929 12 45 12H93C97.4183 12 101 15.5817 101 20V80C101 84.4183 97.4183 88 93 88H20V37Z" fill="#283459"/>
    <path d="M65.6531 28H56.8776C56.3929 28 56 28.3929 56 28.8776V70.1224C56 70.6071 56.3929 71 56.8776 71H65.6531C66.1377 71 66.5306 70.6071 66.5306 70.1224V28.8776C66.5306 28.3929 66.1377 28 65.6531 28ZM64.7755 69.2449H57.7551V65.2959H61.2653V63.5408H57.7551V58.2755H61.2653V56.5204H57.7551V50.3776H61.2653V48.6224H57.7551V42.4796H61.2653V40.7245H57.7551V35.4592H61.2653V33.7041H57.7551V29.7551H64.7755V69.2449Z" fill="white"/>
    <circle opacity="0.07" cx="26.5" cy="26.5" r="26.5" fill="#F7FAFC"/>
    <circle opacity="0.04" cx="26.5" cy="26.5" r="22.5" fill="white"/>
    <circle opacity="0.08" cx="26.5" cy="26.5" r="17.5" fill="white"/>
</svg>
