<svg width="33" height="38" viewBox="0 0 33 38" fill="none" xmlns="http://www.w3.org/2000/svg">
<mask id="path-1-inside-1_159_2328" fill="white">
<path d="M16.1403 38C11.5101 38 6.87976 38 2.24801 38C1.71593 38 1.21583 37.9117 0.782604 37.5658C0.150209 37.0621 -0.0649501 36.4036 0.0164616 35.6466C0.0891506 34.9649 0.480218 34.4786 1.05301 34.1471C1.37575 33.9604 1.74646 33.8736 2.13026 33.8736C7.08329 33.875 12.0363 33.8736 16.9879 33.8736C18.7455 33.8736 20.5046 33.8736 22.2622 33.8736C22.4018 33.8736 22.4919 33.8374 22.6068 33.7274C22.9731 33.3742 23.2886 32.9661 23.7087 32.6665C23.873 32.5492 24.0416 32.4942 24.2423 32.4942C25.2643 32.4986 26.2863 32.4942 27.3083 32.4986C27.49 32.4986 27.6107 32.5159 27.5772 32.2467C27.5336 31.8921 27.4275 31.5549 27.3737 31.2032C27.24 30.3333 27.1033 29.4635 26.9565 28.5965C26.8503 27.9698 26.6904 27.3503 26.6134 26.7207C26.5058 25.8465 26.2906 24.9911 26.1714 24.1183C26.0915 23.5365 25.9824 22.9518 25.8661 22.3728C25.667 21.377 25.523 20.3697 25.3602 19.3667C25.3268 19.1611 25.2337 18.9672 25.2454 18.7515C25.2526 18.6111 25.1581 18.6039 25.0404 18.6068C23.8178 18.6386 22.5966 18.698 21.3754 18.7906C20.602 18.8485 19.9434 18.5851 19.5131 17.9178C19.2689 17.5401 19.1482 17.1218 19.2849 16.6514C19.4651 16.0319 19.8678 15.6223 20.4406 15.3835C20.6776 15.2836 20.9553 15.2663 21.2169 15.2417C21.8552 15.1809 22.4817 15.0376 23.1156 14.971C23.7611 14.9044 24.4022 14.7988 25.0477 14.7293C25.8371 14.6454 26.6206 14.5108 27.4071 14.4065C27.5874 14.3834 27.6296 14.2213 27.7095 14.1229C28.3085 13.3862 28.8987 12.6422 29.4657 11.8809C30.0719 11.066 30.8977 10.8316 31.8543 11.1152C32.4212 11.2831 32.9795 12.0329 32.9795 12.6234C32.9809 13.9622 33.0013 15.2996 32.9708 16.6369C32.9562 17.2376 32.6408 17.7007 32.1174 18.0409C31.5722 18.394 30.9645 18.2551 30.3859 18.3434C30.2144 18.3694 30.0109 18.2869 29.8771 18.4013C29.7288 18.5286 29.8771 18.711 29.8931 18.8673C29.9484 19.4448 30.0777 20.0122 30.181 20.5839C30.2784 21.1281 30.3525 21.6766 30.4426 22.2223C30.4674 22.3743 30.5168 22.5234 30.5444 22.6753C30.6505 23.2832 30.7567 23.8911 30.8352 24.5033C30.9151 25.1228 31.0765 25.7307 31.1753 26.3487C31.312 27.2099 31.4981 28.061 31.6071 28.9279C31.6871 29.5648 31.8528 30.19 31.9531 30.8254C32.0883 31.6837 32.286 32.5333 32.3689 33.3988C32.3892 33.6073 32.5172 33.7534 32.6088 33.9141C33.0769 34.7333 33.1292 35.5742 32.7425 36.4253C32.4648 37.0375 32.0025 37.4761 31.3731 37.7525C30.9035 37.958 30.4194 37.9928 29.9236 37.9928C25.3297 37.9942 20.7357 37.9928 16.1418 37.9928L16.1403 38ZM16.1781 36.625C20.8622 36.625 25.5463 36.625 30.2304 36.625C30.5706 36.625 30.8846 36.5497 31.1419 36.3211C31.5882 35.923 31.7162 35.3991 31.5635 34.8563C31.3847 34.2224 30.8337 33.8736 30.181 33.8736C28.3128 33.8736 26.4447 33.8736 24.5766 33.8692C24.4094 33.8692 24.2801 33.904 24.1667 34.0328C24.014 34.205 23.8367 34.3555 23.6869 34.5292C23.277 35.004 22.8263 35.2703 22.1343 35.2674C15.4716 35.2384 8.80893 35.2515 2.14625 35.2471C1.80025 35.2471 1.56183 35.3991 1.40482 35.6741C1.28561 35.884 1.41354 36.3153 1.61271 36.4904C1.76827 36.6279 1.96162 36.625 2.15352 36.625C6.82888 36.625 11.5028 36.625 16.1781 36.625ZM30.8206 32.3307C30.8206 32.2511 30.8337 32.1758 30.8192 32.1049C30.6665 31.3566 30.5473 30.604 30.4252 29.8513C30.3074 29.1262 30.1577 28.4054 30.0414 27.6789C29.8946 26.7554 29.7187 25.8364 29.5544 24.9158C29.4264 24.1922 29.2985 23.4685 29.1691 22.7448C29.079 22.2455 28.9569 21.749 28.9016 21.2453C28.8086 20.3856 28.5818 19.549 28.4888 18.6922C28.4655 18.4852 28.3652 18.381 28.1428 18.423C27.7139 18.5026 27.2807 18.4664 26.8489 18.4809C26.5654 18.491 26.5247 18.5373 26.5887 18.8094C26.6541 19.0917 26.7413 19.371 26.7878 19.6576C26.9826 20.8488 27.1396 22.0472 27.365 23.2326C27.5002 23.9461 27.6223 24.6611 27.7459 25.3776C27.8782 26.1475 27.977 26.9248 28.1355 27.6861C28.3419 28.6703 28.4626 29.669 28.6777 30.6517C28.7824 31.1294 28.8348 31.6186 28.8871 32.1063C28.9293 32.4971 28.9147 32.4971 29.3029 32.5015C29.7245 32.5058 30.149 32.4725 30.5677 32.5565C30.7508 32.5927 30.9078 32.5898 30.8192 32.3321L30.8206 32.3307ZM31.5998 14.6656C31.5998 14.0606 31.5955 13.4571 31.6028 12.8521C31.6057 12.6465 31.5955 12.4743 31.344 12.4106C31.0983 12.3469 30.8599 12.3194 30.6883 12.5351C30.0865 13.2892 29.4933 14.0505 28.9002 14.8104C28.6734 15.1013 28.4451 15.385 28.1122 15.5644C27.5642 15.8582 26.9463 15.8568 26.3575 15.9306C25.7775 16.003 25.1974 16.0855 24.6159 16.155C23.7174 16.2621 22.8248 16.4227 21.922 16.5038C21.5775 16.5342 21.2329 16.5978 20.8986 16.6963C20.7343 16.7455 20.6238 16.8439 20.6078 17.0176C20.5918 17.2115 20.7299 17.3056 20.8797 17.3794C21.0614 17.4692 21.2577 17.4388 21.4481 17.4257C22.1357 17.3765 22.8219 17.2853 23.5096 17.2781C25.3849 17.255 27.2545 17.0885 29.1299 17.0465C29.8102 17.0306 30.4892 16.9814 31.1681 16.9409C31.5097 16.9206 31.5984 16.8178 31.5998 16.4821C31.5998 15.8771 31.5998 15.2735 31.5998 14.6685V14.6656Z"/>
</mask>
<path d="M16.1403 38C11.5101 38 6.87976 38 2.24801 38C1.71593 38 1.21583 37.9117 0.782604 37.5658C0.150209 37.0621 -0.0649501 36.4036 0.0164616 35.6466C0.0891506 34.9649 0.480218 34.4786 1.05301 34.1471C1.37575 33.9604 1.74646 33.8736 2.13026 33.8736C7.08329 33.875 12.0363 33.8736 16.9879 33.8736C18.7455 33.8736 20.5046 33.8736 22.2622 33.8736C22.4018 33.8736 22.4919 33.8374 22.6068 33.7274C22.9731 33.3742 23.2886 32.9661 23.7087 32.6665C23.873 32.5492 24.0416 32.4942 24.2423 32.4942C25.2643 32.4986 26.2863 32.4942 27.3083 32.4986C27.49 32.4986 27.6107 32.5159 27.5772 32.2467C27.5336 31.8921 27.4275 31.5549 27.3737 31.2032C27.24 30.3333 27.1033 29.4635 26.9565 28.5965C26.8503 27.9698 26.6904 27.3503 26.6134 26.7207C26.5058 25.8465 26.2906 24.9911 26.1714 24.1183C26.0915 23.5365 25.9824 22.9518 25.8661 22.3728C25.667 21.377 25.523 20.3697 25.3602 19.3667C25.3268 19.1611 25.2337 18.9672 25.2454 18.7515C25.2526 18.6111 25.1581 18.6039 25.0404 18.6068C23.8178 18.6386 22.5966 18.698 21.3754 18.7906C20.602 18.8485 19.9434 18.5851 19.5131 17.9178C19.2689 17.5401 19.1482 17.1218 19.2849 16.6514C19.4651 16.0319 19.8678 15.6223 20.4406 15.3835C20.6776 15.2836 20.9553 15.2663 21.2169 15.2417C21.8552 15.1809 22.4817 15.0376 23.1156 14.971C23.7611 14.9044 24.4022 14.7988 25.0477 14.7293C25.8371 14.6454 26.6206 14.5108 27.4071 14.4065C27.5874 14.3834 27.6296 14.2213 27.7095 14.1229C28.3085 13.3862 28.8987 12.6422 29.4657 11.8809C30.0719 11.066 30.8977 10.8316 31.8543 11.1152C32.4212 11.2831 32.9795 12.0329 32.9795 12.6234C32.9809 13.9622 33.0013 15.2996 32.9708 16.6369C32.9562 17.2376 32.6408 17.7007 32.1174 18.0409C31.5722 18.394 30.9645 18.2551 30.3859 18.3434C30.2144 18.3694 30.0109 18.2869 29.8771 18.4013C29.7288 18.5286 29.8771 18.711 29.8931 18.8673C29.9484 19.4448 30.0777 20.0122 30.181 20.5839C30.2784 21.1281 30.3525 21.6766 30.4426 22.2223C30.4674 22.3743 30.5168 22.5234 30.5444 22.6753C30.6505 23.2832 30.7567 23.8911 30.8352 24.5033C30.9151 25.1228 31.0765 25.7307 31.1753 26.3487C31.312 27.2099 31.4981 28.061 31.6071 28.9279C31.6871 29.5648 31.8528 30.19 31.9531 30.8254C32.0883 31.6837 32.286 32.5333 32.3689 33.3988C32.3892 33.6073 32.5172 33.7534 32.6088 33.9141C33.0769 34.7333 33.1292 35.5742 32.7425 36.4253C32.4648 37.0375 32.0025 37.4761 31.3731 37.7525C30.9035 37.958 30.4194 37.9928 29.9236 37.9928C25.3297 37.9942 20.7357 37.9928 16.1418 37.9928L16.1403 38ZM16.1781 36.625C20.8622 36.625 25.5463 36.625 30.2304 36.625C30.5706 36.625 30.8846 36.5497 31.1419 36.3211C31.5882 35.923 31.7162 35.3991 31.5635 34.8563C31.3847 34.2224 30.8337 33.8736 30.181 33.8736C28.3128 33.8736 26.4447 33.8736 24.5766 33.8692C24.4094 33.8692 24.2801 33.904 24.1667 34.0328C24.014 34.205 23.8367 34.3555 23.6869 34.5292C23.277 35.004 22.8263 35.2703 22.1343 35.2674C15.4716 35.2384 8.80893 35.2515 2.14625 35.2471C1.80025 35.2471 1.56183 35.3991 1.40482 35.6741C1.28561 35.884 1.41354 36.3153 1.61271 36.4904C1.76827 36.6279 1.96162 36.625 2.15352 36.625C6.82888 36.625 11.5028 36.625 16.1781 36.625ZM30.8206 32.3307C30.8206 32.2511 30.8337 32.1758 30.8192 32.1049C30.6665 31.3566 30.5473 30.604 30.4252 29.8513C30.3074 29.1262 30.1577 28.4054 30.0414 27.6789C29.8946 26.7554 29.7187 25.8364 29.5544 24.9158C29.4264 24.1922 29.2985 23.4685 29.1691 22.7448C29.079 22.2455 28.9569 21.749 28.9016 21.2453C28.8086 20.3856 28.5818 19.549 28.4888 18.6922C28.4655 18.4852 28.3652 18.381 28.1428 18.423C27.7139 18.5026 27.2807 18.4664 26.8489 18.4809C26.5654 18.491 26.5247 18.5373 26.5887 18.8094C26.6541 19.0917 26.7413 19.371 26.7878 19.6576C26.9826 20.8488 27.1396 22.0472 27.365 23.2326C27.5002 23.9461 27.6223 24.6611 27.7459 25.3776C27.8782 26.1475 27.977 26.9248 28.1355 27.6861C28.3419 28.6703 28.4626 29.669 28.6777 30.6517C28.7824 31.1294 28.8348 31.6186 28.8871 32.1063C28.9293 32.4971 28.9147 32.4971 29.3029 32.5015C29.7245 32.5058 30.149 32.4725 30.5677 32.5565C30.7508 32.5927 30.9078 32.5898 30.8192 32.3321L30.8206 32.3307ZM31.5998 14.6656C31.5998 14.0606 31.5955 13.4571 31.6028 12.8521C31.6057 12.6465 31.5955 12.4743 31.344 12.4106C31.0983 12.3469 30.8599 12.3194 30.6883 12.5351C30.0865 13.2892 29.4933 14.0505 28.9002 14.8104C28.6734 15.1013 28.4451 15.385 28.1122 15.5644C27.5642 15.8582 26.9463 15.8568 26.3575 15.9306C25.7775 16.003 25.1974 16.0855 24.6159 16.155C23.7174 16.2621 22.8248 16.4227 21.922 16.5038C21.5775 16.5342 21.2329 16.5978 20.8986 16.6963C20.7343 16.7455 20.6238 16.8439 20.6078 17.0176C20.5918 17.2115 20.7299 17.3056 20.8797 17.3794C21.0614 17.4692 21.2577 17.4388 21.4481 17.4257C22.1357 17.3765 22.8219 17.2853 23.5096 17.2781C25.3849 17.255 27.2545 17.0885 29.1299 17.0465C29.8102 17.0306 30.4892 16.9814 31.1681 16.9409C31.5097 16.9206 31.5984 16.8178 31.5998 16.4821C31.5998 15.8771 31.5998 15.2735 31.5998 14.6685V14.6656Z" fill="white" stroke="white" stroke-width="2" mask="url(#path-1-inside-1_159_2328)"/>
<mask id="path-2-inside-2_159_2328" fill="white">
<path d="M8.25614 15.8261C7.87792 16.1324 7.59665 16.4539 7.29762 16.7518C6.99859 17.0496 6.72961 17.3838 6.38552 17.6312C5.7465 18.0913 5.05151 18.2171 4.2896 17.9976C3.62464 17.806 3.14675 17.388 2.81768 16.7881C2.57464 16.3435 2.49135 15.8583 2.52275 15.3424C2.576 14.4629 3.0935 13.8603 3.65468 13.287C4.28004 12.648 4.86035 11.9671 5.47752 11.3211C5.8612 10.9198 6.23805 10.5115 6.6313 10.12C6.9863 9.76628 7.43962 9.62926 7.91888 9.62646C9.69939 9.61807 11.4799 9.62227 13.2618 9.63345C13.9185 9.63765 14.4729 9.92009 14.9208 10.4011C15.0628 10.5535 15.1542 10.4989 15.2525 10.3955C15.7591 9.85856 16.2616 9.31606 16.7641 8.77355C17.3594 8.13037 18.0817 7.91644 18.9364 8.0283C19.6028 8.11499 20.108 8.46035 20.4807 8.98049C20.9177 9.58871 21.0938 10.2836 20.9518 11.0582C20.8412 11.6637 20.5313 12.1223 20.1257 12.5459C18.9078 13.8197 17.6994 15.1019 16.4801 16.3742C16.0267 16.8468 15.4423 17.0118 14.8156 17.0104C14.6067 17.0104 14.5657 17.0873 14.5835 17.2691C14.5944 17.3838 14.6026 17.5026 14.5835 17.6131C14.5016 18.0759 14.7159 18.3751 15.0505 18.6547C15.8055 19.2881 16.5401 19.9467 17.2775 20.6024C17.668 20.9492 18.0612 21.2946 18.4285 21.6679C18.9842 22.2342 19.2983 22.9319 19.3051 23.7372C19.3201 25.5437 19.3283 27.3502 19.3024 29.1553C19.2887 30.1942 18.9023 31.0765 18.0107 31.6428C17.4932 31.9727 16.9184 32.0818 16.308 31.9378C15.3072 31.7001 14.7173 31.0191 14.4087 30.06C14.3336 29.8251 14.3527 29.5524 14.3527 29.2965C14.35 28.0661 14.3459 26.8357 14.3609 25.6053C14.3691 24.9397 14.1711 24.3958 13.6919 23.9204C12.8535 23.0899 12.0547 22.2188 11.2409 21.3631C10.9911 21.1002 10.9979 20.6752 11.2464 20.4263C11.4976 20.1746 11.9373 20.1718 12.1708 20.4417C12.8849 21.2722 13.6973 22.0063 14.4074 22.841C14.6313 23.1039 14.903 23.322 15.1092 23.6058C15.5161 24.1651 15.6472 24.8125 15.6553 25.4864C15.6745 26.8581 15.6799 28.2311 15.6717 29.6028C15.669 30.004 16.0814 30.4724 16.3422 30.5633C16.8719 30.7493 17.3553 30.6151 17.6475 30.2361C17.8851 29.9271 18.0011 29.5734 18.0025 29.1889C18.0107 27.3922 18.0121 25.5941 18.0093 23.7974C18.0093 23.1039 17.6366 22.6215 17.1341 22.2034C16.521 21.6931 15.9284 21.1561 15.3304 20.6276C14.8757 20.2277 14.4237 19.8236 13.9718 19.4196C13.5239 19.0197 13.2836 18.5303 13.2904 17.9067C13.3027 16.8175 13.2932 15.7283 13.2945 14.6391C13.2945 14.2909 13.4707 14.042 13.7738 13.9539C14.0687 13.8686 14.3719 13.9987 14.5412 14.2783C14.5903 14.3594 14.5917 14.4447 14.5903 14.5342C14.5903 14.8614 14.5958 15.19 14.5862 15.5171C14.5821 15.6584 14.6286 15.6961 14.7624 15.7003C15.2184 15.7115 15.5311 15.4892 15.8492 15.1648C16.5115 14.4909 17.1327 13.7778 17.7922 13.101C18.2688 12.613 18.7344 12.1125 19.2205 11.6357C19.6492 11.2162 19.8376 10.7255 19.6642 10.1396C19.5277 9.67959 19.0648 9.24754 18.4285 9.29648C17.911 9.33563 17.6284 9.70336 17.3171 10.0347C16.678 10.7157 16.0527 11.4092 15.4178 12.0957C15.0628 12.4802 14.5098 12.3628 14.2927 11.7965C14.0305 11.1128 13.5239 10.9324 12.8945 10.931C12.2295 10.931 11.5632 10.9534 10.8982 10.9576C9.9479 10.9632 8.9962 10.9673 8.04587 10.9576C7.75094 10.9548 7.53247 11.0582 7.32766 11.2778C6.37323 12.2957 5.39832 13.294 4.44526 14.3133C4.179 14.5985 3.88953 14.8726 3.84038 15.3172C3.76528 15.9967 4.06294 16.4176 4.41386 16.6217C4.88492 16.8958 5.3874 16.844 5.89397 16.3337C6.6586 15.5647 7.43007 14.8013 8.17422 14.0127C8.47325 13.6953 8.79958 13.5415 9.22149 13.5722C9.66799 13.6044 10.1186 13.5177 10.5623 13.624C10.7917 13.6785 11.0075 13.9134 11.0498 14.1665C11.0826 14.365 10.916 14.6754 10.7166 14.7789C10.561 14.8586 10.4012 14.9159 10.2196 14.9047C10.064 14.8949 9.90693 14.9173 9.75264 14.8991C9.53418 14.874 9.49594 14.9746 9.49731 15.1732C9.51642 17.483 9.52325 19.7943 9.54646 22.1041C9.55056 22.483 9.44406 22.7823 9.1737 23.0451C8.80368 23.4045 8.45823 23.789 8.09775 24.1581C7.71953 24.5454 7.45874 24.5244 7.08325 24.1301C6.47973 23.4968 5.88441 22.855 5.2727 22.2328C4.91223 21.8678 4.40293 21.8329 3.94688 22.0426C3.53726 22.2314 3.33791 22.6285 3.27919 23.0843C3.21911 23.5471 3.45397 23.898 3.73524 24.2084C4.18446 24.7048 4.65827 25.1788 5.11158 25.6724C5.6755 26.2848 6.24488 26.8902 6.8047 27.5068C7.43143 28.1962 8.44321 28.1318 8.99893 27.3866C9.51642 26.6917 10.0148 25.98 10.5514 25.3018C10.9515 24.7971 11.3379 24.2825 11.727 23.7694C11.9728 23.445 12.3524 23.4198 12.6787 23.6883C12.8958 23.8673 12.9068 24.3385 12.7088 24.6027C12.1722 25.3214 11.6588 26.0583 11.1017 26.7602C10.6156 27.3726 10.2374 28.0829 9.64477 28.596C8.90745 29.2336 8.06772 29.4811 7.0969 29.1707C6.42921 28.9568 5.97043 28.4982 5.51984 28.0004C5.12114 27.56 4.69923 27.1405 4.29916 26.7015C3.68336 26.0247 2.99655 25.4109 2.46267 24.6615C1.81819 23.7568 1.83594 22.3446 2.58556 21.4875C3.20683 20.7772 3.99331 20.4584 4.95456 20.6724C5.60996 20.8178 6.08649 21.2135 6.52479 21.6903C6.84294 22.037 7.16244 22.3824 7.48195 22.7277C7.57753 22.8312 7.66355 22.7893 7.74548 22.7026C7.86563 22.5767 7.98716 22.4523 8.10731 22.3278C8.22474 22.2076 8.26434 22.0636 8.25751 21.8944C8.17831 20.0278 8.2343 18.1584 8.21928 16.2918C8.21928 16.1603 8.23976 16.0289 8.25751 15.8289L8.25614 15.8261Z"/>
</mask>
<path d="M8.25614 15.8261C7.87792 16.1324 7.59665 16.4539 7.29762 16.7518C6.99859 17.0496 6.72961 17.3838 6.38552 17.6312C5.7465 18.0913 5.05151 18.2171 4.2896 17.9976C3.62464 17.806 3.14675 17.388 2.81768 16.7881C2.57464 16.3435 2.49135 15.8583 2.52275 15.3424C2.576 14.4629 3.0935 13.8603 3.65468 13.287C4.28004 12.648 4.86035 11.9671 5.47752 11.3211C5.8612 10.9198 6.23805 10.5115 6.6313 10.12C6.9863 9.76628 7.43962 9.62926 7.91888 9.62646C9.69939 9.61807 11.4799 9.62227 13.2618 9.63345C13.9185 9.63765 14.4729 9.92009 14.9208 10.4011C15.0628 10.5535 15.1542 10.4989 15.2525 10.3955C15.7591 9.85856 16.2616 9.31606 16.7641 8.77355C17.3594 8.13037 18.0817 7.91644 18.9364 8.0283C19.6028 8.11499 20.108 8.46035 20.4807 8.98049C20.9177 9.58871 21.0938 10.2836 20.9518 11.0582C20.8412 11.6637 20.5313 12.1223 20.1257 12.5459C18.9078 13.8197 17.6994 15.1019 16.4801 16.3742C16.0267 16.8468 15.4423 17.0118 14.8156 17.0104C14.6067 17.0104 14.5657 17.0873 14.5835 17.2691C14.5944 17.3838 14.6026 17.5026 14.5835 17.6131C14.5016 18.0759 14.7159 18.3751 15.0505 18.6547C15.8055 19.2881 16.5401 19.9467 17.2775 20.6024C17.668 20.9492 18.0612 21.2946 18.4285 21.6679C18.9842 22.2342 19.2983 22.9319 19.3051 23.7372C19.3201 25.5437 19.3283 27.3502 19.3024 29.1553C19.2887 30.1942 18.9023 31.0765 18.0107 31.6428C17.4932 31.9727 16.9184 32.0818 16.308 31.9378C15.3072 31.7001 14.7173 31.0191 14.4087 30.06C14.3336 29.8251 14.3527 29.5524 14.3527 29.2965C14.35 28.0661 14.3459 26.8357 14.3609 25.6053C14.3691 24.9397 14.1711 24.3958 13.6919 23.9204C12.8535 23.0899 12.0547 22.2188 11.2409 21.3631C10.9911 21.1002 10.9979 20.6752 11.2464 20.4263C11.4976 20.1746 11.9373 20.1718 12.1708 20.4417C12.8849 21.2722 13.6973 22.0063 14.4074 22.841C14.6313 23.1039 14.903 23.322 15.1092 23.6058C15.5161 24.1651 15.6472 24.8125 15.6553 25.4864C15.6745 26.8581 15.6799 28.2311 15.6717 29.6028C15.669 30.004 16.0814 30.4724 16.3422 30.5633C16.8719 30.7493 17.3553 30.6151 17.6475 30.2361C17.8851 29.9271 18.0011 29.5734 18.0025 29.1889C18.0107 27.3922 18.0121 25.5941 18.0093 23.7974C18.0093 23.1039 17.6366 22.6215 17.1341 22.2034C16.521 21.6931 15.9284 21.1561 15.3304 20.6276C14.8757 20.2277 14.4237 19.8236 13.9718 19.4196C13.5239 19.0197 13.2836 18.5303 13.2904 17.9067C13.3027 16.8175 13.2932 15.7283 13.2945 14.6391C13.2945 14.2909 13.4707 14.042 13.7738 13.9539C14.0687 13.8686 14.3719 13.9987 14.5412 14.2783C14.5903 14.3594 14.5917 14.4447 14.5903 14.5342C14.5903 14.8614 14.5958 15.19 14.5862 15.5171C14.5821 15.6584 14.6286 15.6961 14.7624 15.7003C15.2184 15.7115 15.5311 15.4892 15.8492 15.1648C16.5115 14.4909 17.1327 13.7778 17.7922 13.101C18.2688 12.613 18.7344 12.1125 19.2205 11.6357C19.6492 11.2162 19.8376 10.7255 19.6642 10.1396C19.5277 9.67959 19.0648 9.24754 18.4285 9.29648C17.911 9.33563 17.6284 9.70336 17.3171 10.0347C16.678 10.7157 16.0527 11.4092 15.4178 12.0957C15.0628 12.4802 14.5098 12.3628 14.2927 11.7965C14.0305 11.1128 13.5239 10.9324 12.8945 10.931C12.2295 10.931 11.5632 10.9534 10.8982 10.9576C9.9479 10.9632 8.9962 10.9673 8.04587 10.9576C7.75094 10.9548 7.53247 11.0582 7.32766 11.2778C6.37323 12.2957 5.39832 13.294 4.44526 14.3133C4.179 14.5985 3.88953 14.8726 3.84038 15.3172C3.76528 15.9967 4.06294 16.4176 4.41386 16.6217C4.88492 16.8958 5.3874 16.844 5.89397 16.3337C6.6586 15.5647 7.43007 14.8013 8.17422 14.0127C8.47325 13.6953 8.79958 13.5415 9.22149 13.5722C9.66799 13.6044 10.1186 13.5177 10.5623 13.624C10.7917 13.6785 11.0075 13.9134 11.0498 14.1665C11.0826 14.365 10.916 14.6754 10.7166 14.7789C10.561 14.8586 10.4012 14.9159 10.2196 14.9047C10.064 14.8949 9.90693 14.9173 9.75264 14.8991C9.53418 14.874 9.49594 14.9746 9.49731 15.1732C9.51642 17.483 9.52325 19.7943 9.54646 22.1041C9.55056 22.483 9.44406 22.7823 9.1737 23.0451C8.80368 23.4045 8.45823 23.789 8.09775 24.1581C7.71953 24.5454 7.45874 24.5244 7.08325 24.1301C6.47973 23.4968 5.88441 22.855 5.2727 22.2328C4.91223 21.8678 4.40293 21.8329 3.94688 22.0426C3.53726 22.2314 3.33791 22.6285 3.27919 23.0843C3.21911 23.5471 3.45397 23.898 3.73524 24.2084C4.18446 24.7048 4.65827 25.1788 5.11158 25.6724C5.6755 26.2848 6.24488 26.8902 6.8047 27.5068C7.43143 28.1962 8.44321 28.1318 8.99893 27.3866C9.51642 26.6917 10.0148 25.98 10.5514 25.3018C10.9515 24.7971 11.3379 24.2825 11.727 23.7694C11.9728 23.445 12.3524 23.4198 12.6787 23.6883C12.8958 23.8673 12.9068 24.3385 12.7088 24.6027C12.1722 25.3214 11.6588 26.0583 11.1017 26.7602C10.6156 27.3726 10.2374 28.0829 9.64477 28.596C8.90745 29.2336 8.06772 29.4811 7.0969 29.1707C6.42921 28.9568 5.97043 28.4982 5.51984 28.0004C5.12114 27.56 4.69923 27.1405 4.29916 26.7015C3.68336 26.0247 2.99655 25.4109 2.46267 24.6615C1.81819 23.7568 1.83594 22.3446 2.58556 21.4875C3.20683 20.7772 3.99331 20.4584 4.95456 20.6724C5.60996 20.8178 6.08649 21.2135 6.52479 21.6903C6.84294 22.037 7.16244 22.3824 7.48195 22.7277C7.57753 22.8312 7.66355 22.7893 7.74548 22.7026C7.86563 22.5767 7.98716 22.4523 8.10731 22.3278C8.22474 22.2076 8.26434 22.0636 8.25751 21.8944C8.17831 20.0278 8.2343 18.1584 8.21928 16.2918C8.21928 16.1603 8.23976 16.0289 8.25751 15.8289L8.25614 15.8261Z" fill="white" stroke="white" stroke-width="2" mask="url(#path-2-inside-2_159_2328)"/>
<path d="M11.464 7.18071C13.4305 7.17749 15.0321 5.65998 15.003 3.93357L15.003 3.93351C14.974 2.23157 13.4419 0.818662 11.5179 0.838919C9.59684 0.763697 8.01825 2.28344 7.98358 3.93574C7.94665 5.69145 9.61737 7.18391 11.464 7.18071ZM11.464 7.18071L11.4632 6.68071L11.4641 7.18071C11.464 7.18071 11.464 7.18071 11.464 7.18071ZM15.4999 3.9928C15.4664 5.87683 13.8039 7.51652 11.4368 7.49988L15.4999 3.9928ZM15.4999 3.9928C15.4582 2.18318 13.838 0.486072 11.4805 0.500086L15.4999 3.9928ZM11.4366 7.49988C9.14704 7.48309 7.46258 5.90152 7.50065 3.8752L11.4366 7.49988ZM7.50065 3.87507C7.53568 2.08804 9.16871 0.514356 11.4804 0.500086L7.50065 3.87507Z" fill="white" stroke="white"/>
</svg>
