<svg width="143" height="80" viewBox="0 0 143 80" fill="none" xmlns="http://www.w3.org/2000/svg">
<path d="M98.3852 79.9995L100.366 78.721L103.697 65.2342L98.3852 64.6172V79.9995Z" fill="#894031"/>
<path d="M92.9836 64.2651L94.4791 79.9997H98.3852L100.951 64.2651H92.9836Z" fill="#934A38"/>
<path d="M130.068 79.9995L128.087 78.721L124.757 65.2342L130.068 64.6172V79.9995Z" fill="#894031"/>
<path d="M135.469 64.2651L133.974 79.9997H130.068L127.502 64.2651H135.469Z" fill="#934A38"/>
<path d="M48.8839 79.9995L46.9034 78.721L43.5726 65.2342L48.8839 64.6172V79.9995Z" fill="#894031"/>
<path d="M54.2863 64.2651L52.79 79.9997H48.884L46.3188 64.2651H54.2863Z" fill="#934A38"/>
<path d="M12.6341 79.9995L14.6146 78.721L17.9455 65.2342L12.6341 64.6172V79.9995Z" fill="#894031"/>
<path d="M7.2326 64.2651L8.72892 79.9997H12.6341L15.2001 64.2651H7.2326Z" fill="#934A38"/>
<path d="M6.49005 44.7025C6.76047 44.2915 25.1927 37.2173 25.1927 37.2173L41.2625 44.5554L38.2243 52.814C38.2243 52.814 12.7689 48.9852 12.4315 48.654C12.0942 48.3237 6.49005 44.7017 6.49005 44.7017V44.7025Z" fill="#E1EFEF"/>
<path d="M55.4873 10.9256L54.4967 36.6233L25.5979 38.2103L7.8533 44.7037C7.8533 44.7037 1.1555 15.0704 1.5607 14.6737C1.9659 14.2769 8.31258 6.87237 8.71778 6.60759C9.12298 6.34365 20.939 1.97943 21.3442 1.97943C21.7494 1.97943 31.8098 0.59082 31.8098 0.59082L40.2503 1.71466L47.2726 4.02873C47.2726 4.02873 51.2448 6.3571 51.7968 6.21084C52.0337 6.1478 52.7634 6.57733 53.5189 7.08755C54.8014 7.95418 55.5466 9.39995 55.4873 10.9247V10.9256Z" fill="#934A38"/>
<path d="M7.85327 44.7026L10.1136 62.6706L58.1082 62.9303L57.3751 44.7026H7.85327Z" fill="#D6E4E4"/>
<g style="mix-blend-mode:multiply" opacity="0.5">
<path d="M8.72895 51.6586L10.1137 62.6708L58.1083 62.9297L57.6825 52.3587C31.9858 55.6647 17.2072 54.3946 8.72809 51.6577L8.72895 51.6586Z" fill="#D6E4E4"/>
</g>
<path d="M35.8017 21.0038C35.8017 21.0038 15.7761 30.0079 14.2746 34.5041C12.7732 39.0003 16.4569 39.9131 18.227 41.3127C19.9964 42.7122 22.4284 42.9367 24.5025 43.0342C26.5765 43.1325 31.2964 44.2126 33.5139 45.318C35.7313 46.4233 40.8804 48.1742 44.3847 47.474C47.889 46.7738 54.5627 40.5494 54.5627 40.5494L57.4008 32.2077L48.8333 22.3335L35.8017 21.0029V21.0038Z" fill="#F7FBFA"/>
<path opacity="0.5" d="M54.7928 36.0022C54.7928 36.0022 48.0375 42.3022 44.4903 43.0108C40.9431 43.7194 35.7304 41.9475 33.4864 40.8287C31.2423 39.7099 26.4641 38.6164 24.3651 38.5172C22.2662 38.418 19.8041 38.191 18.0133 36.7747C17.0089 35.9803 15.3941 35.3407 14.4386 34.1286C14.3716 34.2563 14.315 34.3824 14.2738 34.5035C12.7714 38.9997 16.456 39.9125 18.2262 41.3121C19.9955 42.7116 22.4275 42.936 24.5016 43.0335C26.5757 43.1319 31.2956 44.212 33.513 45.3174C35.7304 46.4227 40.8795 48.1736 44.3838 47.4734C47.8881 46.7732 54.5619 40.5488 54.5619 40.5488L57.4 32.207L56.4548 31.1177L54.7928 36.0022Z" fill="#CEECF4"/>
<path d="M50.5433 22.1863C51.3786 23.2597 52.7676 23.5985 53.6459 22.9429C54.5241 22.2872 54.5584 20.8852 53.7231 19.8109C52.8878 18.7375 51.498 18.3988 50.6206 19.0544C49.7424 19.71 49.708 21.1121 50.5433 22.1863Z" fill="#F99893"/>
<path d="M55.6968 24.6601C54.5928 23.3278 53.2467 22.2014 52.0113 21.3214C51.7461 21.1322 51.4928 20.9288 51.243 20.7212C50.2352 19.8806 49.041 19.1981 47.6606 18.7501C43.2171 17.3102 38.2389 18.9342 35.5673 22.7049C31.9686 27.7845 33.6023 34.6393 38.8896 37.6872C38.2311 38.0663 37.7761 38.6572 37.6946 39.3607C37.5384 40.7107 38.808 41.9581 40.5301 42.1464C42.2531 42.3347 43.776 41.3941 43.9323 40.0441C43.9537 39.8567 43.9451 39.6718 43.9151 39.491C48.6848 41.6345 54.3335 40.0231 56.8703 35.6463C58.8061 32.305 58.5194 27.9425 55.6968 24.6601Z" fill="#FFC0BB"/>
<path d="M45.3445 28.7227C44.9564 29.0211 44.6096 29.3195 44.3048 29.6422C44.0001 29.9642 43.7468 30.313 43.5554 30.6879C43.3691 31.0636 43.212 31.4612 43.1459 31.8941C43.0918 32.1387 43.127 31.9235 43.0498 32.5573C43.0249 32.7851 43.0326 33.0154 42.9948 33.2617C42.8858 33.0482 42.7888 32.8221 42.7192 32.5876C42.678 32.3497 42.6025 32.1068 42.6162 31.8563C42.587 31.3561 42.7227 30.8442 42.9536 30.3887C43.188 29.9314 43.5425 29.538 43.958 29.2514C44.3761 28.9706 44.8474 28.7664 45.3445 28.7227Z" fill="#752911"/>
<path d="M45.4732 32.669C45.7299 32.5118 45.9617 32.3521 46.1694 32.1739C46.3772 31.9974 46.554 31.8007 46.6965 31.5838C46.8347 31.367 46.9575 31.1341 47.0262 30.8744C47.0691 30.7475 47.0983 30.6071 47.1292 30.476C47.1592 30.3381 47.1704 30.1977 47.2099 30.0498C47.2623 30.1868 47.306 30.3314 47.3327 30.4793C47.3421 30.6273 47.3721 30.7803 47.3464 30.9316C47.3309 31.2384 47.2142 31.5418 47.0425 31.8057C46.8691 32.0697 46.627 32.2874 46.354 32.4353C46.0801 32.5799 45.7788 32.6741 45.4732 32.669Z" fill="#333333"/>
<path d="M49.5398 26.9659C49.7965 26.8087 50.0283 26.649 50.2352 26.4708C50.4429 26.2934 50.6198 26.0976 50.7623 25.8807C50.9013 25.6638 51.0232 25.431 51.0919 25.1713C51.1348 25.0452 51.164 24.904 51.1949 24.7728C51.225 24.635 51.2361 24.4938 51.2756 24.3467C51.328 24.4845 51.3718 24.6283 51.3984 24.7762C51.4078 24.9241 51.4379 25.0771 51.4121 25.2293C51.3967 25.5361 51.2791 25.8404 51.1082 26.1035C50.9348 26.3674 50.6927 26.5851 50.4197 26.733C50.1459 26.8776 49.8446 26.9718 49.5389 26.9667L49.5398 26.9659Z" fill="#333333"/>
<path d="M47.2322 26.0848C47.0623 25.6259 47.0511 25.1216 47.1344 24.6323C47.2237 24.1423 47.4374 23.6623 47.7611 23.2605C48.0847 22.863 48.5019 22.525 48.9767 22.3393C49.2024 22.2208 49.4591 22.1855 49.6969 22.1207C49.9433 22.0829 50.194 22.0728 50.4378 22.0787C50.2257 22.2166 50.0094 22.3073 49.8094 22.4259C49.2797 22.7478 49.411 22.6612 49.2368 22.7915C48.8642 23.0336 48.5629 23.3412 48.2933 23.6657C48.0272 23.9944 47.8117 24.3667 47.6426 24.7727C47.4726 25.1804 47.343 25.6133 47.2314 26.084L47.2322 26.0848Z" fill="#752911"/>
<path d="M46.7163 16.2544C46.7163 16.2544 47.549 14.7758 47.264 13.9546C47.264 13.9546 46.7154 16.0829 44.1915 15.5475C41.6676 15.012 38.3599 15.6113 35.9571 17.9557C33.5533 20.2992 29.334 27.6651 29.9452 30.6104C30.5564 33.5557 31.869 35.3251 34.3972 36.7179C36.9263 38.1108 37.4585 39.4792 37.007 40.2013C37.007 40.2013 37.9487 39.5448 38.0474 38.31C38.0474 38.31 39.0673 39.0589 38.7583 40.192C38.7583 40.192 40.0408 37.8199 38.9832 36.454C38.9832 36.454 41.6187 38.1545 41.8333 39.1136C41.8333 39.1136 42.2763 36.8482 38.232 33.6129C38.232 33.6129 40.2838 24.5171 37.6912 21.0851C37.6912 21.0851 40.44 24.2935 40.2031 25.8032C40.2031 25.8032 42.4128 22.8318 40.4675 19.2426C40.4675 19.2426 43.7202 18.1095 45.2972 18.2726C46.8185 18.4306 49.9836 19.8234 50.1931 19.9512L47.5782 16.8848C47.5782 16.8848 48.732 16.5015 49.0041 15.0944C49.0041 15.0944 47.5233 16.388 46.7172 16.2552L46.7163 16.2544Z" fill="#752911"/>
<path d="M123.077 34.652C123.077 34.652 106.846 30.5122 90.5018 42.37C88.6802 43.6914 87.8268 45.9416 88.3316 48.1052L92.4274 65.7697C92.4274 65.7697 109.684 63.0227 109.864 62.6697C110.044 62.3175 117.915 58.0861 118.301 55.7939C118.686 53.5017 123.077 34.6503 123.077 34.6503V34.652Z" fill="#934A38"/>
<path d="M0.0701222 18.6005L5.38235 66.1042C5.51284 67.2734 6.52154 68.1586 7.72254 68.1586H136.061L142.853 45.0699C143.314 43.5039 142.662 41.8304 141.254 40.9612C134.876 37.0215 116.314 28.0619 96.1915 41.7682C93.7715 43.4165 92.5413 46.2854 92.9954 49.1374L95.2266 63.132L10.1125 62.673L4.58998 18.7551C4.26376 16.1637 5.15142 13.5655 7.01001 11.6919C13.1893 5.46328 28.483 -6.20629 54.7419 8.3128C54.7419 8.3128 46.213 -2.47166 23.3021 0.5258C11.9127 2.01612 5.97126 6.36773 2.87647 9.81237C0.715693 12.2172 -0.286144 15.4156 0.0701222 18.6005Z" fill="#B9704E"/>
<path opacity="0.2" d="M10.1136 62.6709L9.43799 63.5527H49.5398L46.2124 62.8659L10.1136 62.6709Z" fill="#934A38"/>
<path d="M90.9766 59.5126L88.3316 48.1053C87.826 45.9416 88.6802 43.6915 90.5018 42.3701C103.148 33.1953 115.725 33.5979 120.769 34.2494L121.734 34.3889C121.734 34.3889 116.526 32.612 113.465 31.2015C110.404 29.791 106.173 28.5571 101.491 28.1166C96.8099 27.6762 89.7876 26.5296 85.5562 23.4448C81.3248 20.359 76.6435 20.5356 76.6435 20.5356L73.2225 20.5339C73.2225 20.5339 64.7597 24.767 64.5803 25.0317C64.4 25.2957 57.9185 32.7885 57.2884 33.6702C56.6583 34.552 51.7968 51.829 51.7968 51.829C51.7968 51.829 52.2466 63.2884 54.8581 64.3458C57.4687 65.4033 67.1016 64.8746 71.5133 63.9936C75.925 63.1119 81.2363 65.1393 83.4873 65.5806C84.9716 65.8715 89.5103 65.832 92.4291 65.7714L90.9783 59.5134L90.9766 59.5126Z" fill="#01A9D6"/>
<g style="mix-blend-mode:multiply" opacity="0.3">
<path d="M88.572 49.1384C83.4898 50.4657 78.4283 52.0056 75.4288 51.4323C69.8925 50.3749 68.1369 46.5402 62.5998 44.7036C59.0835 43.5369 56.9888 40.041 55.9277 37.6445C54.2803 43.0015 51.7968 51.8299 51.7968 51.8299C51.7968 51.8299 52.2466 63.2893 54.8581 64.3468C57.4687 65.4042 67.1016 64.8755 71.5133 63.9946C75.925 63.1128 81.2363 65.1403 83.4873 65.5816C84.9741 65.8724 89.5249 65.8329 92.4428 65.7715L88.5728 49.1393L88.572 49.1384Z" fill="#01A9D6"/>
</g>
<path d="M76.6435 20.5355C76.6435 20.5355 65.48 25.7361 60.8889 36.4903C56.2977 47.2445 54.8572 64.345 54.8572 64.345C54.8572 64.345 49.1853 66.1077 46.215 64.345C46.215 64.345 45.675 32.6111 64.4009 22.2091C64.4009 22.2091 69.0821 18.5947 76.6444 20.5347L76.6435 20.5355Z" fill="#283459"/>
<path opacity="0.6" d="M70.7999 38.1917L68.9464 38.2001C68.8383 38.2001 68.737 38.2531 68.676 38.3405L67.6321 39.8409C67.4784 40.0612 67.1333 40.0141 67.0475 39.7602L66.4663 38.0362C66.432 37.9354 66.3496 37.858 66.2457 37.8278L64.4661 37.3201C64.2042 37.2453 64.1433 36.909 64.3639 36.751L65.8585 35.6776C65.9461 35.6146 65.9959 35.5137 65.9924 35.4078L65.9358 33.5938C65.9272 33.3265 66.2354 33.1668 66.4569 33.3223L67.9618 34.3823C68.0493 34.4445 68.1635 34.4596 68.2648 34.4243L70.0092 33.8115C70.2659 33.7216 70.5166 33.9586 70.4342 34.2125L69.8702 35.9415C69.8375 36.0424 69.8573 36.1534 69.9234 36.2366L71.0583 37.6723C71.2257 37.8832 71.072 38.1909 70.7999 38.1917Z" fill="#B6D982"/>
<path opacity="0.6" d="M92.1235 36.6794L90.586 35.6648C90.4958 35.606 90.3817 35.5934 90.2812 35.632L88.5566 36.2969C88.3025 36.3944 88.0449 36.165 88.1196 35.9086L88.6295 34.1636C88.6596 34.0619 88.6355 33.9517 88.5669 33.8702L87.3882 32.4698C87.2148 32.2639 87.3581 31.952 87.6303 31.9428L89.4828 31.8789C89.591 31.8747 89.6906 31.8192 89.749 31.7301L90.7448 30.1995C90.8916 29.9742 91.2384 30.0112 91.332 30.2625L91.9673 31.9672C92.0042 32.0672 92.0892 32.142 92.1939 32.1689L93.9881 32.6236C94.2525 32.6901 94.3229 33.0246 94.1083 33.1894L92.648 34.3073C92.563 34.3729 92.5158 34.4754 92.5227 34.5813L92.636 36.3927C92.6523 36.6592 92.3501 36.829 92.1235 36.6802V36.6794Z" fill="#B6D982"/>
<path opacity="0.6" d="M81.9102 47.5146L80.3762 46.4958C80.2869 46.4361 80.1727 46.4235 80.0714 46.4622L78.3441 47.122C78.09 47.2195 77.8325 46.9884 77.908 46.732L78.424 44.9887C78.454 44.887 78.4309 44.7768 78.3622 44.6945L77.1878 43.2907C77.0152 43.0839 77.1595 42.7729 77.4316 42.7645L79.2842 42.7057C79.3923 42.7023 79.4919 42.6468 79.5503 42.5577L80.5513 41.0304C80.6989 40.806 81.0449 40.8438 81.1376 41.0952L81.7669 42.8023C81.8038 42.9024 81.8879 42.978 81.9935 43.0049L83.7869 43.4647C84.0504 43.532 84.1208 43.8673 83.9053 44.0313L82.4416 45.145C82.3558 45.2097 82.3086 45.3123 82.3154 45.4182L82.4227 47.2305C82.4382 47.4969 82.1352 47.6659 81.9094 47.5162L81.9102 47.5146Z" fill="#B6D982"/>
<path opacity="0.6" d="M87.5667 61.2441L85.8129 60.6565C85.7099 60.6221 85.5974 60.6397 85.5098 60.7028L84.0212 61.7846C83.8023 61.9435 83.4916 61.788 83.4959 61.5207L83.525 59.7059C83.5268 59.6 83.4753 59.4999 83.3868 59.4386L81.8768 58.3862C81.6544 58.2315 81.7102 57.8945 81.9712 57.8154L83.7431 57.2817C83.847 57.2506 83.9277 57.1716 83.9603 57.0699L84.5157 55.3383C84.5973 55.0836 84.9424 55.0306 85.0995 55.2492L86.1657 56.7336C86.2284 56.8202 86.3297 56.8715 86.4378 56.8706L88.2913 56.8521C88.5643 56.8496 88.7214 57.1539 88.5583 57.3683L87.4457 58.8199C87.3804 58.9048 87.3624 59.0158 87.3968 59.1158L87.9874 60.8364C88.0741 61.0894 87.8268 61.3307 87.5684 61.2441H87.5667Z" fill="#B6D982"/>
<path opacity="0.6" d="M65.8027 60.7952L64.1476 59.9782C64.0506 59.9303 63.9364 59.9328 63.8411 59.9832L62.2152 60.8549C61.9757 60.9835 61.6898 60.7868 61.7319 60.5229L62.0143 58.7291C62.0306 58.624 61.9937 58.5181 61.9147 58.4458L60.5652 57.201C60.3669 57.0177 60.4691 56.6916 60.7378 56.6487L62.5672 56.357C62.6745 56.3394 62.7655 56.2721 62.8118 56.1763L63.6042 54.5355C63.721 54.2943 64.0695 54.2884 64.1948 54.5254L65.043 56.1393C65.0928 56.2335 65.1864 56.2982 65.2937 56.3116L67.1325 56.542C67.4029 56.5756 67.5163 56.8992 67.3248 57.0883L66.0199 58.3769C65.9435 58.4526 65.9101 58.5593 65.9307 58.6635L66.2749 60.4472C66.3256 60.7095 66.0466 60.9154 65.8036 60.7952H65.8027Z" fill="#B6D982"/>
<path opacity="0.6" d="M83.7877 26.0785L85.5415 26.6661C85.7999 26.7527 86.0472 26.5114 85.9605 26.2584L85.3699 24.5378C85.3355 24.4369 85.3535 24.3268 85.4188 24.2419L85.8643 23.6602C85.7605 23.5888 85.6574 23.5173 85.5561 23.4442C84.441 22.6314 83.2958 22.0463 82.2115 21.6235L81.9334 22.491C81.9008 22.5927 81.8192 22.6717 81.7162 22.7028L79.9443 23.2366C79.6833 23.3156 79.6275 23.6527 79.8507 23.8073L81.3608 24.8597C81.4492 24.9211 81.5007 25.0211 81.499 25.127L81.4698 26.9418C81.4655 27.2091 81.7763 27.3646 81.9952 27.2057L83.4838 26.1239C83.5705 26.0609 83.6838 26.0432 83.7868 26.0777L83.7877 26.0785Z" fill="#B6D982"/>
<path opacity="0.6" d="M101.727 29.439L103.238 30.4914C103.327 30.5528 103.378 30.6528 103.376 30.7587L103.347 32.5735C103.343 32.8408 103.654 32.9963 103.873 32.8374L105.361 31.7556C105.448 31.6926 105.561 31.6749 105.664 31.7094L107.418 32.2969C107.676 32.3835 107.924 32.1423 107.837 31.8893L107.246 30.1686C107.212 30.0678 107.23 29.9576 107.295 29.8727L107.795 29.2205C106.444 28.8716 105.007 28.5774 103.508 28.3589L101.822 28.8674C101.561 28.9464 101.506 29.2835 101.728 29.4382L101.727 29.439Z" fill="#B6D982"/>
<path d="M120.198 43.5191C120.198 41.8355 121.225 40.3872 122.698 39.7391C122.169 39.5063 121.584 39.376 120.966 39.376C118.63 39.376 116.735 41.2311 116.735 43.5191C116.735 45.8071 118.63 47.6623 120.966 47.6623C121.584 47.6623 122.169 47.532 122.698 47.2991C121.225 46.6511 120.198 45.2028 120.198 43.5191Z" fill="#934A38"/>
<g style="mix-blend-mode:multiply" opacity="0.2">
<path d="M117.636 43.5191C117.636 41.3799 119.292 39.6197 121.417 39.3995C121.269 39.3844 121.119 39.376 120.966 39.376C118.63 39.376 116.735 41.2311 116.735 43.5191C116.735 45.8071 118.63 47.6623 120.966 47.6623C121.118 47.6623 121.269 47.6539 121.417 47.6387C119.292 47.4185 117.636 45.6584 117.636 43.5191Z" fill="#934A38"/>
</g>
<path d="M115.887 46.6536C115.802 46.293 115.473 46.024 115.079 46.024C115.007 46.024 114.937 46.0332 114.87 46.0501C114.676 45.6432 114.253 45.3608 113.765 45.3608C113.638 45.3608 113.517 45.3793 113.402 45.4146C113.138 44.9876 112.66 44.7026 112.114 44.7026C111.464 44.7026 110.91 45.1069 110.7 45.6726C110.551 45.592 110.381 45.5449 110.199 45.5449C109.629 45.5449 109.167 45.9971 109.167 46.5552C109.167 46.588 109.168 46.6208 109.172 46.6536H115.887Z" fill="#934A38"/>
<path d="M130.951 43.1736C130.873 42.8416 130.57 42.5936 130.207 42.5936C130.14 42.5936 130.076 42.602 130.014 42.618C129.834 42.2431 129.446 41.9834 128.995 41.9834C128.878 41.9834 128.766 42.001 128.66 42.0329C128.417 41.6396 127.977 41.3765 127.473 41.3765C126.874 41.3765 126.363 41.7488 126.17 42.27C126.033 42.1952 125.875 42.1523 125.708 42.1523C125.182 42.1523 124.757 42.5692 124.757 43.0837C124.757 43.1139 124.758 43.1442 124.761 43.1736H130.951Z" fill="#934A38"/>
<path opacity="0.2" d="M141.256 40.9606C138.791 39.4383 134.505 37.1671 129.015 35.7432C127.347 48.0348 119.909 66.2086 90.7739 68.1587H136.062L142.854 45.0701C143.315 43.5041 142.663 41.8305 141.256 40.9614V40.9606Z" fill="#934A38"/>
<g style="mix-blend-mode:multiply" opacity="0.5">
<path d="M30.5101 9.81063C30.5101 8.12698 31.5368 6.67868 33.0099 6.0306C32.4811 5.79777 31.8956 5.66748 31.2784 5.66748C28.9416 5.66748 27.047 7.52261 27.047 9.81063C27.047 12.0986 28.9416 13.9538 31.2784 13.9538C31.8956 13.9538 32.4811 13.8235 33.0099 13.5907C31.5368 12.9426 30.5101 11.4943 30.5101 9.81063Z" fill="#934A38"/>
<g style="mix-blend-mode:multiply" opacity="0.2">
<path d="M27.9467 9.81063C27.9467 7.67139 29.6027 5.9104 31.7283 5.69102C31.5806 5.67589 31.4304 5.66748 31.2776 5.66748C28.9408 5.66748 27.0461 7.52261 27.0461 9.81063C27.0461 12.0986 28.9408 13.9538 31.2776 13.9538C31.4295 13.9538 31.5797 13.9454 31.7283 13.9302C29.6027 13.71 27.9467 11.9499 27.9467 9.81063Z" fill="#934A38"/>
</g>
<path d="M26.1988 12.9452C26.1138 12.5846 25.785 12.3156 25.391 12.3156C25.3189 12.3156 25.2485 12.3249 25.1815 12.3417C24.9875 11.9349 24.5651 11.6533 24.0767 11.6533C23.9505 11.6533 23.8286 11.6718 23.7135 11.7071C23.45 11.2801 22.9718 10.9951 22.4258 10.9951C21.776 10.9951 21.2223 11.3986 21.0119 11.9643C20.8634 11.8836 20.6926 11.8374 20.5106 11.8374C19.9406 11.8374 19.4787 12.2896 19.4787 12.8477C19.4787 12.8805 19.4804 12.9133 19.4839 12.9461H26.1988V12.9452Z" fill="#934A38"/>
<path d="M41.2624 9.4651C41.1843 9.13307 40.8813 8.88511 40.5181 8.88511C40.4512 8.88511 40.3868 8.89351 40.325 8.90948C40.1456 8.53459 39.7567 8.27486 39.306 8.27486C39.1892 8.27486 39.0768 8.29251 38.9712 8.32445C38.7282 7.93107 38.2878 7.66797 37.7839 7.66797C37.1847 7.66797 36.6739 8.04034 36.4807 8.56149C36.3434 8.48668 36.1863 8.44381 36.018 8.44381C35.4926 8.44381 35.0668 8.86073 35.0668 9.37516C35.0668 9.40542 35.0685 9.43568 35.0711 9.46594H41.2616L41.2624 9.4651Z" fill="#934A38"/>
</g>
<path d="M91.823 63.1118L93.1184 68.1577H96.1342L95.2277 63.1294C95.2277 63.1294 93.4781 60.2018 93.2086 60.3783C92.9382 60.5548 91.823 63.111 91.823 63.111V63.1118Z" fill="#934A38"/>
</svg>
