<svg width="100" height="87" viewBox="0 0 100 87" fill="none" xmlns="http://www.w3.org/2000/svg">
    <path d="M19 36C19 22.1929 30.1929 11 44 11H92C96.4183 11 100 14.5817 100 19V79C100 83.4183 96.4183 87 92 87H19V36Z" fill="#9F0000"/>
    <circle opacity="0.07" cx="26.5" cy="26.5" r="26.5" fill="#F7FAFC"/>
    <circle opacity="0.04" cx="26.5" cy="26.5" r="22.5" fill="white"/>
    <circle opacity="0.08" cx="26.5" cy="26.5" r="17.5" fill="white"/>
    <path d="M72.5 35.2505H47.5C45.4289 35.2505 43.75 36.9294 43.75 39.0005V61.5005C43.75 63.5716 45.4289 65.2505 47.5 65.2505H72.5C74.5711 65.2505 76.25 63.5716 76.25 61.5005V39.0005C76.25 36.9294 74.5711 35.2505 72.5 35.2505Z" stroke="white" stroke-width="1.00189" stroke-linejoin="round"/>
    <path d="M63.1351 49.019C64.1757 49.019 65.0192 48.1755 65.0192 47.135C65.0192 46.0945 64.1757 45.251 63.1351 45.251C62.0946 45.251 61.2511 46.0945 61.2511 47.135C61.2511 48.1755 62.0946 49.019 63.1351 49.019Z" fill="white"/>
    <path d="M69.3824 49.019C70.423 49.019 71.2665 48.1755 71.2665 47.135C71.2665 46.0945 70.423 45.251 69.3824 45.251C68.3419 45.251 67.4984 46.0945 67.4984 47.135C67.4984 48.1755 68.3419 49.019 69.3824 49.019Z" fill="white"/>
    <path d="M63.1351 55.2686C64.1757 55.2686 65.0192 54.425 65.0192 53.3845C65.0192 52.344 64.1757 51.5005 63.1351 51.5005C62.0946 51.5005 61.2511 52.344 61.2511 53.3845C61.2511 54.425 62.0946 55.2686 63.1351 55.2686Z" fill="white"/>
    <path d="M69.3824 55.2686C70.423 55.2686 71.2665 54.425 71.2665 53.3845C71.2665 52.344 70.423 51.5005 69.3824 51.5005C68.3419 51.5005 67.4984 52.344 67.4984 53.3845C67.4984 54.425 68.3419 55.2686 69.3824 55.2686Z" fill="white"/>
    <path d="M50.635 55.2686C51.6755 55.2686 52.519 54.425 52.519 53.3845C52.519 52.344 51.6755 51.5005 50.635 51.5005C49.5945 51.5005 48.751 52.344 48.751 53.3845C48.751 54.425 49.5945 55.2686 50.635 55.2686Z" fill="white"/>
    <path d="M56.8829 55.2686C57.9235 55.2686 58.767 54.425 58.767 53.3845C58.767 52.344 57.9235 51.5005 56.8829 51.5005C55.8424 51.5005 54.9989 52.344 54.9989 53.3845C54.9989 54.425 55.8424 55.2686 56.8829 55.2686Z" fill="white"/>
    <path d="M50.635 61.5188C51.6755 61.5188 52.519 60.6753 52.519 59.6348C52.519 58.5942 51.6755 57.7507 50.635 57.7507C49.5945 57.7507 48.751 58.5942 48.751 59.6348C48.751 60.6753 49.5945 61.5188 50.635 61.5188Z" fill="white"/>
    <path d="M56.8829 61.5188C57.9235 61.5188 58.767 60.6753 58.767 59.6348C58.767 58.5942 57.9235 57.7507 56.8829 57.7507C55.8424 57.7507 54.9989 58.5942 54.9989 59.6348C54.9989 60.6753 55.8424 61.5188 56.8829 61.5188Z" fill="white"/>
    <path d="M63.1351 61.5188C64.1757 61.5188 65.0192 60.6753 65.0192 59.6348C65.0192 58.5942 64.1757 57.7507 63.1351 57.7507C62.0946 57.7507 61.2511 58.5942 61.2511 59.6348C61.2511 60.6753 62.0946 61.5188 63.1351 61.5188Z" fill="white"/>
    <path d="M49.9998 32.7505V35.273" stroke="white" stroke-width="1.00189" stroke-linecap="round" stroke-linejoin="round"/>
    <path d="M70.0007 32.7507V35.2732" stroke="white" stroke-width="1.00189" stroke-linecap="round" stroke-linejoin="round"/>
    <path d="M76.25 41.5007H43.75" stroke="white" stroke-width="1.00189" stroke-linejoin="round"/>
</svg>
