<svg width="16" height="16" viewBox="0 0 16 16" fill="none" xmlns="http://www.w3.org/2000/svg">
<path d="M3.50092 3.50195L4.12605 13.5041C4.15575 14.0821 4.57615 14.5044 5.12627 14.5044H10.8775C11.4298 14.5044 11.8424 14.0821 11.8777 13.5041L12.5029 3.50195" stroke="black" stroke-width="1.00189" stroke-linecap="round" stroke-linejoin="round"/>
<path d="M2.50098 3.50244H13.5034" stroke="black" stroke-width="1.00189" stroke-miterlimit="10" stroke-linecap="round"/>
<path d="M6.00135 3.50121V2.25076C6.00106 2.15215 6.02027 2.05446 6.05787 1.9633C6.09547 1.87215 6.15072 1.78932 6.22045 1.7196C6.29018 1.64987 6.373 1.59462 6.46416 1.55701C6.55532 1.51941 6.65301 1.5002 6.75162 1.50049H9.25252C9.35112 1.5002 9.44882 1.51941 9.53997 1.55701C9.63113 1.59462 9.71395 1.64987 9.78368 1.7196C9.85341 1.78932 9.90866 1.87215 9.94626 1.9633C9.98387 2.05446 10.0031 2.15215 10.0028 2.25076V3.50121" stroke="black" stroke-width="1.00189" stroke-linecap="round" stroke-linejoin="round"/>
<path d="M8.0022 5.50098V12.5025" stroke="black" stroke-width="1.00189" stroke-linecap="round" stroke-linejoin="round"/>
<path d="M5.75128 5.50098L6.00134 12.5025" stroke="black" stroke-width="1.00189" stroke-linecap="round" stroke-linejoin="round"/>
<path d="M10.2524 5.50098L10.0023 12.5025" stroke="black" stroke-width="1.00189" stroke-linecap="round" stroke-linejoin="round"/>
</svg>
