<svg width="16" height="16" viewBox="0 0 16 16" fill="none" xmlns="http://www.w3.org/2000/svg">
<path d="M3.50091 3.50195L4.12605 13.5041C4.15574 14.0821 4.57615 14.5044 5.12627 14.5044H10.8775C11.4298 14.5044 11.8424 14.0821 11.8777 13.5041L12.5029 3.50195" stroke="#494C8C" stroke-width="1.00189" stroke-linecap="round" stroke-linejoin="round"/>
<path d="M2.50098 3.50244H13.5034" stroke="#494C8C" stroke-width="1.00189" stroke-miterlimit="10" stroke-linecap="round"/>
<path d="M6.00136 3.50121V2.25076C6.00107 2.15215 6.02028 2.05446 6.05788 1.9633C6.09548 1.87215 6.15074 1.78932 6.22046 1.7196C6.29019 1.64987 6.37301 1.59462 6.46417 1.55701C6.55533 1.51941 6.65302 1.5002 6.75163 1.50049H9.25253C9.35114 1.5002 9.44883 1.51941 9.53998 1.55701C9.63114 1.59462 9.71397 1.64987 9.78369 1.7196C9.85342 1.78932 9.90867 1.87215 9.94627 1.9633C9.98388 2.05446 10.0031 2.15215 10.0028 2.25076V3.50121" stroke="#494C8C" stroke-width="1.00189" stroke-linecap="round" stroke-linejoin="round"/>
<path d="M8.00219 5.50098V12.5025" stroke="#494C8C" stroke-width="1.00189" stroke-linecap="round" stroke-linejoin="round"/>
<path d="M5.75131 5.50098L6.00136 12.5025" stroke="#494C8C" stroke-width="1.00189" stroke-linecap="round" stroke-linejoin="round"/>
<path d="M10.2524 5.50098L10.0023 12.5025" stroke="#494C8C" stroke-width="1.00189" stroke-linecap="round" stroke-linejoin="round"/>
</svg>
