<svg width="94" height="92" viewBox="0 0 94 92" fill="none" xmlns="http://www.w3.org/2000/svg">
<path d="M13.786 27.2066C11.6377 26.4125 8.75728 22.5479 12.0719 22.1689C15.3865 21.7899 17.767 28.6761 13.786 27.2066Z" fill="#F5F5F5"/>
<path d="M84.705 43.8483C86.245 41.7343 93.1973 39.1665 93.6163 42.5799C94.0379 45.9933 81.8524 47.7645 84.705 43.8483Z" fill="#F5F5F5"/>
<path d="M28.5211 57.3451C26.9812 58.232 17.4539 50.6007 20.9983 47.7751C24.5451 44.9469 29.4299 56.8217 28.5211 57.3451Z" fill="#F5F5F5"/>
<path d="M73.3299 9.59045C72.2469 7.6646 72.6356 1.3147 75.3595 2.12939C78.0834 2.94407 75.3368 13.156 73.3299 9.59045Z" fill="#F5F5F5"/>
<path opacity="0.1" d="M23.5783 70.7461C23.7071 70.0887 24.169 69.9624 24.5376 69.9572C26.6985 69.9237 28.7206 71.4809 30.6064 73.1567C31.0229 73.5253 31.4748 73.9095 31.9418 73.5202C32.063 73.4196 32.1791 73.2675 32.2447 73.051C32.3305 72.7674 32.3129 72.4116 32.2346 72.1306C32.1564 71.8496 32.0276 71.633 31.8913 71.45C31.0784 70.3543 30.0838 69.8283 29.281 68.6965C28.8594 68.1036 28.4833 67.3972 28.1677 66.6083C27.9052 65.956 27.4205 64.9093 27.6124 64.0198C27.8396 62.9654 28.6095 63.0582 29.074 63.2C30.5508 63.6512 31.9266 64.7262 33.1813 66.0643C34.5142 67.4874 35.7259 69.2018 36.9276 70.906C37.3845 71.5531 37.8641 72.2182 38.4523 72.4425C39.0405 72.6668 39.7675 72.2982 40.0124 71.3623C40.2522 70.4419 39.9695 69.3565 39.9089 68.4284C39.8382 67.3276 39.8685 66.1855 40.0629 65.113C40.1765 64.4942 40.3507 63.8884 40.6259 63.4759C41.2772 62.5013 42.239 62.8416 42.8726 63.5816C43.3194 64.1023 43.6754 64.8448 43.9733 65.6544C44.6599 67.5261 45.0613 69.8 45.2229 72.0635C45.3188 73.4145 45.5207 74.8247 46.0685 75.8766C46.9496 77.573 48.598 77.4363 49.8678 76.5495C52.0868 74.9974 53.7959 71.5067 54.2528 67.5983C54.4017 66.3221 54.4396 64.948 54.8965 63.8806C55.2903 62.9577 56.3102 62.3337 56.805 63.3289C57.0145 63.7491 57.0423 64.3601 56.9691 64.9016C56.8959 65.443 56.7318 65.9431 56.5929 66.451C56.3506 67.3276 56.083 68.9698 56.7696 69.4829C56.9792 69.6401 57.2215 69.6092 57.4538 69.5602C59.6854 69.0858 61.763 66.9408 63.1262 63.9476C63.6033 62.8984 63.9693 61.7021 64.2521 60.4388C64.4162 59.7015 64.4843 58.91 64.6636 58.1778C64.8201 57.5513 65.0448 56.9635 65.3553 56.582C66.2237 55.5198 68.2281 56.0199 68.3417 58.2964C68.4073 59.6138 68.064 60.9029 67.9403 62.1894C67.862 62.9963 68.3467 62.9886 68.7102 62.9499C70.4521 62.7669 71.9945 60.9751 73.3577 59.1085C74.9809 56.8862 76.7783 54.0039 78.9948 53.9214C79.5098 53.9033 80.3403 53.9678 80.6433 54.767C80.8073 55.2001 80.7695 55.775 80.6559 56.2623C80.2065 58.1649 78.8812 59.1498 77.884 60.0882C75.193 62.6251 72.6837 65.7111 70.4319 69.2508C70.1088 69.7561 69.7806 70.6147 70.0861 71.1225C70.2274 71.3571 70.4496 71.3855 70.6541 71.37C71.6966 71.2875 72.6635 70.4419 73.6253 69.7407C74.5644 69.0575 75.655 68.4258 76.6597 68.9569C77.1898 69.2354 77.6594 69.8438 77.8967 70.674C78.0658 71.2618 78.1112 71.963 77.9825 72.5921C77.6165 74.3426 76.0336 75.1315 75.1602 75.9926C74.0141 77.1295 72.9134 78.4006 71.8885 79.8314C70.9797 81.1024 70.134 82.4946 69.2126 83.7424C65.9233 88.2103 61.3944 88.8703 57.3452 89.3885C52.9502 89.9505 48.545 89.6514 44.1777 89.0585C40.9995 88.6254 37.8742 87.7024 34.7641 86.6041C33.6988 86.2097 32.6411 85.7791 31.5959 85.2712C30.4726 84.7247 28.8064 84.3869 28.3874 82.2342C28.2965 81.7702 28.4025 81.3937 28.7029 81.2184C29.6344 80.6796 30.9623 81.4015 31.8358 81.8784C33.045 82.5384 34.1936 83.4794 35.4331 83.9899C35.8547 84.1626 36.3015 84.2451 36.7256 84.0569C36.9048 83.9796 37.0815 83.8455 37.2027 83.6135C37.3239 83.3815 37.3769 83.0308 37.2936 82.7627C37.2381 82.5848 37.132 82.4662 37.0311 82.358C34.653 79.8469 31.909 78.0783 29.1775 76.8846C28.2283 76.4695 27.264 76.1292 26.3502 75.5414C25.6736 75.1057 25.0223 74.5257 24.4821 73.7264C24.0403 73.0742 23.3587 71.8496 23.5758 70.7436L23.5783 70.7461Z" fill="#407BFF"/>
<path opacity="0.1" d="M71.8658 51.7969C71.0882 52.6245 69.7377 51.8897 69.9649 50.7657C70.8358 46.4576 72.7241 43.3097 74.9809 44.9365C76.6622 46.1508 74.0267 49.4998 71.8658 51.7969Z" fill="#407BFF"/>
<path opacity="0.1" d="M30.2655 49.2731C27.9355 47.4246 26.3072 44.8954 27.9683 44.2432C29.5385 43.6244 30.2655 49.2731 30.2655 49.2731Z" fill="#407BFF"/>
<path opacity="0.3" d="M65.754 53.813C67.1021 53.0498 68.0639 51.637 68.1977 49.9509L69.9067 28.7202C70.0835 26.5133 69.3438 24.3322 67.8645 22.7132L62.6061 16.9562C62.0204 16.3143 61.725 15.448 61.7957 14.5741L62.0456 11.4649L48.4389 10.3228L48.189 13.432C48.1183 14.3085 47.6891 15.1129 47.0076 15.6466L40.9009 20.4496C39.1843 21.8005 38.1039 23.8295 37.9246 26.0338L36.2156 47.2646C36.0793 48.9506 36.8038 50.5052 38.0105 51.4823C36.6624 52.2455 35.7006 53.6583 35.5668 55.3444L33.3882 82.4094C33.1736 85.0906 35.125 87.4419 37.7504 87.661L60.2255 89.5482C62.8509 89.7673 65.1532 87.7745 65.3678 85.0932L67.5464 58.0282C67.6827 56.3421 66.9582 54.7875 65.7515 53.8104L65.754 53.813Z" fill="#407BFF"/>
<path opacity="0.3" d="M48.4427 10.3224L48.2498 12.7197L61.856 13.8621L62.049 11.4649L48.4427 10.3224Z" fill="#407BFF"/>
<path opacity="0.3" d="M67.7383 23.2623L62.4799 17.5054C62.4799 17.5054 59.0895 17.6549 61.7326 21.9011C63.9667 25.4924 67.8771 24.9329 67.7383 23.2623Z" fill="white"/>
<path opacity="0.2" d="M33.3908 82.4092C33.1762 85.0904 35.1276 87.4417 37.753 87.6608L60.2281 89.548C62.8535 89.7671 65.1558 87.7742 65.3704 85.093L33.3908 82.4092Z" fill="#407BFF"/>
<path opacity="0.3" d="M66.7563 23.7676C67.9402 25.0644 68.5385 26.8227 68.3972 28.5913L66.6881 49.8221C66.5998 50.9306 65.9737 51.9155 65.0195 52.4569L63.0327 53.581L64.8125 55.0221C65.6682 55.7156 66.1277 56.7907 66.0393 57.9019L63.8607 84.9669C63.7143 86.7922 62.1391 88.156 60.3518 88.0065L37.8767 86.1193C36.0894 85.9698 34.754 84.3611 34.9004 82.5358L37.079 55.4707C37.1673 54.3621 37.7934 53.3773 38.7476 52.8359L40.7344 51.7118L38.9546 50.2707C38.0988 49.5771 37.6394 48.5021 37.7278 47.3909L39.4368 26.1601C39.5782 24.3915 40.4491 22.757 41.8274 21.6742C43.847 20.3413 49.1508 23.6594 55.3584 24.1801C61.5635 24.7009 65.4587 23.0896 66.7588 23.7651L66.7563 23.7676Z" fill="#407BFF"/>
<path opacity="0.2" d="M55.3559 24.1825C49.1508 23.6618 43.8469 20.3411 41.8274 21.674C45.354 23.6592 49.3906 24.8889 55.2599 25.3814C61.1318 25.8738 66.7588 23.7675 66.7588 23.7675C65.4612 23.092 61.5635 24.7059 55.3584 24.1851L55.3559 24.1825Z" fill="#407BFF"/>
<path opacity="0.2" d="M36.218 47.2671C36.0817 48.9532 36.8062 50.5078 38.0129 51.4849L65.754 53.8129C67.102 53.0498 68.0638 51.637 68.1976 49.9509L36.218 47.2671Z" fill="#407BFF"/>
<path d="M63.9945 10.9156L63.742 10.895L63.9061 8.85056C63.9414 8.39681 63.8051 7.95853 63.5173 7.61306C63.2296 7.26759 62.8282 7.05619 62.3839 7.01752L60.2103 6.83447L60.2305 6.57666L62.4041 6.75971C62.914 6.80353 63.3785 7.04588 63.7092 7.44548C64.0399 7.84509 64.1989 8.3504 64.1585 8.87118L63.9945 10.9156Z" fill="#407BFF"/>
<path d="M63.3078 13.4861L63.1311 13.3004C63.4239 13.0117 63.6032 12.6276 63.636 12.2202L63.8884 12.2408C63.8506 12.7101 63.6461 13.1535 63.3078 13.4835V13.4861Z" fill="#407BFF"/>
<path d="M62.3337 7.66364L48.7652 6.52439C48.1969 6.47667 47.6983 6.90849 47.6516 7.48889L47.3802 10.86C47.3335 11.4404 47.7563 11.9496 48.3246 11.9973L61.8932 13.1366C62.4615 13.1843 62.9601 12.7525 63.0068 12.1721L63.2782 8.80095C63.3249 8.22055 62.9021 7.71136 62.3337 7.66364Z" fill="#283459"/>
<path opacity="0.2" d="M49.0145 11.4777C49.0145 11.4777 49.0069 11.4777 49.0044 11.4777C48.9337 11.4726 48.8832 11.4107 48.8883 11.3385L49.2165 7.2625C49.2215 7.19032 49.2846 7.13875 49.3528 7.14391C49.4235 7.14907 49.474 7.21094 49.4689 7.28313L49.1407 11.3591C49.1357 11.4262 49.0801 11.4777 49.0145 11.4777Z" fill="white"/>
<path opacity="0.2" d="M51.4758 11.6838C51.4758 11.6838 51.4682 11.6838 51.4657 11.6838C51.395 11.6786 51.3445 11.6167 51.3496 11.5446L51.6778 7.46856C51.6828 7.39637 51.7485 7.34481 51.8141 7.34996C51.8848 7.35512 51.9353 7.417 51.9302 7.48918L51.602 11.5652C51.597 11.6322 51.5414 11.6838 51.4758 11.6838Z" fill="white"/>
<path opacity="0.2" d="M53.9347 11.8903C53.9347 11.8903 53.9271 11.8903 53.9246 11.8903C53.8539 11.8852 53.8034 11.8233 53.8085 11.7511L54.1366 7.6751C54.1417 7.60291 54.2098 7.55135 54.273 7.55651C54.3436 7.56166 54.3941 7.62354 54.3891 7.69573L54.0609 11.7717C54.0558 11.8388 54.0003 11.8903 53.9347 11.8903Z" fill="white"/>
<path opacity="0.2" d="M56.396 12.0964C56.396 12.0964 56.3884 12.0964 56.3859 12.0964C56.3152 12.0912 56.2647 12.0293 56.2698 11.9572L56.5979 7.88116C56.603 7.80897 56.6686 7.75741 56.7343 7.76256C56.8049 7.76772 56.8554 7.82959 56.8504 7.90178L56.5222 11.9778C56.5172 12.0448 56.4616 12.0964 56.396 12.0964Z" fill="white"/>
<path opacity="0.2" d="M58.8547 12.3029C58.8547 12.3029 58.8471 12.3029 58.8446 12.3029C58.7739 12.2978 58.7234 12.2359 58.7285 12.1637L59.0567 8.0877C59.0617 8.01551 59.1299 7.96395 59.193 7.96911C59.2637 7.97426 59.3142 8.03614 59.3091 8.10832L58.9809 12.1843C58.9759 12.2514 58.9204 12.3029 58.8547 12.3029Z" fill="white"/>
<path opacity="0.2" d="M61.3161 12.509C61.3161 12.509 61.3086 12.509 61.306 12.509C61.2354 12.5038 61.1849 12.4419 61.1899 12.3698L61.5181 8.29375C61.5231 8.22157 61.5863 8.17 61.6544 8.17516C61.7251 8.18032 61.7756 8.24219 61.7705 8.31438L61.4424 12.3904C61.4373 12.4574 61.3818 12.509 61.3161 12.509Z" fill="white"/>
<path opacity="0.2" d="M40.4264 40.1749C40.0427 38.0067 36.9502 38.1588 36.7735 40.3554L36.2181 47.2647C36.0818 48.9508 36.8063 50.5054 38.013 51.4825C36.665 52.2456 35.7031 53.6584 35.5694 55.3445L33.3908 82.4096C33.1762 85.0908 35.1276 87.442 37.753 87.6612L43.5592 88.1484C46.3007 88.3779 48.5121 85.8926 48.0224 83.1263L40.4264 40.1749Z" fill="#407BFF"/>
<path opacity="0.3" d="M62.7576 75.6214C62.6465 77.0084 61.455 78.0422 60.0943 77.9262C58.7361 77.8128 57.7238 76.5959 57.8374 75.2063C57.9485 73.8193 59.14 72.7854 60.5007 72.9015C61.8589 73.0149 62.8712 74.2318 62.7576 75.6214Z" fill="#407BFF"/>
<path opacity="0.3" d="M54.909 65.8579C54.8307 66.8401 53.9876 67.5697 53.0257 67.4872C52.0639 67.4073 51.3495 66.5462 51.4303 65.5639C51.5111 64.5817 52.3517 63.8521 53.3135 63.9346C54.2753 64.0145 54.9898 64.8756 54.909 65.8579Z" fill="#407BFF"/>
<path opacity="0.3" d="M47.6059 44.132C46.6415 44.1784 45.8211 43.4204 45.7757 42.4356C45.7302 41.4508 46.4724 40.6129 47.4367 40.5665C48.4011 40.5201 49.2215 41.278 49.267 42.2629C49.3124 43.2477 48.5702 44.0856 47.6059 44.132Z" fill="#407BFF"/>
<path opacity="0.3" d="M52.3695 33.4615C51.6879 33.495 51.1073 32.9588 51.0745 32.2601C51.0416 31.5614 51.5667 30.971 52.2483 30.9375C52.9299 30.904 53.5105 31.4403 53.5434 32.1363C53.5762 32.8324 53.0511 33.4254 52.3695 33.4589V33.4615Z" fill="#407BFF"/>
<path opacity="0.3" d="M60.0337 58.1468C60.0008 58.5542 59.6525 58.8558 59.2536 58.8223C58.8548 58.7888 58.5594 58.433 58.5922 58.0257C58.625 57.6183 58.9734 57.3167 59.3723 57.3502C59.7711 57.3837 60.0665 57.7395 60.0337 58.1468Z" fill="#407BFF"/>
<path opacity="0.7" d="M46.9571 78.318C46.9167 78.318 46.8763 78.318 46.8359 78.3128C46.4472 78.2793 46.0937 78.0937 45.8413 77.7895C45.5889 77.4852 45.4677 77.0985 45.498 76.7015C45.5636 75.8817 46.2755 75.2681 47.0757 75.3351C47.4645 75.3686 47.8179 75.5542 48.0704 75.8584C48.3228 76.1627 48.444 76.5494 48.4137 76.9464C48.3506 77.725 47.7094 78.318 46.9571 78.318ZM46.9571 75.5233C46.3007 75.5233 45.7428 76.0389 45.6898 76.717C45.6621 77.0624 45.7681 77.4002 45.9877 77.6631C46.2073 77.9287 46.5153 78.0885 46.8536 78.1169C47.5579 78.1762 48.1688 77.6425 48.2269 76.9284C48.2547 76.5829 48.1486 76.2452 47.929 75.9796C47.7094 75.7141 47.4014 75.5542 47.0631 75.5259C47.0278 75.5233 46.9924 75.5207 46.9571 75.5207V75.5233Z" fill="white"/>
<path opacity="0.7" d="M62.5707 48.1488C62.5404 48.1488 62.5126 48.1488 62.4823 48.1462C61.8992 48.0972 61.4625 47.5739 61.5104 46.9757C61.5584 46.3802 62.0709 45.9342 62.6565 45.9832C62.9393 46.0064 63.1968 46.1404 63.3785 46.3622C63.5628 46.5839 63.6512 46.8649 63.6259 47.1536C63.6032 47.4424 63.4719 47.7053 63.2548 47.891C63.0604 48.0586 62.8206 48.1488 62.5707 48.1488ZM61.6998 46.9912C61.6594 47.4811 62.0179 47.9116 62.4975 47.9528C62.7297 47.9735 62.9569 47.8987 63.1337 47.744C63.3104 47.5893 63.4189 47.3754 63.4391 47.1382C63.4593 46.901 63.3861 46.6715 63.2346 46.4885C63.0832 46.308 62.8736 46.1972 62.6414 46.1765C62.1592 46.1353 61.7402 46.5014 61.6998 46.9912Z" fill="white"/>
<path opacity="0.7" d="M46.2603 25.2911C46.2477 25.2911 46.2326 25.2911 46.22 25.2911C45.9473 25.2679 45.7454 25.0229 45.7656 24.7445C45.7883 24.4661 46.0306 24.2598 46.3007 24.283C46.5734 24.3062 46.7753 24.5512 46.7551 24.8296C46.7349 25.0926 46.5153 25.2937 46.2629 25.2937L46.2603 25.2911ZM45.9549 24.76C45.9423 24.9327 46.066 25.0822 46.2351 25.0977C46.4042 25.1132 46.5507 24.9843 46.5658 24.8115C46.5784 24.6388 46.4547 24.4893 46.2856 24.4738C46.1165 24.4583 45.97 24.5872 45.9549 24.76Z" fill="white"/>
<path opacity="0.7" d="M57.4233 38.6405C57.388 38.6405 57.3527 38.6405 57.3173 38.6354C56.6206 38.5761 56.1005 37.9496 56.1586 37.2406C56.1864 36.8951 56.3429 36.5832 56.6029 36.3589C56.8604 36.1346 57.1911 36.0289 57.5268 36.0573C57.8651 36.0856 58.1706 36.2455 58.3902 36.511C58.6098 36.774 58.7159 37.1091 58.6856 37.4546C58.6578 37.8001 58.5013 38.112 58.2413 38.3363C58.009 38.5374 57.7238 38.6431 57.4233 38.6431V38.6405ZM57.4183 36.2455C57.1633 36.2455 56.9185 36.3357 56.7241 36.5058C56.5044 36.6966 56.3707 36.9622 56.3479 37.2561C56.3 37.8619 56.7417 38.393 57.335 38.4446C57.6228 38.4678 57.9005 38.3776 58.1201 38.1868C58.3397 37.996 58.4735 37.7304 58.4962 37.4365C58.5189 37.1426 58.4306 36.859 58.2438 36.6348C58.057 36.4105 57.797 36.2738 57.5092 36.2506C57.4789 36.2506 57.4486 36.248 57.4183 36.248V36.2455Z" fill="white"/>
<path opacity="0.3" d="M67.7812 49.915L69.4094 29.6691C69.4524 29.1251 69.056 28.6482 68.5234 28.6043C67.9907 28.5605 67.5237 28.9653 67.4808 29.5092L65.8525 49.7552C65.7414 51.1216 64.974 52.3359 63.7951 53.0036L62.803 53.5656L63.6941 54.2849C64.7493 55.1383 65.3148 56.466 65.2037 57.8324L63.0251 84.8974C62.8939 86.5191 61.8942 87.3131 60.4881 87.9448C60.069 88.133 60.17 88.7672 60.6269 88.8059C62.8358 88.9915 64.772 87.3131 64.9538 85.0599L67.1324 57.9948C67.2435 56.6284 66.678 55.3007 65.6228 54.4473L64.7317 53.728L65.7238 53.166C66.9027 52.4983 67.6701 51.284 67.7812 49.9176V49.915Z" fill="white"/>
<path opacity="0.3" d="M93.9824 81.3785C93.7097 80.1152 90.3068 80.8551 89.6025 80.9788C88.2367 81.2186 86.8988 81.6414 85.6038 82.1596C84.1825 82.7268 82.5315 83.5647 81.0572 82.701C80.204 82.2009 83.1576 81.2109 83.4252 81.1103C84.6697 80.6437 85.8991 80.1152 87.0477 79.4165C87.5148 79.1329 88.4185 78.4549 88.0272 77.7639C87.7041 77.1942 86.5454 77.2535 85.841 77.336C83.612 77.5989 81.5217 78.1996 79.6107 78.9396C77.5786 79.7285 75.7281 80.6746 73.8904 81.6131C73.1936 81.9688 72.459 82.3375 71.5704 82.4664C70.6818 82.5953 69.5938 82.402 69.2429 81.8992C68.897 81.4017 69.3438 80.8113 69.4473 80.306C69.571 79.7078 69.5483 79.0865 69.2732 78.509C69.1141 78.1739 68.8591 77.8464 68.4527 77.6273C67.4909 77.1065 66.0343 77.3025 65.07 77.7098C64.3909 77.996 63.838 78.4059 63.3786 78.8467C62.3133 79.8728 61.6695 81.1103 61.3893 82.3401C61.2227 83.0749 60.892 83.8431 60.0539 84.4206C58.7008 85.3513 56.2218 85.2972 54.326 84.8305C51.0164 84.0133 48.5021 82.139 47.8836 80.0224C47.5882 79.0143 47.4418 77.9728 46.1165 77.5654C45.2582 77.3024 43.4608 77.4855 43.8445 78.5889C43.9455 78.8828 44.1828 79.151 44.3847 79.4242C44.7356 79.896 45.1092 80.7855 44.0666 81.0717C43.7486 81.1593 43.3825 81.1464 43.0367 81.1206C39.6867 80.8912 36.6019 79.7491 34.6025 78.1403C33.9007 77.5757 33.3731 76.9312 32.9692 76.248C32.7344 75.851 32.6486 75.4204 32.3886 75.026C32.1664 74.6882 31.8357 74.3711 31.3738 74.1675C30.0863 73.6003 27.062 73.8968 26.85 75.1343C26.7364 75.8046 27.1453 76.5316 27.3574 77.1684C27.3851 77.2509 27.4129 77.3411 27.3826 77.4236C27.322 77.586 27.0822 77.6325 26.8803 77.6453C24.1791 77.8284 21.5562 76.7559 19.2867 75.637C16.8835 74.4511 14.2303 72.9068 10.898 72.8887C10.1962 72.8836 9.51212 72.9119 8.85071 73.1285C8.68158 73.1852 8.50991 73.2548 8.39127 73.3708C8.21203 73.5487 8.19184 73.8143 8.28019 74.036C8.36855 74.2577 8.55283 74.4433 8.74974 74.6057C9.76961 75.4462 11.1732 75.7865 12.4632 76.2196C16.4669 77.5654 20.188 79.2103 23.5152 81.1052C23.8711 81.3063 24.5022 81.7806 24.0024 82.1235C23.4647 82.4922 22.4928 82.2473 21.8894 82.1467C20.8039 81.9663 19.7613 81.6801 18.7036 81.4068C17.3025 81.0459 15.6717 80.7185 14.152 81.0175C13.3518 81.1748 12.6323 81.5099 12.2612 81.9637C11.9962 82.286 11.9154 82.6675 12.0997 83.0052C12.6197 83.9514 14.9901 84.3587 16.2852 84.8177C17.9917 85.4209 19.625 86.099 21.1397 86.8621C22.4852 87.5401 23.7348 88.2878 25.0955 88.9529C29.9651 91.3377 36.7685 91.6445 42.8499 91.8765C49.4513 92.1292 56.083 91.9152 62.6642 91.5388C67.453 91.2655 72.1712 90.7267 76.8692 90.0951C78.2198 89.912 79.5628 89.6903 80.9108 89.5021C82.2765 89.3113 83.6498 89.0947 84.9499 88.6848C85.4195 88.5353 85.9092 88.3419 86.2475 88.0223C86.6085 87.6794 86.7246 87.2308 86.0758 87.0993C84.7227 86.826 83.3292 87.138 82.0064 87.3855C80.5246 87.6613 79.0528 87.9836 77.5962 88.3445C76.9323 88.5095 76.2709 88.6848 75.5843 88.7647C74.9001 88.8472 74.1857 88.8344 73.5395 88.6307C73.3224 88.5611 73.0825 88.4373 73.0699 88.2414C73.0573 88.0661 73.239 87.9217 73.4259 87.8469C76.1472 86.7461 79.0427 86.0448 81.9559 85.3977C83.9326 84.9594 85.9445 84.6913 87.9363 84.3484C89.7514 84.0365 91.6624 83.9643 93.225 82.7887C93.5179 82.567 93.8006 82.2963 93.9218 81.9353C93.9975 81.711 94.0101 81.5228 93.9773 81.363L93.9824 81.3785Z" fill="#407BFF"/>
<path opacity="0.3" d="M15.8687 70.9396C15.1265 68.7895 12.4935 64.9867 11.9381 67.2349C11.6276 68.4956 15.8687 70.9396 15.8687 70.9396Z" fill="#407BFF"/>
<path opacity="0.3" d="M82.0519 75.1675C83.4605 73.8553 85.2201 73.0741 85.4447 74.2265C85.6568 75.3171 82.0519 75.1675 82.0519 75.1675Z" fill="#407BFF"/>
<path opacity="0.3" d="M24.2574 64.7315C23.2906 64.2081 22.5383 63.3883 23.1037 63.0428C23.6389 62.7154 24.2574 64.7315 24.2574 64.7315Z" fill="#407BFF"/>
</svg>
