<svg width="41" height="41" viewBox="0 0 41 41" fill="none" xmlns="http://www.w3.org/2000/svg">
<path d="M35.7429 9.56371H33.6945C33.4668 9.56371 33.2808 9.74949 33.2808 9.97737V11.4405H30.8203C30.5927 11.4405 30.4067 11.6249 30.4067 11.8541V14.3709H27.0221V13.2365C27.0221 12.5561 26.4701 12.004 25.7885 12.004H24.9063C24.2261 12.004 23.6754 12.5547 23.674 13.2336C23.6726 12.5547 23.1203 12.004 22.4415 12.004H21.5593C20.8775 12.004 20.3254 12.5547 20.3254 13.2365C20.3254 12.5547 19.775 12.004 19.0931 12.004H18.2109C17.5308 12.004 16.9784 12.5547 16.9784 13.2365C16.9784 12.5547 16.4263 12.004 15.7461 12.004H14.8639C14.1819 12.004 13.6301 12.5547 13.6301 13.2365V14.3709H10.8726V11.8541C10.8726 11.6249 10.688 11.4405 10.459 11.4405L7.99875 11.4403V9.97714C7.99875 9.74926 7.81434 9.56348 7.58532 9.56348L5.53854 9.56371C5.30951 9.56371 5.12488 9.74949 5.12488 9.97737V21.6395C5.12488 21.8672 5.30951 22.0534 5.53854 22.0534H7.58532C7.81434 22.0534 7.99875 21.8674 7.99875 21.6395V20.1764H10.4592C10.6882 20.1764 10.8729 19.992 10.8729 19.7627V17.2444H13.6303V17.8068C13.6303 17.8143 13.6312 17.8219 13.6317 17.8294V17.8066C13.6317 18.487 14.1838 19.0391 14.864 19.0391H15.7462C16.1742 19.0391 16.5503 18.8215 16.7725 18.49C16.8704 18.3429 17.0866 18.3429 17.1848 18.49C17.4067 18.8215 17.7831 19.0391 18.2111 19.0391H19.0934C19.2331 19.0391 19.3672 19.016 19.4912 18.9727C19.4379 18.7881 19.4091 18.5922 19.4091 18.3904V17.6523C19.4091 17.4043 19.4523 17.1652 19.5315 16.9444C19.8228 16.1343 20.5981 15.5549 21.5062 15.5549H25.7886C26.1265 15.5549 26.4466 15.6353 26.7305 15.7785C26.9108 15.8695 27.0222 16.0572 27.0222 16.2592V17.6523C27.0222 17.3885 26.9401 17.1448 26.7989 16.9444C26.5754 16.6273 26.2066 16.4198 25.7886 16.4198H22.6131V16.8284C22.6131 17.184 22.3248 17.4722 21.9693 17.4722H20.2869C20.2783 17.5313 20.2734 17.5914 20.2734 17.6525V18.3906C20.2734 18.7235 20.4061 19.0248 20.6192 19.2454C20.8427 19.479 21.1582 19.6232 21.5058 19.6232H22.5767C22.5813 19.6232 22.5857 19.6245 22.5902 19.6245C22.5985 19.625 22.606 19.6261 22.614 19.6268C22.835 19.646 23.0094 19.8295 23.0094 20.0554C23.0094 20.2645 22.8611 20.4388 22.6639 20.4791C22.3722 20.5855 20.4226 21.3473 19.8671 22.8965C19.8037 23.0731 19.6374 23.183 19.4601 23.183C19.4116 23.183 19.3624 23.1747 19.3141 23.1576C19.0894 23.077 18.9725 22.8295 19.0531 22.6046C19.4141 21.5978 20.1984 20.8788 20.9207 20.4015C20.5201 20.2844 20.1676 20.0537 19.9046 19.7428C19.6555 19.8465 19.38 19.9043 19.0933 19.9043H18.2111C17.7515 19.9043 17.3245 19.7559 16.9788 19.5035C16.6329 19.7559 16.2062 19.9043 15.7465 19.9043H14.8643C14.4031 19.9043 13.9777 19.7559 13.632 19.5021C13.6334 20.194 13.8727 20.8627 14.3079 21.3977L16.003 23.476L15.507 31.4312C15.4718 31.9975 15.9213 32.4763 16.489 32.4763L24.1021 32.4759C24.6698 32.4759 25.1193 31.997 25.0841 31.4307L24.5879 23.4703L24.5881 23.4701L26.3192 21.4061C26.5901 21.0833 26.7877 20.7099 26.9031 20.3107C26.9822 20.0409 27.0227 19.7586 27.0227 19.473V17.8122C27.0227 17.8104 27.0229 17.8088 27.0229 17.807V17.2446H30.4075V19.7629C30.4075 19.9922 30.5935 20.1766 30.8212 20.1766H33.2816V21.6397C33.2816 21.8674 33.4676 22.0536 33.6953 22.0536H35.7435C35.9713 22.0536 36.156 21.8676 36.156 21.6397L36.1555 9.97755C36.1555 9.74967 35.9711 9.56389 35.7432 9.56389L35.7429 9.56371Z" fill="white"/>
</svg>
